M48
; DRILL file {KiCad 8.0.3} date 2024-06-16T11:30:52+0300
; FORMAT={-:-/ absolute / inch / decimal}
; #@! TF.CreationDate,2024-06-16T11:30:52+03:00
; #@! TF.GenerationSoftware,Kicad,Pcbnew,8.0.3
; #@! TF.FileFunction,Plated,1,2,PTH
FMAT,2
INCH
; #@! TA.AperFunction,Plated,PTH,ViaDrill
T1C0.0118
; #@! TA.AperFunction,Plated,PTH,ComponentDrill
T2C0.0300
; #@! TA.AperFunction,Plated,PTH,ComponentDrill
T3C0.0315
; #@! TA.AperFunction,Plated,PTH,ComponentDrill
T4C0.0354
; #@! TA.AperFunction,Plated,PTH,ComponentDrill
T5C0.0362
; #@! TA.AperFunction,Plated,PTH,ComponentDrill
T6C0.0394
; #@! TA.AperFunction,Plated,PTH,ComponentDrill
T7C0.0433
; #@! TA.AperFunction,Plated,PTH,ComponentDrill
T8C0.0917
%
G90
G05
T1
X5.4134Y-4.8425
X5.4528Y-4.8425
X5.4921Y-4.8425
X5.6102Y-5.1181
X5.9252Y-4.8031
X5.9252Y-4.8425
X5.9843Y-5.1378
X5.9843Y-5.1969
X6.378Y-4.9016
X6.378Y-4.9409
X6.378Y-5.0
T2
X4.5276Y-4.9606
X4.5276Y-5.2606
X4.6276Y-4.9606
X4.6276Y-5.2606
X4.7276Y-4.9606
X4.7276Y-5.2606
X4.8276Y-4.9606
X4.8276Y-5.2606
X4.9276Y-4.9606
X4.9276Y-5.2606
X5.0276Y-4.9606
X5.0276Y-5.2606
X5.1276Y-4.9606
X5.1276Y-5.2606
X5.2276Y-4.9606
X5.2276Y-5.2606
X5.3276Y-4.9606
X5.3276Y-5.2606
X5.4276Y-4.9606
X5.4276Y-5.2606
X5.5276Y-4.9606
X5.5276Y-5.2606
X5.6276Y-4.9606
X5.6276Y-5.2606
X5.7276Y-4.9606
X5.7276Y-5.2606
X5.8276Y-4.9606
X5.8276Y-5.2606
T3
X4.2028Y-4.5669
X4.2028Y-4.7244
X4.498Y-4.5669
X4.498Y-4.7244
X4.7Y-4.1535
X4.7047Y-4.4929
X4.7047Y-4.685
X5.0Y-4.1535
X5.374Y-4.0823
X5.374Y-4.3823
X5.5118Y-4.0823
X5.5118Y-4.3823
X5.6496Y-4.0823
X5.6496Y-4.3823
X5.7874Y-4.0823
X5.7874Y-4.3823
X5.9252Y-4.0823
X5.9252Y-4.3823
X6.063Y-4.0823
X6.063Y-4.3823
X6.2008Y-4.0823
X6.2008Y-4.3823
X6.3386Y-4.0823
X6.3386Y-4.3823
T4
X4.9532Y-3.7884
X5.0532Y-3.7884
X5.2485Y-3.7884
X5.3485Y-3.7884
X5.5438Y-3.7884
X5.6438Y-3.7884
X5.8391Y-3.7884
X5.9391Y-3.7884
X6.1344Y-3.7884
X6.2344Y-3.7884
X6.4296Y-3.7884
X6.5296Y-3.7884
X6.7249Y-3.7884
X6.8249Y-3.7884
X7.0202Y-3.7884
X7.1202Y-3.7884
T5
X4.629Y-3.6319
X4.629Y-3.7303
X4.7078Y-3.6319
X4.7078Y-3.7303
T6
X5.4528Y-4.6457
X5.5528Y-4.6457
X5.6528Y-4.6457
X5.7528Y-4.6457
X5.8528Y-4.6457
X5.9528Y-4.6457
X6.2992Y-4.6654
X6.2992Y-4.7654
X6.2992Y-4.8654
X6.2992Y-4.9654
X6.2992Y-5.0654
X6.2992Y-5.1654
X6.2992Y-5.2654
X6.2992Y-5.3654
X6.2992Y-5.4654
X6.4764Y-4.9
X6.4764Y-5.0
X6.4764Y-5.1
X6.5764Y-4.9
X6.5764Y-5.0
X6.5764Y-5.1
T7
X5.0098Y-4.498
X5.0098Y-4.6752
X5.2657Y-4.498
X5.2657Y-4.6752
T8
X4.5223Y-3.4441
X4.5223Y-3.9181
M30
