%TF.GenerationSoftware,KiCad,Pcbnew,8.0.3*%
%TF.CreationDate,2024-06-16T11:30:52+03:00*%
%TF.ProjectId,AtmegaPCB,41746d65-6761-4504-9342-2e6b69636164,rev?*%
%TF.SameCoordinates,Original*%
%TF.FileFunction,Legend,Bot*%
%TF.FilePolarity,Positive*%
%FSLAX46Y46*%
G04 Gerber Fmt 4.6, Leading zero omitted, Abs format (unit mm)*
G04 Created by KiCad (PCBNEW 8.0.3) date 2024-06-16 11:30:52*
%MOMM*%
%LPD*%
G01*
G04 APERTURE LIST*
%ADD10C,0.200000*%
%ADD11C,0.000000*%
%ADD12C,1.600000*%
%ADD13O,1.600000X1.600000*%
%ADD14R,1.800000X1.800000*%
%ADD15C,1.800000*%
%ADD16R,1.700000X1.700000*%
%ADD17O,1.700000X1.700000*%
%ADD18C,1.524000*%
%ADD19C,2.000000*%
%ADD20C,1.500000*%
%ADD21C,1.700000*%
%ADD22C,3.500000*%
G04 APERTURE END LIST*
D10*
G36*
X178481437Y-105150000D02*
G01*
X178308757Y-105150000D01*
X178238660Y-104935310D01*
X178048639Y-104935310D01*
X178065491Y-105150000D01*
X177898185Y-105150000D01*
X177840728Y-104184019D01*
X177990265Y-104184019D01*
X178036915Y-104788276D01*
X178190544Y-104788276D01*
X177992951Y-104184019D01*
X177990265Y-104184019D01*
X177840728Y-104184019D01*
X177826622Y-103946859D01*
X178063293Y-103946859D01*
X178481437Y-105150000D01*
G37*
G36*
X177776552Y-105150000D02*
G01*
X177524249Y-103936601D01*
X177346929Y-103936601D01*
X177410432Y-104242149D01*
X177384813Y-104198865D01*
X177349845Y-104160911D01*
X177338136Y-104151046D01*
X177293130Y-104124499D01*
X177243168Y-104112818D01*
X177227983Y-104112212D01*
X177178724Y-104118008D01*
X177133844Y-104140264D01*
X177108304Y-104171563D01*
X177092580Y-104218461D01*
X177089756Y-104271966D01*
X177095362Y-104322223D01*
X177099267Y-104342777D01*
X177267062Y-105150000D01*
X177443649Y-105150000D01*
X177279274Y-104359874D01*
X177275358Y-104309897D01*
X177282205Y-104285624D01*
X177325396Y-104260809D01*
X177329588Y-104260711D01*
X177376614Y-104274450D01*
X177379413Y-104276343D01*
X177413260Y-104313796D01*
X177417271Y-104320795D01*
X177435704Y-104367019D01*
X177440718Y-104387718D01*
X177599232Y-105150000D01*
X177776552Y-105150000D01*
G37*
G36*
X177082658Y-105150000D02*
G01*
X176869434Y-104124668D01*
X176692358Y-104124668D01*
X176715561Y-104236043D01*
X176688861Y-104192051D01*
X176654493Y-104155820D01*
X176643265Y-104146894D01*
X176598760Y-104123185D01*
X176550066Y-104113058D01*
X176529448Y-104112212D01*
X176479862Y-104118829D01*
X176444696Y-104135659D01*
X176413657Y-104175009D01*
X176402442Y-104215526D01*
X176369210Y-104177519D01*
X176328623Y-104145408D01*
X176319888Y-104140055D01*
X176272246Y-104120070D01*
X176221970Y-104112456D01*
X176210467Y-104112212D01*
X176161135Y-104117525D01*
X176116109Y-104138449D01*
X176086147Y-104179378D01*
X176073737Y-104231448D01*
X176072600Y-104283067D01*
X176078400Y-104335763D01*
X176083705Y-104364515D01*
X176247103Y-105150000D01*
X176423447Y-105150000D01*
X176259804Y-104362561D01*
X176254569Y-104313254D01*
X176261514Y-104284403D01*
X176305966Y-104260711D01*
X176353706Y-104272913D01*
X176374598Y-104289043D01*
X176402098Y-104331987D01*
X176414166Y-104372086D01*
X176575854Y-105150000D01*
X176753175Y-105150000D01*
X176589043Y-104361095D01*
X176584693Y-104311159D01*
X176589043Y-104288066D01*
X176631537Y-104260738D01*
X176633740Y-104260711D01*
X176682099Y-104273369D01*
X176707745Y-104296615D01*
X176733505Y-104341180D01*
X176745847Y-104381612D01*
X176905582Y-105150000D01*
X177082658Y-105150000D01*
G37*
G36*
X175618321Y-104112754D02*
G01*
X175669791Y-104119244D01*
X175719539Y-104134438D01*
X175732629Y-104140288D01*
X175774957Y-104165393D01*
X175811863Y-104197697D01*
X175823700Y-104210937D01*
X175853674Y-104252450D01*
X175877320Y-104296859D01*
X175891250Y-104330639D01*
X175906997Y-104379045D01*
X175918597Y-104426796D01*
X175998220Y-104808792D01*
X176006480Y-104853031D01*
X176013638Y-104903742D01*
X176017759Y-104954849D01*
X176018131Y-104966914D01*
X176015152Y-105018899D01*
X176003349Y-105066713D01*
X175981349Y-105105442D01*
X175942533Y-105137787D01*
X175925096Y-105146088D01*
X175875595Y-105158777D01*
X175823342Y-105162212D01*
X175790329Y-105161101D01*
X175739226Y-105154032D01*
X175691695Y-105139009D01*
X175678602Y-105132876D01*
X175637161Y-105106182D01*
X175602547Y-105071353D01*
X175587458Y-105050959D01*
X175562724Y-105008060D01*
X175543684Y-104962665D01*
X175528425Y-104916310D01*
X175514550Y-104865567D01*
X175503140Y-104815631D01*
X175491905Y-104760921D01*
X175667271Y-104760921D01*
X175686078Y-104851290D01*
X175694217Y-104888453D01*
X175706838Y-104936531D01*
X175711926Y-104952014D01*
X175736392Y-104994905D01*
X175742574Y-105000957D01*
X175789148Y-105015910D01*
X175813861Y-105012355D01*
X175841905Y-104970969D01*
X175842028Y-104952995D01*
X175837573Y-104903039D01*
X175828471Y-104851290D01*
X175786461Y-104649546D01*
X175467480Y-104649546D01*
X175421807Y-104430216D01*
X175415883Y-104398682D01*
X175408991Y-104348049D01*
X175407744Y-104325924D01*
X175581542Y-104325924D01*
X175585656Y-104362439D01*
X175594731Y-104412386D01*
X175622086Y-104543545D01*
X175765212Y-104543545D01*
X175738834Y-104417271D01*
X175731347Y-104383726D01*
X175717341Y-104334228D01*
X175711589Y-104318936D01*
X175684368Y-104276343D01*
X175676068Y-104269121D01*
X175628192Y-104255094D01*
X175589113Y-104272923D01*
X175587304Y-104276419D01*
X175581542Y-104325924D01*
X175407744Y-104325924D01*
X175406175Y-104298080D01*
X175409850Y-104246882D01*
X175424005Y-104197941D01*
X175444662Y-104165183D01*
X175484822Y-104134193D01*
X175495820Y-104129042D01*
X175544814Y-104115840D01*
X175597173Y-104112212D01*
X175618321Y-104112754D01*
G37*
G36*
X175229588Y-105156838D02*
G01*
X175279343Y-105153659D01*
X175324354Y-105140230D01*
X175356471Y-105102121D01*
X175360013Y-105087229D01*
X175360077Y-105036608D01*
X175353175Y-104993440D01*
X175204187Y-104277076D01*
X175286008Y-104277076D01*
X175258653Y-104145917D01*
X175176831Y-104145917D01*
X175135554Y-103946859D01*
X174958478Y-103946859D01*
X174999755Y-104145917D01*
X174902058Y-104145917D01*
X174929413Y-104277076D01*
X175027110Y-104277076D01*
X175169504Y-104961933D01*
X175169748Y-104998325D01*
X175144103Y-105014689D01*
X175093182Y-105018740D01*
X175080355Y-105018841D01*
X175109176Y-105156838D01*
X175229588Y-105156838D01*
G37*
G36*
X174722784Y-105150000D02*
G01*
X174472679Y-103946859D01*
X174077983Y-103946859D01*
X174110711Y-104104884D01*
X174325889Y-104104884D01*
X174398674Y-104454884D01*
X174194242Y-104454884D01*
X174226482Y-104609246D01*
X174430914Y-104609246D01*
X174510293Y-104991974D01*
X174287299Y-104991974D01*
X174320272Y-105150000D01*
X174722784Y-105150000D01*
G37*
G36*
X174143196Y-105150000D02*
G01*
X173965631Y-104295394D01*
X174043056Y-104295394D01*
X174015945Y-104164968D01*
X173937787Y-104164968D01*
X173926552Y-104111723D01*
X173911950Y-104061630D01*
X173887899Y-104015287D01*
X173855478Y-103978122D01*
X173811514Y-103949099D01*
X173764455Y-103934262D01*
X173721144Y-103930495D01*
X173672012Y-103933335D01*
X173650558Y-103937090D01*
X173614410Y-103946859D01*
X173638101Y-104060921D01*
X173677424Y-104058234D01*
X173724958Y-104070069D01*
X173728227Y-104072644D01*
X173751186Y-104117096D01*
X173761200Y-104164968D01*
X173659839Y-104164968D01*
X173686950Y-104295394D01*
X173788311Y-104295394D01*
X173965875Y-105150000D01*
X174143196Y-105150000D01*
G37*
G36*
X173310715Y-104112754D02*
G01*
X173362184Y-104119244D01*
X173411933Y-104134438D01*
X173425022Y-104140288D01*
X173467351Y-104165393D01*
X173504256Y-104197697D01*
X173516094Y-104210937D01*
X173546067Y-104252450D01*
X173569713Y-104296859D01*
X173583643Y-104330639D01*
X173599391Y-104379045D01*
X173610990Y-104426796D01*
X173690614Y-104808792D01*
X173698874Y-104853031D01*
X173706031Y-104903742D01*
X173710153Y-104954849D01*
X173710524Y-104966914D01*
X173707546Y-105018899D01*
X173695743Y-105066713D01*
X173673743Y-105105442D01*
X173634926Y-105137787D01*
X173617490Y-105146088D01*
X173567988Y-105158777D01*
X173515736Y-105162212D01*
X173482722Y-105161101D01*
X173431620Y-105154032D01*
X173384089Y-105139009D01*
X173370995Y-105132876D01*
X173329555Y-105106182D01*
X173294940Y-105071353D01*
X173279852Y-105050959D01*
X173255117Y-105008060D01*
X173236078Y-104962665D01*
X173220818Y-104916310D01*
X173206944Y-104865567D01*
X173195533Y-104815631D01*
X173184298Y-104760921D01*
X173359665Y-104760921D01*
X173378471Y-104851290D01*
X173386611Y-104888453D01*
X173399232Y-104936531D01*
X173404319Y-104952014D01*
X173428785Y-104994905D01*
X173434968Y-105000957D01*
X173481542Y-105015910D01*
X173506254Y-105012355D01*
X173534298Y-104970969D01*
X173534421Y-104952995D01*
X173529967Y-104903039D01*
X173520865Y-104851290D01*
X173478855Y-104649546D01*
X173159874Y-104649546D01*
X173114200Y-104430216D01*
X173108277Y-104398682D01*
X173101384Y-104348049D01*
X173100138Y-104325924D01*
X173273935Y-104325924D01*
X173278050Y-104362439D01*
X173287124Y-104412386D01*
X173314480Y-104543545D01*
X173457606Y-104543545D01*
X173431228Y-104417271D01*
X173423740Y-104383726D01*
X173409734Y-104334228D01*
X173403982Y-104318936D01*
X173376762Y-104276343D01*
X173368461Y-104269121D01*
X173320586Y-104255094D01*
X173281507Y-104272923D01*
X173279697Y-104276419D01*
X173273935Y-104325924D01*
X173100138Y-104325924D01*
X173098569Y-104298080D01*
X173102243Y-104246882D01*
X173116399Y-104197941D01*
X173137055Y-104165183D01*
X173177215Y-104134193D01*
X173188214Y-104129042D01*
X173237208Y-104115840D01*
X173289567Y-104112212D01*
X173310715Y-104112754D01*
G37*
G36*
X172920516Y-105150000D02*
G01*
X172747836Y-105150000D01*
X172677739Y-104935310D01*
X172487718Y-104935310D01*
X172504570Y-105150000D01*
X172337264Y-105150000D01*
X172279807Y-104184019D01*
X172429344Y-104184019D01*
X172475994Y-104788276D01*
X172629623Y-104788276D01*
X172432030Y-104184019D01*
X172429344Y-104184019D01*
X172279807Y-104184019D01*
X172265701Y-103946859D01*
X172502372Y-103946859D01*
X172920516Y-105150000D01*
G37*
G36*
X172215631Y-105150000D02*
G01*
X171963328Y-103936601D01*
X171786008Y-103936601D01*
X171922051Y-104590928D01*
X171654117Y-104124668D01*
X171474354Y-104124668D01*
X171772575Y-104629030D01*
X171676343Y-105150000D01*
X171856594Y-105150000D01*
X171936950Y-104662491D01*
X172038311Y-105150000D01*
X172215631Y-105150000D01*
G37*
G36*
X171627494Y-105331228D02*
G01*
X171601605Y-105206175D01*
X171543475Y-105206175D01*
X171494238Y-105201362D01*
X171492916Y-105201046D01*
X171465561Y-105178820D01*
X171455792Y-105147069D01*
X171450418Y-105103593D01*
X171407676Y-104124668D01*
X171238904Y-104124668D01*
X171283845Y-104648813D01*
X171314619Y-104925052D01*
X171299965Y-104925052D01*
X171218143Y-104648813D01*
X171050348Y-104124668D01*
X170882798Y-104124668D01*
X171278715Y-105193719D01*
X171297883Y-105240191D01*
X171315596Y-105272609D01*
X171350034Y-105309063D01*
X171363956Y-105317062D01*
X171412001Y-105329844D01*
X171439183Y-105331228D01*
X171627494Y-105331228D01*
G37*
G36*
X170542540Y-104112924D02*
G01*
X170591839Y-104118626D01*
X170641974Y-104132484D01*
X170648474Y-104135089D01*
X170693150Y-104159193D01*
X170730635Y-104191346D01*
X170737298Y-104198730D01*
X170767205Y-104240093D01*
X170789986Y-104285380D01*
X170799633Y-104310254D01*
X170815440Y-104360294D01*
X170827599Y-104410921D01*
X170833949Y-104441695D01*
X170658827Y-104441695D01*
X170649302Y-104396022D01*
X170642354Y-104365605D01*
X170627808Y-104318597D01*
X170626318Y-104314843D01*
X170598011Y-104273412D01*
X170551360Y-104258513D01*
X170510816Y-104272923D01*
X170502512Y-104318597D01*
X170506626Y-104352239D01*
X170515701Y-104401395D01*
X170534263Y-104491032D01*
X170581905Y-104507795D01*
X170631170Y-104525463D01*
X170677145Y-104542323D01*
X170700802Y-104551591D01*
X170748463Y-104573675D01*
X170791207Y-104598499D01*
X170803297Y-104606800D01*
X170841765Y-104640600D01*
X170874249Y-104681786D01*
X170895459Y-104720685D01*
X170912744Y-104766857D01*
X170925052Y-104815143D01*
X170938729Y-104880600D01*
X170946363Y-104926292D01*
X170951225Y-104981766D01*
X170950011Y-105031011D01*
X170939951Y-105083810D01*
X170938392Y-105088513D01*
X170911019Y-105130395D01*
X170864887Y-105154211D01*
X170813189Y-105160258D01*
X170790205Y-105158731D01*
X170743335Y-105144626D01*
X170725681Y-105134923D01*
X170686182Y-105103105D01*
X170674398Y-105090053D01*
X170647103Y-105048150D01*
X170668353Y-105150000D01*
X170489811Y-105150000D01*
X170374158Y-104593614D01*
X170555512Y-104593614D01*
X170629030Y-104946301D01*
X170633957Y-104957379D01*
X170663956Y-104996371D01*
X170675360Y-105005888D01*
X170722575Y-105020795D01*
X170729062Y-105020516D01*
X170766538Y-104989043D01*
X170767005Y-104987021D01*
X170767898Y-104937648D01*
X170759699Y-104886706D01*
X170735764Y-104771912D01*
X170732110Y-104756017D01*
X170715247Y-104708408D01*
X170711889Y-104702043D01*
X170681542Y-104663468D01*
X170671991Y-104655178D01*
X170630251Y-104628053D01*
X170600798Y-104613527D01*
X170555512Y-104593614D01*
X170374158Y-104593614D01*
X170336182Y-104410921D01*
X170330939Y-104383638D01*
X170324161Y-104332988D01*
X170322505Y-104280495D01*
X170327741Y-104234988D01*
X170345464Y-104187194D01*
X170367910Y-104158049D01*
X170408722Y-104131018D01*
X170416801Y-104127657D01*
X170466703Y-104115315D01*
X170515701Y-104112212D01*
X170542540Y-104112924D01*
G37*
G36*
X170351081Y-105150000D02*
G01*
X170322749Y-105013224D01*
X169949546Y-104279762D01*
X170153489Y-104279762D01*
X170121249Y-104124668D01*
X169737299Y-104124668D01*
X169764410Y-104255094D01*
X170138346Y-104998325D01*
X169928297Y-104998325D01*
X169959804Y-105150000D01*
X170351081Y-105150000D01*
G37*
G36*
X169808618Y-105150000D02*
G01*
X169595394Y-104124668D01*
X169418562Y-104124668D01*
X169631786Y-105150000D01*
X169808618Y-105150000D01*
G37*
G36*
X178411828Y-106830000D02*
G01*
X178161723Y-105626859D01*
X177982205Y-105626859D01*
X178083321Y-106113635D01*
X177923098Y-106113635D01*
X177821981Y-105626859D01*
X177642951Y-105626859D01*
X177893056Y-106830000D01*
X178072086Y-106830000D01*
X177955826Y-106270928D01*
X178116050Y-106270928D01*
X178232309Y-106830000D01*
X178411828Y-106830000D01*
G37*
G36*
X177269965Y-105792924D02*
G01*
X177319264Y-105798626D01*
X177369399Y-105812484D01*
X177375899Y-105815089D01*
X177420575Y-105839193D01*
X177458060Y-105871346D01*
X177464723Y-105878730D01*
X177494630Y-105920093D01*
X177517411Y-105965380D01*
X177527058Y-105990254D01*
X177542865Y-106040294D01*
X177555024Y-106090921D01*
X177561374Y-106121695D01*
X177386252Y-106121695D01*
X177376727Y-106076022D01*
X177369779Y-106045605D01*
X177355233Y-105998597D01*
X177353743Y-105994843D01*
X177325436Y-105953412D01*
X177278785Y-105938513D01*
X177238241Y-105952923D01*
X177229937Y-105998597D01*
X177234051Y-106032239D01*
X177243126Y-106081395D01*
X177261688Y-106171032D01*
X177309330Y-106187795D01*
X177358595Y-106205463D01*
X177404570Y-106222323D01*
X177428227Y-106231591D01*
X177475888Y-106253675D01*
X177518632Y-106278499D01*
X177530722Y-106286800D01*
X177569190Y-106320600D01*
X177601674Y-106361786D01*
X177622884Y-106400685D01*
X177640169Y-106446857D01*
X177652477Y-106495143D01*
X177666154Y-106560600D01*
X177673788Y-106606292D01*
X177678650Y-106661766D01*
X177677436Y-106711011D01*
X177667376Y-106763810D01*
X177665817Y-106768513D01*
X177638444Y-106810395D01*
X177592312Y-106834211D01*
X177540614Y-106840258D01*
X177517630Y-106838731D01*
X177470760Y-106824626D01*
X177453106Y-106814923D01*
X177413607Y-106783105D01*
X177401823Y-106770053D01*
X177374528Y-106728150D01*
X177395778Y-106830000D01*
X177217236Y-106830000D01*
X177101583Y-106273614D01*
X177282937Y-106273614D01*
X177356454Y-106626301D01*
X177361382Y-106637379D01*
X177391381Y-106676371D01*
X177402785Y-106685888D01*
X177450000Y-106700795D01*
X177456487Y-106700516D01*
X177493963Y-106669043D01*
X177494430Y-106667021D01*
X177495323Y-106617648D01*
X177487124Y-106566706D01*
X177463189Y-106451912D01*
X177459535Y-106436017D01*
X177442672Y-106388408D01*
X177439314Y-106382043D01*
X177408967Y-106343468D01*
X177399416Y-106335178D01*
X177357676Y-106308053D01*
X177328223Y-106293527D01*
X177282937Y-106273614D01*
X177101583Y-106273614D01*
X177063607Y-106090921D01*
X177058364Y-106063638D01*
X177051586Y-106012988D01*
X177049930Y-105960495D01*
X177055166Y-105914988D01*
X177072889Y-105867194D01*
X177095335Y-105838049D01*
X177136147Y-105811018D01*
X177144226Y-105807657D01*
X177194128Y-105795315D01*
X177243126Y-105792212D01*
X177269965Y-105792924D01*
G37*
G36*
X177078506Y-106830000D02*
G01*
X177050174Y-106693224D01*
X176676971Y-105959762D01*
X176880914Y-105959762D01*
X176848674Y-105804668D01*
X176464724Y-105804668D01*
X176491835Y-105935094D01*
X176865771Y-106678325D01*
X176655722Y-106678325D01*
X176687229Y-106830000D01*
X177078506Y-106830000D01*
G37*
G36*
X176536043Y-106830000D02*
G01*
X176322819Y-105804668D01*
X176145987Y-105804668D01*
X176359211Y-106830000D01*
X176536043Y-106830000D01*
G37*
G36*
X176304012Y-105710390D02*
G01*
X176271284Y-105553098D01*
X176092986Y-105553098D01*
X176125715Y-105710390D01*
X176304012Y-105710390D01*
G37*
G36*
X176172609Y-106830000D02*
G01*
X175959385Y-105804668D01*
X175780600Y-105804668D01*
X175804291Y-105918729D01*
X175776893Y-105874780D01*
X175742723Y-105839375D01*
X175724668Y-105825917D01*
X175677678Y-105802876D01*
X175628351Y-105793035D01*
X175607920Y-105792212D01*
X175610851Y-105815659D01*
X175620811Y-105865175D01*
X175621598Y-105868904D01*
X175631662Y-105917738D01*
X175632588Y-105922149D01*
X175637473Y-105945352D01*
X175687345Y-105949611D01*
X175705617Y-105952923D01*
X175754691Y-105967028D01*
X175775471Y-105975882D01*
X175815175Y-106004459D01*
X175824563Y-106016427D01*
X175993824Y-106830000D01*
X176172609Y-106830000D01*
G37*
G36*
X175265220Y-105792924D02*
G01*
X175314518Y-105798626D01*
X175364654Y-105812484D01*
X175371154Y-105815089D01*
X175415830Y-105839193D01*
X175453314Y-105871346D01*
X175459978Y-105878730D01*
X175489885Y-105920093D01*
X175512665Y-105965380D01*
X175522312Y-105990254D01*
X175538120Y-106040294D01*
X175550279Y-106090921D01*
X175556629Y-106121695D01*
X175381507Y-106121695D01*
X175371981Y-106076022D01*
X175365034Y-106045605D01*
X175350488Y-105998597D01*
X175348998Y-105994843D01*
X175320690Y-105953412D01*
X175274040Y-105938513D01*
X175233496Y-105952923D01*
X175225191Y-105998597D01*
X175229306Y-106032239D01*
X175238381Y-106081395D01*
X175256943Y-106171032D01*
X175304585Y-106187795D01*
X175353850Y-106205463D01*
X175399825Y-106222323D01*
X175423481Y-106231591D01*
X175471143Y-106253675D01*
X175513886Y-106278499D01*
X175525976Y-106286800D01*
X175564445Y-106320600D01*
X175596929Y-106361786D01*
X175618139Y-106400685D01*
X175635424Y-106446857D01*
X175647732Y-106495143D01*
X175661409Y-106560600D01*
X175669043Y-106606292D01*
X175673905Y-106661766D01*
X175672691Y-106711011D01*
X175662630Y-106763810D01*
X175661072Y-106768513D01*
X175633699Y-106810395D01*
X175587566Y-106834211D01*
X175535868Y-106840258D01*
X175512885Y-106838731D01*
X175466015Y-106824626D01*
X175448361Y-106814923D01*
X175408862Y-106783105D01*
X175397077Y-106770053D01*
X175369783Y-106728150D01*
X175391032Y-106830000D01*
X175212491Y-106830000D01*
X175096838Y-106273614D01*
X175278192Y-106273614D01*
X175351709Y-106626301D01*
X175356636Y-106637379D01*
X175386636Y-106676371D01*
X175398039Y-106685888D01*
X175445254Y-106700795D01*
X175451741Y-106700516D01*
X175489218Y-106669043D01*
X175489684Y-106667021D01*
X175490577Y-106617648D01*
X175482379Y-106566706D01*
X175458443Y-106451912D01*
X175454790Y-106436017D01*
X175437927Y-106388408D01*
X175434569Y-106382043D01*
X175404221Y-106343468D01*
X175394671Y-106335178D01*
X175352930Y-106308053D01*
X175323478Y-106293527D01*
X175278192Y-106273614D01*
X175096838Y-106273614D01*
X175058862Y-106090921D01*
X175053618Y-106063638D01*
X175046841Y-106012988D01*
X175045184Y-105960495D01*
X175050420Y-105914988D01*
X175068143Y-105867194D01*
X175090590Y-105838049D01*
X175131402Y-105811018D01*
X175139481Y-105807657D01*
X175189383Y-105795315D01*
X175238381Y-105792212D01*
X175265220Y-105792924D01*
G37*
G36*
X175034926Y-106830000D02*
G01*
X174821702Y-105804668D01*
X174644626Y-105804668D01*
X174669050Y-105922149D01*
X174642797Y-105878865D01*
X174606353Y-105840911D01*
X174594068Y-105831046D01*
X174550778Y-105805902D01*
X174500102Y-105793160D01*
X174480983Y-105792212D01*
X174432078Y-105798008D01*
X174387748Y-105820264D01*
X174362770Y-105851563D01*
X174347741Y-105898461D01*
X174345299Y-105951966D01*
X174351039Y-106002223D01*
X174354954Y-106022777D01*
X174522749Y-106830000D01*
X174700069Y-106830000D01*
X174534473Y-106033524D01*
X174532494Y-105983490D01*
X174539602Y-105963914D01*
X174581969Y-105938736D01*
X174588206Y-105938513D01*
X174636393Y-105952954D01*
X174637787Y-105953900D01*
X174671260Y-105989804D01*
X174675157Y-105996399D01*
X174693383Y-106042057D01*
X174697627Y-106059658D01*
X174857850Y-106830000D01*
X175034926Y-106830000D01*
G37*
G36*
X174068946Y-106830000D02*
G01*
X174054291Y-106758925D01*
X174042178Y-106710061D01*
X174026356Y-106662021D01*
X174013747Y-106630453D01*
X173991536Y-106582917D01*
X173967555Y-106538860D01*
X173945359Y-106502470D01*
X173917777Y-106461220D01*
X173887237Y-106418683D01*
X173857222Y-106379298D01*
X173846685Y-106365938D01*
X173689392Y-106168346D01*
X173660427Y-106128375D01*
X173658618Y-106125603D01*
X173634304Y-106081708D01*
X173631995Y-106076755D01*
X173613957Y-106030685D01*
X173609281Y-106016182D01*
X173595912Y-105967416D01*
X173589497Y-105938513D01*
X173580641Y-105889692D01*
X173575873Y-105840811D01*
X173575819Y-105836175D01*
X173585909Y-105787475D01*
X173587299Y-105785617D01*
X173618806Y-105771207D01*
X173657885Y-105783907D01*
X173688578Y-105823185D01*
X173694033Y-105834466D01*
X173711069Y-105882154D01*
X173723445Y-105930823D01*
X173727494Y-105949504D01*
X173759002Y-106101912D01*
X173930216Y-106101912D01*
X173914829Y-106028150D01*
X173902630Y-105973079D01*
X173889544Y-105921561D01*
X173875569Y-105873596D01*
X173858510Y-105823129D01*
X173851814Y-105805401D01*
X173829218Y-105756495D01*
X173802372Y-105714468D01*
X173767558Y-105675838D01*
X173752163Y-105662763D01*
X173708180Y-105636617D01*
X173661254Y-105621364D01*
X173607373Y-105613956D01*
X173581193Y-105613182D01*
X173528816Y-105618521D01*
X173483198Y-105636524D01*
X173456873Y-105658367D01*
X173429336Y-105700078D01*
X173413862Y-105747453D01*
X173409246Y-105779023D01*
X173407464Y-105832814D01*
X173411204Y-105885021D01*
X173418934Y-105934699D01*
X173421214Y-105946085D01*
X173432894Y-105993930D01*
X173449041Y-106042287D01*
X173452721Y-106051598D01*
X173472610Y-106096388D01*
X173496782Y-106141443D01*
X173498394Y-106144166D01*
X173524956Y-106186175D01*
X173553349Y-106225743D01*
X173702826Y-106422602D01*
X173732440Y-106462536D01*
X173762177Y-106503203D01*
X173791120Y-106545273D01*
X173818841Y-106589420D01*
X173843238Y-106633230D01*
X173865595Y-106679938D01*
X173868422Y-106686385D01*
X173597069Y-106686385D01*
X173626866Y-106830000D01*
X174068946Y-106830000D01*
G37*
G36*
X172949992Y-105612591D02*
G01*
X172999732Y-105616749D01*
X173049879Y-105628122D01*
X173098813Y-105648841D01*
X173141461Y-105677791D01*
X173178395Y-105714937D01*
X173207013Y-105755819D01*
X173221962Y-105783466D01*
X173241714Y-105829346D01*
X173258258Y-105880521D01*
X173270272Y-105930453D01*
X173389951Y-106505401D01*
X173396027Y-106537933D01*
X173402450Y-106586885D01*
X173404822Y-106637394D01*
X173401430Y-106687850D01*
X173394942Y-106719376D01*
X173375009Y-106765481D01*
X173340858Y-106804110D01*
X173296665Y-106828668D01*
X173244810Y-106841222D01*
X173194312Y-106844410D01*
X173163489Y-106843311D01*
X173114402Y-106836316D01*
X173066573Y-106821451D01*
X173052888Y-106815387D01*
X173008716Y-106789054D01*
X172970341Y-106754773D01*
X172953223Y-106734734D01*
X172924718Y-106692682D01*
X172902198Y-106648283D01*
X172884383Y-106602969D01*
X172869223Y-106553672D01*
X172857745Y-106505401D01*
X172738066Y-105930453D01*
X172734337Y-105911238D01*
X172726755Y-105857123D01*
X172725258Y-105823475D01*
X172907327Y-105823475D01*
X172907748Y-105874191D01*
X172915875Y-105922882D01*
X173037752Y-106508820D01*
X173048385Y-106554788D01*
X173063154Y-106601388D01*
X173067405Y-106611974D01*
X173092219Y-106655122D01*
X173125191Y-106680034D01*
X173162316Y-106686385D01*
X173197732Y-106680279D01*
X173219958Y-106655854D01*
X173221705Y-106650954D01*
X173225819Y-106602121D01*
X173221108Y-106558151D01*
X173212142Y-106508820D01*
X173090020Y-105922149D01*
X173089130Y-105917910D01*
X173076690Y-105869275D01*
X173056803Y-105821765D01*
X173052003Y-105814060D01*
X173016259Y-105780000D01*
X172971807Y-105770474D01*
X172930530Y-105780732D01*
X172907327Y-105823475D01*
X172725258Y-105823475D01*
X172724583Y-105808301D01*
X172729274Y-105755819D01*
X172735302Y-105730477D01*
X172757670Y-105683935D01*
X172792777Y-105648841D01*
X172837176Y-105626665D01*
X172888616Y-105615328D01*
X172938346Y-105612449D01*
X172949992Y-105612591D01*
G37*
G36*
X172729518Y-106830000D02*
G01*
X172714863Y-106758925D01*
X172702751Y-106710061D01*
X172686928Y-106662021D01*
X172674319Y-106630453D01*
X172652108Y-106582917D01*
X172628128Y-106538860D01*
X172605931Y-106502470D01*
X172578349Y-106461220D01*
X172547809Y-106418683D01*
X172517794Y-106379298D01*
X172507257Y-106365938D01*
X172349965Y-106168346D01*
X172320999Y-106128375D01*
X172319190Y-106125603D01*
X172294877Y-106081708D01*
X172292568Y-106076755D01*
X172274530Y-106030685D01*
X172269853Y-106016182D01*
X172256484Y-105967416D01*
X172250069Y-105938513D01*
X172241214Y-105889692D01*
X172236445Y-105840811D01*
X172236392Y-105836175D01*
X172246481Y-105787475D01*
X172247871Y-105785617D01*
X172279378Y-105771207D01*
X172318457Y-105783907D01*
X172349150Y-105823185D01*
X172354605Y-105834466D01*
X172371641Y-105882154D01*
X172384017Y-105930823D01*
X172388066Y-105949504D01*
X172419574Y-106101912D01*
X172590788Y-106101912D01*
X172575401Y-106028150D01*
X172563202Y-105973079D01*
X172550116Y-105921561D01*
X172536141Y-105873596D01*
X172519082Y-105823129D01*
X172512386Y-105805401D01*
X172489790Y-105756495D01*
X172462944Y-105714468D01*
X172428130Y-105675838D01*
X172412735Y-105662763D01*
X172368752Y-105636617D01*
X172321826Y-105621364D01*
X172267945Y-105613956D01*
X172241765Y-105613182D01*
X172189388Y-105618521D01*
X172143770Y-105636524D01*
X172117445Y-105658367D01*
X172089908Y-105700078D01*
X172074435Y-105747453D01*
X172069818Y-105779023D01*
X172068037Y-105832814D01*
X172071777Y-105885021D01*
X172079507Y-105934699D01*
X172081786Y-105946085D01*
X172093467Y-105993930D01*
X172109613Y-106042287D01*
X172113293Y-106051598D01*
X172133182Y-106096388D01*
X172157355Y-106141443D01*
X172158967Y-106144166D01*
X172185528Y-106186175D01*
X172213921Y-106225743D01*
X172363398Y-106422602D01*
X172393012Y-106462536D01*
X172422749Y-106503203D01*
X172451692Y-106545273D01*
X172479413Y-106589420D01*
X172503810Y-106633230D01*
X172526168Y-106679938D01*
X172528995Y-106686385D01*
X172257641Y-106686385D01*
X172287438Y-106830000D01*
X172729518Y-106830000D01*
G37*
G36*
X172054675Y-106483419D02*
G01*
X172082763Y-106617997D01*
X171792358Y-106617997D01*
X171836322Y-106830000D01*
X171676587Y-106830000D01*
X171632623Y-106617997D01*
X171541765Y-106617997D01*
X171510990Y-106470474D01*
X171601849Y-106470474D01*
X171478371Y-105876475D01*
X171637997Y-105876475D01*
X171761584Y-106470474D01*
X171913503Y-106470474D01*
X171637997Y-105876475D01*
X171478371Y-105876475D01*
X171426482Y-105626859D01*
X171617725Y-105626859D01*
X172054675Y-106483419D01*
G37*
D11*
%TO.C,G\u002A\u002A\u002A*%
G36*
X171799056Y-111754561D02*
G01*
X171793348Y-111760269D01*
X171787640Y-111754561D01*
X171793348Y-111748854D01*
X171799056Y-111754561D01*
G37*
G36*
X172381258Y-113284269D02*
G01*
X172375550Y-113289977D01*
X172369842Y-113284269D01*
X172375550Y-113278561D01*
X172381258Y-113284269D01*
G37*
G36*
X173077618Y-114129033D02*
G01*
X173071910Y-114134741D01*
X173066202Y-114129033D01*
X173071910Y-114123325D01*
X173077618Y-114129033D01*
G37*
G36*
X173591325Y-114448674D02*
G01*
X173585618Y-114454382D01*
X173579910Y-114448674D01*
X173585618Y-114442966D01*
X173591325Y-114448674D01*
G37*
G36*
X173659820Y-114482921D02*
G01*
X173654112Y-114488629D01*
X173648404Y-114482921D01*
X173654112Y-114477213D01*
X173659820Y-114482921D01*
G37*
G36*
X173739730Y-114471505D02*
G01*
X173734022Y-114477213D01*
X173728314Y-114471505D01*
X173734022Y-114465797D01*
X173739730Y-114471505D01*
G37*
G36*
X174744314Y-115133618D02*
G01*
X174738606Y-115139325D01*
X174732898Y-115133618D01*
X174738606Y-115127910D01*
X174744314Y-115133618D01*
G37*
G36*
X174744314Y-115167865D02*
G01*
X174738606Y-115173573D01*
X174732898Y-115167865D01*
X174738606Y-115162157D01*
X174744314Y-115167865D01*
G37*
G36*
X174995460Y-113512584D02*
G01*
X174989752Y-113518292D01*
X174984045Y-113512584D01*
X174989752Y-113506876D01*
X174995460Y-113512584D01*
G37*
G36*
X175372179Y-111492000D02*
G01*
X175366472Y-111497707D01*
X175360764Y-111492000D01*
X175366472Y-111486292D01*
X175372179Y-111492000D01*
G37*
G36*
X175452089Y-111549078D02*
G01*
X175446382Y-111554786D01*
X175440674Y-111549078D01*
X175446382Y-111543370D01*
X175452089Y-111549078D01*
G37*
G36*
X175486337Y-111446337D02*
G01*
X175480629Y-111452045D01*
X175474921Y-111446337D01*
X175480629Y-111440629D01*
X175486337Y-111446337D01*
G37*
G36*
X172106379Y-111696531D02*
G01*
X172105572Y-111708110D01*
X172100384Y-111711515D01*
X172098121Y-111707476D01*
X172099482Y-111689634D01*
X172103591Y-111684350D01*
X172106379Y-111696531D01*
G37*
G36*
X172369842Y-113312809D02*
G01*
X172369018Y-113318852D01*
X172362232Y-113320419D01*
X172360866Y-113318746D01*
X172362232Y-113305198D01*
X172365665Y-113303412D01*
X172369842Y-113312809D01*
G37*
G36*
X173511415Y-114431550D02*
G01*
X173510591Y-114437594D01*
X173503805Y-114439161D01*
X173502439Y-114437487D01*
X173503805Y-114423940D01*
X173507239Y-114422154D01*
X173511415Y-114431550D01*
G37*
G36*
X174025123Y-114214651D02*
G01*
X174024299Y-114220695D01*
X174017513Y-114222262D01*
X174016146Y-114220589D01*
X174017513Y-114207041D01*
X174020946Y-114205255D01*
X174025123Y-114214651D01*
G37*
G36*
X174800492Y-113340397D02*
G01*
X174799684Y-113351975D01*
X174794496Y-113355380D01*
X174792234Y-113351341D01*
X174793595Y-113333500D01*
X174797704Y-113328216D01*
X174800492Y-113340397D01*
G37*
G36*
X175416941Y-111628037D02*
G01*
X175416134Y-111639616D01*
X175410945Y-111643020D01*
X175408683Y-111638981D01*
X175410044Y-111621140D01*
X175414153Y-111615856D01*
X175416941Y-111628037D01*
G37*
G36*
X175463505Y-111520539D02*
G01*
X175462681Y-111526582D01*
X175455895Y-111528149D01*
X175454529Y-111526476D01*
X175455895Y-111512928D01*
X175459328Y-111511142D01*
X175463505Y-111520539D01*
G37*
G36*
X175474921Y-111486292D02*
G01*
X175474097Y-111492335D01*
X175467310Y-111493902D01*
X175465944Y-111492229D01*
X175467310Y-111478681D01*
X175470744Y-111476895D01*
X175474921Y-111486292D01*
G37*
G36*
X175438944Y-111573333D02*
G01*
X175435435Y-111588274D01*
X175430066Y-111595796D01*
X175422398Y-111598918D01*
X175425319Y-111582833D01*
X175429606Y-111574510D01*
X175437519Y-111570658D01*
X175438944Y-111573333D01*
G37*
G36*
X172764215Y-113888413D02*
G01*
X172778668Y-113905713D01*
X172779293Y-113912586D01*
X172768679Y-113915702D01*
X172763155Y-113913025D01*
X172748702Y-113895724D01*
X172748077Y-113888852D01*
X172758691Y-113885736D01*
X172764215Y-113888413D01*
G37*
G36*
X173475335Y-114440098D02*
G01*
X173491873Y-114448846D01*
X173500000Y-114460419D01*
X173495560Y-114461177D01*
X173477297Y-114457723D01*
X173464932Y-114451956D01*
X173461189Y-114441114D01*
X173462145Y-114440025D01*
X173475335Y-114440098D01*
G37*
G36*
X174542053Y-113689854D02*
G01*
X174550247Y-113700943D01*
X174548069Y-113706399D01*
X174532449Y-113712359D01*
X174524295Y-113710716D01*
X174521707Y-113700943D01*
X174524044Y-113697826D01*
X174539505Y-113689528D01*
X174542053Y-113689854D01*
G37*
G36*
X172357703Y-113371807D02*
G01*
X172357095Y-113383387D01*
X172350624Y-113411185D01*
X172345178Y-113420975D01*
X172338882Y-113419703D01*
X172338962Y-113405503D01*
X172345961Y-113380325D01*
X172346414Y-113379202D01*
X172354511Y-113364407D01*
X172357703Y-113371807D01*
G37*
G36*
X174503129Y-113741716D02*
G01*
X174499345Y-113757263D01*
X174493692Y-113762905D01*
X174472925Y-113769438D01*
X174464399Y-113769120D01*
X174460508Y-113764563D01*
X174473327Y-113750140D01*
X174475377Y-113748176D01*
X174492968Y-113738093D01*
X174503129Y-113741716D01*
G37*
G36*
X173615362Y-114058360D02*
G01*
X173625573Y-114071955D01*
X173625572Y-114072270D01*
X173622796Y-114085258D01*
X173610545Y-114087994D01*
X173582764Y-114081883D01*
X173572238Y-114078444D01*
X173558153Y-114067885D01*
X173564920Y-114058734D01*
X173591325Y-114054831D01*
X173615362Y-114058360D01*
G37*
G36*
X171841870Y-111782930D02*
G01*
X171860026Y-111805932D01*
X171862904Y-111810970D01*
X171872104Y-111831621D01*
X171871050Y-111839800D01*
X171858924Y-111835062D01*
X171837738Y-111819160D01*
X171818721Y-111799547D01*
X171810472Y-111784125D01*
X171812518Y-111775195D01*
X171824267Y-111771907D01*
X171841870Y-111782930D01*
G37*
G36*
X173321136Y-114355211D02*
G01*
X173333796Y-114359361D01*
X173352529Y-114363056D01*
X173355009Y-114363381D01*
X173363011Y-114374471D01*
X173362795Y-114377011D01*
X173353040Y-114385491D01*
X173334681Y-114381576D01*
X173315892Y-114366626D01*
X173310576Y-114359899D01*
X173307062Y-114351442D01*
X173321136Y-114355211D01*
G37*
G36*
X172281370Y-111294064D02*
G01*
X172315916Y-111304501D01*
X172352719Y-111314930D01*
X172364446Y-111318267D01*
X172372196Y-111322194D01*
X172361160Y-111324240D01*
X172329316Y-111325303D01*
X172309139Y-111324895D01*
X172276717Y-111320510D01*
X172257968Y-111312773D01*
X172255752Y-111310507D01*
X172244835Y-111293904D01*
X172253570Y-111288266D01*
X172281370Y-111294064D01*
G37*
G36*
X173571772Y-114475925D02*
G01*
X173580340Y-114481987D01*
X173605024Y-114488629D01*
X173616120Y-114490448D01*
X173625573Y-114500045D01*
X173625128Y-114502445D01*
X173612477Y-114509940D01*
X173589102Y-114510897D01*
X173564085Y-114505855D01*
X173546506Y-114495353D01*
X173543201Y-114490550D01*
X173542260Y-114474741D01*
X173554364Y-114467881D01*
X173571772Y-114475925D01*
G37*
G36*
X172563910Y-111346796D02*
G01*
X172591472Y-111348356D01*
X172634088Y-111351343D01*
X172664384Y-111354235D01*
X172677116Y-111356577D01*
X172674657Y-111358514D01*
X172655833Y-111359904D01*
X172624304Y-111359849D01*
X172585998Y-111358568D01*
X172546844Y-111356283D01*
X172512771Y-111353216D01*
X172489707Y-111349588D01*
X172484449Y-111347307D01*
X172494390Y-111345427D01*
X172521896Y-111345219D01*
X172563910Y-111346796D01*
G37*
G36*
X174196537Y-111487085D02*
G01*
X174198396Y-111512189D01*
X174199683Y-111536022D01*
X174212666Y-111543370D01*
X174228122Y-111549607D01*
X174227601Y-111565302D01*
X174210629Y-111584534D01*
X174194372Y-111594433D01*
X174178558Y-111593438D01*
X174169109Y-111573572D01*
X174164336Y-111532953D01*
X174163389Y-111513588D01*
X174164065Y-111487860D01*
X174169574Y-111477340D01*
X174181460Y-111476983D01*
X174196537Y-111487085D01*
G37*
G36*
X173150762Y-114206284D02*
G01*
X173170311Y-114222651D01*
X173200750Y-114252459D01*
X173244336Y-114297415D01*
X173259787Y-114314190D01*
X173274899Y-114332933D01*
X173277504Y-114340224D01*
X173263339Y-114334791D01*
X173237695Y-114317877D01*
X173208673Y-114294764D01*
X173183046Y-114270906D01*
X173167586Y-114251752D01*
X173156172Y-114234968D01*
X173144183Y-114226067D01*
X173141961Y-114225749D01*
X173134696Y-114214651D01*
X173135302Y-114207064D01*
X173139844Y-114201657D01*
X173150762Y-114206284D01*
G37*
G36*
X172532546Y-113572010D02*
G01*
X172547674Y-113605795D01*
X172554410Y-113622436D01*
X172574462Y-113663580D01*
X172594651Y-113696313D01*
X172599115Y-113702452D01*
X172614694Y-113726884D01*
X172620988Y-113742084D01*
X172625988Y-113751711D01*
X172643820Y-113766788D01*
X172658010Y-113778118D01*
X172666651Y-113792366D01*
X172665690Y-113799916D01*
X172656603Y-113801835D01*
X172637906Y-113783114D01*
X172609573Y-113743730D01*
X172590122Y-113715174D01*
X172572049Y-113689976D01*
X172562304Y-113678112D01*
X172558544Y-113673590D01*
X172545777Y-113653093D01*
X172529371Y-113623144D01*
X172524282Y-113612992D01*
X172512260Y-113580025D01*
X172515393Y-113562243D01*
X172520468Y-113560136D01*
X172532546Y-113572010D01*
G37*
G36*
X173921434Y-112529791D02*
G01*
X173940121Y-112536947D01*
X173956642Y-112549291D01*
X173975204Y-112567290D01*
X174017371Y-112609458D01*
X173968408Y-112652908D01*
X173935310Y-112679170D01*
X173905776Y-112692986D01*
X173872397Y-112697014D01*
X173849196Y-112698425D01*
X173805466Y-112703008D01*
X173751494Y-112709963D01*
X173694067Y-112718473D01*
X173645120Y-112726167D01*
X173598823Y-112733311D01*
X173564887Y-112738397D01*
X173548405Y-112740650D01*
X173533670Y-112735320D01*
X173514158Y-112717791D01*
X173498448Y-112699265D01*
X173482035Y-112681294D01*
X173476920Y-112673739D01*
X173474213Y-112648406D01*
X173483439Y-112622736D01*
X173501616Y-112607918D01*
X173513337Y-112602458D01*
X173522831Y-112588081D01*
X173522897Y-112586489D01*
X173525124Y-112581140D01*
X173532659Y-112576438D01*
X173548393Y-112571803D01*
X173575217Y-112566657D01*
X173616023Y-112560421D01*
X173673702Y-112552515D01*
X173751146Y-112542362D01*
X173810335Y-112534771D01*
X173860747Y-112529171D01*
X173896378Y-112527355D01*
X173921434Y-112529791D01*
G37*
G36*
X174449317Y-113782231D02*
G01*
X174458921Y-113788110D01*
X174452769Y-113798766D01*
X174432260Y-113822911D01*
X174400065Y-113857141D01*
X174358995Y-113898673D01*
X174311858Y-113944725D01*
X174261462Y-113992513D01*
X174210617Y-114039255D01*
X174162131Y-114082166D01*
X174150307Y-114092197D01*
X174116854Y-114118116D01*
X174093482Y-114132231D01*
X174083362Y-114132515D01*
X174082648Y-114126922D01*
X174092382Y-114114224D01*
X174099970Y-114108516D01*
X174093111Y-114094176D01*
X174085912Y-114079339D01*
X174092530Y-114061988D01*
X174115901Y-114054831D01*
X174127805Y-114052295D01*
X174143409Y-114037707D01*
X174148698Y-114029668D01*
X174168683Y-114020584D01*
X174179334Y-114017783D01*
X174180501Y-114002641D01*
X174179706Y-113999146D01*
X174184964Y-113976126D01*
X174202111Y-113947339D01*
X174208260Y-113939039D01*
X174224283Y-113914534D01*
X174230804Y-113899641D01*
X174231026Y-113898252D01*
X174240822Y-113882581D01*
X174260594Y-113861216D01*
X174265018Y-113857032D01*
X174283273Y-113841835D01*
X174294348Y-113841419D01*
X174305941Y-113854674D01*
X174317770Y-113866732D01*
X174329149Y-113868768D01*
X174330599Y-113860787D01*
X174321439Y-113843046D01*
X174314327Y-113828653D01*
X174319631Y-113814770D01*
X174336008Y-113810992D01*
X174356818Y-113821386D01*
X174375529Y-113835195D01*
X174389712Y-113832764D01*
X174401842Y-113809393D01*
X174413081Y-113791290D01*
X174435807Y-113780854D01*
X174449317Y-113782231D01*
G37*
G36*
X173969979Y-111595391D02*
G01*
X173997716Y-111606767D01*
X174036209Y-111626755D01*
X174070685Y-111648675D01*
X174095507Y-111668846D01*
X174105033Y-111683584D01*
X174102724Y-111692576D01*
X174088975Y-111718700D01*
X174066322Y-111753101D01*
X174038789Y-111790186D01*
X174010403Y-111824365D01*
X173985190Y-111850045D01*
X173972069Y-111860902D01*
X173937624Y-111880356D01*
X173899676Y-111885842D01*
X173880787Y-111886614D01*
X173858876Y-111892830D01*
X173838896Y-111909138D01*
X173813663Y-111940067D01*
X173786467Y-111972148D01*
X173760130Y-111991997D01*
X173730376Y-112001153D01*
X173715139Y-112002879D01*
X173675531Y-112005035D01*
X173624680Y-112006070D01*
X173569846Y-112005777D01*
X173451334Y-112003539D01*
X173411407Y-111955472D01*
X173396988Y-111939822D01*
X173359368Y-111907496D01*
X173322147Y-111884217D01*
X173307828Y-111877078D01*
X173246042Y-111833389D01*
X173203482Y-111777937D01*
X173196428Y-111762832D01*
X173195796Y-111747650D01*
X173206571Y-111730176D01*
X173231283Y-111703648D01*
X173239319Y-111695591D01*
X173284354Y-111658507D01*
X173327556Y-111639885D01*
X173372961Y-111639557D01*
X173424602Y-111657357D01*
X173486513Y-111693118D01*
X173558454Y-111740125D01*
X173583452Y-111717361D01*
X173592951Y-111710425D01*
X173632558Y-111694595D01*
X173691898Y-111682604D01*
X173712477Y-111679311D01*
X173771128Y-111664282D01*
X173811763Y-111642929D01*
X173831157Y-111628487D01*
X173872456Y-111601509D01*
X173905509Y-111588157D01*
X173936091Y-111586696D01*
X173969979Y-111595391D01*
G37*
G36*
X174460625Y-112013720D02*
G01*
X174470821Y-112018712D01*
X174497392Y-112046228D01*
X174518999Y-112089527D01*
X174533519Y-112143475D01*
X174538831Y-112202938D01*
X174538831Y-112270363D01*
X174491834Y-112284444D01*
X174479824Y-112287947D01*
X174453779Y-112292777D01*
X174435461Y-112287284D01*
X174414497Y-112269456D01*
X174384156Y-112240388D01*
X174241741Y-112251859D01*
X174212650Y-112254397D01*
X174135634Y-112262493D01*
X174051957Y-112272839D01*
X173967501Y-112284590D01*
X173888146Y-112296902D01*
X173819775Y-112308931D01*
X173768269Y-112319831D01*
X173742148Y-112324650D01*
X173697493Y-112330705D01*
X173642456Y-112336790D01*
X173583532Y-112342123D01*
X173510687Y-112349319D01*
X173432753Y-112359923D01*
X173360412Y-112372601D01*
X173297098Y-112386588D01*
X173246245Y-112401116D01*
X173211287Y-112415418D01*
X173195658Y-112428729D01*
X173193955Y-112431847D01*
X173174286Y-112441936D01*
X173134149Y-112445213D01*
X173115903Y-112445872D01*
X173086389Y-112450268D01*
X173071415Y-112457429D01*
X173062036Y-112466684D01*
X173039348Y-112479537D01*
X173020273Y-112485793D01*
X172976526Y-112490816D01*
X172938197Y-112483778D01*
X172912737Y-112465504D01*
X172902187Y-112441512D01*
X172896295Y-112398783D01*
X172898503Y-112349850D01*
X172907830Y-112301875D01*
X172923297Y-112262022D01*
X172943926Y-112237451D01*
X172977810Y-112227973D01*
X173017788Y-112238332D01*
X173059710Y-112268269D01*
X173075409Y-112282387D01*
X173099165Y-112300954D01*
X173113324Y-112308224D01*
X173117386Y-112307463D01*
X173139588Y-112300202D01*
X173174995Y-112286901D01*
X173218106Y-112269589D01*
X173316102Y-112230940D01*
X173401125Y-112202002D01*
X173473288Y-112183451D01*
X173536003Y-112174601D01*
X173592682Y-112174765D01*
X173646737Y-112183254D01*
X173665875Y-112186709D01*
X173693749Y-112188019D01*
X173728759Y-112185091D01*
X173775899Y-112177443D01*
X173840159Y-112164593D01*
X173867971Y-112158836D01*
X173924844Y-112148074D01*
X173971752Y-112141675D01*
X174016874Y-112139028D01*
X174068390Y-112139520D01*
X174134477Y-112142537D01*
X174164843Y-112144062D01*
X174230459Y-112146027D01*
X174277168Y-112144370D01*
X174307714Y-112138290D01*
X174324844Y-112126985D01*
X174331301Y-112109654D01*
X174329832Y-112085495D01*
X174329343Y-112053723D01*
X174337079Y-112030731D01*
X174351129Y-112020145D01*
X174384281Y-112009960D01*
X174423899Y-112007389D01*
X174460625Y-112013720D01*
G37*
G36*
X173973158Y-114562985D02*
G01*
X173998814Y-114573029D01*
X174078578Y-114610877D01*
X174166122Y-114660379D01*
X174256618Y-114718176D01*
X174345237Y-114780911D01*
X174427149Y-114845226D01*
X174497526Y-114907763D01*
X174551540Y-114965165D01*
X174562062Y-114979460D01*
X174559034Y-114986608D01*
X174536479Y-114988487D01*
X174510111Y-114992245D01*
X174488801Y-115001224D01*
X174487123Y-115002403D01*
X174464948Y-115007776D01*
X174434019Y-115006423D01*
X174406071Y-115004904D01*
X174366246Y-115016930D01*
X174366070Y-115017040D01*
X174335154Y-115031101D01*
X174299071Y-115040998D01*
X174281375Y-115046184D01*
X174241523Y-115069483D01*
X174192561Y-115111389D01*
X174183575Y-115120118D01*
X174129540Y-115183395D01*
X174094518Y-115249004D01*
X174075449Y-115322462D01*
X174073076Y-115336355D01*
X174065902Y-115367159D01*
X174058965Y-115384764D01*
X174057457Y-115390310D01*
X174055820Y-115415810D01*
X174055626Y-115457586D01*
X174056862Y-115511427D01*
X174059517Y-115573123D01*
X174063888Y-115643313D01*
X174070667Y-115712775D01*
X174080566Y-115775829D01*
X174094939Y-115839372D01*
X174115143Y-115910299D01*
X174142531Y-115995505D01*
X174148012Y-116012234D01*
X174161621Y-116054582D01*
X174178164Y-116106736D01*
X174195205Y-116161033D01*
X174204762Y-116191640D01*
X174221666Y-116245651D01*
X174236588Y-116293177D01*
X174247124Y-116326561D01*
X174251836Y-116341590D01*
X174274328Y-116417140D01*
X174299073Y-116505258D01*
X174324255Y-116599072D01*
X174348060Y-116691711D01*
X174368674Y-116776303D01*
X174384282Y-116845977D01*
X174395708Y-116900468D01*
X174406177Y-116949867D01*
X174414320Y-116987731D01*
X174418983Y-117008651D01*
X174425109Y-117034337D01*
X173964348Y-117034337D01*
X173503587Y-117034337D01*
X173495606Y-116728966D01*
X173494363Y-116683742D01*
X173491169Y-116580680D01*
X173487409Y-116472828D01*
X173483345Y-116367090D01*
X173479234Y-116270370D01*
X173475338Y-116189573D01*
X173471852Y-116119127D01*
X173467864Y-116028664D01*
X173464355Y-115938707D01*
X173461612Y-115856683D01*
X173459923Y-115790022D01*
X173459437Y-115768919D01*
X173457090Y-115708803D01*
X173453689Y-115656469D01*
X173449611Y-115616933D01*
X173445236Y-115595212D01*
X173440213Y-115579093D01*
X173432091Y-115542265D01*
X173425486Y-115500380D01*
X173421838Y-115475227D01*
X173412749Y-115426880D01*
X173402872Y-115386966D01*
X173395817Y-115366767D01*
X173382902Y-115347621D01*
X173363532Y-115342112D01*
X173333306Y-115349564D01*
X173287823Y-115369302D01*
X173273492Y-115375878D01*
X173244295Y-115386404D01*
X173220995Y-115387181D01*
X173193383Y-115379290D01*
X173186602Y-115376746D01*
X173159202Y-115363884D01*
X173144197Y-115352607D01*
X173143579Y-115351155D01*
X173147849Y-115332674D01*
X173164859Y-115300216D01*
X173192585Y-115256515D01*
X173229002Y-115204307D01*
X173272088Y-115146328D01*
X173319817Y-115085313D01*
X173370167Y-115023997D01*
X173421113Y-114965116D01*
X173470631Y-114911406D01*
X173510954Y-114869391D01*
X173569720Y-114808562D01*
X173615957Y-114761562D01*
X173651658Y-114726631D01*
X173678811Y-114702003D01*
X173699408Y-114685918D01*
X173715439Y-114676611D01*
X173728895Y-114672319D01*
X173741767Y-114671280D01*
X173781543Y-114667616D01*
X173846583Y-114647414D01*
X173902001Y-114612979D01*
X173939505Y-114580883D01*
X173888452Y-114580419D01*
X173837398Y-114579955D01*
X173861756Y-114555597D01*
X173886114Y-114531238D01*
X173973158Y-114562985D01*
G37*
G36*
X175010123Y-113539147D02*
G01*
X175025732Y-113558554D01*
X175048981Y-113589206D01*
X175081861Y-113622054D01*
X175126342Y-113655280D01*
X175149226Y-113671369D01*
X175188310Y-113699947D01*
X175227382Y-113729483D01*
X175257043Y-113751995D01*
X175286829Y-113773802D01*
X175305570Y-113786561D01*
X175307380Y-113787691D01*
X175327580Y-113801848D01*
X175358785Y-113825044D01*
X175395039Y-113852864D01*
X175400347Y-113856975D01*
X175437327Y-113884441D01*
X175469420Y-113906447D01*
X175490189Y-113918549D01*
X175503349Y-113925574D01*
X175533032Y-113944726D01*
X175566247Y-113968824D01*
X175578742Y-113978157D01*
X175641876Y-114020272D01*
X175720437Y-114066696D01*
X175809472Y-114114916D01*
X175904027Y-114162423D01*
X175999149Y-114206704D01*
X176089885Y-114245249D01*
X176171281Y-114275547D01*
X176220195Y-114292638D01*
X176301449Y-114324077D01*
X176384005Y-114360334D01*
X176473742Y-114404054D01*
X176576539Y-114457882D01*
X176609522Y-114474913D01*
X176707199Y-114519717D01*
X176820411Y-114564985D01*
X176944079Y-114608762D01*
X177073123Y-114649092D01*
X177094988Y-114655608D01*
X177174945Y-114681985D01*
X177256872Y-114713428D01*
X177346570Y-114752274D01*
X177449842Y-114800860D01*
X177453469Y-114802625D01*
X177495937Y-114824196D01*
X177543202Y-114849480D01*
X177590247Y-114875638D01*
X177632056Y-114899835D01*
X177663612Y-114919230D01*
X177679898Y-114930988D01*
X177688259Y-114938056D01*
X177704033Y-114945258D01*
X177710817Y-114947724D01*
X177732201Y-114960484D01*
X177760349Y-114979896D01*
X177788427Y-115001155D01*
X177809602Y-115019460D01*
X177822222Y-115032941D01*
X177852644Y-115071659D01*
X177884402Y-115118708D01*
X177914435Y-115168809D01*
X177939679Y-115216687D01*
X177957072Y-115257066D01*
X177963550Y-115284668D01*
X177965496Y-115296334D01*
X177973888Y-115327141D01*
X177987383Y-115369905D01*
X178004316Y-115419128D01*
X178016825Y-115454330D01*
X178032907Y-115500248D01*
X178045162Y-115536028D01*
X178051627Y-115556000D01*
X178056601Y-115570211D01*
X178067102Y-115590406D01*
X178074521Y-115605846D01*
X178087042Y-115638456D01*
X178102833Y-115683041D01*
X178120207Y-115734585D01*
X178137471Y-115788070D01*
X178152937Y-115838479D01*
X178164915Y-115880796D01*
X178171076Y-115900626D01*
X178188452Y-115946055D01*
X178211577Y-115999131D01*
X178237150Y-116052032D01*
X178292943Y-116161033D01*
X178298249Y-116305943D01*
X178298440Y-116311106D01*
X178301243Y-116372274D01*
X178304801Y-116415577D01*
X178309875Y-116445650D01*
X178317227Y-116467129D01*
X178327620Y-116484649D01*
X178329793Y-116487783D01*
X178345324Y-116516105D01*
X178351685Y-116538764D01*
X178352115Y-116544428D01*
X178361152Y-116575452D01*
X178378538Y-116613462D01*
X178399800Y-116649598D01*
X178420467Y-116675002D01*
X178435026Y-116692965D01*
X178443011Y-116715519D01*
X178443961Y-116723618D01*
X178451695Y-116751859D01*
X178464668Y-116786159D01*
X178467126Y-116792385D01*
X178478300Y-116831872D01*
X178488071Y-116882713D01*
X178494558Y-116935510D01*
X178502789Y-117034337D01*
X176686339Y-117034337D01*
X174869887Y-117034337D01*
X174870188Y-117008651D01*
X174870568Y-116994121D01*
X174871693Y-116958938D01*
X174873446Y-116907201D01*
X174875711Y-116842259D01*
X174878371Y-116767461D01*
X174881312Y-116686157D01*
X174885111Y-116581873D01*
X174892037Y-116390893D01*
X174898152Y-116221008D01*
X174903490Y-116071073D01*
X174908087Y-115939943D01*
X174911980Y-115826474D01*
X174915204Y-115729520D01*
X174917794Y-115647937D01*
X174919787Y-115580579D01*
X174921219Y-115526302D01*
X174922125Y-115483961D01*
X174922541Y-115452412D01*
X174922503Y-115430508D01*
X174922047Y-115417106D01*
X174921209Y-115411061D01*
X174913748Y-115381227D01*
X174910785Y-115324416D01*
X174917886Y-115264109D01*
X174934392Y-115210335D01*
X174945827Y-115184026D01*
X174956923Y-115156778D01*
X174961213Y-115143690D01*
X174962128Y-115140293D01*
X174969985Y-115119982D01*
X174984149Y-115086234D01*
X175002508Y-115044141D01*
X175006336Y-115035383D01*
X175030660Y-114975587D01*
X175055481Y-114908913D01*
X175075976Y-114848224D01*
X175094034Y-114788991D01*
X175129451Y-114658371D01*
X175154448Y-114539223D01*
X175169900Y-114425793D01*
X175176683Y-114312325D01*
X175175672Y-114193065D01*
X175174980Y-114175193D01*
X175171789Y-114115416D01*
X175166863Y-114068730D01*
X175158776Y-114027339D01*
X175146102Y-113983447D01*
X175127415Y-113929258D01*
X175115820Y-113896663D01*
X175089281Y-113820591D01*
X175064402Y-113747370D01*
X175042184Y-113680109D01*
X175023626Y-113621919D01*
X175009729Y-113575907D01*
X175001493Y-113545185D01*
X174999918Y-113532861D01*
X175000350Y-113532585D01*
X175010123Y-113539147D01*
G37*
G36*
X172335001Y-113455505D02*
G01*
X172331711Y-113482726D01*
X172319305Y-113529071D01*
X172299760Y-113584135D01*
X172275297Y-113641777D01*
X172248135Y-113695856D01*
X172204314Y-113775146D01*
X172204995Y-113963505D01*
X172205130Y-113982961D01*
X172209090Y-114098467D01*
X172219165Y-114207480D01*
X172236382Y-114316726D01*
X172261765Y-114432933D01*
X172296341Y-114562831D01*
X172323199Y-114672434D01*
X172346833Y-114836809D01*
X172351695Y-114891696D01*
X172361220Y-114983158D01*
X172372610Y-115071077D01*
X172387026Y-115164034D01*
X172405633Y-115270606D01*
X172410633Y-115298298D01*
X172424035Y-115373397D01*
X172437932Y-115452249D01*
X172450011Y-115521752D01*
X172455741Y-115554800D01*
X172467747Y-115622815D01*
X172479759Y-115689538D01*
X172489875Y-115744359D01*
X172490510Y-115747733D01*
X172501796Y-115807702D01*
X172513873Y-115871907D01*
X172524232Y-115927011D01*
X172531009Y-115962154D01*
X172542668Y-116020628D01*
X172556011Y-116086007D01*
X172569283Y-116149618D01*
X172576064Y-116181869D01*
X172595487Y-116276256D01*
X172613774Y-116367926D01*
X172630179Y-116452961D01*
X172643954Y-116527444D01*
X172654354Y-116587455D01*
X172660632Y-116629078D01*
X172661181Y-116633172D01*
X172666463Y-116666911D01*
X172674955Y-116716494D01*
X172685644Y-116776394D01*
X172697518Y-116841087D01*
X172709566Y-116905045D01*
X172720775Y-116962742D01*
X172730133Y-117008651D01*
X172735581Y-117034337D01*
X170875550Y-117034337D01*
X170850093Y-117034336D01*
X170598226Y-117034291D01*
X170368321Y-117034166D01*
X170159582Y-117033956D01*
X169971217Y-117033654D01*
X169802432Y-117033255D01*
X169652432Y-117032753D01*
X169520424Y-117032142D01*
X169405615Y-117031417D01*
X169307209Y-117030572D01*
X169224415Y-117029601D01*
X169156436Y-117028499D01*
X169102481Y-117027259D01*
X169061754Y-117025875D01*
X169033463Y-117024343D01*
X169016813Y-117022656D01*
X169011011Y-117020809D01*
X169010433Y-117018817D01*
X169009531Y-117008863D01*
X169011175Y-116992192D01*
X169016028Y-116964928D01*
X169024756Y-116923190D01*
X169038022Y-116863101D01*
X169043708Y-116832770D01*
X169050752Y-116783823D01*
X169056074Y-116734305D01*
X169056082Y-116734211D01*
X169060729Y-116694429D01*
X169066585Y-116664489D01*
X169072383Y-116650867D01*
X169075406Y-116646395D01*
X169080410Y-116624208D01*
X169082609Y-116591303D01*
X169082851Y-116581529D01*
X169086863Y-116532441D01*
X169094093Y-116486382D01*
X169095816Y-116478318D01*
X169106083Y-116429972D01*
X169115849Y-116383640D01*
X169117646Y-116375174D01*
X169128386Y-116326991D01*
X169139294Y-116280898D01*
X169147737Y-116243759D01*
X169157995Y-116194343D01*
X169167717Y-116143910D01*
X169172232Y-116121690D01*
X169185112Y-116067303D01*
X169202146Y-116002059D01*
X169221469Y-115932577D01*
X169241217Y-115865476D01*
X169259522Y-115807374D01*
X169274522Y-115764892D01*
X169303074Y-115708274D01*
X169343764Y-115656459D01*
X169399063Y-115607510D01*
X169471587Y-115559113D01*
X169563958Y-115508951D01*
X169571269Y-115505252D01*
X169674939Y-115447836D01*
X169782623Y-115380009D01*
X169884156Y-115308147D01*
X169927015Y-115277998D01*
X169983242Y-115242315D01*
X170035325Y-115212728D01*
X170079137Y-115188630D01*
X170161542Y-115138524D01*
X170257901Y-115075024D01*
X170366382Y-114999311D01*
X170376582Y-114992201D01*
X170423671Y-114961940D01*
X170478749Y-114929385D01*
X170531910Y-114900452D01*
X170553455Y-114889263D01*
X170597962Y-114865491D01*
X170634751Y-114844995D01*
X170657483Y-114831265D01*
X170681287Y-114816264D01*
X170703146Y-114804504D01*
X170706275Y-114802979D01*
X170727786Y-114790691D01*
X170761014Y-114770395D01*
X170800179Y-114745601D01*
X170800382Y-114745470D01*
X170850526Y-114713723D01*
X170905176Y-114679912D01*
X170952538Y-114651336D01*
X170953490Y-114650772D01*
X170993159Y-114627036D01*
X171028013Y-114605717D01*
X171050604Y-114591370D01*
X171058412Y-114586156D01*
X171088089Y-114566361D01*
X171121461Y-114544128D01*
X171122742Y-114543280D01*
X171156741Y-114522556D01*
X171201508Y-114497453D01*
X171247709Y-114473213D01*
X171250438Y-114471835D01*
X171296309Y-114447629D01*
X171339722Y-114423082D01*
X171371617Y-114403306D01*
X171388388Y-114389765D01*
X171419162Y-114362299D01*
X171460218Y-114324285D01*
X171508537Y-114278636D01*
X171561100Y-114228263D01*
X171614889Y-114176078D01*
X171666885Y-114124994D01*
X171714070Y-114077922D01*
X171753425Y-114037775D01*
X171781932Y-114007465D01*
X171795924Y-113992221D01*
X171832153Y-113953904D01*
X171877326Y-113907184D01*
X171928953Y-113854536D01*
X171984547Y-113798432D01*
X172041617Y-113741348D01*
X172097673Y-113685756D01*
X172150228Y-113634132D01*
X172196791Y-113588949D01*
X172234873Y-113552681D01*
X172261984Y-113527803D01*
X172275637Y-113516788D01*
X172299937Y-113496493D01*
X172319771Y-113466921D01*
X172325883Y-113453707D01*
X172332840Y-113444624D01*
X172335001Y-113455505D01*
G37*
G36*
X175719017Y-110435402D02*
G01*
X175716640Y-110489321D01*
X175714334Y-110561618D01*
X175713928Y-110574898D01*
X175711375Y-110646253D01*
X175708467Y-110699496D01*
X175704700Y-110738697D01*
X175699568Y-110767929D01*
X175692567Y-110791260D01*
X175683192Y-110812764D01*
X175675472Y-110829765D01*
X175662899Y-110864444D01*
X175657823Y-110889656D01*
X175656105Y-110912288D01*
X175644374Y-110968556D01*
X175634581Y-110998985D01*
X175623143Y-111034526D01*
X175594291Y-111103865D01*
X175574673Y-111150520D01*
X175553355Y-111210194D01*
X175537748Y-111263685D01*
X175535709Y-111271993D01*
X175523889Y-111317080D01*
X175512177Y-111357499D01*
X175501760Y-111389779D01*
X175493823Y-111410450D01*
X175489551Y-111416041D01*
X175490130Y-111403083D01*
X175490542Y-111399390D01*
X175488557Y-111365464D01*
X175479632Y-111328881D01*
X175474927Y-111310090D01*
X175468983Y-111268246D01*
X175464518Y-111214489D01*
X175462179Y-111155236D01*
X175462110Y-111151469D01*
X175460838Y-111105280D01*
X175459142Y-111073396D01*
X175457236Y-111058659D01*
X175455332Y-111063910D01*
X175454930Y-111067079D01*
X175447067Y-111096974D01*
X175435337Y-111115800D01*
X175428058Y-111126139D01*
X175417118Y-111154532D01*
X175408017Y-111191816D01*
X175406331Y-111200580D01*
X175385582Y-111274048D01*
X175356853Y-111328271D01*
X175320809Y-111361951D01*
X175288087Y-111378519D01*
X175263322Y-111382486D01*
X175250355Y-111369222D01*
X175246606Y-111337887D01*
X175245621Y-111318423D01*
X175239581Y-111296592D01*
X175229786Y-111293904D01*
X175218269Y-111312202D01*
X175216801Y-111316624D01*
X175210550Y-111342655D01*
X175202678Y-111382407D01*
X175194536Y-111429213D01*
X175193914Y-111433037D01*
X175184215Y-111492382D01*
X175173901Y-111555117D01*
X175165102Y-111608278D01*
X175160471Y-111636756D01*
X175156673Y-111669241D01*
X175158391Y-111690939D01*
X175166653Y-111709106D01*
X175182487Y-111730997D01*
X175203018Y-111754686D01*
X175225988Y-111768342D01*
X175257064Y-111771685D01*
X175297042Y-111764875D01*
X175344308Y-111736615D01*
X175386097Y-111687080D01*
X175391431Y-111679084D01*
X175400470Y-111668127D01*
X175399712Y-111674651D01*
X175398149Y-111680436D01*
X175394069Y-111708018D01*
X175389666Y-111751707D01*
X175385375Y-111806832D01*
X175381632Y-111868719D01*
X175379697Y-111905794D01*
X175374436Y-112004451D01*
X175369708Y-112084335D01*
X175364997Y-112148473D01*
X175359784Y-112199894D01*
X175353552Y-112241627D01*
X175345785Y-112276701D01*
X175335965Y-112308143D01*
X175323574Y-112338982D01*
X175308095Y-112372247D01*
X175289011Y-112410966D01*
X175266911Y-112453871D01*
X175213724Y-112543092D01*
X175161299Y-112610741D01*
X175160339Y-112611794D01*
X175124475Y-112654715D01*
X175090274Y-112701434D01*
X175065019Y-112742022D01*
X175056786Y-112756886D01*
X175016225Y-112815675D01*
X174967403Y-112861107D01*
X174903043Y-112900296D01*
X174869061Y-112918883D01*
X174849633Y-112934663D01*
X174840278Y-112953725D01*
X174835640Y-112982612D01*
X174834729Y-112989928D01*
X174829443Y-113013356D01*
X174823631Y-113016747D01*
X174818270Y-113002376D01*
X174814337Y-112972518D01*
X174812809Y-112929448D01*
X174811024Y-112894662D01*
X174804351Y-112871943D01*
X174793147Y-112870815D01*
X174777853Y-112891750D01*
X174774953Y-112896586D01*
X174754999Y-112921599D01*
X174728526Y-112947864D01*
X174722927Y-112952977D01*
X174695292Y-112983151D01*
X174675411Y-113012181D01*
X174670198Y-113021763D01*
X174650042Y-113055178D01*
X174626889Y-113090202D01*
X174625165Y-113092679D01*
X174585707Y-113150273D01*
X174558915Y-113191590D01*
X174543665Y-113218450D01*
X174538831Y-113232672D01*
X174537001Y-113237935D01*
X174522001Y-113244314D01*
X174504634Y-113253042D01*
X174488810Y-113275832D01*
X174480096Y-113303464D01*
X174482894Y-113326670D01*
X174485004Y-113331242D01*
X174485339Y-113347834D01*
X174476578Y-113355444D01*
X174464744Y-113347242D01*
X174458474Y-113339291D01*
X174442681Y-113334309D01*
X174429922Y-113347466D01*
X174424674Y-113375595D01*
X174423705Y-113395999D01*
X174416817Y-113411727D01*
X174399887Y-113415550D01*
X174383381Y-113418023D01*
X174357078Y-113430645D01*
X174351654Y-113434512D01*
X174324795Y-113448154D01*
X174290539Y-113461012D01*
X174276838Y-113465830D01*
X174251829Y-113478109D01*
X174241825Y-113488726D01*
X174241729Y-113489743D01*
X174232631Y-113506405D01*
X174213286Y-113528052D01*
X174210895Y-113530354D01*
X174192489Y-113550917D01*
X174184943Y-113564672D01*
X174181938Y-113569787D01*
X174164287Y-113584716D01*
X174136084Y-113603041D01*
X174106185Y-113624356D01*
X174067983Y-113658020D01*
X174032685Y-113694848D01*
X174029648Y-113698341D01*
X174001484Y-113728547D01*
X173978185Y-113749929D01*
X173964533Y-113758053D01*
X173960663Y-113759261D01*
X173945242Y-113774051D01*
X173928089Y-113800273D01*
X173920911Y-113811658D01*
X173890781Y-113845221D01*
X173853887Y-113873547D01*
X173851378Y-113875065D01*
X173817769Y-113894708D01*
X173798007Y-113903600D01*
X173787007Y-113903210D01*
X173779685Y-113895011D01*
X173771289Y-113888466D01*
X173748704Y-113883595D01*
X173736317Y-113880148D01*
X173709943Y-113863631D01*
X173681472Y-113838070D01*
X173664445Y-113821396D01*
X173642212Y-113805027D01*
X173630543Y-113804878D01*
X173622082Y-113803310D01*
X173600756Y-113787169D01*
X173569455Y-113757914D01*
X173530765Y-113717801D01*
X173496866Y-113682491D01*
X173455248Y-113642078D01*
X173418188Y-113609063D01*
X173390945Y-113588319D01*
X173379569Y-113580969D01*
X173339560Y-113553254D01*
X173304629Y-113526747D01*
X173284302Y-113510650D01*
X173245040Y-113481971D01*
X173210192Y-113459362D01*
X173184195Y-113445597D01*
X173171483Y-113443453D01*
X173163477Y-113441878D01*
X173149226Y-113426727D01*
X173148938Y-113426321D01*
X173126907Y-113405589D01*
X173096832Y-113387731D01*
X173071926Y-113373105D01*
X173036962Y-113347197D01*
X173001316Y-113316548D01*
X172969274Y-113287246D01*
X172933781Y-113255833D01*
X172906620Y-113232898D01*
X172901210Y-113228498D01*
X172875085Y-113205875D01*
X172857348Y-113188427D01*
X172853249Y-113183880D01*
X172832605Y-113162441D01*
X172802987Y-113132683D01*
X172769965Y-113100115D01*
X172739107Y-113070246D01*
X172715984Y-113048585D01*
X172697293Y-113031076D01*
X172634522Y-112964729D01*
X172571472Y-112887976D01*
X172514854Y-112808820D01*
X172496286Y-112781104D01*
X172468854Y-112741893D01*
X172446593Y-112712137D01*
X172433069Y-112696725D01*
X172422803Y-112690069D01*
X172416931Y-112695900D01*
X172415728Y-112720647D01*
X172416638Y-112738927D01*
X172420193Y-112778584D01*
X172425793Y-112829378D01*
X172432757Y-112884719D01*
X172435310Y-112904170D01*
X172445143Y-112991896D01*
X172449350Y-113060094D01*
X172447896Y-113110949D01*
X172440743Y-113146648D01*
X172427851Y-113169376D01*
X172427136Y-113170160D01*
X172408905Y-113198439D01*
X172395292Y-113232898D01*
X172389786Y-113252275D01*
X172386512Y-113257330D01*
X172385436Y-113243427D01*
X172385800Y-113208635D01*
X172385908Y-113201887D01*
X172384949Y-113168262D01*
X172378595Y-113143851D01*
X172363285Y-113120179D01*
X172335461Y-113088769D01*
X172311212Y-113060334D01*
X172283278Y-113014683D01*
X172263669Y-112958921D01*
X172253184Y-112921136D01*
X172241249Y-112879321D01*
X172232409Y-112849661D01*
X172231424Y-112846137D01*
X172226356Y-112814781D01*
X172222787Y-112770475D01*
X172221438Y-112721621D01*
X172221226Y-112693381D01*
X172219240Y-112655865D01*
X172213742Y-112623151D01*
X172203033Y-112588944D01*
X172185417Y-112546950D01*
X172159196Y-112490876D01*
X172132427Y-112437470D01*
X172089173Y-112364098D01*
X172047691Y-112310826D01*
X172046378Y-112309404D01*
X172020494Y-112276049D01*
X171998472Y-112239730D01*
X171994811Y-112232777D01*
X171971835Y-112195538D01*
X171945798Y-112160073D01*
X171937698Y-112149499D01*
X171920013Y-112120034D01*
X171912735Y-112097286D01*
X171912710Y-112096550D01*
X171906462Y-112070273D01*
X171892757Y-112039763D01*
X171880337Y-112018351D01*
X171847253Y-111964336D01*
X171810337Y-111907077D01*
X171774618Y-111854278D01*
X171745125Y-111813640D01*
X171729148Y-111791544D01*
X171700372Y-111747114D01*
X171680071Y-111711879D01*
X171764809Y-111711879D01*
X171765120Y-111715152D01*
X171770792Y-111738436D01*
X171781952Y-111774960D01*
X171796451Y-111818427D01*
X171812135Y-111862537D01*
X171826854Y-111900992D01*
X171838457Y-111927494D01*
X171866159Y-111965309D01*
X171907247Y-111999843D01*
X171954722Y-112026431D01*
X172002112Y-112041472D01*
X172042950Y-112041362D01*
X172046059Y-112040453D01*
X172073246Y-112026982D01*
X172102276Y-112006077D01*
X172114842Y-111994541D01*
X172128458Y-111975633D01*
X172134382Y-111950781D01*
X172135576Y-111911575D01*
X172135086Y-111888731D01*
X172131801Y-111833413D01*
X172126499Y-111783101D01*
X172117667Y-111720314D01*
X172140063Y-111760739D01*
X172146176Y-111772991D01*
X172162056Y-111814474D01*
X172173693Y-111857773D01*
X172177319Y-111874858D01*
X172187662Y-111916303D01*
X172197681Y-111948629D01*
X172203726Y-111965373D01*
X172217598Y-112005775D01*
X172234268Y-112055994D01*
X172252306Y-112111531D01*
X172270282Y-112167891D01*
X172286770Y-112220575D01*
X172300338Y-112265087D01*
X172309560Y-112296928D01*
X172313004Y-112311602D01*
X172315953Y-112321753D01*
X172327384Y-112349364D01*
X172345410Y-112388725D01*
X172367866Y-112434973D01*
X172374285Y-112447429D01*
X172408508Y-112506385D01*
X172453992Y-112576663D01*
X172507480Y-112653788D01*
X172565716Y-112733284D01*
X172625442Y-112810678D01*
X172683401Y-112881493D01*
X172736337Y-112941254D01*
X172748346Y-112954322D01*
X172776610Y-112987170D01*
X172796269Y-113013138D01*
X172803640Y-113027509D01*
X172803850Y-113029260D01*
X172814435Y-113047609D01*
X172837648Y-113074791D01*
X172868823Y-113106302D01*
X172903294Y-113137640D01*
X172936395Y-113164299D01*
X172963460Y-113181776D01*
X172982264Y-113192701D01*
X173018835Y-113218137D01*
X173054786Y-113247095D01*
X173077052Y-113265535D01*
X173114602Y-113293066D01*
X173146112Y-113312287D01*
X173160372Y-113319631D01*
X173199474Y-113340659D01*
X173239115Y-113362869D01*
X173261792Y-113374544D01*
X173310784Y-113394895D01*
X173358980Y-113410167D01*
X173373309Y-113413770D01*
X173416918Y-113424570D01*
X173444145Y-113430635D01*
X173459572Y-113432648D01*
X173467780Y-113431296D01*
X173473352Y-113427264D01*
X173486511Y-113421481D01*
X173516216Y-113412917D01*
X173555028Y-113404022D01*
X173591373Y-113395932D01*
X173613686Y-113388100D01*
X173622101Y-113378774D01*
X173621140Y-113365303D01*
X173620137Y-113361065D01*
X173620043Y-113350223D01*
X173628852Y-113344855D01*
X173651192Y-113343651D01*
X173691685Y-113345300D01*
X173730698Y-113348641D01*
X173760781Y-113353761D01*
X173774605Y-113359496D01*
X173781001Y-113362619D01*
X173806403Y-113367620D01*
X173846056Y-113372212D01*
X173894759Y-113375696D01*
X173939379Y-113376598D01*
X174003593Y-113373930D01*
X174067802Y-113367473D01*
X174127440Y-113357991D01*
X174177943Y-113346249D01*
X174214746Y-113333010D01*
X174233282Y-113319038D01*
X174242809Y-113309195D01*
X174266627Y-113301393D01*
X174270224Y-113301115D01*
X174295859Y-113291635D01*
X174324014Y-113272854D01*
X174329877Y-113268079D01*
X174354519Y-113251153D01*
X174371325Y-113244308D01*
X174374056Y-113243539D01*
X174391379Y-113230721D01*
X174418655Y-113204999D01*
X174452499Y-113170117D01*
X174489524Y-113129820D01*
X174526346Y-113087855D01*
X174559580Y-113047966D01*
X174585839Y-113013899D01*
X174601740Y-112989398D01*
X174614119Y-112968603D01*
X174641370Y-112930426D01*
X174671808Y-112893875D01*
X174705158Y-112851133D01*
X174726531Y-112802384D01*
X174732898Y-112746303D01*
X174736202Y-112729034D01*
X174750022Y-112719191D01*
X174761721Y-112712755D01*
X174767146Y-112687327D01*
X174770791Y-112669355D01*
X174784791Y-112644122D01*
X174811443Y-112610281D01*
X174853004Y-112564608D01*
X174862804Y-112554145D01*
X174907697Y-112502510D01*
X174936454Y-112461366D01*
X174950957Y-112428089D01*
X174952062Y-112424087D01*
X174967171Y-112381945D01*
X174985808Y-112343242D01*
X174995689Y-112323332D01*
X175013224Y-112279825D01*
X175032660Y-112224480D01*
X175051887Y-112163414D01*
X175068795Y-112102741D01*
X175072265Y-112086144D01*
X175078737Y-112043994D01*
X175085742Y-111987938D01*
X175092733Y-111923482D01*
X175099163Y-111856132D01*
X175104486Y-111791394D01*
X175108154Y-111734773D01*
X175109620Y-111691775D01*
X175111100Y-111644088D01*
X175115368Y-111583785D01*
X175121368Y-111531955D01*
X175126324Y-111498950D01*
X175135181Y-111438554D01*
X175143032Y-111383550D01*
X175149579Y-111348028D01*
X175162569Y-111299497D01*
X175177206Y-111261317D01*
X175182742Y-111248999D01*
X175195175Y-111209581D01*
X175199339Y-111175700D01*
X175199669Y-111146726D01*
X175202253Y-111103451D01*
X175206548Y-111056488D01*
X175207652Y-111043382D01*
X175208855Y-110998985D01*
X175207887Y-110943916D01*
X175205109Y-110882960D01*
X175200878Y-110820904D01*
X175195554Y-110762534D01*
X175189496Y-110712635D01*
X175183063Y-110675993D01*
X175176614Y-110657394D01*
X175164820Y-110649585D01*
X175138981Y-110650566D01*
X175109817Y-110665187D01*
X175084075Y-110690998D01*
X175077922Y-110700914D01*
X175061127Y-110743249D01*
X175050406Y-110795225D01*
X175046376Y-110827400D01*
X175034634Y-110915237D01*
X175023892Y-110985244D01*
X175013540Y-111041164D01*
X175002971Y-111086741D01*
X174996906Y-111109019D01*
X174989435Y-111131275D01*
X174986225Y-111131218D01*
X174987275Y-111108820D01*
X174992585Y-111064051D01*
X175002155Y-110996880D01*
X175006035Y-110968258D01*
X175013706Y-110894834D01*
X175019411Y-110817048D01*
X175022132Y-110747578D01*
X175022301Y-110734160D01*
X175021535Y-110671247D01*
X175016178Y-110626934D01*
X175003917Y-110597692D01*
X174982443Y-110579994D01*
X174949444Y-110570312D01*
X174902609Y-110565118D01*
X174857760Y-110564752D01*
X174813249Y-110570369D01*
X174777438Y-110580853D01*
X174755035Y-110594789D01*
X174750747Y-110610761D01*
X174751566Y-110618940D01*
X174742559Y-110644104D01*
X174737717Y-110651354D01*
X174722687Y-110673861D01*
X174696784Y-110701644D01*
X174694993Y-110702916D01*
X174669686Y-110720886D01*
X174639016Y-110729898D01*
X174588567Y-110736524D01*
X174522998Y-110739865D01*
X174497291Y-110740591D01*
X174446052Y-110743862D01*
X174414508Y-110749405D01*
X174400454Y-110757541D01*
X174393467Y-110766132D01*
X174390601Y-110758539D01*
X174380844Y-110748403D01*
X174355506Y-110744269D01*
X174339904Y-110745788D01*
X174328001Y-110753495D01*
X174334923Y-110762886D01*
X174350047Y-110766266D01*
X174359707Y-110768425D01*
X174365911Y-110768806D01*
X174375806Y-110770896D01*
X174364109Y-110775092D01*
X174352228Y-110780000D01*
X174348374Y-110791963D01*
X174364617Y-110806830D01*
X174399669Y-110822872D01*
X174419102Y-110830728D01*
X174442229Y-110846310D01*
X174444354Y-110863580D01*
X174426629Y-110885197D01*
X174402074Y-110898054D01*
X174360925Y-110903313D01*
X174302575Y-110899742D01*
X174225089Y-110887360D01*
X174212977Y-110884939D01*
X174143711Y-110866697D01*
X174086231Y-110843960D01*
X174044215Y-110818454D01*
X174021342Y-110791900D01*
X174019545Y-110788157D01*
X174013964Y-110782114D01*
X174163187Y-110782114D01*
X174170344Y-110795948D01*
X174197356Y-110815618D01*
X174213961Y-110824443D01*
X174244653Y-110834152D01*
X174265173Y-110826699D01*
X174279764Y-110801348D01*
X174280400Y-110799693D01*
X174292069Y-110776618D01*
X174302277Y-110767101D01*
X174305350Y-110766266D01*
X174304809Y-110755685D01*
X174303758Y-110754401D01*
X174286103Y-110747205D01*
X174257234Y-110744269D01*
X174255219Y-110744271D01*
X174229733Y-110745938D01*
X174225465Y-110749977D01*
X174221186Y-110754027D01*
X174224029Y-110773407D01*
X174227168Y-110787846D01*
X174224497Y-110796764D01*
X174208893Y-110790531D01*
X174201603Y-110786822D01*
X174174176Y-110777833D01*
X174163187Y-110782114D01*
X174013964Y-110782114D01*
X174003792Y-110771099D01*
X173977332Y-110769848D01*
X173958155Y-110770960D01*
X173945534Y-110762203D01*
X173942117Y-110749977D01*
X174162112Y-110749977D01*
X174167820Y-110755685D01*
X174173528Y-110749977D01*
X174167820Y-110744269D01*
X174162112Y-110749977D01*
X173942117Y-110749977D01*
X173938395Y-110736660D01*
X173932664Y-110713821D01*
X173922147Y-110703603D01*
X173901152Y-110705885D01*
X173878971Y-110712747D01*
X173861058Y-110722020D01*
X173855545Y-110725211D01*
X173835373Y-110725032D01*
X173830938Y-110725219D01*
X173823345Y-110738933D01*
X173819582Y-110765983D01*
X173819778Y-110799944D01*
X173824064Y-110834391D01*
X173832570Y-110862899D01*
X173839759Y-110877207D01*
X173849432Y-110884030D01*
X173863335Y-110873441D01*
X173865106Y-110871698D01*
X173877802Y-110863383D01*
X173890915Y-110868500D01*
X173911286Y-110889311D01*
X173916100Y-110894534D01*
X173940640Y-110917310D01*
X173960431Y-110930318D01*
X173962423Y-110931152D01*
X173977501Y-110947843D01*
X173977264Y-110972871D01*
X173964131Y-111000882D01*
X173940521Y-111026524D01*
X173908855Y-111044442D01*
X173897963Y-111051011D01*
X173895106Y-111065645D01*
X173901290Y-111094660D01*
X173907907Y-111116343D01*
X173934913Y-111177994D01*
X173970896Y-111234968D01*
X174012278Y-111282887D01*
X174055479Y-111317368D01*
X174096917Y-111334031D01*
X174104971Y-111335462D01*
X174128003Y-111343006D01*
X174129762Y-111351972D01*
X174111057Y-111360807D01*
X174077683Y-111363563D01*
X174041035Y-111358628D01*
X174010751Y-111346447D01*
X174001742Y-111338991D01*
X173976737Y-111309059D01*
X173946743Y-111264300D01*
X173914092Y-111209136D01*
X173881112Y-111147992D01*
X173850135Y-111085292D01*
X173823489Y-111025459D01*
X173803505Y-110972918D01*
X173792513Y-110932091D01*
X173779431Y-110865263D01*
X173760810Y-110796960D01*
X173740498Y-110749409D01*
X173718857Y-110723639D01*
X173692366Y-110713835D01*
X173648519Y-110707420D01*
X173595632Y-110705320D01*
X173540647Y-110707509D01*
X173490510Y-110713960D01*
X173452163Y-110724647D01*
X173429251Y-110736142D01*
X173411560Y-110755046D01*
X173403053Y-110786212D01*
X173391585Y-110849547D01*
X173348990Y-111009740D01*
X173287940Y-111160239D01*
X173287346Y-111161473D01*
X173261982Y-111212211D01*
X173238243Y-111256257D01*
X173218767Y-111288927D01*
X173206188Y-111305535D01*
X173193052Y-111315466D01*
X173152022Y-111337980D01*
X173107600Y-111353913D01*
X173070184Y-111359164D01*
X173053060Y-111358113D01*
X173048385Y-111356179D01*
X173064660Y-111352490D01*
X173110845Y-111336230D01*
X173162316Y-111296880D01*
X173206622Y-111237228D01*
X173242814Y-111158309D01*
X173257811Y-111115139D01*
X173267985Y-111078543D01*
X173269584Y-111054934D01*
X173262773Y-111039907D01*
X173247722Y-111029057D01*
X173240438Y-111024620D01*
X173228881Y-111008243D01*
X173230057Y-110980139D01*
X173234064Y-110957695D01*
X173245212Y-110903772D01*
X173256310Y-110868175D01*
X173269148Y-110847612D01*
X173285517Y-110838797D01*
X173307208Y-110838441D01*
X173319664Y-110838386D01*
X173332850Y-110828482D01*
X173341388Y-110801425D01*
X173342498Y-110796024D01*
X173346643Y-110770430D01*
X173346647Y-110758348D01*
X173345080Y-110757186D01*
X173330063Y-110759651D01*
X173311286Y-110774576D01*
X173296307Y-110796268D01*
X173282828Y-110814450D01*
X173261203Y-110824179D01*
X173251381Y-110825609D01*
X173240375Y-110837756D01*
X173235273Y-110866988D01*
X173232507Y-110891081D01*
X173232399Y-110892022D01*
X173225143Y-110903942D01*
X173207445Y-110905895D01*
X173173227Y-110901236D01*
X173171029Y-110901105D01*
X173152464Y-110911697D01*
X173132879Y-110939789D01*
X173124832Y-110953447D01*
X173098219Y-110980975D01*
X173057248Y-111001326D01*
X173038966Y-111008470D01*
X173007974Y-111022083D01*
X172989693Y-111032210D01*
X172977949Y-111037007D01*
X172953163Y-111035725D01*
X172928382Y-111035253D01*
X172898390Y-111044672D01*
X172882415Y-111051922D01*
X172839602Y-111065038D01*
X172796960Y-111070985D01*
X172759855Y-111069737D01*
X172733656Y-111061267D01*
X172723730Y-111045549D01*
X172725272Y-111038726D01*
X172739541Y-111029662D01*
X172756355Y-111021004D01*
X172774767Y-111000030D01*
X172786591Y-110979618D01*
X172785801Y-110964971D01*
X172769606Y-110947501D01*
X172763354Y-110942216D01*
X172749230Y-110934333D01*
X172728770Y-110928842D01*
X172697851Y-110925129D01*
X172652348Y-110922584D01*
X172588138Y-110920594D01*
X172536420Y-110918968D01*
X172474371Y-110915475D01*
X172429182Y-110910130D01*
X172397254Y-110902236D01*
X172389556Y-110898382D01*
X172872134Y-110898382D01*
X172875623Y-110907818D01*
X172893063Y-110915505D01*
X172904121Y-110914699D01*
X172922520Y-110906154D01*
X172922521Y-110891081D01*
X172918774Y-110886881D01*
X172900502Y-110881235D01*
X172881136Y-110885622D01*
X172872134Y-110898382D01*
X172389556Y-110898382D01*
X172374992Y-110891091D01*
X172358797Y-110875997D01*
X172353147Y-110867690D01*
X172350638Y-110852737D01*
X172357133Y-110830294D01*
X172373765Y-110794178D01*
X172382563Y-110774476D01*
X172484000Y-110774476D01*
X172493070Y-110779608D01*
X172518935Y-110774134D01*
X172558727Y-110758809D01*
X172609573Y-110734546D01*
X172647836Y-110717128D01*
X173305932Y-110717128D01*
X173307824Y-110719091D01*
X173323056Y-110721438D01*
X173331634Y-110718930D01*
X173340179Y-110702916D01*
X173340163Y-110701135D01*
X173336559Y-110690647D01*
X173323056Y-110698606D01*
X173313497Y-110707278D01*
X173305932Y-110717128D01*
X172647836Y-110717128D01*
X172660382Y-110711417D01*
X172712650Y-110692773D01*
X172755262Y-110682787D01*
X172784190Y-110678672D01*
X172822561Y-110670924D01*
X172843167Y-110662185D01*
X172849303Y-110651354D01*
X172847461Y-110643867D01*
X172829903Y-110631836D01*
X172797360Y-110627438D01*
X172754253Y-110630208D01*
X172705001Y-110639683D01*
X172654025Y-110655400D01*
X172605745Y-110676894D01*
X172590561Y-110685362D01*
X172551391Y-110710381D01*
X172517262Y-110736227D01*
X172493143Y-110758919D01*
X172484000Y-110774476D01*
X172382563Y-110774476D01*
X172387030Y-110764473D01*
X172396760Y-110735874D01*
X172397937Y-110720718D01*
X172396861Y-110715490D01*
X172408109Y-110710022D01*
X172412778Y-110709034D01*
X172432853Y-110696085D01*
X172455926Y-110672921D01*
X172462021Y-110666089D01*
X172490337Y-110641641D01*
X172516874Y-110627654D01*
X172517008Y-110627617D01*
X172518220Y-110624905D01*
X172499900Y-110623517D01*
X172465280Y-110623537D01*
X172417591Y-110625050D01*
X172384111Y-110626735D01*
X172298349Y-110634318D01*
X172232566Y-110646416D01*
X172184808Y-110663934D01*
X172153117Y-110687778D01*
X172135537Y-110718853D01*
X172130112Y-110758064D01*
X172130312Y-110774533D01*
X172133624Y-110836420D01*
X172140435Y-110906132D01*
X172150000Y-110979298D01*
X172161572Y-111051548D01*
X172174407Y-111118511D01*
X172187758Y-111175818D01*
X172200880Y-111219099D01*
X172213027Y-111243983D01*
X172220473Y-111255128D01*
X172220098Y-111263330D01*
X172208134Y-111259222D01*
X172189202Y-111242994D01*
X172183620Y-111236126D01*
X172166079Y-111203805D01*
X172153813Y-111165983D01*
X172147748Y-111137411D01*
X172137455Y-111089419D01*
X172126994Y-111041078D01*
X172118006Y-110998257D01*
X172106116Y-110938604D01*
X172095622Y-110883075D01*
X172095248Y-110881046D01*
X172084623Y-110835796D01*
X172071546Y-110796610D01*
X172058762Y-110771771D01*
X172040183Y-110755453D01*
X172009774Y-110744729D01*
X171980583Y-110747452D01*
X171960737Y-110764247D01*
X171958702Y-110774243D01*
X171956950Y-110805170D01*
X171956418Y-110852156D01*
X171956972Y-110911252D01*
X171958479Y-110978507D01*
X171960805Y-111049971D01*
X171963815Y-111121694D01*
X171967375Y-111189727D01*
X171971351Y-111250119D01*
X171975609Y-111298920D01*
X171980015Y-111332179D01*
X171989816Y-111377866D01*
X172003610Y-111424179D01*
X172023453Y-111475888D01*
X172051860Y-111540276D01*
X172068291Y-111577701D01*
X172080898Y-111613174D01*
X172083702Y-111635685D01*
X172077625Y-111649131D01*
X172062776Y-111652718D01*
X172046385Y-111642406D01*
X172038786Y-111623701D01*
X172038438Y-111620389D01*
X172030266Y-111600107D01*
X172014202Y-111573515D01*
X171994192Y-111545780D01*
X171974181Y-111522067D01*
X171958117Y-111507545D01*
X171949944Y-111507379D01*
X171949746Y-111514731D01*
X171956114Y-111539775D01*
X171969214Y-111572166D01*
X171982913Y-111607832D01*
X171991672Y-111647207D01*
X171992266Y-111678777D01*
X171991505Y-111680359D01*
X171983931Y-111696108D01*
X171981150Y-111697047D01*
X171960475Y-111696798D01*
X171929932Y-111691684D01*
X171913590Y-111688476D01*
X171885640Y-111688131D01*
X171866068Y-111698824D01*
X171842464Y-111710176D01*
X171805910Y-111708360D01*
X171801307Y-111707551D01*
X171774807Y-111706011D01*
X171764809Y-111711879D01*
X171680071Y-111711879D01*
X171674966Y-111703018D01*
X171669697Y-111693373D01*
X171660544Y-111680359D01*
X171741977Y-111680359D01*
X171742309Y-111683088D01*
X171753393Y-111691775D01*
X171756122Y-111691443D01*
X171764809Y-111680359D01*
X171764477Y-111677630D01*
X171753393Y-111668943D01*
X171750664Y-111669275D01*
X171741977Y-111680359D01*
X171660544Y-111680359D01*
X171637704Y-111647882D01*
X171603324Y-111621770D01*
X171587179Y-111613401D01*
X171561474Y-111597136D01*
X171530693Y-111573849D01*
X171491042Y-111540605D01*
X171438729Y-111494471D01*
X171420803Y-111477355D01*
X171395402Y-111443796D01*
X171384283Y-111408853D01*
X171381307Y-111389430D01*
X171368482Y-111322879D01*
X171350015Y-111248995D01*
X171324251Y-111160943D01*
X171309046Y-111105127D01*
X171297975Y-111047656D01*
X171294982Y-111003977D01*
X171296731Y-110956699D01*
X171298064Y-110854714D01*
X171295312Y-110771945D01*
X171288511Y-110710022D01*
X171274371Y-110646910D01*
X171252345Y-110575792D01*
X171226295Y-110509987D01*
X171199306Y-110458204D01*
X171191411Y-110445106D01*
X171176931Y-110416952D01*
X171171191Y-110399009D01*
X171169035Y-110387065D01*
X171160582Y-110358181D01*
X171147917Y-110321726D01*
X171140987Y-110301399D01*
X171125876Y-110245808D01*
X171113149Y-110184734D01*
X171104541Y-110127181D01*
X171101785Y-110082157D01*
X171102723Y-110052437D01*
X171105116Y-110001445D01*
X171108507Y-109942150D01*
X171112579Y-109878994D01*
X171117013Y-109816421D01*
X171121490Y-109758873D01*
X171125692Y-109710795D01*
X171129300Y-109676628D01*
X171131996Y-109660816D01*
X171136158Y-109646384D01*
X171141846Y-109618566D01*
X171903147Y-109618566D01*
X171906739Y-109692726D01*
X171918399Y-109774598D01*
X171938231Y-109870966D01*
X171938642Y-109872787D01*
X171951636Y-109933071D01*
X171961438Y-109986871D01*
X171968258Y-110038366D01*
X171972303Y-110091734D01*
X171973780Y-110151153D01*
X171972896Y-110220803D01*
X171969859Y-110304861D01*
X171964877Y-110407505D01*
X171963259Y-110439049D01*
X171960654Y-110496271D01*
X171959793Y-110536218D01*
X171960972Y-110562727D01*
X171964488Y-110579635D01*
X171970635Y-110590776D01*
X171979709Y-110599988D01*
X171988356Y-110607294D01*
X172001278Y-110614104D01*
X172018698Y-110615398D01*
X172046526Y-110611272D01*
X172090670Y-110601826D01*
X172102778Y-110599104D01*
X172142022Y-110589302D01*
X172163893Y-110580930D01*
X172172521Y-110571863D01*
X172172038Y-110559976D01*
X172173346Y-110531479D01*
X172187762Y-110490703D01*
X172212427Y-110443432D01*
X172244205Y-110394474D01*
X172279964Y-110348639D01*
X172316569Y-110310733D01*
X172350887Y-110285566D01*
X172365546Y-110278954D01*
X172409651Y-110264998D01*
X172466273Y-110251909D01*
X172528457Y-110240993D01*
X172589247Y-110233558D01*
X172641689Y-110230911D01*
X172648473Y-110230951D01*
X172713829Y-110232442D01*
X172783084Y-110235694D01*
X172851784Y-110240318D01*
X172915476Y-110245929D01*
X172969704Y-110252139D01*
X173010016Y-110258562D01*
X173031957Y-110264810D01*
X173042013Y-110269517D01*
X173060909Y-110270100D01*
X173082284Y-110254371D01*
X173089241Y-110248137D01*
X173115969Y-110232843D01*
X173141002Y-110237287D01*
X173169988Y-110261955D01*
X173183630Y-110277230D01*
X173215505Y-110325026D01*
X173226022Y-110367868D01*
X173229545Y-110383159D01*
X173248854Y-110398490D01*
X173257806Y-110402017D01*
X173268718Y-110417043D01*
X173271685Y-110447840D01*
X173271874Y-110455009D01*
X173276667Y-110482829D01*
X173285955Y-110497011D01*
X173293842Y-110503227D01*
X173284291Y-110513933D01*
X173277197Y-110521780D01*
X173274837Y-110541951D01*
X173276568Y-110550746D01*
X173270309Y-110569843D01*
X173265608Y-110581519D01*
X173279390Y-110595622D01*
X173315093Y-110609749D01*
X173373170Y-110624140D01*
X173419507Y-110631790D01*
X173490728Y-110638147D01*
X173564528Y-110639867D01*
X173632621Y-110636823D01*
X173686725Y-110628890D01*
X173728157Y-110616270D01*
X173764479Y-110598548D01*
X173786099Y-110579566D01*
X173789116Y-110561877D01*
X173785207Y-110543511D01*
X173782368Y-110509203D01*
X173782044Y-110494104D01*
X174292939Y-110494104D01*
X174300282Y-110500325D01*
X174322396Y-110503338D01*
X174352300Y-110503142D01*
X174383011Y-110499737D01*
X174407550Y-110493123D01*
X174408193Y-110492843D01*
X174414264Y-110487236D01*
X174400495Y-110483915D01*
X174365415Y-110482510D01*
X174337687Y-110483221D01*
X174307816Y-110487030D01*
X174293393Y-110493123D01*
X174292939Y-110494104D01*
X173782044Y-110494104D01*
X173781466Y-110467196D01*
X173782412Y-110430784D01*
X173786865Y-110398532D01*
X173797281Y-110373593D01*
X173816161Y-110347331D01*
X173824229Y-110336959D01*
X173849876Y-110300455D01*
X173869461Y-110267816D01*
X173881442Y-110250481D01*
X173916653Y-110217778D01*
X173964680Y-110185276D01*
X174019506Y-110156381D01*
X174075112Y-110134495D01*
X174125479Y-110123023D01*
X174132958Y-110122143D01*
X174179277Y-110115735D01*
X174235312Y-110106892D01*
X174290573Y-110097253D01*
X174329261Y-110090627D01*
X174377939Y-110085203D01*
X174420449Y-110085560D01*
X174466422Y-110091375D01*
X174503704Y-110096874D01*
X174535699Y-110098299D01*
X174562143Y-110093339D01*
X174592174Y-110081258D01*
X174608054Y-110074737D01*
X174653766Y-110065663D01*
X174698456Y-110073670D01*
X174745812Y-110099900D01*
X174799519Y-110145495D01*
X174807025Y-110152631D01*
X174837571Y-110180523D01*
X174860999Y-110200130D01*
X174872741Y-110207578D01*
X174874277Y-110208299D01*
X174879308Y-110222963D01*
X174881373Y-110250539D01*
X174881393Y-110252477D01*
X174886687Y-110291490D01*
X174898497Y-110326046D01*
X174911471Y-110355204D01*
X174912465Y-110377337D01*
X174899268Y-110399117D01*
X174869887Y-110427629D01*
X174852293Y-110444254D01*
X174832091Y-110466269D01*
X174824224Y-110479312D01*
X174832567Y-110487236D01*
X174832892Y-110487545D01*
X174860085Y-110496903D01*
X174901287Y-110505701D01*
X174951863Y-110513133D01*
X175007178Y-110518397D01*
X175062599Y-110520686D01*
X175160988Y-110521663D01*
X175166696Y-110464584D01*
X175167602Y-110422063D01*
X175162731Y-110357723D01*
X175152584Y-110283346D01*
X175138313Y-110205146D01*
X175121074Y-110129339D01*
X175102018Y-110062140D01*
X175082299Y-110009766D01*
X175065765Y-109970170D01*
X175046448Y-109918122D01*
X175029395Y-109866870D01*
X175029155Y-109866093D01*
X175008224Y-109808874D01*
X174983475Y-109757261D01*
X174957440Y-109715338D01*
X174932649Y-109687189D01*
X174911635Y-109676898D01*
X174908635Y-109677339D01*
X174892249Y-109691009D01*
X174876116Y-109718496D01*
X174863745Y-109752574D01*
X174858643Y-109786020D01*
X174855802Y-109799969D01*
X174843372Y-109824465D01*
X174836635Y-109832609D01*
X174826971Y-109835793D01*
X174813744Y-109825494D01*
X174791959Y-109799266D01*
X174778868Y-109781915D01*
X174765932Y-109759599D01*
X174757804Y-109733948D01*
X174752637Y-109698468D01*
X174748587Y-109646663D01*
X174748357Y-109643202D01*
X174744511Y-109593383D01*
X174739418Y-109558914D01*
X174730806Y-109532747D01*
X174716403Y-109507833D01*
X174693936Y-109477123D01*
X174669378Y-109444041D01*
X174643188Y-109407339D01*
X174624887Y-109380089D01*
X174614128Y-109364031D01*
X174589024Y-109329782D01*
X174561181Y-109294471D01*
X174546184Y-109274454D01*
X174518399Y-109229116D01*
X174498370Y-109186022D01*
X174493947Y-109174369D01*
X174460278Y-109104735D01*
X174413985Y-109029614D01*
X174359955Y-108955782D01*
X174303073Y-108890015D01*
X174248225Y-108839090D01*
X174209618Y-108813492D01*
X174144109Y-108781404D01*
X174067891Y-108753153D01*
X173987831Y-108731201D01*
X173910794Y-108718013D01*
X173874113Y-108713692D01*
X173844519Y-108709553D01*
X173831056Y-108706788D01*
X173825370Y-108706345D01*
X173800230Y-108706671D01*
X173758788Y-108708123D01*
X173705018Y-108710552D01*
X173642892Y-108713811D01*
X173623406Y-108714862D01*
X173549057Y-108717908D01*
X173482640Y-108718495D01*
X173418073Y-108716314D01*
X173349274Y-108711057D01*
X173270161Y-108702416D01*
X173174651Y-108690082D01*
X173160803Y-108688701D01*
X173116647Y-108686933D01*
X173058405Y-108686864D01*
X172992038Y-108688455D01*
X172923505Y-108691670D01*
X172903978Y-108692858D01*
X172831083Y-108698127D01*
X172773235Y-108704292D01*
X172724107Y-108712340D01*
X172677370Y-108723261D01*
X172626696Y-108738043D01*
X172593115Y-108748187D01*
X172544546Y-108761779D01*
X172505121Y-108771539D01*
X172481119Y-108775835D01*
X172472088Y-108777382D01*
X172440344Y-108789896D01*
X172407569Y-108810229D01*
X172370562Y-108832327D01*
X172332740Y-108839872D01*
X172304074Y-108840932D01*
X172249914Y-108854881D01*
X172195394Y-108880963D01*
X172149192Y-108915600D01*
X172110093Y-108959367D01*
X172057918Y-109040236D01*
X172010865Y-109142152D01*
X171968740Y-109265560D01*
X171931348Y-109410901D01*
X171919764Y-109466247D01*
X171907522Y-109545335D01*
X171903147Y-109618566D01*
X171141846Y-109618566D01*
X171142774Y-109614027D01*
X171149201Y-109574157D01*
X171156007Y-109527250D01*
X171165823Y-109466982D01*
X171175568Y-109420180D01*
X171186710Y-109381155D01*
X171200719Y-109344222D01*
X171219064Y-109303691D01*
X171237825Y-109267504D01*
X171269340Y-109212970D01*
X171305994Y-109154170D01*
X171343119Y-109098813D01*
X171374843Y-109051628D01*
X171408280Y-108997825D01*
X171435936Y-108949090D01*
X171453882Y-108912045D01*
X171468606Y-108881276D01*
X171501849Y-108827673D01*
X171540498Y-108778623D01*
X171574523Y-108740391D01*
X171607575Y-108702168D01*
X171632322Y-108672427D01*
X171639453Y-108663139D01*
X171660663Y-108633074D01*
X171685339Y-108595843D01*
X171710215Y-108556651D01*
X171732026Y-108520704D01*
X171747507Y-108493210D01*
X171753393Y-108479374D01*
X171757186Y-108470313D01*
X171769902Y-108446434D01*
X171788471Y-108414051D01*
X171803271Y-108386681D01*
X171818830Y-108351262D01*
X171825746Y-108325970D01*
X171827106Y-108316768D01*
X171837016Y-108297048D01*
X171850983Y-108292421D01*
X171863058Y-108306062D01*
X171873430Y-108316201D01*
X171897713Y-108323462D01*
X171923923Y-108323207D01*
X171940806Y-108314250D01*
X171952170Y-108309120D01*
X171976127Y-108309949D01*
X171995425Y-108310432D01*
X172026544Y-108296343D01*
X172048369Y-108281688D01*
X172080369Y-108268482D01*
X172102364Y-108258366D01*
X172116636Y-108234894D01*
X172117732Y-108225406D01*
X172115168Y-108212344D01*
X172102216Y-108214657D01*
X172075425Y-108232112D01*
X172058926Y-108241015D01*
X172021244Y-108253745D01*
X171978854Y-108261967D01*
X171976852Y-108262202D01*
X171940891Y-108265848D01*
X171921950Y-108264871D01*
X171914641Y-108257681D01*
X171913576Y-108242686D01*
X171915403Y-108225769D01*
X171925834Y-108202596D01*
X171948797Y-108177916D01*
X171988010Y-108146946D01*
X172015310Y-108124661D01*
X172059843Y-108082968D01*
X172109000Y-108032607D01*
X172157636Y-107979089D01*
X172200611Y-107927926D01*
X172232780Y-107884629D01*
X172249367Y-107861348D01*
X172300647Y-107801253D01*
X172361939Y-107741836D01*
X172428647Y-107686720D01*
X172496172Y-107639525D01*
X172559916Y-107603873D01*
X172615281Y-107583385D01*
X172668567Y-107568756D01*
X172761582Y-107536118D01*
X172872134Y-107490124D01*
X172892385Y-107481685D01*
X172964267Y-107457280D01*
X173047283Y-107435598D01*
X173136753Y-107417299D01*
X173227997Y-107403039D01*
X173316336Y-107393475D01*
X173397090Y-107389265D01*
X173465579Y-107391066D01*
X173517123Y-107399535D01*
X173521916Y-107400914D01*
X173563975Y-107412472D01*
X173602741Y-107422404D01*
X173733626Y-107461483D01*
X173893842Y-107530609D01*
X173943353Y-107556042D01*
X173996115Y-107584551D01*
X174040876Y-107611363D01*
X174082589Y-107639920D01*
X174126203Y-107673663D01*
X174176670Y-107716033D01*
X174238940Y-107770471D01*
X174261569Y-107789682D01*
X174298035Y-107818258D01*
X174327812Y-107838966D01*
X174335511Y-107843737D01*
X174372130Y-107866973D01*
X174409078Y-107891038D01*
X174418370Y-107896985D01*
X174457463Y-107919082D01*
X174493168Y-107935667D01*
X174494318Y-107936116D01*
X174530414Y-107954234D01*
X174561663Y-107975970D01*
X174573122Y-107985521D01*
X174612602Y-108014909D01*
X174669189Y-108053386D01*
X174744314Y-108101941D01*
X174757529Y-108111261D01*
X174790931Y-108138081D01*
X174834037Y-108175291D01*
X174882714Y-108219286D01*
X174932829Y-108266457D01*
X174952506Y-108285356D01*
X175009765Y-108340140D01*
X175068133Y-108395727D01*
X175121768Y-108446560D01*
X175164826Y-108487084D01*
X175192265Y-108513436D01*
X175239283Y-108561146D01*
X175282718Y-108608019D01*
X175315816Y-108646904D01*
X175317657Y-108649235D01*
X175349781Y-108689839D01*
X175380668Y-108728783D01*
X175403868Y-108757932D01*
X175424380Y-108788802D01*
X175447857Y-108831948D01*
X175469047Y-108877797D01*
X175493264Y-108931921D01*
X175550949Y-109041034D01*
X175617484Y-109146067D01*
X175633687Y-109170130D01*
X175663020Y-109215911D01*
X175689982Y-109260224D01*
X175713167Y-109299072D01*
X175744035Y-109349685D01*
X175773601Y-109397213D01*
X175775000Y-109399443D01*
X175799538Y-109441637D01*
X175819775Y-109481748D01*
X175831452Y-109511370D01*
X175839020Y-109542239D01*
X175851359Y-109614639D01*
X175859527Y-109696004D01*
X175863647Y-109782389D01*
X175863844Y-109869846D01*
X175860241Y-109954429D01*
X175852962Y-110032190D01*
X175842131Y-110099183D01*
X175827872Y-110151461D01*
X175810309Y-110185076D01*
X175809155Y-110186551D01*
X175796383Y-110207321D01*
X175778189Y-110241368D01*
X175758113Y-110282110D01*
X175756340Y-110285856D01*
X175743162Y-110314578D01*
X175733538Y-110339448D01*
X175726769Y-110364912D01*
X175722161Y-110395414D01*
X175720066Y-110422063D01*
X175719017Y-110435402D01*
G37*
%TD*%
%LPC*%
D12*
%TO.C,C1*%
X114250000Y-116000000D03*
D13*
X106750000Y-116000000D03*
%TD*%
D14*
%TO.C,D1*%
X180852500Y-96225000D03*
D15*
X178312500Y-96225000D03*
%TD*%
D12*
%TO.C,R9*%
X119380000Y-105500000D03*
D13*
X127000000Y-105500000D03*
%TD*%
D14*
%TO.C,D5*%
X150852500Y-96225000D03*
D15*
X148312500Y-96225000D03*
%TD*%
D12*
%TO.C,R2*%
X157500000Y-111310000D03*
D13*
X157500000Y-103690000D03*
%TD*%
D12*
%TO.C,R4*%
X150500000Y-111310000D03*
D13*
X150500000Y-103690000D03*
%TD*%
D12*
%TO.C,R3*%
X154000000Y-111310000D03*
D13*
X154000000Y-103690000D03*
%TD*%
D16*
%TO.C,J4*%
X160000000Y-138820000D03*
D17*
X160000000Y-136280000D03*
X160000000Y-133740000D03*
X160000000Y-131200000D03*
X160000000Y-128660000D03*
X160000000Y-126120000D03*
X160000000Y-123580000D03*
X160000000Y-121040000D03*
X160000000Y-118500000D03*
%TD*%
D18*
%TO.C,U1*%
X115000000Y-133620000D03*
X117540000Y-133620000D03*
X120080000Y-133620000D03*
X122620000Y-133620000D03*
X125160000Y-133620000D03*
X127700000Y-133620000D03*
X130240000Y-133620000D03*
X132780000Y-133620000D03*
X135320000Y-133620000D03*
X137860000Y-133620000D03*
X140400000Y-133620000D03*
X142940000Y-133620000D03*
X145480000Y-133620000D03*
X148020000Y-133620000D03*
X148020000Y-126000000D03*
X145480000Y-126000000D03*
X142940000Y-126000000D03*
X140400000Y-126000000D03*
X137860000Y-126000000D03*
X135320000Y-126000000D03*
X132780000Y-126000000D03*
X130240000Y-126000000D03*
X127700000Y-126000000D03*
X125160000Y-126000000D03*
X122620000Y-126000000D03*
X120080000Y-126000000D03*
X117540000Y-126000000D03*
X115000000Y-126000000D03*
%TD*%
D16*
%TO.C,ISP*%
X164500000Y-124460000D03*
D17*
X167040000Y-124460000D03*
X164500000Y-127000000D03*
X167040000Y-127000000D03*
X164500000Y-129540000D03*
X167040000Y-129540000D03*
%TD*%
D14*
%TO.C,D7*%
X135852500Y-96225000D03*
D15*
X133312500Y-96225000D03*
%TD*%
D12*
%TO.C,R8*%
X136500000Y-111310000D03*
D13*
X136500000Y-103690000D03*
%TD*%
D12*
%TO.C,R5*%
X147000000Y-111310000D03*
D13*
X147000000Y-103690000D03*
%TD*%
D14*
%TO.C,D4*%
X158352500Y-96225000D03*
D15*
X155812500Y-96225000D03*
%TD*%
D19*
%TO.C,RESET*%
X127250000Y-114250000D03*
X133750000Y-114250000D03*
X127250000Y-118750000D03*
X133750000Y-118750000D03*
%TD*%
D12*
%TO.C,R6*%
X143500000Y-111310000D03*
D13*
X143500000Y-103690000D03*
%TD*%
D14*
%TO.C,D3*%
X165852500Y-96225000D03*
D15*
X163312500Y-96225000D03*
%TD*%
D16*
%TO.C,J2*%
X138500000Y-118000000D03*
D17*
X141040000Y-118000000D03*
X143580000Y-118000000D03*
X146120000Y-118000000D03*
X148660000Y-118000000D03*
X151200000Y-118000000D03*
%TD*%
D20*
%TO.C,Y1*%
X119500000Y-119000000D03*
X119500000Y-114120000D03*
%TD*%
D14*
%TO.C,D8*%
X128352500Y-96225000D03*
D15*
X125812500Y-96225000D03*
%TD*%
D14*
%TO.C,D2*%
X173352500Y-96225000D03*
D15*
X170812500Y-96225000D03*
%TD*%
D12*
%TO.C,R7*%
X140000000Y-111310000D03*
D13*
X140000000Y-103690000D03*
%TD*%
D12*
%TO.C,C2*%
X106750000Y-120000000D03*
D13*
X114250000Y-120000000D03*
%TD*%
D16*
%TO.C,J3*%
X119577500Y-94750000D03*
D21*
X119577500Y-92250000D03*
X117577500Y-92250000D03*
X117577500Y-94750000D03*
D22*
X114867500Y-99520000D03*
X114867500Y-87480000D03*
%TD*%
D12*
%TO.C,R1*%
X161000000Y-111310000D03*
D13*
X161000000Y-103690000D03*
%TD*%
D14*
%TO.C,D6*%
X143352500Y-96225000D03*
D15*
X140812500Y-96225000D03*
%TD*%
%LPD*%
M02*
