%TF.GenerationSoftware,KiCad,Pcbnew,8.0.3*%
%TF.CreationDate,2024-06-16T11:30:52+03:00*%
%TF.ProjectId,AtmegaPCB,41746d65-6761-4504-9342-2e6b69636164,rev?*%
%TF.SameCoordinates,Original*%
%TF.FileFunction,Legend,Top*%
%TF.FilePolarity,Positive*%
%FSLAX46Y46*%
G04 Gerber Fmt 4.6, Leading zero omitted, Abs format (unit mm)*
G04 Created by KiCad (PCBNEW 8.0.3) date 2024-06-16 11:30:52*
%MOMM*%
%LPD*%
G01*
G04 APERTURE LIST*
%ADD10C,0.200000*%
%ADD11C,0.150000*%
%ADD12C,0.100000*%
%ADD13C,0.120000*%
%ADD14C,0.000000*%
%ADD15C,1.524000*%
%ADD16C,1.600000*%
%ADD17O,1.600000X1.600000*%
%ADD18R,1.800000X1.800000*%
%ADD19C,1.800000*%
%ADD20R,1.700000X1.700000*%
%ADD21O,1.700000X1.700000*%
%ADD22C,2.000000*%
%ADD23C,1.500000*%
%ADD24C,1.700000*%
%ADD25C,3.500000*%
G04 APERTURE END LIST*
D10*
G36*
X162394272Y-117492219D02*
G01*
X162412860Y-117512493D01*
X162434574Y-117567720D01*
X162423677Y-117664090D01*
X162385006Y-117728018D01*
X162352954Y-117757740D01*
X162284631Y-117791121D01*
X162169610Y-117791673D01*
X162168055Y-117791254D01*
X162164639Y-117791697D01*
X162035245Y-117792318D01*
X162075316Y-117466803D01*
X162342239Y-117465523D01*
X162394272Y-117492219D01*
G37*
G36*
X164578863Y-118578330D02*
G01*
X161652868Y-118578330D01*
X161652868Y-118374412D01*
X161763979Y-118374412D01*
X161774324Y-118412034D01*
X161798279Y-118442833D01*
X161832196Y-118462121D01*
X161870913Y-118466960D01*
X161908535Y-118456615D01*
X161939334Y-118432660D01*
X161958622Y-118398743D01*
X161962948Y-118379622D01*
X162010835Y-117990607D01*
X162103211Y-117990164D01*
X162359848Y-118433021D01*
X162390762Y-118456828D01*
X162428433Y-118466993D01*
X162467126Y-118461969D01*
X162500951Y-118442519D01*
X162524758Y-118411606D01*
X162534923Y-118373935D01*
X162529899Y-118335242D01*
X162521839Y-118317372D01*
X162515136Y-118305805D01*
X162723010Y-118305805D01*
X162725270Y-118344758D01*
X162742265Y-118379880D01*
X162771407Y-118405826D01*
X162789202Y-118414050D01*
X162927516Y-118460355D01*
X162939449Y-118465298D01*
X162943460Y-118465692D01*
X162945163Y-118466263D01*
X162947734Y-118466113D01*
X162958958Y-118467219D01*
X163180682Y-118465565D01*
X163182189Y-118466108D01*
X163196134Y-118465450D01*
X163216563Y-118465298D01*
X163218772Y-118464382D01*
X163221164Y-118464270D01*
X163239634Y-118457701D01*
X163338145Y-118409570D01*
X163348823Y-118405866D01*
X163355172Y-118401251D01*
X163357658Y-118400037D01*
X163359248Y-118398289D01*
X163364681Y-118394341D01*
X163416368Y-118346408D01*
X163424647Y-118340505D01*
X163429441Y-118334286D01*
X163431557Y-118332324D01*
X163432579Y-118330215D01*
X163436616Y-118324979D01*
X163486475Y-118242554D01*
X163486953Y-118242183D01*
X163490920Y-118235206D01*
X163504850Y-118212179D01*
X163505198Y-118210099D01*
X163506241Y-118208266D01*
X163510567Y-118189146D01*
X163519468Y-118106826D01*
X163520604Y-118104329D01*
X163520999Y-118092667D01*
X163522985Y-118074311D01*
X163521772Y-118069902D01*
X163521928Y-118065333D01*
X163516877Y-118046392D01*
X163477718Y-117946800D01*
X163474189Y-117936362D01*
X163472913Y-117934578D01*
X163472514Y-117933562D01*
X163471121Y-117932071D01*
X163462787Y-117920415D01*
X163414912Y-117868196D01*
X163409232Y-117861288D01*
X163407549Y-117860166D01*
X163406828Y-117859379D01*
X163405052Y-117858500D01*
X163392922Y-117850412D01*
X163307441Y-117806554D01*
X163299976Y-117800935D01*
X163287824Y-117796489D01*
X163285519Y-117795307D01*
X163284253Y-117795183D01*
X163281565Y-117794200D01*
X163114139Y-117752622D01*
X163047453Y-117718407D01*
X163028865Y-117698134D01*
X163007064Y-117642685D01*
X163012359Y-117593721D01*
X163050766Y-117530230D01*
X163082821Y-117500504D01*
X163151250Y-117467072D01*
X163348565Y-117465600D01*
X163492783Y-117513882D01*
X163531736Y-117511622D01*
X163566858Y-117494627D01*
X163592804Y-117465485D01*
X163605622Y-117428633D01*
X163603362Y-117389680D01*
X163586367Y-117354557D01*
X163578676Y-117347710D01*
X163700165Y-117347710D01*
X163700165Y-117386728D01*
X163715097Y-117422776D01*
X163742687Y-117450366D01*
X163778735Y-117465298D01*
X163798244Y-117467219D01*
X163970963Y-117466657D01*
X163859218Y-118374412D01*
X163869563Y-118412034D01*
X163893518Y-118442833D01*
X163927435Y-118462121D01*
X163966152Y-118466960D01*
X164003774Y-118456615D01*
X164034573Y-118432660D01*
X164053861Y-118398743D01*
X164058187Y-118379622D01*
X164170653Y-117466008D01*
X164389182Y-117465298D01*
X164425230Y-117450366D01*
X164452820Y-117422776D01*
X164467752Y-117386728D01*
X164467752Y-117347710D01*
X164452820Y-117311662D01*
X164425230Y-117284072D01*
X164389182Y-117269140D01*
X164369673Y-117267219D01*
X164082171Y-117268153D01*
X164076766Y-117267478D01*
X164074214Y-117268179D01*
X163778735Y-117269140D01*
X163742687Y-117284072D01*
X163715097Y-117311662D01*
X163700165Y-117347710D01*
X163578676Y-117347710D01*
X163557225Y-117328612D01*
X163539430Y-117320388D01*
X163401113Y-117274082D01*
X163389182Y-117269140D01*
X163385170Y-117268745D01*
X163383468Y-117268175D01*
X163380896Y-117268324D01*
X163369673Y-117267219D01*
X163147950Y-117268872D01*
X163146444Y-117268330D01*
X163132498Y-117268987D01*
X163112069Y-117269140D01*
X163109859Y-117270055D01*
X163107469Y-117270168D01*
X163088999Y-117276737D01*
X162990486Y-117324867D01*
X162979808Y-117328572D01*
X162973459Y-117333186D01*
X162970973Y-117334401D01*
X162969381Y-117336149D01*
X162963951Y-117340097D01*
X162912260Y-117388030D01*
X162903985Y-117393932D01*
X162899192Y-117400148D01*
X162897074Y-117402113D01*
X162896050Y-117404223D01*
X162892016Y-117409457D01*
X162842154Y-117491883D01*
X162841678Y-117492254D01*
X162837716Y-117499219D01*
X162823781Y-117522257D01*
X162823432Y-117524337D01*
X162822390Y-117526171D01*
X162818064Y-117545291D01*
X162809162Y-117627610D01*
X162808027Y-117630108D01*
X162807631Y-117641769D01*
X162805646Y-117660126D01*
X162806858Y-117664534D01*
X162806703Y-117669104D01*
X162811754Y-117688045D01*
X162850912Y-117787636D01*
X162854442Y-117798075D01*
X162855717Y-117799858D01*
X162856117Y-117800875D01*
X162857509Y-117802365D01*
X162865844Y-117814022D01*
X162913710Y-117866231D01*
X162919399Y-117873150D01*
X162921083Y-117874273D01*
X162921803Y-117875058D01*
X162923574Y-117875933D01*
X162935709Y-117884025D01*
X163021191Y-117927882D01*
X163028656Y-117933502D01*
X163040809Y-117937948D01*
X163043113Y-117939130D01*
X163044377Y-117939253D01*
X163047066Y-117940237D01*
X163214489Y-117981813D01*
X163281177Y-118016028D01*
X163299765Y-118036302D01*
X163321566Y-118091751D01*
X163316271Y-118140715D01*
X163277863Y-118204209D01*
X163245811Y-118233931D01*
X163177380Y-118267365D01*
X162980065Y-118268837D01*
X162835849Y-118220556D01*
X162796896Y-118222816D01*
X162761774Y-118239811D01*
X162735828Y-118268953D01*
X162723010Y-118305805D01*
X162515136Y-118305805D01*
X162330550Y-117987280D01*
X162346777Y-117981510D01*
X162445288Y-117933379D01*
X162455966Y-117929675D01*
X162462315Y-117925060D01*
X162464801Y-117923846D01*
X162466391Y-117922098D01*
X162471824Y-117918150D01*
X162523511Y-117870218D01*
X162531789Y-117864316D01*
X162536583Y-117858096D01*
X162538700Y-117856134D01*
X162539722Y-117854024D01*
X162543758Y-117848790D01*
X162593618Y-117766364D01*
X162594096Y-117765993D01*
X162598060Y-117759021D01*
X162611992Y-117735991D01*
X162612340Y-117733910D01*
X162613384Y-117732075D01*
X162617710Y-117712955D01*
X162632349Y-117583488D01*
X162633699Y-117580520D01*
X162634133Y-117567711D01*
X162636080Y-117550501D01*
X162634867Y-117546092D01*
X162635023Y-117541524D01*
X162629972Y-117522583D01*
X162590813Y-117422991D01*
X162587284Y-117412553D01*
X162586008Y-117410769D01*
X162585609Y-117409753D01*
X162584216Y-117408262D01*
X162575882Y-117396606D01*
X162528007Y-117344387D01*
X162522327Y-117337479D01*
X162520644Y-117336357D01*
X162519923Y-117335570D01*
X162518147Y-117334691D01*
X162506017Y-117326603D01*
X162427451Y-117286293D01*
X162425230Y-117284072D01*
X162414285Y-117279538D01*
X162398614Y-117271498D01*
X162393722Y-117271020D01*
X162389182Y-117269140D01*
X162369673Y-117267219D01*
X161993877Y-117269021D01*
X161981527Y-117267478D01*
X161975594Y-117269109D01*
X161969211Y-117269140D01*
X161956826Y-117274269D01*
X161943905Y-117277823D01*
X161938955Y-117281672D01*
X161933163Y-117284072D01*
X161923685Y-117293549D01*
X161913106Y-117301778D01*
X161910006Y-117307228D01*
X161905573Y-117311662D01*
X161900443Y-117324044D01*
X161893818Y-117335696D01*
X161891651Y-117345269D01*
X161890641Y-117347710D01*
X161890641Y-117349737D01*
X161889492Y-117354816D01*
X161826190Y-117869044D01*
X161825165Y-117871519D01*
X161825165Y-117877371D01*
X161763979Y-118374412D01*
X161652868Y-118374412D01*
X161652868Y-117156108D01*
X164578863Y-117156108D01*
X164578863Y-118578330D01*
G37*
D11*
X146369819Y-115663220D02*
X145369819Y-115663220D01*
X145369819Y-115663220D02*
X145369819Y-115282268D01*
X145369819Y-115282268D02*
X145417438Y-115187030D01*
X145417438Y-115187030D02*
X145465057Y-115139411D01*
X145465057Y-115139411D02*
X145560295Y-115091792D01*
X145560295Y-115091792D02*
X145703152Y-115091792D01*
X145703152Y-115091792D02*
X145798390Y-115139411D01*
X145798390Y-115139411D02*
X145846009Y-115187030D01*
X145846009Y-115187030D02*
X145893628Y-115282268D01*
X145893628Y-115282268D02*
X145893628Y-115663220D01*
X146274580Y-114091792D02*
X146322200Y-114139411D01*
X146322200Y-114139411D02*
X146369819Y-114282268D01*
X146369819Y-114282268D02*
X146369819Y-114377506D01*
X146369819Y-114377506D02*
X146322200Y-114520363D01*
X146322200Y-114520363D02*
X146226961Y-114615601D01*
X146226961Y-114615601D02*
X146131723Y-114663220D01*
X146131723Y-114663220D02*
X145941247Y-114710839D01*
X145941247Y-114710839D02*
X145798390Y-114710839D01*
X145798390Y-114710839D02*
X145607914Y-114663220D01*
X145607914Y-114663220D02*
X145512676Y-114615601D01*
X145512676Y-114615601D02*
X145417438Y-114520363D01*
X145417438Y-114520363D02*
X145369819Y-114377506D01*
X145369819Y-114377506D02*
X145369819Y-114282268D01*
X145369819Y-114282268D02*
X145417438Y-114139411D01*
X145417438Y-114139411D02*
X145465057Y-114091792D01*
X145465057Y-113710839D02*
X145417438Y-113663220D01*
X145417438Y-113663220D02*
X145369819Y-113567982D01*
X145369819Y-113567982D02*
X145369819Y-113329887D01*
X145369819Y-113329887D02*
X145417438Y-113234649D01*
X145417438Y-113234649D02*
X145465057Y-113187030D01*
X145465057Y-113187030D02*
X145560295Y-113139411D01*
X145560295Y-113139411D02*
X145655533Y-113139411D01*
X145655533Y-113139411D02*
X145798390Y-113187030D01*
X145798390Y-113187030D02*
X146369819Y-113758458D01*
X146369819Y-113758458D02*
X146369819Y-113139411D01*
D10*
G36*
X169601814Y-105150000D02*
G01*
X169434508Y-105150000D01*
X169451360Y-104935310D01*
X169261339Y-104935310D01*
X169191242Y-105150000D01*
X169018562Y-105150000D01*
X169144277Y-104788276D01*
X169309455Y-104788276D01*
X169463084Y-104788276D01*
X169509734Y-104184019D01*
X169507048Y-104184019D01*
X169309455Y-104788276D01*
X169144277Y-104788276D01*
X169436706Y-103946859D01*
X169673377Y-103946859D01*
X169601814Y-105150000D01*
G37*
G36*
X169723447Y-105150000D02*
G01*
X169975750Y-103936601D01*
X170153070Y-103936601D01*
X170089567Y-104242149D01*
X170115186Y-104198865D01*
X170150154Y-104160911D01*
X170161863Y-104151046D01*
X170206869Y-104124499D01*
X170256831Y-104112818D01*
X170272016Y-104112212D01*
X170321275Y-104118008D01*
X170366155Y-104140264D01*
X170391695Y-104171563D01*
X170407419Y-104218461D01*
X170410243Y-104271966D01*
X170404637Y-104322223D01*
X170400732Y-104342777D01*
X170232937Y-105150000D01*
X170056350Y-105150000D01*
X170220725Y-104359874D01*
X170224641Y-104309897D01*
X170217794Y-104285624D01*
X170174603Y-104260809D01*
X170170411Y-104260711D01*
X170123385Y-104274450D01*
X170120586Y-104276343D01*
X170086739Y-104313796D01*
X170082728Y-104320795D01*
X170064295Y-104367019D01*
X170059281Y-104387718D01*
X169900767Y-105150000D01*
X169723447Y-105150000D01*
G37*
G36*
X170417341Y-105150000D02*
G01*
X170630565Y-104124668D01*
X170807641Y-104124668D01*
X170784438Y-104236043D01*
X170811138Y-104192051D01*
X170845506Y-104155820D01*
X170856734Y-104146894D01*
X170901239Y-104123185D01*
X170949933Y-104113058D01*
X170970551Y-104112212D01*
X171020137Y-104118829D01*
X171055303Y-104135659D01*
X171086342Y-104175009D01*
X171097557Y-104215526D01*
X171130789Y-104177519D01*
X171171376Y-104145408D01*
X171180111Y-104140055D01*
X171227753Y-104120070D01*
X171278029Y-104112456D01*
X171289532Y-104112212D01*
X171338864Y-104117525D01*
X171383890Y-104138449D01*
X171413852Y-104179378D01*
X171426262Y-104231448D01*
X171427399Y-104283067D01*
X171421599Y-104335763D01*
X171416294Y-104364515D01*
X171252896Y-105150000D01*
X171076552Y-105150000D01*
X171240195Y-104362561D01*
X171245430Y-104313254D01*
X171238485Y-104284403D01*
X171194033Y-104260711D01*
X171146293Y-104272913D01*
X171125401Y-104289043D01*
X171097901Y-104331987D01*
X171085833Y-104372086D01*
X170924145Y-105150000D01*
X170746824Y-105150000D01*
X170910956Y-104361095D01*
X170915306Y-104311159D01*
X170910956Y-104288066D01*
X170868462Y-104260738D01*
X170866259Y-104260711D01*
X170817900Y-104273369D01*
X170792254Y-104296615D01*
X170766494Y-104341180D01*
X170754152Y-104381612D01*
X170594417Y-105150000D01*
X170417341Y-105150000D01*
G37*
G36*
X171955185Y-104115840D02*
G01*
X172004179Y-104129042D01*
X172015177Y-104134193D01*
X172055337Y-104165183D01*
X172075994Y-104197941D01*
X172090149Y-104246882D01*
X172093824Y-104298080D01*
X172091008Y-104348049D01*
X172084116Y-104398682D01*
X172078192Y-104430216D01*
X172032519Y-104649546D01*
X171713538Y-104649546D01*
X171671528Y-104851290D01*
X171662426Y-104903039D01*
X171657971Y-104952995D01*
X171658094Y-104970969D01*
X171686138Y-105012355D01*
X171710851Y-105015910D01*
X171757425Y-105000957D01*
X171763607Y-104994905D01*
X171788073Y-104952014D01*
X171793161Y-104936531D01*
X171805782Y-104888453D01*
X171813921Y-104851290D01*
X171832728Y-104760921D01*
X172008094Y-104760921D01*
X171996859Y-104815631D01*
X171985449Y-104865567D01*
X171971574Y-104916310D01*
X171956315Y-104962665D01*
X171937275Y-105008060D01*
X171912541Y-105050959D01*
X171897452Y-105071353D01*
X171862838Y-105106182D01*
X171821397Y-105132876D01*
X171808304Y-105139009D01*
X171760773Y-105154032D01*
X171709670Y-105161101D01*
X171676657Y-105162212D01*
X171624404Y-105158777D01*
X171574903Y-105146088D01*
X171557466Y-105137787D01*
X171518650Y-105105442D01*
X171496650Y-105066713D01*
X171484847Y-105018899D01*
X171481868Y-104966914D01*
X171482240Y-104954849D01*
X171486361Y-104903742D01*
X171493519Y-104853031D01*
X171501779Y-104808792D01*
X171557067Y-104543545D01*
X171734787Y-104543545D01*
X171877913Y-104543545D01*
X171905268Y-104412386D01*
X171914343Y-104362439D01*
X171918457Y-104325924D01*
X171912695Y-104276419D01*
X171910886Y-104272923D01*
X171871807Y-104255094D01*
X171823931Y-104269121D01*
X171815631Y-104276343D01*
X171788410Y-104318936D01*
X171782658Y-104334228D01*
X171768652Y-104383726D01*
X171761165Y-104417271D01*
X171734787Y-104543545D01*
X171557067Y-104543545D01*
X171581402Y-104426796D01*
X171593002Y-104379045D01*
X171608749Y-104330639D01*
X171622679Y-104296859D01*
X171646325Y-104252450D01*
X171676299Y-104210937D01*
X171688136Y-104197697D01*
X171725042Y-104165393D01*
X171767370Y-104140288D01*
X171780460Y-104134438D01*
X171830208Y-104119244D01*
X171881678Y-104112754D01*
X171902826Y-104112212D01*
X171955185Y-104115840D01*
G37*
G36*
X172270411Y-105156838D02*
G01*
X172220656Y-105153659D01*
X172175645Y-105140230D01*
X172143528Y-105102121D01*
X172139986Y-105087229D01*
X172139922Y-105036608D01*
X172146824Y-104993440D01*
X172295812Y-104277076D01*
X172213991Y-104277076D01*
X172241346Y-104145917D01*
X172323168Y-104145917D01*
X172364445Y-103946859D01*
X172541521Y-103946859D01*
X172500244Y-104145917D01*
X172597941Y-104145917D01*
X172570586Y-104277076D01*
X172472889Y-104277076D01*
X172330495Y-104961933D01*
X172330251Y-104998325D01*
X172355896Y-105014689D01*
X172406817Y-105018740D01*
X172419644Y-105018841D01*
X172390823Y-105156838D01*
X172270411Y-105156838D01*
G37*
G36*
X172777215Y-105150000D02*
G01*
X173027320Y-103946859D01*
X173422016Y-103946859D01*
X173389288Y-104104884D01*
X173174110Y-104104884D01*
X173101325Y-104454884D01*
X173305757Y-104454884D01*
X173273517Y-104609246D01*
X173069085Y-104609246D01*
X172989706Y-104991974D01*
X173212700Y-104991974D01*
X173179727Y-105150000D01*
X172777215Y-105150000D01*
G37*
G36*
X173356803Y-105150000D02*
G01*
X173534368Y-104295394D01*
X173456943Y-104295394D01*
X173484054Y-104164968D01*
X173562212Y-104164968D01*
X173573447Y-104111723D01*
X173588049Y-104061630D01*
X173612100Y-104015287D01*
X173644521Y-103978122D01*
X173688485Y-103949099D01*
X173735544Y-103934262D01*
X173778855Y-103930495D01*
X173827987Y-103933335D01*
X173849441Y-103937090D01*
X173885589Y-103946859D01*
X173861898Y-104060921D01*
X173822575Y-104058234D01*
X173775041Y-104070069D01*
X173771772Y-104072644D01*
X173748813Y-104117096D01*
X173738799Y-104164968D01*
X173840160Y-104164968D01*
X173813049Y-104295394D01*
X173711688Y-104295394D01*
X173534124Y-105150000D01*
X173356803Y-105150000D01*
G37*
G36*
X174262791Y-104115840D02*
G01*
X174311785Y-104129042D01*
X174322784Y-104134193D01*
X174362944Y-104165183D01*
X174383600Y-104197941D01*
X174397756Y-104246882D01*
X174401430Y-104298080D01*
X174398615Y-104348049D01*
X174391722Y-104398682D01*
X174385799Y-104430216D01*
X174340125Y-104649546D01*
X174021144Y-104649546D01*
X173979134Y-104851290D01*
X173970032Y-104903039D01*
X173965578Y-104952995D01*
X173965701Y-104970969D01*
X173993745Y-105012355D01*
X174018457Y-105015910D01*
X174065031Y-105000957D01*
X174071214Y-104994905D01*
X174095680Y-104952014D01*
X174100767Y-104936531D01*
X174113388Y-104888453D01*
X174121528Y-104851290D01*
X174140334Y-104760921D01*
X174315701Y-104760921D01*
X174304466Y-104815631D01*
X174293055Y-104865567D01*
X174279181Y-104916310D01*
X174263921Y-104962665D01*
X174244882Y-105008060D01*
X174220147Y-105050959D01*
X174205059Y-105071353D01*
X174170444Y-105106182D01*
X174129004Y-105132876D01*
X174115910Y-105139009D01*
X174068379Y-105154032D01*
X174017277Y-105161101D01*
X173984263Y-105162212D01*
X173932011Y-105158777D01*
X173882509Y-105146088D01*
X173865073Y-105137787D01*
X173826256Y-105105442D01*
X173804256Y-105066713D01*
X173792453Y-105018899D01*
X173789475Y-104966914D01*
X173789846Y-104954849D01*
X173793968Y-104903742D01*
X173801125Y-104853031D01*
X173809385Y-104808792D01*
X173864674Y-104543545D01*
X174042393Y-104543545D01*
X174185519Y-104543545D01*
X174212875Y-104412386D01*
X174221949Y-104362439D01*
X174226064Y-104325924D01*
X174220302Y-104276419D01*
X174218492Y-104272923D01*
X174179413Y-104255094D01*
X174131538Y-104269121D01*
X174123237Y-104276343D01*
X174096017Y-104318936D01*
X174090265Y-104334228D01*
X174076259Y-104383726D01*
X174068771Y-104417271D01*
X174042393Y-104543545D01*
X173864674Y-104543545D01*
X173889009Y-104426796D01*
X173900608Y-104379045D01*
X173916356Y-104330639D01*
X173930286Y-104296859D01*
X173953932Y-104252450D01*
X173983905Y-104210937D01*
X173995743Y-104197697D01*
X174032648Y-104165393D01*
X174074977Y-104140288D01*
X174088066Y-104134438D01*
X174137815Y-104119244D01*
X174189284Y-104112754D01*
X174210432Y-104112212D01*
X174262791Y-104115840D01*
G37*
G36*
X175162735Y-105150000D02*
G01*
X174995429Y-105150000D01*
X175012281Y-104935310D01*
X174822260Y-104935310D01*
X174752163Y-105150000D01*
X174579483Y-105150000D01*
X174705198Y-104788276D01*
X174870376Y-104788276D01*
X175024005Y-104788276D01*
X175070655Y-104184019D01*
X175067969Y-104184019D01*
X174870376Y-104788276D01*
X174705198Y-104788276D01*
X174997627Y-103946859D01*
X175234298Y-103946859D01*
X175162735Y-105150000D01*
G37*
G36*
X175284368Y-105150000D02*
G01*
X175536671Y-103936601D01*
X175713991Y-103936601D01*
X175577948Y-104590928D01*
X175845882Y-104124668D01*
X176025645Y-104124668D01*
X175727424Y-104629030D01*
X175823656Y-105150000D01*
X175643405Y-105150000D01*
X175563049Y-104662491D01*
X175461688Y-105150000D01*
X175284368Y-105150000D01*
G37*
G36*
X175872505Y-105331228D02*
G01*
X175898394Y-105206175D01*
X175956524Y-105206175D01*
X176005761Y-105201362D01*
X176007083Y-105201046D01*
X176034438Y-105178820D01*
X176044207Y-105147069D01*
X176049581Y-105103593D01*
X176092323Y-104124668D01*
X176261095Y-104124668D01*
X176216154Y-104648813D01*
X176185380Y-104925052D01*
X176200034Y-104925052D01*
X176281856Y-104648813D01*
X176449651Y-104124668D01*
X176617201Y-104124668D01*
X176221284Y-105193719D01*
X176202116Y-105240191D01*
X176184403Y-105272609D01*
X176149965Y-105309063D01*
X176136043Y-105317062D01*
X176087998Y-105329844D01*
X176060816Y-105331228D01*
X175872505Y-105331228D01*
G37*
G36*
X177033296Y-104115315D02*
G01*
X177083198Y-104127657D01*
X177091277Y-104131018D01*
X177132089Y-104158049D01*
X177154535Y-104187194D01*
X177172258Y-104234988D01*
X177177494Y-104280495D01*
X177175838Y-104332988D01*
X177169060Y-104383638D01*
X177163817Y-104410921D01*
X177010188Y-105150000D01*
X176831646Y-105150000D01*
X176852896Y-105048150D01*
X176825601Y-105090053D01*
X176813817Y-105103105D01*
X176774318Y-105134923D01*
X176756664Y-105144626D01*
X176709794Y-105158731D01*
X176686810Y-105160258D01*
X176635112Y-105154211D01*
X176588980Y-105130395D01*
X176561607Y-105088513D01*
X176560048Y-105083810D01*
X176549988Y-105031011D01*
X176548774Y-104981766D01*
X176552641Y-104937648D01*
X176732101Y-104937648D01*
X176732994Y-104987021D01*
X176733461Y-104989043D01*
X176770937Y-105020516D01*
X176777424Y-105020795D01*
X176824639Y-105005888D01*
X176836043Y-104996371D01*
X176866042Y-104957379D01*
X176870969Y-104946301D01*
X176944487Y-104593614D01*
X176899201Y-104613527D01*
X176869748Y-104628053D01*
X176828008Y-104655178D01*
X176818457Y-104663468D01*
X176788110Y-104702043D01*
X176784752Y-104708408D01*
X176767889Y-104756017D01*
X176764235Y-104771912D01*
X176740300Y-104886706D01*
X176732101Y-104937648D01*
X176552641Y-104937648D01*
X176553636Y-104926292D01*
X176561270Y-104880600D01*
X176574947Y-104815143D01*
X176587255Y-104766857D01*
X176604540Y-104720685D01*
X176625750Y-104681786D01*
X176658234Y-104640600D01*
X176696702Y-104606800D01*
X176708792Y-104598499D01*
X176751536Y-104573675D01*
X176799197Y-104551591D01*
X176822854Y-104542323D01*
X176868829Y-104525463D01*
X176918094Y-104507795D01*
X176965736Y-104491032D01*
X176984298Y-104401395D01*
X176993373Y-104352239D01*
X176997487Y-104318597D01*
X176989183Y-104272923D01*
X176948639Y-104258513D01*
X176901988Y-104273412D01*
X176873681Y-104314843D01*
X176872191Y-104318597D01*
X176857645Y-104365605D01*
X176850697Y-104396022D01*
X176841172Y-104441695D01*
X176666050Y-104441695D01*
X176672400Y-104410921D01*
X176684559Y-104360294D01*
X176700366Y-104310254D01*
X176710013Y-104285380D01*
X176732794Y-104240093D01*
X176762701Y-104198730D01*
X176769364Y-104191346D01*
X176806849Y-104159193D01*
X176851525Y-104135089D01*
X176858025Y-104132484D01*
X176908160Y-104118626D01*
X176957459Y-104112924D01*
X176984298Y-104112212D01*
X177033296Y-104115315D01*
G37*
G36*
X177148918Y-105150000D02*
G01*
X177177250Y-105013224D01*
X177550453Y-104279762D01*
X177346510Y-104279762D01*
X177378750Y-104124668D01*
X177762700Y-104124668D01*
X177735589Y-104255094D01*
X177361653Y-104998325D01*
X177571702Y-104998325D01*
X177540195Y-105150000D01*
X177148918Y-105150000D01*
G37*
G36*
X177691381Y-105150000D02*
G01*
X177904605Y-104124668D01*
X178081437Y-104124668D01*
X177868213Y-105150000D01*
X177691381Y-105150000D01*
G37*
G36*
X169088171Y-106830000D02*
G01*
X169338276Y-105626859D01*
X169517794Y-105626859D01*
X169416678Y-106113635D01*
X169576901Y-106113635D01*
X169678018Y-105626859D01*
X169857048Y-105626859D01*
X169606943Y-106830000D01*
X169427913Y-106830000D01*
X169544173Y-106270928D01*
X169383949Y-106270928D01*
X169267690Y-106830000D01*
X169088171Y-106830000D01*
G37*
G36*
X170305871Y-105795315D02*
G01*
X170355773Y-105807657D01*
X170363852Y-105811018D01*
X170404664Y-105838049D01*
X170427110Y-105867194D01*
X170444833Y-105914988D01*
X170450069Y-105960495D01*
X170448413Y-106012988D01*
X170441635Y-106063638D01*
X170436392Y-106090921D01*
X170282763Y-106830000D01*
X170104221Y-106830000D01*
X170125471Y-106728150D01*
X170098176Y-106770053D01*
X170086392Y-106783105D01*
X170046893Y-106814923D01*
X170029239Y-106824626D01*
X169982369Y-106838731D01*
X169959385Y-106840258D01*
X169907687Y-106834211D01*
X169861555Y-106810395D01*
X169834182Y-106768513D01*
X169832623Y-106763810D01*
X169822563Y-106711011D01*
X169821349Y-106661766D01*
X169825216Y-106617648D01*
X170004676Y-106617648D01*
X170005569Y-106667021D01*
X170006036Y-106669043D01*
X170043512Y-106700516D01*
X170050000Y-106700795D01*
X170097214Y-106685888D01*
X170108618Y-106676371D01*
X170138617Y-106637379D01*
X170143545Y-106626301D01*
X170217062Y-106273614D01*
X170171776Y-106293527D01*
X170142323Y-106308053D01*
X170100583Y-106335178D01*
X170091032Y-106343468D01*
X170060685Y-106382043D01*
X170057327Y-106388408D01*
X170040464Y-106436017D01*
X170036810Y-106451912D01*
X170012875Y-106566706D01*
X170004676Y-106617648D01*
X169825216Y-106617648D01*
X169826211Y-106606292D01*
X169833845Y-106560600D01*
X169847522Y-106495143D01*
X169859830Y-106446857D01*
X169877115Y-106400685D01*
X169898325Y-106361786D01*
X169930809Y-106320600D01*
X169969277Y-106286800D01*
X169981367Y-106278499D01*
X170024111Y-106253675D01*
X170071772Y-106231591D01*
X170095429Y-106222323D01*
X170141404Y-106205463D01*
X170190669Y-106187795D01*
X170238311Y-106171032D01*
X170256873Y-106081395D01*
X170265948Y-106032239D01*
X170270062Y-105998597D01*
X170261758Y-105952923D01*
X170221214Y-105938513D01*
X170174563Y-105953412D01*
X170146256Y-105994843D01*
X170144766Y-105998597D01*
X170130220Y-106045605D01*
X170123272Y-106076022D01*
X170113747Y-106121695D01*
X169938625Y-106121695D01*
X169944975Y-106090921D01*
X169957134Y-106040294D01*
X169972941Y-105990254D01*
X169982588Y-105965380D01*
X170005369Y-105920093D01*
X170035276Y-105878730D01*
X170041939Y-105871346D01*
X170079424Y-105839193D01*
X170124100Y-105815089D01*
X170130600Y-105812484D01*
X170180735Y-105798626D01*
X170230034Y-105792924D01*
X170256873Y-105792212D01*
X170305871Y-105795315D01*
G37*
G36*
X170421493Y-106830000D02*
G01*
X170449825Y-106693224D01*
X170823028Y-105959762D01*
X170619085Y-105959762D01*
X170651325Y-105804668D01*
X171035275Y-105804668D01*
X171008164Y-105935094D01*
X170634228Y-106678325D01*
X170844277Y-106678325D01*
X170812770Y-106830000D01*
X170421493Y-106830000D01*
G37*
G36*
X170963956Y-106830000D02*
G01*
X171177180Y-105804668D01*
X171354012Y-105804668D01*
X171140788Y-106830000D01*
X170963956Y-106830000D01*
G37*
G36*
X171195987Y-105710390D02*
G01*
X171228715Y-105553098D01*
X171407013Y-105553098D01*
X171374284Y-105710390D01*
X171195987Y-105710390D01*
G37*
G36*
X171327390Y-106830000D02*
G01*
X171540614Y-105804668D01*
X171719399Y-105804668D01*
X171695708Y-105918729D01*
X171723106Y-105874780D01*
X171757276Y-105839375D01*
X171775331Y-105825917D01*
X171822321Y-105802876D01*
X171871648Y-105793035D01*
X171892079Y-105792212D01*
X171889148Y-105815659D01*
X171879188Y-105865175D01*
X171878401Y-105868904D01*
X171868337Y-105917738D01*
X171867411Y-105922149D01*
X171862526Y-105945352D01*
X171812654Y-105949611D01*
X171794382Y-105952923D01*
X171745308Y-105967028D01*
X171724528Y-105975882D01*
X171684824Y-106004459D01*
X171675436Y-106016427D01*
X171506175Y-106830000D01*
X171327390Y-106830000D01*
G37*
G36*
X172310616Y-105795315D02*
G01*
X172360518Y-105807657D01*
X172368597Y-105811018D01*
X172409409Y-105838049D01*
X172431856Y-105867194D01*
X172449579Y-105914988D01*
X172454815Y-105960495D01*
X172453158Y-106012988D01*
X172446381Y-106063638D01*
X172441137Y-106090921D01*
X172287508Y-106830000D01*
X172108967Y-106830000D01*
X172130216Y-106728150D01*
X172102922Y-106770053D01*
X172091137Y-106783105D01*
X172051638Y-106814923D01*
X172033984Y-106824626D01*
X171987114Y-106838731D01*
X171964131Y-106840258D01*
X171912433Y-106834211D01*
X171866300Y-106810395D01*
X171838927Y-106768513D01*
X171837369Y-106763810D01*
X171827308Y-106711011D01*
X171826094Y-106661766D01*
X171829961Y-106617648D01*
X172009422Y-106617648D01*
X172010315Y-106667021D01*
X172010781Y-106669043D01*
X172048258Y-106700516D01*
X172054745Y-106700795D01*
X172101960Y-106685888D01*
X172113363Y-106676371D01*
X172143363Y-106637379D01*
X172148290Y-106626301D01*
X172221807Y-106273614D01*
X172176521Y-106293527D01*
X172147069Y-106308053D01*
X172105328Y-106335178D01*
X172095778Y-106343468D01*
X172065430Y-106382043D01*
X172062072Y-106388408D01*
X172045209Y-106436017D01*
X172041556Y-106451912D01*
X172017620Y-106566706D01*
X172009422Y-106617648D01*
X171829961Y-106617648D01*
X171830956Y-106606292D01*
X171838590Y-106560600D01*
X171852267Y-106495143D01*
X171864575Y-106446857D01*
X171881860Y-106400685D01*
X171903070Y-106361786D01*
X171935554Y-106320600D01*
X171974023Y-106286800D01*
X171986113Y-106278499D01*
X172028856Y-106253675D01*
X172076518Y-106231591D01*
X172100174Y-106222323D01*
X172146149Y-106205463D01*
X172195414Y-106187795D01*
X172243056Y-106171032D01*
X172261618Y-106081395D01*
X172270693Y-106032239D01*
X172274808Y-105998597D01*
X172266503Y-105952923D01*
X172225959Y-105938513D01*
X172179309Y-105953412D01*
X172151001Y-105994843D01*
X172149511Y-105998597D01*
X172134965Y-106045605D01*
X172128018Y-106076022D01*
X172118492Y-106121695D01*
X171943370Y-106121695D01*
X171949720Y-106090921D01*
X171961879Y-106040294D01*
X171977687Y-105990254D01*
X171987334Y-105965380D01*
X172010114Y-105920093D01*
X172040021Y-105878730D01*
X172046685Y-105871346D01*
X172084169Y-105839193D01*
X172128845Y-105815089D01*
X172135345Y-105812484D01*
X172185481Y-105798626D01*
X172234779Y-105792924D01*
X172261618Y-105792212D01*
X172310616Y-105795315D01*
G37*
G36*
X172465073Y-106830000D02*
G01*
X172678297Y-105804668D01*
X172855373Y-105804668D01*
X172830949Y-105922149D01*
X172857202Y-105878865D01*
X172893646Y-105840911D01*
X172905931Y-105831046D01*
X172949221Y-105805902D01*
X172999897Y-105793160D01*
X173019016Y-105792212D01*
X173067921Y-105798008D01*
X173112251Y-105820264D01*
X173137229Y-105851563D01*
X173152258Y-105898461D01*
X173154700Y-105951966D01*
X173148960Y-106002223D01*
X173145045Y-106022777D01*
X172977250Y-106830000D01*
X172799930Y-106830000D01*
X172965526Y-106033524D01*
X172967505Y-105983490D01*
X172960397Y-105963914D01*
X172918030Y-105938736D01*
X172911793Y-105938513D01*
X172863606Y-105952954D01*
X172862212Y-105953900D01*
X172828739Y-105989804D01*
X172824842Y-105996399D01*
X172806616Y-106042057D01*
X172802372Y-106059658D01*
X172642149Y-106830000D01*
X172465073Y-106830000D01*
G37*
G36*
X173431053Y-106830000D02*
G01*
X173445708Y-106758925D01*
X173457821Y-106710061D01*
X173473643Y-106662021D01*
X173486252Y-106630453D01*
X173508463Y-106582917D01*
X173532444Y-106538860D01*
X173554640Y-106502470D01*
X173582222Y-106461220D01*
X173612762Y-106418683D01*
X173642777Y-106379298D01*
X173653314Y-106365938D01*
X173810607Y-106168346D01*
X173839572Y-106128375D01*
X173841381Y-106125603D01*
X173865695Y-106081708D01*
X173868004Y-106076755D01*
X173886042Y-106030685D01*
X173890718Y-106016182D01*
X173904087Y-105967416D01*
X173910502Y-105938513D01*
X173919358Y-105889692D01*
X173924126Y-105840811D01*
X173924180Y-105836175D01*
X173914090Y-105787475D01*
X173912700Y-105785617D01*
X173881193Y-105771207D01*
X173842114Y-105783907D01*
X173811421Y-105823185D01*
X173805966Y-105834466D01*
X173788930Y-105882154D01*
X173776554Y-105930823D01*
X173772505Y-105949504D01*
X173740997Y-106101912D01*
X173569783Y-106101912D01*
X173585170Y-106028150D01*
X173597369Y-105973079D01*
X173610455Y-105921561D01*
X173624430Y-105873596D01*
X173641489Y-105823129D01*
X173648185Y-105805401D01*
X173670781Y-105756495D01*
X173697627Y-105714468D01*
X173732441Y-105675838D01*
X173747836Y-105662763D01*
X173791819Y-105636617D01*
X173838745Y-105621364D01*
X173892626Y-105613956D01*
X173918806Y-105613182D01*
X173971183Y-105618521D01*
X174016801Y-105636524D01*
X174043126Y-105658367D01*
X174070663Y-105700078D01*
X174086137Y-105747453D01*
X174090753Y-105779023D01*
X174092535Y-105832814D01*
X174088795Y-105885021D01*
X174081065Y-105934699D01*
X174078785Y-105946085D01*
X174067105Y-105993930D01*
X174050958Y-106042287D01*
X174047278Y-106051598D01*
X174027389Y-106096388D01*
X174003217Y-106141443D01*
X174001605Y-106144166D01*
X173975043Y-106186175D01*
X173946650Y-106225743D01*
X173797173Y-106422602D01*
X173767559Y-106462536D01*
X173737822Y-106503203D01*
X173708879Y-106545273D01*
X173681158Y-106589420D01*
X173656761Y-106633230D01*
X173634404Y-106679938D01*
X173631577Y-106686385D01*
X173902930Y-106686385D01*
X173873133Y-106830000D01*
X173431053Y-106830000D01*
G37*
G36*
X174611383Y-105615328D02*
G01*
X174662823Y-105626665D01*
X174707222Y-105648841D01*
X174742329Y-105683935D01*
X174764697Y-105730477D01*
X174770725Y-105755819D01*
X174775416Y-105808301D01*
X174773244Y-105857123D01*
X174765662Y-105911238D01*
X174761933Y-105930453D01*
X174642254Y-106505401D01*
X174630776Y-106553672D01*
X174615616Y-106602969D01*
X174597801Y-106648283D01*
X174575281Y-106692682D01*
X174546776Y-106734734D01*
X174529658Y-106754773D01*
X174491283Y-106789054D01*
X174447111Y-106815387D01*
X174433426Y-106821451D01*
X174385597Y-106836316D01*
X174336510Y-106843311D01*
X174305687Y-106844410D01*
X174255189Y-106841222D01*
X174203334Y-106828668D01*
X174159141Y-106804110D01*
X174124990Y-106765481D01*
X174105057Y-106719376D01*
X174098569Y-106687850D01*
X174095177Y-106637394D01*
X174096833Y-106602121D01*
X174274180Y-106602121D01*
X174278294Y-106650954D01*
X174280041Y-106655854D01*
X174302267Y-106680279D01*
X174337683Y-106686385D01*
X174374808Y-106680034D01*
X174407780Y-106655122D01*
X174432594Y-106611974D01*
X174436845Y-106601388D01*
X174451614Y-106554788D01*
X174462247Y-106508820D01*
X174584124Y-105922882D01*
X174592251Y-105874191D01*
X174592672Y-105823475D01*
X174569469Y-105780732D01*
X174528192Y-105770474D01*
X174483740Y-105780000D01*
X174447996Y-105814060D01*
X174443196Y-105821765D01*
X174423309Y-105869275D01*
X174410869Y-105917910D01*
X174409979Y-105922149D01*
X174287857Y-106508820D01*
X174278891Y-106558151D01*
X174274180Y-106602121D01*
X174096833Y-106602121D01*
X174097549Y-106586885D01*
X174103972Y-106537933D01*
X174110048Y-106505401D01*
X174229727Y-105930453D01*
X174241741Y-105880521D01*
X174258285Y-105829346D01*
X174278037Y-105783466D01*
X174292986Y-105755819D01*
X174321604Y-105714937D01*
X174358538Y-105677791D01*
X174401186Y-105648841D01*
X174450120Y-105628122D01*
X174500267Y-105616749D01*
X174550007Y-105612591D01*
X174561653Y-105612449D01*
X174611383Y-105615328D01*
G37*
G36*
X174770481Y-106830000D02*
G01*
X174785136Y-106758925D01*
X174797248Y-106710061D01*
X174813071Y-106662021D01*
X174825680Y-106630453D01*
X174847891Y-106582917D01*
X174871871Y-106538860D01*
X174894068Y-106502470D01*
X174921650Y-106461220D01*
X174952190Y-106418683D01*
X174982205Y-106379298D01*
X174992742Y-106365938D01*
X175150034Y-106168346D01*
X175179000Y-106128375D01*
X175180809Y-106125603D01*
X175205122Y-106081708D01*
X175207431Y-106076755D01*
X175225469Y-106030685D01*
X175230146Y-106016182D01*
X175243515Y-105967416D01*
X175249930Y-105938513D01*
X175258785Y-105889692D01*
X175263554Y-105840811D01*
X175263607Y-105836175D01*
X175253518Y-105787475D01*
X175252128Y-105785617D01*
X175220621Y-105771207D01*
X175181542Y-105783907D01*
X175150849Y-105823185D01*
X175145394Y-105834466D01*
X175128358Y-105882154D01*
X175115982Y-105930823D01*
X175111933Y-105949504D01*
X175080425Y-106101912D01*
X174909211Y-106101912D01*
X174924598Y-106028150D01*
X174936797Y-105973079D01*
X174949883Y-105921561D01*
X174963858Y-105873596D01*
X174980917Y-105823129D01*
X174987613Y-105805401D01*
X175010209Y-105756495D01*
X175037055Y-105714468D01*
X175071869Y-105675838D01*
X175087264Y-105662763D01*
X175131247Y-105636617D01*
X175178173Y-105621364D01*
X175232054Y-105613956D01*
X175258234Y-105613182D01*
X175310611Y-105618521D01*
X175356229Y-105636524D01*
X175382554Y-105658367D01*
X175410091Y-105700078D01*
X175425564Y-105747453D01*
X175430181Y-105779023D01*
X175431962Y-105832814D01*
X175428222Y-105885021D01*
X175420492Y-105934699D01*
X175418213Y-105946085D01*
X175406532Y-105993930D01*
X175390386Y-106042287D01*
X175386706Y-106051598D01*
X175366817Y-106096388D01*
X175342644Y-106141443D01*
X175341032Y-106144166D01*
X175314471Y-106186175D01*
X175286078Y-106225743D01*
X175136601Y-106422602D01*
X175106987Y-106462536D01*
X175077250Y-106503203D01*
X175048307Y-106545273D01*
X175020586Y-106589420D01*
X174996189Y-106633230D01*
X174973831Y-106679938D01*
X174971004Y-106686385D01*
X175242358Y-106686385D01*
X175212561Y-106830000D01*
X174770481Y-106830000D01*
G37*
G36*
X175898150Y-106470474D02*
G01*
X175989009Y-106470474D01*
X175958234Y-106617997D01*
X175867376Y-106617997D01*
X175823412Y-106830000D01*
X175663677Y-106830000D01*
X175707641Y-106617997D01*
X175417236Y-106617997D01*
X175445324Y-106483419D01*
X175451928Y-106470474D01*
X175586496Y-106470474D01*
X175738415Y-106470474D01*
X175862002Y-105876475D01*
X175586496Y-106470474D01*
X175451928Y-106470474D01*
X175882274Y-105626859D01*
X176073517Y-105626859D01*
X175898150Y-106470474D01*
G37*
D11*
X138869819Y-115663220D02*
X137869819Y-115663220D01*
X137869819Y-115663220D02*
X137869819Y-115282268D01*
X137869819Y-115282268D02*
X137917438Y-115187030D01*
X137917438Y-115187030D02*
X137965057Y-115139411D01*
X137965057Y-115139411D02*
X138060295Y-115091792D01*
X138060295Y-115091792D02*
X138203152Y-115091792D01*
X138203152Y-115091792D02*
X138298390Y-115139411D01*
X138298390Y-115139411D02*
X138346009Y-115187030D01*
X138346009Y-115187030D02*
X138393628Y-115282268D01*
X138393628Y-115282268D02*
X138393628Y-115663220D01*
X138774580Y-114091792D02*
X138822200Y-114139411D01*
X138822200Y-114139411D02*
X138869819Y-114282268D01*
X138869819Y-114282268D02*
X138869819Y-114377506D01*
X138869819Y-114377506D02*
X138822200Y-114520363D01*
X138822200Y-114520363D02*
X138726961Y-114615601D01*
X138726961Y-114615601D02*
X138631723Y-114663220D01*
X138631723Y-114663220D02*
X138441247Y-114710839D01*
X138441247Y-114710839D02*
X138298390Y-114710839D01*
X138298390Y-114710839D02*
X138107914Y-114663220D01*
X138107914Y-114663220D02*
X138012676Y-114615601D01*
X138012676Y-114615601D02*
X137917438Y-114520363D01*
X137917438Y-114520363D02*
X137869819Y-114377506D01*
X137869819Y-114377506D02*
X137869819Y-114282268D01*
X137869819Y-114282268D02*
X137917438Y-114139411D01*
X137917438Y-114139411D02*
X137965057Y-114091792D01*
X137869819Y-113187030D02*
X137869819Y-113663220D01*
X137869819Y-113663220D02*
X138346009Y-113710839D01*
X138346009Y-113710839D02*
X138298390Y-113663220D01*
X138298390Y-113663220D02*
X138250771Y-113567982D01*
X138250771Y-113567982D02*
X138250771Y-113329887D01*
X138250771Y-113329887D02*
X138298390Y-113234649D01*
X138298390Y-113234649D02*
X138346009Y-113187030D01*
X138346009Y-113187030D02*
X138441247Y-113139411D01*
X138441247Y-113139411D02*
X138679342Y-113139411D01*
X138679342Y-113139411D02*
X138774580Y-113187030D01*
X138774580Y-113187030D02*
X138822200Y-113234649D01*
X138822200Y-113234649D02*
X138869819Y-113329887D01*
X138869819Y-113329887D02*
X138869819Y-113567982D01*
X138869819Y-113567982D02*
X138822200Y-113663220D01*
X138822200Y-113663220D02*
X138774580Y-113710839D01*
X151369819Y-115663220D02*
X150369819Y-115663220D01*
X150369819Y-115663220D02*
X150369819Y-115282268D01*
X150369819Y-115282268D02*
X150417438Y-115187030D01*
X150417438Y-115187030D02*
X150465057Y-115139411D01*
X150465057Y-115139411D02*
X150560295Y-115091792D01*
X150560295Y-115091792D02*
X150703152Y-115091792D01*
X150703152Y-115091792D02*
X150798390Y-115139411D01*
X150798390Y-115139411D02*
X150846009Y-115187030D01*
X150846009Y-115187030D02*
X150893628Y-115282268D01*
X150893628Y-115282268D02*
X150893628Y-115663220D01*
X151274580Y-114091792D02*
X151322200Y-114139411D01*
X151322200Y-114139411D02*
X151369819Y-114282268D01*
X151369819Y-114282268D02*
X151369819Y-114377506D01*
X151369819Y-114377506D02*
X151322200Y-114520363D01*
X151322200Y-114520363D02*
X151226961Y-114615601D01*
X151226961Y-114615601D02*
X151131723Y-114663220D01*
X151131723Y-114663220D02*
X150941247Y-114710839D01*
X150941247Y-114710839D02*
X150798390Y-114710839D01*
X150798390Y-114710839D02*
X150607914Y-114663220D01*
X150607914Y-114663220D02*
X150512676Y-114615601D01*
X150512676Y-114615601D02*
X150417438Y-114520363D01*
X150417438Y-114520363D02*
X150369819Y-114377506D01*
X150369819Y-114377506D02*
X150369819Y-114282268D01*
X150369819Y-114282268D02*
X150417438Y-114139411D01*
X150417438Y-114139411D02*
X150465057Y-114091792D01*
X150369819Y-113472744D02*
X150369819Y-113377506D01*
X150369819Y-113377506D02*
X150417438Y-113282268D01*
X150417438Y-113282268D02*
X150465057Y-113234649D01*
X150465057Y-113234649D02*
X150560295Y-113187030D01*
X150560295Y-113187030D02*
X150750771Y-113139411D01*
X150750771Y-113139411D02*
X150988866Y-113139411D01*
X150988866Y-113139411D02*
X151179342Y-113187030D01*
X151179342Y-113187030D02*
X151274580Y-113234649D01*
X151274580Y-113234649D02*
X151322200Y-113282268D01*
X151322200Y-113282268D02*
X151369819Y-113377506D01*
X151369819Y-113377506D02*
X151369819Y-113472744D01*
X151369819Y-113472744D02*
X151322200Y-113567982D01*
X151322200Y-113567982D02*
X151274580Y-113615601D01*
X151274580Y-113615601D02*
X151179342Y-113663220D01*
X151179342Y-113663220D02*
X150988866Y-113710839D01*
X150988866Y-113710839D02*
X150750771Y-113710839D01*
X150750771Y-113710839D02*
X150560295Y-113663220D01*
X150560295Y-113663220D02*
X150465057Y-113615601D01*
X150465057Y-113615601D02*
X150417438Y-113567982D01*
X150417438Y-113567982D02*
X150369819Y-113472744D01*
X161417438Y-130139411D02*
X161369819Y-130234649D01*
X161369819Y-130234649D02*
X161369819Y-130377506D01*
X161369819Y-130377506D02*
X161417438Y-130520363D01*
X161417438Y-130520363D02*
X161512676Y-130615601D01*
X161512676Y-130615601D02*
X161607914Y-130663220D01*
X161607914Y-130663220D02*
X161798390Y-130710839D01*
X161798390Y-130710839D02*
X161941247Y-130710839D01*
X161941247Y-130710839D02*
X162131723Y-130663220D01*
X162131723Y-130663220D02*
X162226961Y-130615601D01*
X162226961Y-130615601D02*
X162322200Y-130520363D01*
X162322200Y-130520363D02*
X162369819Y-130377506D01*
X162369819Y-130377506D02*
X162369819Y-130282268D01*
X162369819Y-130282268D02*
X162322200Y-130139411D01*
X162322200Y-130139411D02*
X162274580Y-130091792D01*
X162274580Y-130091792D02*
X161941247Y-130091792D01*
X161941247Y-130091792D02*
X161941247Y-130282268D01*
X162369819Y-129663220D02*
X161369819Y-129663220D01*
X161369819Y-129663220D02*
X162369819Y-129091792D01*
X162369819Y-129091792D02*
X161369819Y-129091792D01*
X162369819Y-128615601D02*
X161369819Y-128615601D01*
X161369819Y-128615601D02*
X161369819Y-128377506D01*
X161369819Y-128377506D02*
X161417438Y-128234649D01*
X161417438Y-128234649D02*
X161512676Y-128139411D01*
X161512676Y-128139411D02*
X161607914Y-128091792D01*
X161607914Y-128091792D02*
X161798390Y-128044173D01*
X161798390Y-128044173D02*
X161941247Y-128044173D01*
X161941247Y-128044173D02*
X162131723Y-128091792D01*
X162131723Y-128091792D02*
X162226961Y-128139411D01*
X162226961Y-128139411D02*
X162322200Y-128234649D01*
X162322200Y-128234649D02*
X162369819Y-128377506D01*
X162369819Y-128377506D02*
X162369819Y-128615601D01*
X143869819Y-115663220D02*
X142869819Y-115663220D01*
X142869819Y-115663220D02*
X142869819Y-115282268D01*
X142869819Y-115282268D02*
X142917438Y-115187030D01*
X142917438Y-115187030D02*
X142965057Y-115139411D01*
X142965057Y-115139411D02*
X143060295Y-115091792D01*
X143060295Y-115091792D02*
X143203152Y-115091792D01*
X143203152Y-115091792D02*
X143298390Y-115139411D01*
X143298390Y-115139411D02*
X143346009Y-115187030D01*
X143346009Y-115187030D02*
X143393628Y-115282268D01*
X143393628Y-115282268D02*
X143393628Y-115663220D01*
X143774580Y-114091792D02*
X143822200Y-114139411D01*
X143822200Y-114139411D02*
X143869819Y-114282268D01*
X143869819Y-114282268D02*
X143869819Y-114377506D01*
X143869819Y-114377506D02*
X143822200Y-114520363D01*
X143822200Y-114520363D02*
X143726961Y-114615601D01*
X143726961Y-114615601D02*
X143631723Y-114663220D01*
X143631723Y-114663220D02*
X143441247Y-114710839D01*
X143441247Y-114710839D02*
X143298390Y-114710839D01*
X143298390Y-114710839D02*
X143107914Y-114663220D01*
X143107914Y-114663220D02*
X143012676Y-114615601D01*
X143012676Y-114615601D02*
X142917438Y-114520363D01*
X142917438Y-114520363D02*
X142869819Y-114377506D01*
X142869819Y-114377506D02*
X142869819Y-114282268D01*
X142869819Y-114282268D02*
X142917438Y-114139411D01*
X142917438Y-114139411D02*
X142965057Y-114091792D01*
X142869819Y-113758458D02*
X142869819Y-113139411D01*
X142869819Y-113139411D02*
X143250771Y-113472744D01*
X143250771Y-113472744D02*
X143250771Y-113329887D01*
X143250771Y-113329887D02*
X143298390Y-113234649D01*
X143298390Y-113234649D02*
X143346009Y-113187030D01*
X143346009Y-113187030D02*
X143441247Y-113139411D01*
X143441247Y-113139411D02*
X143679342Y-113139411D01*
X143679342Y-113139411D02*
X143774580Y-113187030D01*
X143774580Y-113187030D02*
X143822200Y-113234649D01*
X143822200Y-113234649D02*
X143869819Y-113329887D01*
X143869819Y-113329887D02*
X143869819Y-113615601D01*
X143869819Y-113615601D02*
X143822200Y-113710839D01*
X143822200Y-113710839D02*
X143774580Y-113758458D01*
D12*
X106089598Y-129372419D02*
X106089598Y-130086704D01*
X106089598Y-130086704D02*
X106041979Y-130229561D01*
X106041979Y-130229561D02*
X105946741Y-130324800D01*
X105946741Y-130324800D02*
X105803884Y-130372419D01*
X105803884Y-130372419D02*
X105708646Y-130372419D01*
X107041979Y-130372419D02*
X106565789Y-130372419D01*
X106565789Y-130372419D02*
X106565789Y-129372419D01*
X107946741Y-130277180D02*
X107899122Y-130324800D01*
X107899122Y-130324800D02*
X107756265Y-130372419D01*
X107756265Y-130372419D02*
X107661027Y-130372419D01*
X107661027Y-130372419D02*
X107518170Y-130324800D01*
X107518170Y-130324800D02*
X107422932Y-130229561D01*
X107422932Y-130229561D02*
X107375313Y-130134323D01*
X107375313Y-130134323D02*
X107327694Y-129943847D01*
X107327694Y-129943847D02*
X107327694Y-129800990D01*
X107327694Y-129800990D02*
X107375313Y-129610514D01*
X107375313Y-129610514D02*
X107422932Y-129515276D01*
X107422932Y-129515276D02*
X107518170Y-129420038D01*
X107518170Y-129420038D02*
X107661027Y-129372419D01*
X107661027Y-129372419D02*
X107756265Y-129372419D01*
X107756265Y-129372419D02*
X107899122Y-129420038D01*
X107899122Y-129420038D02*
X107946741Y-129467657D01*
X108661027Y-129372419D02*
X108661027Y-130086704D01*
X108661027Y-130086704D02*
X108613408Y-130229561D01*
X108613408Y-130229561D02*
X108518170Y-130324800D01*
X108518170Y-130324800D02*
X108375313Y-130372419D01*
X108375313Y-130372419D02*
X108280075Y-130372419D01*
X109613408Y-130372419D02*
X109137218Y-130372419D01*
X109137218Y-130372419D02*
X109137218Y-129372419D01*
X110518170Y-130277180D02*
X110470551Y-130324800D01*
X110470551Y-130324800D02*
X110327694Y-130372419D01*
X110327694Y-130372419D02*
X110232456Y-130372419D01*
X110232456Y-130372419D02*
X110089599Y-130324800D01*
X110089599Y-130324800D02*
X109994361Y-130229561D01*
X109994361Y-130229561D02*
X109946742Y-130134323D01*
X109946742Y-130134323D02*
X109899123Y-129943847D01*
X109899123Y-129943847D02*
X109899123Y-129800990D01*
X109899123Y-129800990D02*
X109946742Y-129610514D01*
X109946742Y-129610514D02*
X109994361Y-129515276D01*
X109994361Y-129515276D02*
X110089599Y-129420038D01*
X110089599Y-129420038D02*
X110232456Y-129372419D01*
X110232456Y-129372419D02*
X110327694Y-129372419D01*
X110327694Y-129372419D02*
X110470551Y-129420038D01*
X110470551Y-129420038D02*
X110518170Y-129467657D01*
X111232456Y-129372419D02*
X111232456Y-130086704D01*
X111232456Y-130086704D02*
X111184837Y-130229561D01*
X111184837Y-130229561D02*
X111089599Y-130324800D01*
X111089599Y-130324800D02*
X110946742Y-130372419D01*
X110946742Y-130372419D02*
X110851504Y-130372419D01*
X112184837Y-130372419D02*
X111708647Y-130372419D01*
X111708647Y-130372419D02*
X111708647Y-129372419D01*
X113089599Y-130277180D02*
X113041980Y-130324800D01*
X113041980Y-130324800D02*
X112899123Y-130372419D01*
X112899123Y-130372419D02*
X112803885Y-130372419D01*
X112803885Y-130372419D02*
X112661028Y-130324800D01*
X112661028Y-130324800D02*
X112565790Y-130229561D01*
X112565790Y-130229561D02*
X112518171Y-130134323D01*
X112518171Y-130134323D02*
X112470552Y-129943847D01*
X112470552Y-129943847D02*
X112470552Y-129800990D01*
X112470552Y-129800990D02*
X112518171Y-129610514D01*
X112518171Y-129610514D02*
X112565790Y-129515276D01*
X112565790Y-129515276D02*
X112661028Y-129420038D01*
X112661028Y-129420038D02*
X112803885Y-129372419D01*
X112803885Y-129372419D02*
X112899123Y-129372419D01*
X112899123Y-129372419D02*
X113041980Y-129420038D01*
X113041980Y-129420038D02*
X113089599Y-129467657D01*
X113803885Y-129372419D02*
X113803885Y-130086704D01*
X113803885Y-130086704D02*
X113756266Y-130229561D01*
X113756266Y-130229561D02*
X113661028Y-130324800D01*
X113661028Y-130324800D02*
X113518171Y-130372419D01*
X113518171Y-130372419D02*
X113422933Y-130372419D01*
X114756266Y-130372419D02*
X114280076Y-130372419D01*
X114280076Y-130372419D02*
X114280076Y-129372419D01*
X115661028Y-130277180D02*
X115613409Y-130324800D01*
X115613409Y-130324800D02*
X115470552Y-130372419D01*
X115470552Y-130372419D02*
X115375314Y-130372419D01*
X115375314Y-130372419D02*
X115232457Y-130324800D01*
X115232457Y-130324800D02*
X115137219Y-130229561D01*
X115137219Y-130229561D02*
X115089600Y-130134323D01*
X115089600Y-130134323D02*
X115041981Y-129943847D01*
X115041981Y-129943847D02*
X115041981Y-129800990D01*
X115041981Y-129800990D02*
X115089600Y-129610514D01*
X115089600Y-129610514D02*
X115137219Y-129515276D01*
X115137219Y-129515276D02*
X115232457Y-129420038D01*
X115232457Y-129420038D02*
X115375314Y-129372419D01*
X115375314Y-129372419D02*
X115470552Y-129372419D01*
X115470552Y-129372419D02*
X115613409Y-129420038D01*
X115613409Y-129420038D02*
X115661028Y-129467657D01*
D11*
X162193922Y-132869819D02*
X162527255Y-133869819D01*
X162527255Y-133869819D02*
X162860588Y-132869819D01*
X163765350Y-133774580D02*
X163717731Y-133822200D01*
X163717731Y-133822200D02*
X163574874Y-133869819D01*
X163574874Y-133869819D02*
X163479636Y-133869819D01*
X163479636Y-133869819D02*
X163336779Y-133822200D01*
X163336779Y-133822200D02*
X163241541Y-133726961D01*
X163241541Y-133726961D02*
X163193922Y-133631723D01*
X163193922Y-133631723D02*
X163146303Y-133441247D01*
X163146303Y-133441247D02*
X163146303Y-133298390D01*
X163146303Y-133298390D02*
X163193922Y-133107914D01*
X163193922Y-133107914D02*
X163241541Y-133012676D01*
X163241541Y-133012676D02*
X163336779Y-132917438D01*
X163336779Y-132917438D02*
X163479636Y-132869819D01*
X163479636Y-132869819D02*
X163574874Y-132869819D01*
X163574874Y-132869819D02*
X163717731Y-132917438D01*
X163717731Y-132917438D02*
X163765350Y-132965057D01*
X164765350Y-133774580D02*
X164717731Y-133822200D01*
X164717731Y-133822200D02*
X164574874Y-133869819D01*
X164574874Y-133869819D02*
X164479636Y-133869819D01*
X164479636Y-133869819D02*
X164336779Y-133822200D01*
X164336779Y-133822200D02*
X164241541Y-133726961D01*
X164241541Y-133726961D02*
X164193922Y-133631723D01*
X164193922Y-133631723D02*
X164146303Y-133441247D01*
X164146303Y-133441247D02*
X164146303Y-133298390D01*
X164146303Y-133298390D02*
X164193922Y-133107914D01*
X164193922Y-133107914D02*
X164241541Y-133012676D01*
X164241541Y-133012676D02*
X164336779Y-132917438D01*
X164336779Y-132917438D02*
X164479636Y-132869819D01*
X164479636Y-132869819D02*
X164574874Y-132869819D01*
X164574874Y-132869819D02*
X164717731Y-132917438D01*
X164717731Y-132917438D02*
X164765350Y-132965057D01*
X148869819Y-115663220D02*
X147869819Y-115663220D01*
X147869819Y-115663220D02*
X147869819Y-115282268D01*
X147869819Y-115282268D02*
X147917438Y-115187030D01*
X147917438Y-115187030D02*
X147965057Y-115139411D01*
X147965057Y-115139411D02*
X148060295Y-115091792D01*
X148060295Y-115091792D02*
X148203152Y-115091792D01*
X148203152Y-115091792D02*
X148298390Y-115139411D01*
X148298390Y-115139411D02*
X148346009Y-115187030D01*
X148346009Y-115187030D02*
X148393628Y-115282268D01*
X148393628Y-115282268D02*
X148393628Y-115663220D01*
X148774580Y-114091792D02*
X148822200Y-114139411D01*
X148822200Y-114139411D02*
X148869819Y-114282268D01*
X148869819Y-114282268D02*
X148869819Y-114377506D01*
X148869819Y-114377506D02*
X148822200Y-114520363D01*
X148822200Y-114520363D02*
X148726961Y-114615601D01*
X148726961Y-114615601D02*
X148631723Y-114663220D01*
X148631723Y-114663220D02*
X148441247Y-114710839D01*
X148441247Y-114710839D02*
X148298390Y-114710839D01*
X148298390Y-114710839D02*
X148107914Y-114663220D01*
X148107914Y-114663220D02*
X148012676Y-114615601D01*
X148012676Y-114615601D02*
X147917438Y-114520363D01*
X147917438Y-114520363D02*
X147869819Y-114377506D01*
X147869819Y-114377506D02*
X147869819Y-114282268D01*
X147869819Y-114282268D02*
X147917438Y-114139411D01*
X147917438Y-114139411D02*
X147965057Y-114091792D01*
X148869819Y-113139411D02*
X148869819Y-113710839D01*
X148869819Y-113425125D02*
X147869819Y-113425125D01*
X147869819Y-113425125D02*
X148012676Y-113520363D01*
X148012676Y-113520363D02*
X148107914Y-113615601D01*
X148107914Y-113615601D02*
X148155533Y-113710839D01*
X162193922Y-137869819D02*
X162527255Y-138869819D01*
X162527255Y-138869819D02*
X162860588Y-137869819D01*
X163765350Y-138774580D02*
X163717731Y-138822200D01*
X163717731Y-138822200D02*
X163574874Y-138869819D01*
X163574874Y-138869819D02*
X163479636Y-138869819D01*
X163479636Y-138869819D02*
X163336779Y-138822200D01*
X163336779Y-138822200D02*
X163241541Y-138726961D01*
X163241541Y-138726961D02*
X163193922Y-138631723D01*
X163193922Y-138631723D02*
X163146303Y-138441247D01*
X163146303Y-138441247D02*
X163146303Y-138298390D01*
X163146303Y-138298390D02*
X163193922Y-138107914D01*
X163193922Y-138107914D02*
X163241541Y-138012676D01*
X163241541Y-138012676D02*
X163336779Y-137917438D01*
X163336779Y-137917438D02*
X163479636Y-137869819D01*
X163479636Y-137869819D02*
X163574874Y-137869819D01*
X163574874Y-137869819D02*
X163717731Y-137917438D01*
X163717731Y-137917438D02*
X163765350Y-137965057D01*
X164765350Y-138774580D02*
X164717731Y-138822200D01*
X164717731Y-138822200D02*
X164574874Y-138869819D01*
X164574874Y-138869819D02*
X164479636Y-138869819D01*
X164479636Y-138869819D02*
X164336779Y-138822200D01*
X164336779Y-138822200D02*
X164241541Y-138726961D01*
X164241541Y-138726961D02*
X164193922Y-138631723D01*
X164193922Y-138631723D02*
X164146303Y-138441247D01*
X164146303Y-138441247D02*
X164146303Y-138298390D01*
X164146303Y-138298390D02*
X164193922Y-138107914D01*
X164193922Y-138107914D02*
X164241541Y-138012676D01*
X164241541Y-138012676D02*
X164336779Y-137917438D01*
X164336779Y-137917438D02*
X164479636Y-137869819D01*
X164479636Y-137869819D02*
X164574874Y-137869819D01*
X164574874Y-137869819D02*
X164717731Y-137917438D01*
X164717731Y-137917438D02*
X164765350Y-137965057D01*
X162193922Y-135369819D02*
X162527255Y-136369819D01*
X162527255Y-136369819D02*
X162860588Y-135369819D01*
X163765350Y-136274580D02*
X163717731Y-136322200D01*
X163717731Y-136322200D02*
X163574874Y-136369819D01*
X163574874Y-136369819D02*
X163479636Y-136369819D01*
X163479636Y-136369819D02*
X163336779Y-136322200D01*
X163336779Y-136322200D02*
X163241541Y-136226961D01*
X163241541Y-136226961D02*
X163193922Y-136131723D01*
X163193922Y-136131723D02*
X163146303Y-135941247D01*
X163146303Y-135941247D02*
X163146303Y-135798390D01*
X163146303Y-135798390D02*
X163193922Y-135607914D01*
X163193922Y-135607914D02*
X163241541Y-135512676D01*
X163241541Y-135512676D02*
X163336779Y-135417438D01*
X163336779Y-135417438D02*
X163479636Y-135369819D01*
X163479636Y-135369819D02*
X163574874Y-135369819D01*
X163574874Y-135369819D02*
X163717731Y-135417438D01*
X163717731Y-135417438D02*
X163765350Y-135465057D01*
X164765350Y-136274580D02*
X164717731Y-136322200D01*
X164717731Y-136322200D02*
X164574874Y-136369819D01*
X164574874Y-136369819D02*
X164479636Y-136369819D01*
X164479636Y-136369819D02*
X164336779Y-136322200D01*
X164336779Y-136322200D02*
X164241541Y-136226961D01*
X164241541Y-136226961D02*
X164193922Y-136131723D01*
X164193922Y-136131723D02*
X164146303Y-135941247D01*
X164146303Y-135941247D02*
X164146303Y-135798390D01*
X164146303Y-135798390D02*
X164193922Y-135607914D01*
X164193922Y-135607914D02*
X164241541Y-135512676D01*
X164241541Y-135512676D02*
X164336779Y-135417438D01*
X164336779Y-135417438D02*
X164479636Y-135369819D01*
X164479636Y-135369819D02*
X164574874Y-135369819D01*
X164574874Y-135369819D02*
X164717731Y-135417438D01*
X164717731Y-135417438D02*
X164765350Y-135465057D01*
X141369819Y-115663220D02*
X140369819Y-115663220D01*
X140369819Y-115663220D02*
X140369819Y-115282268D01*
X140369819Y-115282268D02*
X140417438Y-115187030D01*
X140417438Y-115187030D02*
X140465057Y-115139411D01*
X140465057Y-115139411D02*
X140560295Y-115091792D01*
X140560295Y-115091792D02*
X140703152Y-115091792D01*
X140703152Y-115091792D02*
X140798390Y-115139411D01*
X140798390Y-115139411D02*
X140846009Y-115187030D01*
X140846009Y-115187030D02*
X140893628Y-115282268D01*
X140893628Y-115282268D02*
X140893628Y-115663220D01*
X141274580Y-114091792D02*
X141322200Y-114139411D01*
X141322200Y-114139411D02*
X141369819Y-114282268D01*
X141369819Y-114282268D02*
X141369819Y-114377506D01*
X141369819Y-114377506D02*
X141322200Y-114520363D01*
X141322200Y-114520363D02*
X141226961Y-114615601D01*
X141226961Y-114615601D02*
X141131723Y-114663220D01*
X141131723Y-114663220D02*
X140941247Y-114710839D01*
X140941247Y-114710839D02*
X140798390Y-114710839D01*
X140798390Y-114710839D02*
X140607914Y-114663220D01*
X140607914Y-114663220D02*
X140512676Y-114615601D01*
X140512676Y-114615601D02*
X140417438Y-114520363D01*
X140417438Y-114520363D02*
X140369819Y-114377506D01*
X140369819Y-114377506D02*
X140369819Y-114282268D01*
X140369819Y-114282268D02*
X140417438Y-114139411D01*
X140417438Y-114139411D02*
X140465057Y-114091792D01*
X140703152Y-113234649D02*
X141369819Y-113234649D01*
X140322200Y-113472744D02*
X141036485Y-113710839D01*
X141036485Y-113710839D02*
X141036485Y-113091792D01*
X178844405Y-98639819D02*
X178844405Y-97639819D01*
X178844405Y-97639819D02*
X179082500Y-97639819D01*
X179082500Y-97639819D02*
X179225357Y-97687438D01*
X179225357Y-97687438D02*
X179320595Y-97782676D01*
X179320595Y-97782676D02*
X179368214Y-97877914D01*
X179368214Y-97877914D02*
X179415833Y-98068390D01*
X179415833Y-98068390D02*
X179415833Y-98211247D01*
X179415833Y-98211247D02*
X179368214Y-98401723D01*
X179368214Y-98401723D02*
X179320595Y-98496961D01*
X179320595Y-98496961D02*
X179225357Y-98592200D01*
X179225357Y-98592200D02*
X179082500Y-98639819D01*
X179082500Y-98639819D02*
X178844405Y-98639819D01*
X180368214Y-98639819D02*
X179796786Y-98639819D01*
X180082500Y-98639819D02*
X180082500Y-97639819D01*
X180082500Y-97639819D02*
X179987262Y-97782676D01*
X179987262Y-97782676D02*
X179892024Y-97877914D01*
X179892024Y-97877914D02*
X179796786Y-97925533D01*
X123023333Y-103584819D02*
X122690000Y-103108628D01*
X122451905Y-103584819D02*
X122451905Y-102584819D01*
X122451905Y-102584819D02*
X122832857Y-102584819D01*
X122832857Y-102584819D02*
X122928095Y-102632438D01*
X122928095Y-102632438D02*
X122975714Y-102680057D01*
X122975714Y-102680057D02*
X123023333Y-102775295D01*
X123023333Y-102775295D02*
X123023333Y-102918152D01*
X123023333Y-102918152D02*
X122975714Y-103013390D01*
X122975714Y-103013390D02*
X122928095Y-103061009D01*
X122928095Y-103061009D02*
X122832857Y-103108628D01*
X122832857Y-103108628D02*
X122451905Y-103108628D01*
X123499524Y-103584819D02*
X123690000Y-103584819D01*
X123690000Y-103584819D02*
X123785238Y-103537200D01*
X123785238Y-103537200D02*
X123832857Y-103489580D01*
X123832857Y-103489580D02*
X123928095Y-103346723D01*
X123928095Y-103346723D02*
X123975714Y-103156247D01*
X123975714Y-103156247D02*
X123975714Y-102775295D01*
X123975714Y-102775295D02*
X123928095Y-102680057D01*
X123928095Y-102680057D02*
X123880476Y-102632438D01*
X123880476Y-102632438D02*
X123785238Y-102584819D01*
X123785238Y-102584819D02*
X123594762Y-102584819D01*
X123594762Y-102584819D02*
X123499524Y-102632438D01*
X123499524Y-102632438D02*
X123451905Y-102680057D01*
X123451905Y-102680057D02*
X123404286Y-102775295D01*
X123404286Y-102775295D02*
X123404286Y-103013390D01*
X123404286Y-103013390D02*
X123451905Y-103108628D01*
X123451905Y-103108628D02*
X123499524Y-103156247D01*
X123499524Y-103156247D02*
X123594762Y-103203866D01*
X123594762Y-103203866D02*
X123785238Y-103203866D01*
X123785238Y-103203866D02*
X123880476Y-103156247D01*
X123880476Y-103156247D02*
X123928095Y-103108628D01*
X123928095Y-103108628D02*
X123975714Y-103013390D01*
X148844405Y-98639819D02*
X148844405Y-97639819D01*
X148844405Y-97639819D02*
X149082500Y-97639819D01*
X149082500Y-97639819D02*
X149225357Y-97687438D01*
X149225357Y-97687438D02*
X149320595Y-97782676D01*
X149320595Y-97782676D02*
X149368214Y-97877914D01*
X149368214Y-97877914D02*
X149415833Y-98068390D01*
X149415833Y-98068390D02*
X149415833Y-98211247D01*
X149415833Y-98211247D02*
X149368214Y-98401723D01*
X149368214Y-98401723D02*
X149320595Y-98496961D01*
X149320595Y-98496961D02*
X149225357Y-98592200D01*
X149225357Y-98592200D02*
X149082500Y-98639819D01*
X149082500Y-98639819D02*
X148844405Y-98639819D01*
X150320595Y-97639819D02*
X149844405Y-97639819D01*
X149844405Y-97639819D02*
X149796786Y-98116009D01*
X149796786Y-98116009D02*
X149844405Y-98068390D01*
X149844405Y-98068390D02*
X149939643Y-98020771D01*
X149939643Y-98020771D02*
X150177738Y-98020771D01*
X150177738Y-98020771D02*
X150272976Y-98068390D01*
X150272976Y-98068390D02*
X150320595Y-98116009D01*
X150320595Y-98116009D02*
X150368214Y-98211247D01*
X150368214Y-98211247D02*
X150368214Y-98449342D01*
X150368214Y-98449342D02*
X150320595Y-98544580D01*
X150320595Y-98544580D02*
X150272976Y-98592200D01*
X150272976Y-98592200D02*
X150177738Y-98639819D01*
X150177738Y-98639819D02*
X149939643Y-98639819D01*
X149939643Y-98639819D02*
X149844405Y-98592200D01*
X149844405Y-98592200D02*
X149796786Y-98544580D01*
X159666666Y-140604819D02*
X159666666Y-141319104D01*
X159666666Y-141319104D02*
X159619047Y-141461961D01*
X159619047Y-141461961D02*
X159523809Y-141557200D01*
X159523809Y-141557200D02*
X159380952Y-141604819D01*
X159380952Y-141604819D02*
X159285714Y-141604819D01*
X160571428Y-140938152D02*
X160571428Y-141604819D01*
X160333333Y-140557200D02*
X160095238Y-141271485D01*
X160095238Y-141271485D02*
X160714285Y-141271485D01*
X130748095Y-130534819D02*
X130748095Y-131344342D01*
X130748095Y-131344342D02*
X130795714Y-131439580D01*
X130795714Y-131439580D02*
X130843333Y-131487200D01*
X130843333Y-131487200D02*
X130938571Y-131534819D01*
X130938571Y-131534819D02*
X131129047Y-131534819D01*
X131129047Y-131534819D02*
X131224285Y-131487200D01*
X131224285Y-131487200D02*
X131271904Y-131439580D01*
X131271904Y-131439580D02*
X131319523Y-131344342D01*
X131319523Y-131344342D02*
X131319523Y-130534819D01*
X132319523Y-131534819D02*
X131748095Y-131534819D01*
X132033809Y-131534819D02*
X132033809Y-130534819D01*
X132033809Y-130534819D02*
X131938571Y-130677676D01*
X131938571Y-130677676D02*
X131843333Y-130772914D01*
X131843333Y-130772914D02*
X131748095Y-130820533D01*
X164793810Y-122584819D02*
X164793810Y-121584819D01*
X165222381Y-122537200D02*
X165365238Y-122584819D01*
X165365238Y-122584819D02*
X165603333Y-122584819D01*
X165603333Y-122584819D02*
X165698571Y-122537200D01*
X165698571Y-122537200D02*
X165746190Y-122489580D01*
X165746190Y-122489580D02*
X165793809Y-122394342D01*
X165793809Y-122394342D02*
X165793809Y-122299104D01*
X165793809Y-122299104D02*
X165746190Y-122203866D01*
X165746190Y-122203866D02*
X165698571Y-122156247D01*
X165698571Y-122156247D02*
X165603333Y-122108628D01*
X165603333Y-122108628D02*
X165412857Y-122061009D01*
X165412857Y-122061009D02*
X165317619Y-122013390D01*
X165317619Y-122013390D02*
X165270000Y-121965771D01*
X165270000Y-121965771D02*
X165222381Y-121870533D01*
X165222381Y-121870533D02*
X165222381Y-121775295D01*
X165222381Y-121775295D02*
X165270000Y-121680057D01*
X165270000Y-121680057D02*
X165317619Y-121632438D01*
X165317619Y-121632438D02*
X165412857Y-121584819D01*
X165412857Y-121584819D02*
X165650952Y-121584819D01*
X165650952Y-121584819D02*
X165793809Y-121632438D01*
X166222381Y-122584819D02*
X166222381Y-121584819D01*
X166222381Y-121584819D02*
X166603333Y-121584819D01*
X166603333Y-121584819D02*
X166698571Y-121632438D01*
X166698571Y-121632438D02*
X166746190Y-121680057D01*
X166746190Y-121680057D02*
X166793809Y-121775295D01*
X166793809Y-121775295D02*
X166793809Y-121918152D01*
X166793809Y-121918152D02*
X166746190Y-122013390D01*
X166746190Y-122013390D02*
X166698571Y-122061009D01*
X166698571Y-122061009D02*
X166603333Y-122108628D01*
X166603333Y-122108628D02*
X166222381Y-122108628D01*
X133844405Y-98639819D02*
X133844405Y-97639819D01*
X133844405Y-97639819D02*
X134082500Y-97639819D01*
X134082500Y-97639819D02*
X134225357Y-97687438D01*
X134225357Y-97687438D02*
X134320595Y-97782676D01*
X134320595Y-97782676D02*
X134368214Y-97877914D01*
X134368214Y-97877914D02*
X134415833Y-98068390D01*
X134415833Y-98068390D02*
X134415833Y-98211247D01*
X134415833Y-98211247D02*
X134368214Y-98401723D01*
X134368214Y-98401723D02*
X134320595Y-98496961D01*
X134320595Y-98496961D02*
X134225357Y-98592200D01*
X134225357Y-98592200D02*
X134082500Y-98639819D01*
X134082500Y-98639819D02*
X133844405Y-98639819D01*
X134749167Y-97639819D02*
X135415833Y-97639819D01*
X135415833Y-97639819D02*
X134987262Y-98639819D01*
X156344405Y-98639819D02*
X156344405Y-97639819D01*
X156344405Y-97639819D02*
X156582500Y-97639819D01*
X156582500Y-97639819D02*
X156725357Y-97687438D01*
X156725357Y-97687438D02*
X156820595Y-97782676D01*
X156820595Y-97782676D02*
X156868214Y-97877914D01*
X156868214Y-97877914D02*
X156915833Y-98068390D01*
X156915833Y-98068390D02*
X156915833Y-98211247D01*
X156915833Y-98211247D02*
X156868214Y-98401723D01*
X156868214Y-98401723D02*
X156820595Y-98496961D01*
X156820595Y-98496961D02*
X156725357Y-98592200D01*
X156725357Y-98592200D02*
X156582500Y-98639819D01*
X156582500Y-98639819D02*
X156344405Y-98639819D01*
X157772976Y-97973152D02*
X157772976Y-98639819D01*
X157534881Y-97592200D02*
X157296786Y-98306485D01*
X157296786Y-98306485D02*
X157915833Y-98306485D01*
X129047618Y-112704819D02*
X128714285Y-112228628D01*
X128476190Y-112704819D02*
X128476190Y-111704819D01*
X128476190Y-111704819D02*
X128857142Y-111704819D01*
X128857142Y-111704819D02*
X128952380Y-111752438D01*
X128952380Y-111752438D02*
X128999999Y-111800057D01*
X128999999Y-111800057D02*
X129047618Y-111895295D01*
X129047618Y-111895295D02*
X129047618Y-112038152D01*
X129047618Y-112038152D02*
X128999999Y-112133390D01*
X128999999Y-112133390D02*
X128952380Y-112181009D01*
X128952380Y-112181009D02*
X128857142Y-112228628D01*
X128857142Y-112228628D02*
X128476190Y-112228628D01*
X129476190Y-112181009D02*
X129809523Y-112181009D01*
X129952380Y-112704819D02*
X129476190Y-112704819D01*
X129476190Y-112704819D02*
X129476190Y-111704819D01*
X129476190Y-111704819D02*
X129952380Y-111704819D01*
X130333333Y-112657200D02*
X130476190Y-112704819D01*
X130476190Y-112704819D02*
X130714285Y-112704819D01*
X130714285Y-112704819D02*
X130809523Y-112657200D01*
X130809523Y-112657200D02*
X130857142Y-112609580D01*
X130857142Y-112609580D02*
X130904761Y-112514342D01*
X130904761Y-112514342D02*
X130904761Y-112419104D01*
X130904761Y-112419104D02*
X130857142Y-112323866D01*
X130857142Y-112323866D02*
X130809523Y-112276247D01*
X130809523Y-112276247D02*
X130714285Y-112228628D01*
X130714285Y-112228628D02*
X130523809Y-112181009D01*
X130523809Y-112181009D02*
X130428571Y-112133390D01*
X130428571Y-112133390D02*
X130380952Y-112085771D01*
X130380952Y-112085771D02*
X130333333Y-111990533D01*
X130333333Y-111990533D02*
X130333333Y-111895295D01*
X130333333Y-111895295D02*
X130380952Y-111800057D01*
X130380952Y-111800057D02*
X130428571Y-111752438D01*
X130428571Y-111752438D02*
X130523809Y-111704819D01*
X130523809Y-111704819D02*
X130761904Y-111704819D01*
X130761904Y-111704819D02*
X130904761Y-111752438D01*
X131333333Y-112181009D02*
X131666666Y-112181009D01*
X131809523Y-112704819D02*
X131333333Y-112704819D01*
X131333333Y-112704819D02*
X131333333Y-111704819D01*
X131333333Y-111704819D02*
X131809523Y-111704819D01*
X132095238Y-111704819D02*
X132666666Y-111704819D01*
X132380952Y-112704819D02*
X132380952Y-111704819D01*
X163844405Y-98639819D02*
X163844405Y-97639819D01*
X163844405Y-97639819D02*
X164082500Y-97639819D01*
X164082500Y-97639819D02*
X164225357Y-97687438D01*
X164225357Y-97687438D02*
X164320595Y-97782676D01*
X164320595Y-97782676D02*
X164368214Y-97877914D01*
X164368214Y-97877914D02*
X164415833Y-98068390D01*
X164415833Y-98068390D02*
X164415833Y-98211247D01*
X164415833Y-98211247D02*
X164368214Y-98401723D01*
X164368214Y-98401723D02*
X164320595Y-98496961D01*
X164320595Y-98496961D02*
X164225357Y-98592200D01*
X164225357Y-98592200D02*
X164082500Y-98639819D01*
X164082500Y-98639819D02*
X163844405Y-98639819D01*
X164749167Y-97639819D02*
X165368214Y-97639819D01*
X165368214Y-97639819D02*
X165034881Y-98020771D01*
X165034881Y-98020771D02*
X165177738Y-98020771D01*
X165177738Y-98020771D02*
X165272976Y-98068390D01*
X165272976Y-98068390D02*
X165320595Y-98116009D01*
X165320595Y-98116009D02*
X165368214Y-98211247D01*
X165368214Y-98211247D02*
X165368214Y-98449342D01*
X165368214Y-98449342D02*
X165320595Y-98544580D01*
X165320595Y-98544580D02*
X165272976Y-98592200D01*
X165272976Y-98592200D02*
X165177738Y-98639819D01*
X165177738Y-98639819D02*
X164892024Y-98639819D01*
X164892024Y-98639819D02*
X164796786Y-98592200D01*
X164796786Y-98592200D02*
X164749167Y-98544580D01*
X135624819Y-118333333D02*
X136339104Y-118333333D01*
X136339104Y-118333333D02*
X136481961Y-118380952D01*
X136481961Y-118380952D02*
X136577200Y-118476190D01*
X136577200Y-118476190D02*
X136624819Y-118619047D01*
X136624819Y-118619047D02*
X136624819Y-118714285D01*
X135720057Y-117904761D02*
X135672438Y-117857142D01*
X135672438Y-117857142D02*
X135624819Y-117761904D01*
X135624819Y-117761904D02*
X135624819Y-117523809D01*
X135624819Y-117523809D02*
X135672438Y-117428571D01*
X135672438Y-117428571D02*
X135720057Y-117380952D01*
X135720057Y-117380952D02*
X135815295Y-117333333D01*
X135815295Y-117333333D02*
X135910533Y-117333333D01*
X135910533Y-117333333D02*
X136053390Y-117380952D01*
X136053390Y-117380952D02*
X136624819Y-117952380D01*
X136624819Y-117952380D02*
X136624819Y-117333333D01*
X115953628Y-117036190D02*
X116429819Y-117036190D01*
X115429819Y-117369523D02*
X115953628Y-117036190D01*
X115953628Y-117036190D02*
X115429819Y-116702857D01*
X116429819Y-115845714D02*
X116429819Y-116417142D01*
X116429819Y-116131428D02*
X115429819Y-116131428D01*
X115429819Y-116131428D02*
X115572676Y-116226666D01*
X115572676Y-116226666D02*
X115667914Y-116321904D01*
X115667914Y-116321904D02*
X115715533Y-116417142D01*
X126344405Y-98639819D02*
X126344405Y-97639819D01*
X126344405Y-97639819D02*
X126582500Y-97639819D01*
X126582500Y-97639819D02*
X126725357Y-97687438D01*
X126725357Y-97687438D02*
X126820595Y-97782676D01*
X126820595Y-97782676D02*
X126868214Y-97877914D01*
X126868214Y-97877914D02*
X126915833Y-98068390D01*
X126915833Y-98068390D02*
X126915833Y-98211247D01*
X126915833Y-98211247D02*
X126868214Y-98401723D01*
X126868214Y-98401723D02*
X126820595Y-98496961D01*
X126820595Y-98496961D02*
X126725357Y-98592200D01*
X126725357Y-98592200D02*
X126582500Y-98639819D01*
X126582500Y-98639819D02*
X126344405Y-98639819D01*
X127487262Y-98068390D02*
X127392024Y-98020771D01*
X127392024Y-98020771D02*
X127344405Y-97973152D01*
X127344405Y-97973152D02*
X127296786Y-97877914D01*
X127296786Y-97877914D02*
X127296786Y-97830295D01*
X127296786Y-97830295D02*
X127344405Y-97735057D01*
X127344405Y-97735057D02*
X127392024Y-97687438D01*
X127392024Y-97687438D02*
X127487262Y-97639819D01*
X127487262Y-97639819D02*
X127677738Y-97639819D01*
X127677738Y-97639819D02*
X127772976Y-97687438D01*
X127772976Y-97687438D02*
X127820595Y-97735057D01*
X127820595Y-97735057D02*
X127868214Y-97830295D01*
X127868214Y-97830295D02*
X127868214Y-97877914D01*
X127868214Y-97877914D02*
X127820595Y-97973152D01*
X127820595Y-97973152D02*
X127772976Y-98020771D01*
X127772976Y-98020771D02*
X127677738Y-98068390D01*
X127677738Y-98068390D02*
X127487262Y-98068390D01*
X127487262Y-98068390D02*
X127392024Y-98116009D01*
X127392024Y-98116009D02*
X127344405Y-98163628D01*
X127344405Y-98163628D02*
X127296786Y-98258866D01*
X127296786Y-98258866D02*
X127296786Y-98449342D01*
X127296786Y-98449342D02*
X127344405Y-98544580D01*
X127344405Y-98544580D02*
X127392024Y-98592200D01*
X127392024Y-98592200D02*
X127487262Y-98639819D01*
X127487262Y-98639819D02*
X127677738Y-98639819D01*
X127677738Y-98639819D02*
X127772976Y-98592200D01*
X127772976Y-98592200D02*
X127820595Y-98544580D01*
X127820595Y-98544580D02*
X127868214Y-98449342D01*
X127868214Y-98449342D02*
X127868214Y-98258866D01*
X127868214Y-98258866D02*
X127820595Y-98163628D01*
X127820595Y-98163628D02*
X127772976Y-98116009D01*
X127772976Y-98116009D02*
X127677738Y-98068390D01*
X171344405Y-98639819D02*
X171344405Y-97639819D01*
X171344405Y-97639819D02*
X171582500Y-97639819D01*
X171582500Y-97639819D02*
X171725357Y-97687438D01*
X171725357Y-97687438D02*
X171820595Y-97782676D01*
X171820595Y-97782676D02*
X171868214Y-97877914D01*
X171868214Y-97877914D02*
X171915833Y-98068390D01*
X171915833Y-98068390D02*
X171915833Y-98211247D01*
X171915833Y-98211247D02*
X171868214Y-98401723D01*
X171868214Y-98401723D02*
X171820595Y-98496961D01*
X171820595Y-98496961D02*
X171725357Y-98592200D01*
X171725357Y-98592200D02*
X171582500Y-98639819D01*
X171582500Y-98639819D02*
X171344405Y-98639819D01*
X172296786Y-97735057D02*
X172344405Y-97687438D01*
X172344405Y-97687438D02*
X172439643Y-97639819D01*
X172439643Y-97639819D02*
X172677738Y-97639819D01*
X172677738Y-97639819D02*
X172772976Y-97687438D01*
X172772976Y-97687438D02*
X172820595Y-97735057D01*
X172820595Y-97735057D02*
X172868214Y-97830295D01*
X172868214Y-97830295D02*
X172868214Y-97925533D01*
X172868214Y-97925533D02*
X172820595Y-98068390D01*
X172820595Y-98068390D02*
X172249167Y-98639819D01*
X172249167Y-98639819D02*
X172868214Y-98639819D01*
X112484166Y-101974819D02*
X112484166Y-102689104D01*
X112484166Y-102689104D02*
X112436547Y-102831961D01*
X112436547Y-102831961D02*
X112341309Y-102927200D01*
X112341309Y-102927200D02*
X112198452Y-102974819D01*
X112198452Y-102974819D02*
X112103214Y-102974819D01*
X112865119Y-101974819D02*
X113484166Y-101974819D01*
X113484166Y-101974819D02*
X113150833Y-102355771D01*
X113150833Y-102355771D02*
X113293690Y-102355771D01*
X113293690Y-102355771D02*
X113388928Y-102403390D01*
X113388928Y-102403390D02*
X113436547Y-102451009D01*
X113436547Y-102451009D02*
X113484166Y-102546247D01*
X113484166Y-102546247D02*
X113484166Y-102784342D01*
X113484166Y-102784342D02*
X113436547Y-102879580D01*
X113436547Y-102879580D02*
X113388928Y-102927200D01*
X113388928Y-102927200D02*
X113293690Y-102974819D01*
X113293690Y-102974819D02*
X113007976Y-102974819D01*
X113007976Y-102974819D02*
X112912738Y-102927200D01*
X112912738Y-102927200D02*
X112865119Y-102879580D01*
X141344405Y-98639819D02*
X141344405Y-97639819D01*
X141344405Y-97639819D02*
X141582500Y-97639819D01*
X141582500Y-97639819D02*
X141725357Y-97687438D01*
X141725357Y-97687438D02*
X141820595Y-97782676D01*
X141820595Y-97782676D02*
X141868214Y-97877914D01*
X141868214Y-97877914D02*
X141915833Y-98068390D01*
X141915833Y-98068390D02*
X141915833Y-98211247D01*
X141915833Y-98211247D02*
X141868214Y-98401723D01*
X141868214Y-98401723D02*
X141820595Y-98496961D01*
X141820595Y-98496961D02*
X141725357Y-98592200D01*
X141725357Y-98592200D02*
X141582500Y-98639819D01*
X141582500Y-98639819D02*
X141344405Y-98639819D01*
X142772976Y-97639819D02*
X142582500Y-97639819D01*
X142582500Y-97639819D02*
X142487262Y-97687438D01*
X142487262Y-97687438D02*
X142439643Y-97735057D01*
X142439643Y-97735057D02*
X142344405Y-97877914D01*
X142344405Y-97877914D02*
X142296786Y-98068390D01*
X142296786Y-98068390D02*
X142296786Y-98449342D01*
X142296786Y-98449342D02*
X142344405Y-98544580D01*
X142344405Y-98544580D02*
X142392024Y-98592200D01*
X142392024Y-98592200D02*
X142487262Y-98639819D01*
X142487262Y-98639819D02*
X142677738Y-98639819D01*
X142677738Y-98639819D02*
X142772976Y-98592200D01*
X142772976Y-98592200D02*
X142820595Y-98544580D01*
X142820595Y-98544580D02*
X142868214Y-98449342D01*
X142868214Y-98449342D02*
X142868214Y-98211247D01*
X142868214Y-98211247D02*
X142820595Y-98116009D01*
X142820595Y-98116009D02*
X142772976Y-98068390D01*
X142772976Y-98068390D02*
X142677738Y-98020771D01*
X142677738Y-98020771D02*
X142487262Y-98020771D01*
X142487262Y-98020771D02*
X142392024Y-98068390D01*
X142392024Y-98068390D02*
X142344405Y-98116009D01*
X142344405Y-98116009D02*
X142296786Y-98211247D01*
D13*
%TO.C,C1*%
X107790000Y-116000000D02*
X108480000Y-116000000D01*
X108480000Y-114580000D02*
X108480000Y-117420000D01*
X108480000Y-117420000D02*
X112520000Y-117420000D01*
X112520000Y-114580000D02*
X108480000Y-114580000D01*
X112520000Y-117420000D02*
X112520000Y-114580000D01*
X113210000Y-116000000D02*
X112520000Y-116000000D01*
%TO.C,D1*%
X176622500Y-93895000D02*
X177022500Y-93895000D01*
X176622500Y-95015000D02*
X176622500Y-93895000D01*
X177022500Y-93895000D02*
X177022500Y-95015000D01*
X177022500Y-95015000D02*
X176622500Y-95015000D01*
X177022500Y-95015000D02*
X177022500Y-88855000D01*
X178312500Y-95015000D02*
X178312500Y-95015000D01*
X178312500Y-95015000D02*
X178312500Y-95145000D01*
X178312500Y-95145000D02*
X178312500Y-95015000D01*
X178312500Y-95145000D02*
X178312500Y-95145000D01*
X180852500Y-95015000D02*
X180852500Y-95015000D01*
X180852500Y-95015000D02*
X180852500Y-95145000D01*
X180852500Y-95145000D02*
X180852500Y-95015000D01*
X180852500Y-95145000D02*
X180852500Y-95145000D01*
X182142500Y-95015000D02*
X177022500Y-95015000D01*
X182142500Y-95015000D02*
X182142500Y-88855000D01*
X177022500Y-88855000D02*
G75*
G02*
X182142500Y-88855000I2560000J0D01*
G01*
%TO.C,R9*%
X119920000Y-104130000D02*
X126460000Y-104130000D01*
X119920000Y-104460000D02*
X119920000Y-104130000D01*
X119920000Y-106540000D02*
X119920000Y-106870000D01*
X119920000Y-106870000D02*
X126460000Y-106870000D01*
X126460000Y-104130000D02*
X126460000Y-104460000D01*
X126460000Y-106870000D02*
X126460000Y-106540000D01*
%TO.C,D5*%
X146622500Y-93895000D02*
X147022500Y-93895000D01*
X146622500Y-95015000D02*
X146622500Y-93895000D01*
X147022500Y-93895000D02*
X147022500Y-95015000D01*
X147022500Y-95015000D02*
X146622500Y-95015000D01*
X147022500Y-95015000D02*
X147022500Y-88855000D01*
X148312500Y-95015000D02*
X148312500Y-95015000D01*
X148312500Y-95015000D02*
X148312500Y-95145000D01*
X148312500Y-95145000D02*
X148312500Y-95015000D01*
X148312500Y-95145000D02*
X148312500Y-95145000D01*
X150852500Y-95015000D02*
X150852500Y-95015000D01*
X150852500Y-95015000D02*
X150852500Y-95145000D01*
X150852500Y-95145000D02*
X150852500Y-95015000D01*
X150852500Y-95145000D02*
X150852500Y-95145000D01*
X152142500Y-95015000D02*
X147022500Y-95015000D01*
X152142500Y-95015000D02*
X152142500Y-88855000D01*
X147022500Y-88855000D02*
G75*
G02*
X152142500Y-88855000I2560000J0D01*
G01*
%TO.C,R2*%
X156130000Y-104230000D02*
X156460000Y-104230000D01*
X156130000Y-110770000D02*
X156130000Y-104230000D01*
X156460000Y-110770000D02*
X156130000Y-110770000D01*
X158540000Y-110770000D02*
X158870000Y-110770000D01*
X158870000Y-104230000D02*
X158540000Y-104230000D01*
X158870000Y-110770000D02*
X158870000Y-104230000D01*
%TO.C,R4*%
X149130000Y-104230000D02*
X149460000Y-104230000D01*
X149130000Y-110770000D02*
X149130000Y-104230000D01*
X149460000Y-110770000D02*
X149130000Y-110770000D01*
X151540000Y-110770000D02*
X151870000Y-110770000D01*
X151870000Y-104230000D02*
X151540000Y-104230000D01*
X151870000Y-110770000D02*
X151870000Y-104230000D01*
%TO.C,R3*%
X152630000Y-104230000D02*
X152960000Y-104230000D01*
X152630000Y-110770000D02*
X152630000Y-104230000D01*
X152960000Y-110770000D02*
X152630000Y-110770000D01*
X155040000Y-110770000D02*
X155370000Y-110770000D01*
X155370000Y-104230000D02*
X155040000Y-104230000D01*
X155370000Y-110770000D02*
X155370000Y-104230000D01*
%TO.C,J4*%
X158670000Y-137550000D02*
X158670000Y-117170000D01*
X161330000Y-117170000D02*
X158670000Y-117170000D01*
X161330000Y-137550000D02*
X158670000Y-137550000D01*
X161330000Y-137550000D02*
X161330000Y-117170000D01*
X161330000Y-138820000D02*
X161330000Y-140150000D01*
X161330000Y-140150000D02*
X160000000Y-140150000D01*
D11*
%TO.C,U1*%
X103570000Y-123460000D02*
X104840000Y-123460000D01*
X103570000Y-128540000D02*
X103570000Y-123460000D01*
X103570000Y-131080000D02*
X103570000Y-137430000D01*
X103570000Y-137430000D02*
X104840000Y-137430000D01*
X104840000Y-123460000D02*
X153100000Y-123460000D01*
X104840000Y-137430000D02*
X153100000Y-137430000D01*
X153100000Y-123460000D02*
X153100000Y-137430000D01*
X103570000Y-128540000D02*
G75*
G02*
X104840000Y-129810000I1J-1269999D01*
G01*
X104840000Y-129810000D02*
G75*
G02*
X103570000Y-131080000I-1269999J-1D01*
G01*
D13*
%TO.C,ISP*%
X163170000Y-123130000D02*
X164500000Y-123130000D01*
X163170000Y-124460000D02*
X163170000Y-123130000D01*
X163170000Y-125730000D02*
X163170000Y-130870000D01*
X163170000Y-125730000D02*
X165770000Y-125730000D01*
X163170000Y-130870000D02*
X168370000Y-130870000D01*
X165770000Y-123130000D02*
X168370000Y-123130000D01*
X165770000Y-125730000D02*
X165770000Y-123130000D01*
X168370000Y-123130000D02*
X168370000Y-130870000D01*
%TO.C,D7*%
X131622500Y-93895000D02*
X132022500Y-93895000D01*
X131622500Y-95015000D02*
X131622500Y-93895000D01*
X132022500Y-93895000D02*
X132022500Y-95015000D01*
X132022500Y-95015000D02*
X131622500Y-95015000D01*
X132022500Y-95015000D02*
X132022500Y-88855000D01*
X133312500Y-95015000D02*
X133312500Y-95015000D01*
X133312500Y-95015000D02*
X133312500Y-95145000D01*
X133312500Y-95145000D02*
X133312500Y-95015000D01*
X133312500Y-95145000D02*
X133312500Y-95145000D01*
X135852500Y-95015000D02*
X135852500Y-95015000D01*
X135852500Y-95015000D02*
X135852500Y-95145000D01*
X135852500Y-95145000D02*
X135852500Y-95015000D01*
X135852500Y-95145000D02*
X135852500Y-95145000D01*
X137142500Y-95015000D02*
X132022500Y-95015000D01*
X137142500Y-95015000D02*
X137142500Y-88855000D01*
X132022500Y-88855000D02*
G75*
G02*
X137142500Y-88855000I2560000J0D01*
G01*
%TO.C,R8*%
X135130000Y-104230000D02*
X135460000Y-104230000D01*
X135130000Y-110770000D02*
X135130000Y-104230000D01*
X135460000Y-110770000D02*
X135130000Y-110770000D01*
X137540000Y-110770000D02*
X137870000Y-110770000D01*
X137870000Y-104230000D02*
X137540000Y-104230000D01*
X137870000Y-110770000D02*
X137870000Y-104230000D01*
%TO.C,R5*%
X145630000Y-104230000D02*
X145960000Y-104230000D01*
X145630000Y-110770000D02*
X145630000Y-104230000D01*
X145960000Y-110770000D02*
X145630000Y-110770000D01*
X148040000Y-110770000D02*
X148370000Y-110770000D01*
X148370000Y-104230000D02*
X148040000Y-104230000D01*
X148370000Y-110770000D02*
X148370000Y-104230000D01*
%TO.C,D4*%
X154122500Y-93895000D02*
X154522500Y-93895000D01*
X154122500Y-95015000D02*
X154122500Y-93895000D01*
X154522500Y-93895000D02*
X154522500Y-95015000D01*
X154522500Y-95015000D02*
X154122500Y-95015000D01*
X154522500Y-95015000D02*
X154522500Y-88855000D01*
X155812500Y-95015000D02*
X155812500Y-95015000D01*
X155812500Y-95015000D02*
X155812500Y-95145000D01*
X155812500Y-95145000D02*
X155812500Y-95015000D01*
X155812500Y-95145000D02*
X155812500Y-95145000D01*
X158352500Y-95015000D02*
X158352500Y-95015000D01*
X158352500Y-95015000D02*
X158352500Y-95145000D01*
X158352500Y-95145000D02*
X158352500Y-95015000D01*
X158352500Y-95145000D02*
X158352500Y-95145000D01*
X159642500Y-95015000D02*
X154522500Y-95015000D01*
X159642500Y-95015000D02*
X159642500Y-88855000D01*
X154522500Y-88855000D02*
G75*
G02*
X159642500Y-88855000I2560000J0D01*
G01*
%TO.C,RESET*%
X127000000Y-115750000D02*
X127000000Y-117250000D01*
X128250000Y-119750000D02*
X132750000Y-119750000D01*
X132750000Y-113250000D02*
X128250000Y-113250000D01*
X134000000Y-117250000D02*
X134000000Y-115750000D01*
%TO.C,R6*%
X142130000Y-104230000D02*
X142460000Y-104230000D01*
X142130000Y-110770000D02*
X142130000Y-104230000D01*
X142460000Y-110770000D02*
X142130000Y-110770000D01*
X144540000Y-110770000D02*
X144870000Y-110770000D01*
X144870000Y-104230000D02*
X144540000Y-104230000D01*
X144870000Y-110770000D02*
X144870000Y-104230000D01*
%TO.C,D3*%
X161622500Y-93895000D02*
X162022500Y-93895000D01*
X161622500Y-95015000D02*
X161622500Y-93895000D01*
X162022500Y-93895000D02*
X162022500Y-95015000D01*
X162022500Y-95015000D02*
X161622500Y-95015000D01*
X162022500Y-95015000D02*
X162022500Y-88855000D01*
X163312500Y-95015000D02*
X163312500Y-95015000D01*
X163312500Y-95015000D02*
X163312500Y-95145000D01*
X163312500Y-95145000D02*
X163312500Y-95015000D01*
X163312500Y-95145000D02*
X163312500Y-95145000D01*
X165852500Y-95015000D02*
X165852500Y-95015000D01*
X165852500Y-95015000D02*
X165852500Y-95145000D01*
X165852500Y-95145000D02*
X165852500Y-95015000D01*
X165852500Y-95145000D02*
X165852500Y-95145000D01*
X167142500Y-95015000D02*
X162022500Y-95015000D01*
X167142500Y-95015000D02*
X167142500Y-88855000D01*
X162022500Y-88855000D02*
G75*
G02*
X167142500Y-88855000I2560000J0D01*
G01*
%TO.C,J2*%
X137170000Y-119330000D02*
X137170000Y-118000000D01*
X138500000Y-119330000D02*
X137170000Y-119330000D01*
X139770000Y-116670000D02*
X152530000Y-116670000D01*
X139770000Y-119330000D02*
X139770000Y-116670000D01*
X139770000Y-119330000D02*
X152530000Y-119330000D01*
X152530000Y-119330000D02*
X152530000Y-116670000D01*
%TO.C,Y1*%
X116975000Y-119760000D02*
X116975000Y-113360000D01*
X122025000Y-119760000D02*
X122025000Y-113360000D01*
X116975000Y-113360000D02*
G75*
G02*
X122025000Y-113360000I2525000J0D01*
G01*
X122025000Y-119760000D02*
G75*
G02*
X116975000Y-119760000I-2525000J0D01*
G01*
%TO.C,D8*%
X124122500Y-93895000D02*
X124522500Y-93895000D01*
X124122500Y-95015000D02*
X124122500Y-93895000D01*
X124522500Y-93895000D02*
X124522500Y-95015000D01*
X124522500Y-95015000D02*
X124122500Y-95015000D01*
X124522500Y-95015000D02*
X124522500Y-88855000D01*
X125812500Y-95015000D02*
X125812500Y-95015000D01*
X125812500Y-95015000D02*
X125812500Y-95145000D01*
X125812500Y-95145000D02*
X125812500Y-95015000D01*
X125812500Y-95145000D02*
X125812500Y-95145000D01*
X128352500Y-95015000D02*
X128352500Y-95015000D01*
X128352500Y-95015000D02*
X128352500Y-95145000D01*
X128352500Y-95145000D02*
X128352500Y-95015000D01*
X128352500Y-95145000D02*
X128352500Y-95145000D01*
X129642500Y-95015000D02*
X124522500Y-95015000D01*
X129642500Y-95015000D02*
X129642500Y-88855000D01*
X124522500Y-88855000D02*
G75*
G02*
X129642500Y-88855000I2560000J0D01*
G01*
%TO.C,D2*%
X169122500Y-93895000D02*
X169522500Y-93895000D01*
X169122500Y-95015000D02*
X169122500Y-93895000D01*
X169522500Y-93895000D02*
X169522500Y-95015000D01*
X169522500Y-95015000D02*
X169122500Y-95015000D01*
X169522500Y-95015000D02*
X169522500Y-88855000D01*
X170812500Y-95015000D02*
X170812500Y-95015000D01*
X170812500Y-95015000D02*
X170812500Y-95145000D01*
X170812500Y-95145000D02*
X170812500Y-95015000D01*
X170812500Y-95145000D02*
X170812500Y-95145000D01*
X173352500Y-95015000D02*
X173352500Y-95015000D01*
X173352500Y-95015000D02*
X173352500Y-95145000D01*
X173352500Y-95145000D02*
X173352500Y-95015000D01*
X173352500Y-95145000D02*
X173352500Y-95145000D01*
X174642500Y-95015000D02*
X169522500Y-95015000D01*
X174642500Y-95015000D02*
X174642500Y-88855000D01*
X169522500Y-88855000D02*
G75*
G02*
X174642500Y-88855000I2560000J0D01*
G01*
%TO.C,R7*%
X138630000Y-104230000D02*
X138960000Y-104230000D01*
X138630000Y-110770000D02*
X138630000Y-104230000D01*
X138960000Y-110770000D02*
X138630000Y-110770000D01*
X141040000Y-110770000D02*
X141370000Y-110770000D01*
X141370000Y-104230000D02*
X141040000Y-104230000D01*
X141370000Y-110770000D02*
X141370000Y-104230000D01*
%TO.C,C2*%
X107790000Y-120000000D02*
X108480000Y-120000000D01*
X108480000Y-118580000D02*
X108480000Y-121420000D01*
X108480000Y-121420000D02*
X112520000Y-121420000D01*
X112520000Y-118580000D02*
X108480000Y-118580000D01*
X112520000Y-121420000D02*
X112520000Y-118580000D01*
X113210000Y-120000000D02*
X112520000Y-120000000D01*
%TO.C,J3*%
X104457500Y-87340000D02*
X112817500Y-87340000D01*
X104457500Y-99660000D02*
X104457500Y-87340000D01*
X112817500Y-99660000D02*
X104457500Y-99660000D01*
X116917500Y-99660000D02*
X121177500Y-99660000D01*
X121177500Y-87340000D02*
X116917500Y-87340000D01*
X121177500Y-99660000D02*
X121177500Y-87340000D01*
X121397500Y-94750000D02*
X121897500Y-95250000D01*
X121897500Y-94250000D02*
X121397500Y-94750000D01*
X121897500Y-95250000D02*
X121897500Y-94250000D01*
%TO.C,R1*%
X159630000Y-104230000D02*
X159960000Y-104230000D01*
X159630000Y-110770000D02*
X159630000Y-104230000D01*
X159960000Y-110770000D02*
X159630000Y-110770000D01*
X162040000Y-110770000D02*
X162370000Y-110770000D01*
X162370000Y-104230000D02*
X162040000Y-104230000D01*
X162370000Y-110770000D02*
X162370000Y-104230000D01*
%TO.C,D6*%
X139122500Y-93895000D02*
X139522500Y-93895000D01*
X139122500Y-95015000D02*
X139122500Y-93895000D01*
X139522500Y-93895000D02*
X139522500Y-95015000D01*
X139522500Y-95015000D02*
X139122500Y-95015000D01*
X139522500Y-95015000D02*
X139522500Y-88855000D01*
X140812500Y-95015000D02*
X140812500Y-95015000D01*
X140812500Y-95015000D02*
X140812500Y-95145000D01*
X140812500Y-95145000D02*
X140812500Y-95015000D01*
X140812500Y-95145000D02*
X140812500Y-95145000D01*
X143352500Y-95015000D02*
X143352500Y-95015000D01*
X143352500Y-95015000D02*
X143352500Y-95145000D01*
X143352500Y-95145000D02*
X143352500Y-95015000D01*
X143352500Y-95145000D02*
X143352500Y-95145000D01*
X144642500Y-95015000D02*
X139522500Y-95015000D01*
X144642500Y-95015000D02*
X144642500Y-88855000D01*
X139522500Y-88855000D02*
G75*
G02*
X144642500Y-88855000I2560000J0D01*
G01*
D14*
%TO.C,G\u002A\u002A\u002A*%
G36*
X171525079Y-111446337D02*
G01*
X171519371Y-111452045D01*
X171513663Y-111446337D01*
X171519371Y-111440629D01*
X171525079Y-111446337D01*
G37*
G36*
X171559326Y-111549078D02*
G01*
X171553618Y-111554786D01*
X171547911Y-111549078D01*
X171553618Y-111543370D01*
X171559326Y-111549078D01*
G37*
G36*
X171639236Y-111492000D02*
G01*
X171633528Y-111497707D01*
X171627821Y-111492000D01*
X171633528Y-111486292D01*
X171639236Y-111492000D01*
G37*
G36*
X172015955Y-113512584D02*
G01*
X172010248Y-113518292D01*
X172004540Y-113512584D01*
X172010248Y-113506876D01*
X172015955Y-113512584D01*
G37*
G36*
X172267102Y-115133618D02*
G01*
X172261394Y-115139325D01*
X172255686Y-115133618D01*
X172261394Y-115127910D01*
X172267102Y-115133618D01*
G37*
G36*
X172267102Y-115167865D02*
G01*
X172261394Y-115173573D01*
X172255686Y-115167865D01*
X172261394Y-115162157D01*
X172267102Y-115167865D01*
G37*
G36*
X173271686Y-114471505D02*
G01*
X173265978Y-114477213D01*
X173260270Y-114471505D01*
X173265978Y-114465797D01*
X173271686Y-114471505D01*
G37*
G36*
X173351596Y-114482921D02*
G01*
X173345888Y-114488629D01*
X173340180Y-114482921D01*
X173345888Y-114477213D01*
X173351596Y-114482921D01*
G37*
G36*
X173420090Y-114448674D02*
G01*
X173414382Y-114454382D01*
X173408675Y-114448674D01*
X173414382Y-114442966D01*
X173420090Y-114448674D01*
G37*
G36*
X173933798Y-114129033D02*
G01*
X173928090Y-114134741D01*
X173922382Y-114129033D01*
X173928090Y-114123325D01*
X173933798Y-114129033D01*
G37*
G36*
X174630158Y-113284269D02*
G01*
X174624450Y-113289977D01*
X174618742Y-113284269D01*
X174624450Y-113278561D01*
X174630158Y-113284269D01*
G37*
G36*
X175212360Y-111754561D02*
G01*
X175206652Y-111760269D01*
X175200944Y-111754561D01*
X175206652Y-111748854D01*
X175212360Y-111754561D01*
G37*
G36*
X171532690Y-111478681D02*
G01*
X171534056Y-111492229D01*
X171532690Y-111493902D01*
X171525903Y-111492335D01*
X171525079Y-111486292D01*
X171529256Y-111476895D01*
X171532690Y-111478681D01*
G37*
G36*
X171544105Y-111512928D02*
G01*
X171545471Y-111526476D01*
X171544105Y-111528149D01*
X171537319Y-111526582D01*
X171536495Y-111520539D01*
X171540672Y-111511142D01*
X171544105Y-111512928D01*
G37*
G36*
X171589956Y-111621140D02*
G01*
X171591317Y-111638981D01*
X171589055Y-111643020D01*
X171583866Y-111639616D01*
X171583059Y-111628037D01*
X171585847Y-111615856D01*
X171589956Y-111621140D01*
G37*
G36*
X172206405Y-113333500D02*
G01*
X172207766Y-113351341D01*
X172205504Y-113355380D01*
X172200316Y-113351975D01*
X172199508Y-113340397D01*
X172202296Y-113328216D01*
X172206405Y-113333500D01*
G37*
G36*
X172982487Y-114207041D02*
G01*
X172983854Y-114220589D01*
X172982487Y-114222262D01*
X172975701Y-114220695D01*
X172974877Y-114214651D01*
X172979054Y-114205255D01*
X172982487Y-114207041D01*
G37*
G36*
X173496195Y-114423940D02*
G01*
X173497561Y-114437487D01*
X173496195Y-114439161D01*
X173489409Y-114437594D01*
X173488585Y-114431550D01*
X173492761Y-114422154D01*
X173496195Y-114423940D01*
G37*
G36*
X174637768Y-113305198D02*
G01*
X174639134Y-113318746D01*
X174637768Y-113320419D01*
X174630982Y-113318852D01*
X174630158Y-113312809D01*
X174634335Y-113303412D01*
X174637768Y-113305198D01*
G37*
G36*
X174900518Y-111689634D02*
G01*
X174901879Y-111707476D01*
X174899616Y-111711515D01*
X174894428Y-111708110D01*
X174893621Y-111696531D01*
X174896409Y-111684350D01*
X174900518Y-111689634D01*
G37*
G36*
X171570394Y-111574510D02*
G01*
X171574681Y-111582833D01*
X171577602Y-111598918D01*
X171569934Y-111595796D01*
X171564565Y-111588274D01*
X171561056Y-111573333D01*
X171562481Y-111570658D01*
X171570394Y-111574510D01*
G37*
G36*
X172475956Y-113697826D02*
G01*
X172478293Y-113700943D01*
X172475705Y-113710716D01*
X172467551Y-113712359D01*
X172451931Y-113706399D01*
X172449753Y-113700943D01*
X172457947Y-113689854D01*
X172460495Y-113689528D01*
X172475956Y-113697826D01*
G37*
G36*
X173538811Y-114441114D02*
G01*
X173535068Y-114451956D01*
X173522703Y-114457723D01*
X173504440Y-114461177D01*
X173500000Y-114460419D01*
X173508127Y-114448846D01*
X173524665Y-114440098D01*
X173537855Y-114440025D01*
X173538811Y-114441114D01*
G37*
G36*
X174251923Y-113888852D02*
G01*
X174251298Y-113895724D01*
X174236845Y-113913025D01*
X174231321Y-113915702D01*
X174220707Y-113912586D01*
X174221332Y-113905713D01*
X174235785Y-113888413D01*
X174241309Y-113885736D01*
X174251923Y-113888852D01*
G37*
G36*
X172524623Y-113748176D02*
G01*
X172526673Y-113750140D01*
X172539492Y-113764563D01*
X172535601Y-113769120D01*
X172527075Y-113769438D01*
X172506308Y-113762905D01*
X172500655Y-113757263D01*
X172496871Y-113741716D01*
X172507032Y-113738093D01*
X172524623Y-113748176D01*
G37*
G36*
X174653586Y-113379202D02*
G01*
X174654039Y-113380325D01*
X174661038Y-113405503D01*
X174661118Y-113419703D01*
X174654822Y-113420975D01*
X174649376Y-113411185D01*
X174642905Y-113383387D01*
X174642297Y-113371807D01*
X174645489Y-113364407D01*
X174653586Y-113379202D01*
G37*
G36*
X173435080Y-114058734D02*
G01*
X173441847Y-114067885D01*
X173427762Y-114078444D01*
X173417236Y-114081883D01*
X173389455Y-114087994D01*
X173377204Y-114085258D01*
X173374428Y-114072270D01*
X173374427Y-114071955D01*
X173384638Y-114058360D01*
X173408675Y-114054831D01*
X173435080Y-114058734D01*
G37*
G36*
X173689424Y-114359899D02*
G01*
X173684108Y-114366626D01*
X173665319Y-114381576D01*
X173646960Y-114385491D01*
X173637205Y-114377011D01*
X173636989Y-114374471D01*
X173644991Y-114363381D01*
X173647471Y-114363056D01*
X173666204Y-114359361D01*
X173678864Y-114355211D01*
X173692938Y-114351442D01*
X173689424Y-114359899D01*
G37*
G36*
X175187482Y-111775195D02*
G01*
X175189528Y-111784125D01*
X175181279Y-111799547D01*
X175162262Y-111819160D01*
X175141076Y-111835062D01*
X175128950Y-111839800D01*
X175127896Y-111831621D01*
X175137096Y-111810970D01*
X175139974Y-111805932D01*
X175158130Y-111782930D01*
X175175733Y-111771907D01*
X175187482Y-111775195D01*
G37*
G36*
X173457740Y-114474741D02*
G01*
X173456799Y-114490550D01*
X173453494Y-114495353D01*
X173435915Y-114505855D01*
X173410898Y-114510897D01*
X173387523Y-114509940D01*
X173374872Y-114502445D01*
X173374427Y-114500045D01*
X173383880Y-114490448D01*
X173394976Y-114488629D01*
X173419660Y-114481987D01*
X173428228Y-114475925D01*
X173445636Y-114467881D01*
X173457740Y-114474741D01*
G37*
G36*
X174755165Y-111293904D02*
G01*
X174744248Y-111310507D01*
X174742032Y-111312773D01*
X174723283Y-111320510D01*
X174690861Y-111324895D01*
X174670684Y-111325303D01*
X174638840Y-111324240D01*
X174627804Y-111322194D01*
X174635554Y-111318267D01*
X174647281Y-111314930D01*
X174684084Y-111304501D01*
X174718630Y-111294064D01*
X174746430Y-111288266D01*
X174755165Y-111293904D01*
G37*
G36*
X172830426Y-111477340D02*
G01*
X172835935Y-111487860D01*
X172836611Y-111513588D01*
X172835664Y-111532953D01*
X172830891Y-111573572D01*
X172821442Y-111593438D01*
X172805628Y-111594433D01*
X172789371Y-111584534D01*
X172772399Y-111565302D01*
X172771878Y-111549607D01*
X172787334Y-111543370D01*
X172800317Y-111536022D01*
X172801604Y-111512189D01*
X172803463Y-111487085D01*
X172818540Y-111476983D01*
X172830426Y-111477340D01*
G37*
G36*
X174505610Y-111345427D02*
G01*
X174515551Y-111347307D01*
X174510293Y-111349588D01*
X174487229Y-111353216D01*
X174453156Y-111356283D01*
X174414002Y-111358568D01*
X174375696Y-111359849D01*
X174344167Y-111359904D01*
X174325343Y-111358514D01*
X174322884Y-111356577D01*
X174335616Y-111354235D01*
X174365912Y-111351343D01*
X174408528Y-111348356D01*
X174436090Y-111346796D01*
X174478104Y-111345219D01*
X174505610Y-111345427D01*
G37*
G36*
X173864698Y-114207064D02*
G01*
X173865304Y-114214651D01*
X173858039Y-114225749D01*
X173855817Y-114226067D01*
X173843828Y-114234968D01*
X173832414Y-114251752D01*
X173816954Y-114270906D01*
X173791327Y-114294764D01*
X173762305Y-114317877D01*
X173736661Y-114334791D01*
X173722496Y-114340224D01*
X173725101Y-114332933D01*
X173740213Y-114314190D01*
X173755664Y-114297415D01*
X173799250Y-114252459D01*
X173829689Y-114222651D01*
X173849238Y-114206284D01*
X173860156Y-114201657D01*
X173864698Y-114207064D01*
G37*
G36*
X174484607Y-113562243D02*
G01*
X174487740Y-113580025D01*
X174475718Y-113612992D01*
X174470629Y-113623144D01*
X174454223Y-113653093D01*
X174441456Y-113673590D01*
X174437696Y-113678112D01*
X174427951Y-113689976D01*
X174409878Y-113715174D01*
X174390427Y-113743730D01*
X174362094Y-113783114D01*
X174343397Y-113801835D01*
X174334310Y-113799916D01*
X174333349Y-113792366D01*
X174341990Y-113778118D01*
X174356180Y-113766788D01*
X174374012Y-113751711D01*
X174379012Y-113742084D01*
X174385306Y-113726884D01*
X174400885Y-113702452D01*
X174405349Y-113696313D01*
X174425538Y-113663580D01*
X174445590Y-113622436D01*
X174452326Y-113605795D01*
X174467454Y-113572010D01*
X174479532Y-113560136D01*
X174484607Y-113562243D01*
G37*
G36*
X173139253Y-112529171D02*
G01*
X173189665Y-112534771D01*
X173248854Y-112542362D01*
X173326298Y-112552515D01*
X173383977Y-112560421D01*
X173424783Y-112566657D01*
X173451607Y-112571803D01*
X173467341Y-112576438D01*
X173474876Y-112581140D01*
X173477103Y-112586489D01*
X173477169Y-112588081D01*
X173486663Y-112602458D01*
X173498384Y-112607918D01*
X173516561Y-112622736D01*
X173525787Y-112648406D01*
X173523080Y-112673739D01*
X173517965Y-112681294D01*
X173501552Y-112699265D01*
X173485842Y-112717791D01*
X173466330Y-112735320D01*
X173451595Y-112740650D01*
X173435113Y-112738397D01*
X173401177Y-112733311D01*
X173354880Y-112726167D01*
X173305933Y-112718473D01*
X173248506Y-112709963D01*
X173194534Y-112703008D01*
X173150804Y-112698425D01*
X173127603Y-112697014D01*
X173094224Y-112692986D01*
X173064690Y-112679170D01*
X173031592Y-112652908D01*
X172982629Y-112609458D01*
X173024796Y-112567290D01*
X173043358Y-112549291D01*
X173059879Y-112536947D01*
X173078566Y-112529791D01*
X173103622Y-112527355D01*
X173139253Y-112529171D01*
G37*
G36*
X172586919Y-113791290D02*
G01*
X172598158Y-113809393D01*
X172610288Y-113832764D01*
X172624471Y-113835195D01*
X172643182Y-113821386D01*
X172663992Y-113810992D01*
X172680369Y-113814770D01*
X172685673Y-113828653D01*
X172678561Y-113843046D01*
X172669401Y-113860787D01*
X172670851Y-113868768D01*
X172682230Y-113866732D01*
X172694059Y-113854674D01*
X172705652Y-113841419D01*
X172716727Y-113841835D01*
X172734982Y-113857032D01*
X172739406Y-113861216D01*
X172759178Y-113882581D01*
X172768974Y-113898252D01*
X172769196Y-113899641D01*
X172775717Y-113914534D01*
X172791740Y-113939039D01*
X172797889Y-113947339D01*
X172815036Y-113976126D01*
X172820294Y-113999146D01*
X172819499Y-114002641D01*
X172820666Y-114017783D01*
X172831317Y-114020584D01*
X172851302Y-114029668D01*
X172856591Y-114037707D01*
X172872195Y-114052295D01*
X172884099Y-114054831D01*
X172907470Y-114061988D01*
X172914088Y-114079339D01*
X172906889Y-114094176D01*
X172900030Y-114108516D01*
X172907618Y-114114224D01*
X172917352Y-114126922D01*
X172916638Y-114132515D01*
X172906518Y-114132231D01*
X172883146Y-114118116D01*
X172849693Y-114092197D01*
X172837869Y-114082166D01*
X172789383Y-114039255D01*
X172738538Y-113992513D01*
X172688142Y-113944725D01*
X172641005Y-113898673D01*
X172599935Y-113857141D01*
X172567740Y-113822911D01*
X172547231Y-113798766D01*
X172541079Y-113788110D01*
X172550683Y-113782231D01*
X172564193Y-113780854D01*
X172586919Y-113791290D01*
G37*
G36*
X173094491Y-111588157D02*
G01*
X173127544Y-111601509D01*
X173168843Y-111628487D01*
X173188237Y-111642929D01*
X173228872Y-111664282D01*
X173287523Y-111679311D01*
X173308102Y-111682604D01*
X173367442Y-111694595D01*
X173407049Y-111710425D01*
X173416548Y-111717361D01*
X173441546Y-111740125D01*
X173513487Y-111693118D01*
X173575398Y-111657357D01*
X173627039Y-111639557D01*
X173672444Y-111639885D01*
X173715646Y-111658507D01*
X173760681Y-111695591D01*
X173768717Y-111703648D01*
X173793429Y-111730176D01*
X173804204Y-111747650D01*
X173803572Y-111762832D01*
X173796518Y-111777937D01*
X173753958Y-111833389D01*
X173692172Y-111877078D01*
X173677853Y-111884217D01*
X173640632Y-111907496D01*
X173603012Y-111939822D01*
X173588593Y-111955472D01*
X173548666Y-112003539D01*
X173430154Y-112005777D01*
X173375320Y-112006070D01*
X173324469Y-112005035D01*
X173284861Y-112002879D01*
X173269624Y-112001153D01*
X173239870Y-111991997D01*
X173213533Y-111972148D01*
X173186337Y-111940067D01*
X173161104Y-111909138D01*
X173141124Y-111892830D01*
X173119213Y-111886614D01*
X173100324Y-111885842D01*
X173062376Y-111880356D01*
X173027931Y-111860902D01*
X173014810Y-111850045D01*
X172989597Y-111824365D01*
X172961211Y-111790186D01*
X172933678Y-111753101D01*
X172911025Y-111718700D01*
X172897276Y-111692576D01*
X172894967Y-111683584D01*
X172904493Y-111668846D01*
X172929315Y-111648675D01*
X172963791Y-111626755D01*
X173002284Y-111606767D01*
X173030021Y-111595391D01*
X173063909Y-111586696D01*
X173094491Y-111588157D01*
G37*
G36*
X172615719Y-112009960D02*
G01*
X172648871Y-112020145D01*
X172662921Y-112030731D01*
X172670657Y-112053723D01*
X172670168Y-112085495D01*
X172668699Y-112109654D01*
X172675156Y-112126985D01*
X172692286Y-112138290D01*
X172722832Y-112144370D01*
X172769541Y-112146027D01*
X172835157Y-112144062D01*
X172865523Y-112142537D01*
X172931610Y-112139520D01*
X172983126Y-112139028D01*
X173028248Y-112141675D01*
X173075156Y-112148074D01*
X173132029Y-112158836D01*
X173159841Y-112164593D01*
X173224101Y-112177443D01*
X173271241Y-112185091D01*
X173306251Y-112188019D01*
X173334125Y-112186709D01*
X173353263Y-112183254D01*
X173407318Y-112174765D01*
X173463997Y-112174601D01*
X173526712Y-112183451D01*
X173598875Y-112202002D01*
X173683898Y-112230940D01*
X173781894Y-112269589D01*
X173825005Y-112286901D01*
X173860412Y-112300202D01*
X173882614Y-112307463D01*
X173886676Y-112308224D01*
X173900835Y-112300954D01*
X173924591Y-112282387D01*
X173940290Y-112268269D01*
X173982212Y-112238332D01*
X174022190Y-112227973D01*
X174056074Y-112237451D01*
X174076703Y-112262022D01*
X174092170Y-112301875D01*
X174101497Y-112349850D01*
X174103705Y-112398783D01*
X174097813Y-112441512D01*
X174087263Y-112465504D01*
X174061803Y-112483778D01*
X174023474Y-112490816D01*
X173979727Y-112485793D01*
X173960652Y-112479537D01*
X173937964Y-112466684D01*
X173928585Y-112457429D01*
X173913611Y-112450268D01*
X173884097Y-112445872D01*
X173865851Y-112445213D01*
X173825714Y-112441936D01*
X173806045Y-112431847D01*
X173804342Y-112428729D01*
X173788713Y-112415418D01*
X173753755Y-112401116D01*
X173702902Y-112386588D01*
X173639588Y-112372601D01*
X173567247Y-112359923D01*
X173489313Y-112349319D01*
X173416468Y-112342123D01*
X173357544Y-112336790D01*
X173302507Y-112330705D01*
X173257852Y-112324650D01*
X173231731Y-112319831D01*
X173180225Y-112308931D01*
X173111854Y-112296902D01*
X173032499Y-112284590D01*
X172948043Y-112272839D01*
X172864366Y-112262493D01*
X172787350Y-112254397D01*
X172758259Y-112251859D01*
X172615844Y-112240388D01*
X172585503Y-112269456D01*
X172564539Y-112287284D01*
X172546221Y-112292777D01*
X172520176Y-112287947D01*
X172508166Y-112284444D01*
X172461169Y-112270363D01*
X172461169Y-112202938D01*
X172466481Y-112143475D01*
X172481001Y-112089527D01*
X172502608Y-112046228D01*
X172529179Y-112018712D01*
X172539375Y-112013720D01*
X172576101Y-112007389D01*
X172615719Y-112009960D01*
G37*
G36*
X173138244Y-114555597D02*
G01*
X173162602Y-114579955D01*
X173111548Y-114580419D01*
X173060495Y-114580883D01*
X173097999Y-114612979D01*
X173153417Y-114647414D01*
X173218457Y-114667616D01*
X173258233Y-114671280D01*
X173271105Y-114672319D01*
X173284561Y-114676611D01*
X173300592Y-114685918D01*
X173321189Y-114702003D01*
X173348342Y-114726631D01*
X173384043Y-114761562D01*
X173430280Y-114808562D01*
X173489046Y-114869391D01*
X173529369Y-114911406D01*
X173578887Y-114965116D01*
X173629833Y-115023997D01*
X173680183Y-115085313D01*
X173727912Y-115146328D01*
X173770998Y-115204307D01*
X173807415Y-115256515D01*
X173835141Y-115300216D01*
X173852151Y-115332674D01*
X173856421Y-115351155D01*
X173855803Y-115352607D01*
X173840798Y-115363884D01*
X173813398Y-115376746D01*
X173806617Y-115379290D01*
X173779005Y-115387181D01*
X173755705Y-115386404D01*
X173726508Y-115375878D01*
X173712177Y-115369302D01*
X173666694Y-115349564D01*
X173636468Y-115342112D01*
X173617098Y-115347621D01*
X173604183Y-115366767D01*
X173597128Y-115386966D01*
X173587251Y-115426880D01*
X173578162Y-115475227D01*
X173574514Y-115500380D01*
X173567909Y-115542265D01*
X173559787Y-115579093D01*
X173554764Y-115595212D01*
X173550389Y-115616933D01*
X173546311Y-115656469D01*
X173542910Y-115708803D01*
X173540563Y-115768919D01*
X173540077Y-115790022D01*
X173538388Y-115856683D01*
X173535645Y-115938707D01*
X173532136Y-116028664D01*
X173528148Y-116119127D01*
X173524662Y-116189573D01*
X173520766Y-116270370D01*
X173516655Y-116367090D01*
X173512591Y-116472828D01*
X173508831Y-116580680D01*
X173505637Y-116683742D01*
X173504394Y-116728966D01*
X173496413Y-117034337D01*
X173035652Y-117034337D01*
X172574891Y-117034337D01*
X172581017Y-117008651D01*
X172585680Y-116987731D01*
X172593823Y-116949867D01*
X172604292Y-116900468D01*
X172615718Y-116845977D01*
X172631326Y-116776303D01*
X172651940Y-116691711D01*
X172675745Y-116599072D01*
X172700927Y-116505258D01*
X172725672Y-116417140D01*
X172748164Y-116341590D01*
X172752876Y-116326561D01*
X172763412Y-116293177D01*
X172778334Y-116245651D01*
X172795238Y-116191640D01*
X172804795Y-116161033D01*
X172821836Y-116106736D01*
X172838379Y-116054582D01*
X172851988Y-116012234D01*
X172857469Y-115995505D01*
X172884857Y-115910299D01*
X172905061Y-115839372D01*
X172919434Y-115775829D01*
X172929333Y-115712775D01*
X172936112Y-115643313D01*
X172940483Y-115573123D01*
X172943138Y-115511427D01*
X172944374Y-115457586D01*
X172944180Y-115415810D01*
X172942543Y-115390310D01*
X172941035Y-115384764D01*
X172934098Y-115367159D01*
X172926924Y-115336355D01*
X172924551Y-115322462D01*
X172905482Y-115249004D01*
X172870460Y-115183395D01*
X172816425Y-115120118D01*
X172807439Y-115111389D01*
X172758477Y-115069483D01*
X172718625Y-115046184D01*
X172700929Y-115040998D01*
X172664846Y-115031101D01*
X172633930Y-115017040D01*
X172633754Y-115016930D01*
X172593929Y-115004904D01*
X172565981Y-115006423D01*
X172535052Y-115007776D01*
X172512877Y-115002403D01*
X172511199Y-115001224D01*
X172489889Y-114992245D01*
X172463521Y-114988487D01*
X172440966Y-114986608D01*
X172437938Y-114979460D01*
X172448460Y-114965165D01*
X172502474Y-114907763D01*
X172572851Y-114845226D01*
X172654763Y-114780911D01*
X172743382Y-114718176D01*
X172833878Y-114660379D01*
X172921422Y-114610877D01*
X173001186Y-114573029D01*
X173026842Y-114562985D01*
X173113886Y-114531238D01*
X173138244Y-114555597D01*
G37*
G36*
X172000082Y-113532861D02*
G01*
X171998507Y-113545185D01*
X171990271Y-113575907D01*
X171976374Y-113621919D01*
X171957816Y-113680109D01*
X171935598Y-113747370D01*
X171910719Y-113820591D01*
X171884180Y-113896663D01*
X171872585Y-113929258D01*
X171853898Y-113983447D01*
X171841224Y-114027339D01*
X171833137Y-114068730D01*
X171828211Y-114115416D01*
X171825020Y-114175193D01*
X171824328Y-114193065D01*
X171823317Y-114312325D01*
X171830100Y-114425793D01*
X171845552Y-114539223D01*
X171870549Y-114658371D01*
X171905966Y-114788991D01*
X171924024Y-114848224D01*
X171944519Y-114908913D01*
X171969340Y-114975587D01*
X171993664Y-115035383D01*
X171997492Y-115044141D01*
X172015851Y-115086234D01*
X172030015Y-115119982D01*
X172037872Y-115140293D01*
X172038787Y-115143690D01*
X172043077Y-115156778D01*
X172054173Y-115184026D01*
X172065608Y-115210335D01*
X172082114Y-115264109D01*
X172089215Y-115324416D01*
X172086252Y-115381227D01*
X172078791Y-115411061D01*
X172077953Y-115417106D01*
X172077497Y-115430508D01*
X172077459Y-115452412D01*
X172077875Y-115483961D01*
X172078781Y-115526302D01*
X172080213Y-115580579D01*
X172082206Y-115647937D01*
X172084796Y-115729520D01*
X172088020Y-115826474D01*
X172091913Y-115939943D01*
X172096510Y-116071073D01*
X172101848Y-116221008D01*
X172107963Y-116390893D01*
X172114889Y-116581873D01*
X172118688Y-116686157D01*
X172121629Y-116767461D01*
X172124289Y-116842259D01*
X172126554Y-116907201D01*
X172128307Y-116958938D01*
X172129432Y-116994121D01*
X172129812Y-117008651D01*
X172130113Y-117034337D01*
X170313661Y-117034337D01*
X168497211Y-117034337D01*
X168505442Y-116935510D01*
X168511929Y-116882713D01*
X168521700Y-116831872D01*
X168532874Y-116792385D01*
X168535332Y-116786159D01*
X168548305Y-116751859D01*
X168556039Y-116723618D01*
X168556989Y-116715519D01*
X168564974Y-116692965D01*
X168579533Y-116675002D01*
X168600200Y-116649598D01*
X168621462Y-116613462D01*
X168638848Y-116575452D01*
X168647885Y-116544428D01*
X168648315Y-116538764D01*
X168654676Y-116516105D01*
X168670207Y-116487783D01*
X168672380Y-116484649D01*
X168682773Y-116467129D01*
X168690125Y-116445650D01*
X168695199Y-116415577D01*
X168698757Y-116372274D01*
X168701560Y-116311106D01*
X168701751Y-116305943D01*
X168707057Y-116161033D01*
X168762850Y-116052032D01*
X168788423Y-115999131D01*
X168811548Y-115946055D01*
X168828924Y-115900626D01*
X168835085Y-115880796D01*
X168847063Y-115838479D01*
X168862529Y-115788070D01*
X168879793Y-115734585D01*
X168897167Y-115683041D01*
X168912958Y-115638456D01*
X168925479Y-115605846D01*
X168932898Y-115590406D01*
X168943399Y-115570211D01*
X168948373Y-115556000D01*
X168954838Y-115536028D01*
X168967093Y-115500248D01*
X168983175Y-115454330D01*
X168995684Y-115419128D01*
X169012617Y-115369905D01*
X169026112Y-115327141D01*
X169034504Y-115296334D01*
X169036450Y-115284668D01*
X169042928Y-115257066D01*
X169060321Y-115216687D01*
X169085565Y-115168809D01*
X169115598Y-115118708D01*
X169147356Y-115071659D01*
X169177778Y-115032941D01*
X169190398Y-115019460D01*
X169211573Y-115001155D01*
X169239651Y-114979896D01*
X169267799Y-114960484D01*
X169289183Y-114947724D01*
X169295967Y-114945258D01*
X169311741Y-114938056D01*
X169320102Y-114930988D01*
X169336388Y-114919230D01*
X169367944Y-114899835D01*
X169409753Y-114875638D01*
X169456798Y-114849480D01*
X169504063Y-114824196D01*
X169546531Y-114802625D01*
X169550158Y-114800860D01*
X169653430Y-114752274D01*
X169743128Y-114713428D01*
X169825055Y-114681985D01*
X169905012Y-114655608D01*
X169926877Y-114649092D01*
X170055921Y-114608762D01*
X170179589Y-114564985D01*
X170292801Y-114519717D01*
X170390478Y-114474913D01*
X170423461Y-114457882D01*
X170526258Y-114404054D01*
X170615995Y-114360334D01*
X170698551Y-114324077D01*
X170779805Y-114292638D01*
X170828719Y-114275547D01*
X170910115Y-114245249D01*
X171000851Y-114206704D01*
X171095973Y-114162423D01*
X171190528Y-114114916D01*
X171279563Y-114066696D01*
X171358124Y-114020272D01*
X171421258Y-113978157D01*
X171433753Y-113968824D01*
X171466968Y-113944726D01*
X171496651Y-113925574D01*
X171509811Y-113918549D01*
X171530580Y-113906447D01*
X171562673Y-113884441D01*
X171599653Y-113856975D01*
X171604961Y-113852864D01*
X171641215Y-113825044D01*
X171672420Y-113801848D01*
X171692620Y-113787691D01*
X171694430Y-113786561D01*
X171713171Y-113773802D01*
X171742957Y-113751995D01*
X171772618Y-113729483D01*
X171811690Y-113699947D01*
X171850774Y-113671369D01*
X171873658Y-113655280D01*
X171918139Y-113622054D01*
X171951019Y-113589206D01*
X171974268Y-113558554D01*
X171989877Y-113539147D01*
X171999650Y-113532585D01*
X172000082Y-113532861D01*
G37*
G36*
X174674117Y-113453707D02*
G01*
X174680229Y-113466921D01*
X174700063Y-113496493D01*
X174724363Y-113516788D01*
X174738016Y-113527803D01*
X174765127Y-113552681D01*
X174803209Y-113588949D01*
X174849772Y-113634132D01*
X174902327Y-113685756D01*
X174958383Y-113741348D01*
X175015453Y-113798432D01*
X175071047Y-113854536D01*
X175122674Y-113907184D01*
X175167847Y-113953904D01*
X175204076Y-113992221D01*
X175218068Y-114007465D01*
X175246575Y-114037775D01*
X175285930Y-114077922D01*
X175333115Y-114124994D01*
X175385111Y-114176078D01*
X175438900Y-114228263D01*
X175491463Y-114278636D01*
X175539782Y-114324285D01*
X175580838Y-114362299D01*
X175611612Y-114389765D01*
X175628383Y-114403306D01*
X175660278Y-114423082D01*
X175703691Y-114447629D01*
X175749562Y-114471835D01*
X175752291Y-114473213D01*
X175798492Y-114497453D01*
X175843259Y-114522556D01*
X175877258Y-114543280D01*
X175878539Y-114544128D01*
X175911911Y-114566361D01*
X175941588Y-114586156D01*
X175949396Y-114591370D01*
X175971987Y-114605717D01*
X176006841Y-114627036D01*
X176046510Y-114650772D01*
X176047462Y-114651336D01*
X176094824Y-114679912D01*
X176149474Y-114713723D01*
X176199618Y-114745470D01*
X176199821Y-114745601D01*
X176238986Y-114770395D01*
X176272214Y-114790691D01*
X176293725Y-114802979D01*
X176296854Y-114804504D01*
X176318713Y-114816264D01*
X176342517Y-114831265D01*
X176365249Y-114844995D01*
X176402038Y-114865491D01*
X176446545Y-114889263D01*
X176468090Y-114900452D01*
X176521251Y-114929385D01*
X176576329Y-114961940D01*
X176623418Y-114992201D01*
X176633618Y-114999311D01*
X176742099Y-115075024D01*
X176838458Y-115138524D01*
X176920863Y-115188630D01*
X176964675Y-115212728D01*
X177016758Y-115242315D01*
X177072985Y-115277998D01*
X177115844Y-115308147D01*
X177217377Y-115380009D01*
X177325061Y-115447836D01*
X177428731Y-115505252D01*
X177436042Y-115508951D01*
X177528413Y-115559113D01*
X177600937Y-115607510D01*
X177656236Y-115656459D01*
X177696926Y-115708274D01*
X177725478Y-115764892D01*
X177740478Y-115807374D01*
X177758783Y-115865476D01*
X177778531Y-115932577D01*
X177797854Y-116002059D01*
X177814888Y-116067303D01*
X177827768Y-116121690D01*
X177832283Y-116143910D01*
X177842005Y-116194343D01*
X177852263Y-116243759D01*
X177860706Y-116280898D01*
X177871614Y-116326991D01*
X177882354Y-116375174D01*
X177884151Y-116383640D01*
X177893917Y-116429972D01*
X177904184Y-116478318D01*
X177905907Y-116486382D01*
X177913137Y-116532441D01*
X177917149Y-116581529D01*
X177917391Y-116591303D01*
X177919590Y-116624208D01*
X177924594Y-116646395D01*
X177927617Y-116650867D01*
X177933415Y-116664489D01*
X177939271Y-116694429D01*
X177943918Y-116734211D01*
X177943926Y-116734305D01*
X177949248Y-116783823D01*
X177956292Y-116832770D01*
X177961978Y-116863101D01*
X177975244Y-116923190D01*
X177983972Y-116964928D01*
X177988825Y-116992192D01*
X177990469Y-117008863D01*
X177989567Y-117018817D01*
X177988989Y-117020809D01*
X177983187Y-117022656D01*
X177966537Y-117024343D01*
X177938246Y-117025875D01*
X177897519Y-117027259D01*
X177843564Y-117028499D01*
X177775585Y-117029601D01*
X177692791Y-117030572D01*
X177594385Y-117031417D01*
X177479576Y-117032142D01*
X177347568Y-117032753D01*
X177197568Y-117033255D01*
X177028783Y-117033654D01*
X176840418Y-117033956D01*
X176631679Y-117034166D01*
X176401774Y-117034291D01*
X176149907Y-117034336D01*
X176124450Y-117034337D01*
X174264419Y-117034337D01*
X174269867Y-117008651D01*
X174279225Y-116962742D01*
X174290434Y-116905045D01*
X174302482Y-116841087D01*
X174314356Y-116776394D01*
X174325045Y-116716494D01*
X174333537Y-116666911D01*
X174338819Y-116633172D01*
X174339368Y-116629078D01*
X174345646Y-116587455D01*
X174356046Y-116527444D01*
X174369821Y-116452961D01*
X174386226Y-116367926D01*
X174404513Y-116276256D01*
X174423936Y-116181869D01*
X174430717Y-116149618D01*
X174443989Y-116086007D01*
X174457332Y-116020628D01*
X174468991Y-115962154D01*
X174475768Y-115927011D01*
X174486127Y-115871907D01*
X174498204Y-115807702D01*
X174509490Y-115747733D01*
X174510125Y-115744359D01*
X174520241Y-115689538D01*
X174532253Y-115622815D01*
X174544259Y-115554800D01*
X174549989Y-115521752D01*
X174562068Y-115452249D01*
X174575965Y-115373397D01*
X174589367Y-115298298D01*
X174594367Y-115270606D01*
X174612974Y-115164034D01*
X174627390Y-115071077D01*
X174638780Y-114983158D01*
X174648305Y-114891696D01*
X174653167Y-114836809D01*
X174676801Y-114672434D01*
X174703659Y-114562831D01*
X174738235Y-114432933D01*
X174763618Y-114316726D01*
X174780835Y-114207480D01*
X174790910Y-114098467D01*
X174794870Y-113982961D01*
X174795005Y-113963505D01*
X174795686Y-113775146D01*
X174751865Y-113695856D01*
X174724703Y-113641777D01*
X174700240Y-113584135D01*
X174680695Y-113529071D01*
X174668289Y-113482726D01*
X174664999Y-113455505D01*
X174667160Y-113444624D01*
X174674117Y-113453707D01*
G37*
G36*
X173683664Y-107393475D02*
G01*
X173772003Y-107403039D01*
X173863247Y-107417299D01*
X173952717Y-107435598D01*
X174035733Y-107457280D01*
X174107615Y-107481685D01*
X174127866Y-107490124D01*
X174238418Y-107536118D01*
X174331433Y-107568756D01*
X174384719Y-107583385D01*
X174440084Y-107603873D01*
X174503828Y-107639525D01*
X174571353Y-107686720D01*
X174638061Y-107741836D01*
X174699353Y-107801253D01*
X174750633Y-107861348D01*
X174767220Y-107884629D01*
X174799389Y-107927926D01*
X174842364Y-107979089D01*
X174891000Y-108032607D01*
X174940157Y-108082968D01*
X174984690Y-108124661D01*
X175011990Y-108146946D01*
X175051203Y-108177916D01*
X175074166Y-108202596D01*
X175084597Y-108225769D01*
X175086424Y-108242686D01*
X175085359Y-108257681D01*
X175078050Y-108264871D01*
X175059109Y-108265848D01*
X175023148Y-108262202D01*
X175021146Y-108261967D01*
X174978756Y-108253745D01*
X174941074Y-108241015D01*
X174924575Y-108232112D01*
X174897784Y-108214657D01*
X174884832Y-108212344D01*
X174882268Y-108225406D01*
X174883364Y-108234894D01*
X174897636Y-108258366D01*
X174919631Y-108268482D01*
X174951631Y-108281688D01*
X174973456Y-108296343D01*
X175004575Y-108310432D01*
X175023873Y-108309949D01*
X175047830Y-108309120D01*
X175059194Y-108314250D01*
X175076077Y-108323207D01*
X175102287Y-108323462D01*
X175126570Y-108316201D01*
X175136942Y-108306062D01*
X175149017Y-108292421D01*
X175162984Y-108297048D01*
X175172894Y-108316768D01*
X175174254Y-108325970D01*
X175181170Y-108351262D01*
X175196729Y-108386681D01*
X175211529Y-108414051D01*
X175230098Y-108446434D01*
X175242814Y-108470313D01*
X175246607Y-108479374D01*
X175252493Y-108493210D01*
X175267974Y-108520704D01*
X175289785Y-108556651D01*
X175314661Y-108595843D01*
X175339337Y-108633074D01*
X175360547Y-108663139D01*
X175367678Y-108672427D01*
X175392425Y-108702168D01*
X175425477Y-108740391D01*
X175459502Y-108778623D01*
X175498151Y-108827673D01*
X175531394Y-108881276D01*
X175546118Y-108912045D01*
X175564064Y-108949090D01*
X175591720Y-108997825D01*
X175625157Y-109051628D01*
X175656881Y-109098813D01*
X175694006Y-109154170D01*
X175730660Y-109212970D01*
X175762175Y-109267504D01*
X175780936Y-109303691D01*
X175799281Y-109344222D01*
X175813290Y-109381155D01*
X175824432Y-109420180D01*
X175834177Y-109466982D01*
X175843993Y-109527250D01*
X175850799Y-109574157D01*
X175857226Y-109614027D01*
X175863842Y-109646384D01*
X175868004Y-109660816D01*
X175870700Y-109676628D01*
X175874308Y-109710795D01*
X175878510Y-109758873D01*
X175882987Y-109816421D01*
X175887421Y-109878994D01*
X175891493Y-109942150D01*
X175894884Y-110001445D01*
X175897277Y-110052437D01*
X175898215Y-110082157D01*
X175895459Y-110127181D01*
X175886851Y-110184734D01*
X175874124Y-110245808D01*
X175859013Y-110301399D01*
X175852083Y-110321726D01*
X175839418Y-110358181D01*
X175830965Y-110387065D01*
X175828809Y-110399009D01*
X175823069Y-110416952D01*
X175808589Y-110445106D01*
X175800694Y-110458204D01*
X175773705Y-110509987D01*
X175747655Y-110575792D01*
X175725629Y-110646910D01*
X175711489Y-110710022D01*
X175704688Y-110771945D01*
X175701936Y-110854714D01*
X175703269Y-110956699D01*
X175705018Y-111003977D01*
X175702025Y-111047656D01*
X175690954Y-111105127D01*
X175675749Y-111160943D01*
X175649985Y-111248995D01*
X175631518Y-111322879D01*
X175618693Y-111389430D01*
X175615717Y-111408853D01*
X175604598Y-111443796D01*
X175579197Y-111477355D01*
X175561271Y-111494471D01*
X175508958Y-111540605D01*
X175469307Y-111573849D01*
X175438526Y-111597136D01*
X175412821Y-111613401D01*
X175396676Y-111621770D01*
X175362296Y-111647882D01*
X175330303Y-111693373D01*
X175325034Y-111703018D01*
X175299628Y-111747114D01*
X175270852Y-111791544D01*
X175254875Y-111813640D01*
X175225382Y-111854278D01*
X175189663Y-111907077D01*
X175152747Y-111964336D01*
X175119663Y-112018351D01*
X175107243Y-112039763D01*
X175093538Y-112070273D01*
X175087290Y-112096550D01*
X175087265Y-112097286D01*
X175079987Y-112120034D01*
X175062302Y-112149499D01*
X175054202Y-112160073D01*
X175028165Y-112195538D01*
X175005189Y-112232777D01*
X175001528Y-112239730D01*
X174979506Y-112276049D01*
X174953622Y-112309404D01*
X174952309Y-112310826D01*
X174910827Y-112364098D01*
X174867573Y-112437470D01*
X174840804Y-112490876D01*
X174814583Y-112546950D01*
X174796967Y-112588944D01*
X174786258Y-112623151D01*
X174780760Y-112655865D01*
X174778774Y-112693381D01*
X174778562Y-112721621D01*
X174777213Y-112770475D01*
X174773644Y-112814781D01*
X174768576Y-112846137D01*
X174767591Y-112849661D01*
X174758751Y-112879321D01*
X174746816Y-112921136D01*
X174736331Y-112958921D01*
X174716722Y-113014683D01*
X174688788Y-113060334D01*
X174664539Y-113088769D01*
X174636715Y-113120179D01*
X174621405Y-113143851D01*
X174615051Y-113168262D01*
X174614092Y-113201887D01*
X174614200Y-113208635D01*
X174614564Y-113243427D01*
X174613488Y-113257330D01*
X174610214Y-113252275D01*
X174604708Y-113232898D01*
X174591095Y-113198439D01*
X174572864Y-113170160D01*
X174572149Y-113169376D01*
X174559257Y-113146648D01*
X174552104Y-113110949D01*
X174550650Y-113060094D01*
X174554857Y-112991896D01*
X174564690Y-112904170D01*
X174567243Y-112884719D01*
X174574207Y-112829378D01*
X174579807Y-112778584D01*
X174583362Y-112738927D01*
X174584272Y-112720647D01*
X174583069Y-112695900D01*
X174577197Y-112690069D01*
X174566931Y-112696725D01*
X174553407Y-112712137D01*
X174531146Y-112741893D01*
X174503714Y-112781104D01*
X174485146Y-112808820D01*
X174428528Y-112887976D01*
X174365478Y-112964729D01*
X174302707Y-113031076D01*
X174284016Y-113048585D01*
X174260893Y-113070246D01*
X174230035Y-113100115D01*
X174197013Y-113132683D01*
X174167395Y-113162441D01*
X174146751Y-113183880D01*
X174142652Y-113188427D01*
X174124915Y-113205875D01*
X174098790Y-113228498D01*
X174093380Y-113232898D01*
X174066219Y-113255833D01*
X174030726Y-113287246D01*
X173998684Y-113316548D01*
X173963038Y-113347197D01*
X173928074Y-113373105D01*
X173903168Y-113387731D01*
X173873093Y-113405589D01*
X173851062Y-113426321D01*
X173850774Y-113426727D01*
X173836523Y-113441878D01*
X173828517Y-113443453D01*
X173815805Y-113445597D01*
X173789808Y-113459362D01*
X173754960Y-113481971D01*
X173715698Y-113510650D01*
X173695371Y-113526747D01*
X173660440Y-113553254D01*
X173620431Y-113580969D01*
X173609055Y-113588319D01*
X173581812Y-113609063D01*
X173544752Y-113642078D01*
X173503134Y-113682491D01*
X173469235Y-113717801D01*
X173430545Y-113757914D01*
X173399244Y-113787169D01*
X173377918Y-113803310D01*
X173369457Y-113804878D01*
X173357788Y-113805027D01*
X173335555Y-113821396D01*
X173318528Y-113838070D01*
X173290057Y-113863631D01*
X173263683Y-113880148D01*
X173251296Y-113883595D01*
X173228711Y-113888466D01*
X173220315Y-113895011D01*
X173212993Y-113903210D01*
X173201993Y-113903600D01*
X173182231Y-113894708D01*
X173148622Y-113875065D01*
X173146113Y-113873547D01*
X173109219Y-113845221D01*
X173079089Y-113811658D01*
X173071911Y-113800273D01*
X173054758Y-113774051D01*
X173039337Y-113759261D01*
X173035467Y-113758053D01*
X173021815Y-113749929D01*
X172998516Y-113728547D01*
X172970352Y-113698341D01*
X172967315Y-113694848D01*
X172932017Y-113658020D01*
X172893815Y-113624356D01*
X172863916Y-113603041D01*
X172835713Y-113584716D01*
X172818062Y-113569787D01*
X172815057Y-113564672D01*
X172807511Y-113550917D01*
X172789105Y-113530354D01*
X172786714Y-113528052D01*
X172767369Y-113506405D01*
X172758271Y-113489743D01*
X172758175Y-113488726D01*
X172748171Y-113478109D01*
X172723162Y-113465830D01*
X172709461Y-113461012D01*
X172675205Y-113448154D01*
X172648346Y-113434512D01*
X172642922Y-113430645D01*
X172616619Y-113418023D01*
X172600113Y-113415550D01*
X172583183Y-113411727D01*
X172576295Y-113395999D01*
X172575326Y-113375595D01*
X172570078Y-113347466D01*
X172557319Y-113334309D01*
X172541526Y-113339291D01*
X172535256Y-113347242D01*
X172523422Y-113355444D01*
X172514661Y-113347834D01*
X172514996Y-113331242D01*
X172517106Y-113326670D01*
X172519904Y-113303464D01*
X172511190Y-113275832D01*
X172495366Y-113253042D01*
X172477999Y-113244314D01*
X172462999Y-113237935D01*
X172461169Y-113232672D01*
X172456335Y-113218450D01*
X172441085Y-113191590D01*
X172414293Y-113150273D01*
X172374835Y-113092679D01*
X172373111Y-113090202D01*
X172349958Y-113055178D01*
X172329802Y-113021763D01*
X172324589Y-113012181D01*
X172304708Y-112983151D01*
X172277073Y-112952977D01*
X172271474Y-112947864D01*
X172245001Y-112921599D01*
X172225047Y-112896586D01*
X172222147Y-112891750D01*
X172206853Y-112870815D01*
X172195649Y-112871943D01*
X172188976Y-112894662D01*
X172187191Y-112929448D01*
X172185663Y-112972518D01*
X172181730Y-113002376D01*
X172176369Y-113016747D01*
X172170557Y-113013356D01*
X172165271Y-112989928D01*
X172164360Y-112982612D01*
X172159722Y-112953725D01*
X172150367Y-112934663D01*
X172130939Y-112918883D01*
X172096957Y-112900296D01*
X172032597Y-112861107D01*
X171983775Y-112815675D01*
X171943214Y-112756886D01*
X171934981Y-112742022D01*
X171909726Y-112701434D01*
X171875525Y-112654715D01*
X171839661Y-112611794D01*
X171838701Y-112610741D01*
X171786276Y-112543092D01*
X171733089Y-112453871D01*
X171710989Y-112410966D01*
X171691905Y-112372247D01*
X171676426Y-112338982D01*
X171664035Y-112308143D01*
X171654215Y-112276701D01*
X171646448Y-112241627D01*
X171640216Y-112199894D01*
X171635003Y-112148473D01*
X171630292Y-112084335D01*
X171625564Y-112004451D01*
X171620303Y-111905794D01*
X171618368Y-111868719D01*
X171614625Y-111806832D01*
X171610334Y-111751707D01*
X171605931Y-111708018D01*
X171601851Y-111680436D01*
X171600288Y-111674651D01*
X171599530Y-111668127D01*
X171608569Y-111679084D01*
X171613903Y-111687080D01*
X171655692Y-111736615D01*
X171702958Y-111764875D01*
X171742936Y-111771685D01*
X171774012Y-111768342D01*
X171796982Y-111754686D01*
X171817513Y-111730997D01*
X171833347Y-111709106D01*
X171841609Y-111690939D01*
X171843327Y-111669241D01*
X171839529Y-111636756D01*
X171834898Y-111608278D01*
X171826099Y-111555117D01*
X171815785Y-111492382D01*
X171806086Y-111433037D01*
X171805464Y-111429213D01*
X171797322Y-111382407D01*
X171789450Y-111342655D01*
X171783199Y-111316624D01*
X171781731Y-111312202D01*
X171770214Y-111293904D01*
X171760419Y-111296592D01*
X171754379Y-111318423D01*
X171753394Y-111337887D01*
X171749645Y-111369222D01*
X171736678Y-111382486D01*
X171711913Y-111378519D01*
X171679191Y-111361951D01*
X171643147Y-111328271D01*
X171614418Y-111274048D01*
X171593669Y-111200580D01*
X171591983Y-111191816D01*
X171582882Y-111154532D01*
X171571942Y-111126139D01*
X171564663Y-111115800D01*
X171552933Y-111096974D01*
X171545070Y-111067079D01*
X171544668Y-111063910D01*
X171542764Y-111058659D01*
X171540858Y-111073396D01*
X171539162Y-111105280D01*
X171537890Y-111151469D01*
X171537821Y-111155236D01*
X171535482Y-111214489D01*
X171531017Y-111268246D01*
X171525073Y-111310090D01*
X171520368Y-111328881D01*
X171511443Y-111365464D01*
X171509458Y-111399390D01*
X171509870Y-111403083D01*
X171510449Y-111416041D01*
X171506177Y-111410450D01*
X171498240Y-111389779D01*
X171487823Y-111357499D01*
X171476111Y-111317080D01*
X171464291Y-111271993D01*
X171462252Y-111263685D01*
X171446645Y-111210194D01*
X171425327Y-111150520D01*
X171405709Y-111103865D01*
X171376857Y-111034526D01*
X171365419Y-110998985D01*
X171791145Y-110998985D01*
X171792348Y-111043382D01*
X171793452Y-111056488D01*
X171797747Y-111103451D01*
X171800331Y-111146726D01*
X171800661Y-111175700D01*
X171804825Y-111209581D01*
X171817258Y-111248999D01*
X171822794Y-111261317D01*
X171837431Y-111299497D01*
X171850421Y-111348028D01*
X171856968Y-111383550D01*
X171864819Y-111438554D01*
X171873676Y-111498950D01*
X171878632Y-111531955D01*
X171884632Y-111583785D01*
X171888900Y-111644088D01*
X171890380Y-111691775D01*
X171891846Y-111734773D01*
X171895514Y-111791394D01*
X171900837Y-111856132D01*
X171907267Y-111923482D01*
X171914258Y-111987938D01*
X171921263Y-112043994D01*
X171927735Y-112086144D01*
X171931205Y-112102741D01*
X171948113Y-112163414D01*
X171967340Y-112224480D01*
X171986776Y-112279825D01*
X172004311Y-112323332D01*
X172014192Y-112343242D01*
X172032829Y-112381945D01*
X172047938Y-112424087D01*
X172049043Y-112428089D01*
X172063546Y-112461366D01*
X172092303Y-112502510D01*
X172137196Y-112554145D01*
X172146996Y-112564608D01*
X172188557Y-112610281D01*
X172215209Y-112644122D01*
X172229209Y-112669355D01*
X172232854Y-112687327D01*
X172238279Y-112712755D01*
X172249978Y-112719191D01*
X172263798Y-112729034D01*
X172267102Y-112746303D01*
X172273469Y-112802384D01*
X172294842Y-112851133D01*
X172328192Y-112893875D01*
X172358630Y-112930426D01*
X172385881Y-112968603D01*
X172398260Y-112989398D01*
X172414161Y-113013899D01*
X172440420Y-113047966D01*
X172473654Y-113087855D01*
X172510476Y-113129820D01*
X172547501Y-113170117D01*
X172581345Y-113204999D01*
X172608621Y-113230721D01*
X172625944Y-113243539D01*
X172628675Y-113244308D01*
X172645481Y-113251153D01*
X172670123Y-113268079D01*
X172675986Y-113272854D01*
X172704141Y-113291635D01*
X172729776Y-113301115D01*
X172733373Y-113301393D01*
X172757191Y-113309195D01*
X172766718Y-113319038D01*
X172785254Y-113333010D01*
X172822057Y-113346249D01*
X172872560Y-113357991D01*
X172932198Y-113367473D01*
X172996407Y-113373930D01*
X173060621Y-113376598D01*
X173105241Y-113375696D01*
X173153944Y-113372212D01*
X173193597Y-113367620D01*
X173218999Y-113362619D01*
X173225395Y-113359496D01*
X173239219Y-113353761D01*
X173269302Y-113348641D01*
X173308315Y-113345300D01*
X173348808Y-113343651D01*
X173371148Y-113344855D01*
X173379957Y-113350223D01*
X173379863Y-113361065D01*
X173378860Y-113365303D01*
X173377899Y-113378774D01*
X173386314Y-113388100D01*
X173408627Y-113395932D01*
X173444972Y-113404022D01*
X173483784Y-113412917D01*
X173513489Y-113421481D01*
X173526648Y-113427264D01*
X173532220Y-113431296D01*
X173540428Y-113432648D01*
X173555855Y-113430635D01*
X173583082Y-113424570D01*
X173626691Y-113413770D01*
X173641020Y-113410167D01*
X173689216Y-113394895D01*
X173738208Y-113374544D01*
X173760885Y-113362869D01*
X173800526Y-113340659D01*
X173839628Y-113319631D01*
X173853888Y-113312287D01*
X173885398Y-113293066D01*
X173922948Y-113265535D01*
X173945214Y-113247095D01*
X173981165Y-113218137D01*
X174017736Y-113192701D01*
X174036540Y-113181776D01*
X174063605Y-113164299D01*
X174096706Y-113137640D01*
X174131177Y-113106302D01*
X174162352Y-113074791D01*
X174185565Y-113047609D01*
X174196150Y-113029260D01*
X174196360Y-113027509D01*
X174203731Y-113013138D01*
X174223390Y-112987170D01*
X174251654Y-112954322D01*
X174263663Y-112941254D01*
X174316599Y-112881493D01*
X174374558Y-112810678D01*
X174434284Y-112733284D01*
X174492520Y-112653788D01*
X174546008Y-112576663D01*
X174591492Y-112506385D01*
X174625715Y-112447429D01*
X174632134Y-112434973D01*
X174654590Y-112388725D01*
X174672616Y-112349364D01*
X174684047Y-112321753D01*
X174686996Y-112311602D01*
X174690440Y-112296928D01*
X174699662Y-112265087D01*
X174713230Y-112220575D01*
X174729718Y-112167891D01*
X174747694Y-112111531D01*
X174765732Y-112055994D01*
X174782402Y-112005775D01*
X174796274Y-111965373D01*
X174802319Y-111948629D01*
X174812338Y-111916303D01*
X174822681Y-111874858D01*
X174826307Y-111857773D01*
X174837944Y-111814474D01*
X174853824Y-111772991D01*
X174859937Y-111760739D01*
X174882333Y-111720314D01*
X174873501Y-111783101D01*
X174868199Y-111833413D01*
X174864914Y-111888731D01*
X174864424Y-111911575D01*
X174865618Y-111950781D01*
X174871542Y-111975633D01*
X174885158Y-111994541D01*
X174897724Y-112006077D01*
X174926754Y-112026982D01*
X174953941Y-112040453D01*
X174957050Y-112041362D01*
X174997888Y-112041472D01*
X175045278Y-112026431D01*
X175092753Y-111999843D01*
X175133841Y-111965309D01*
X175161543Y-111927494D01*
X175173146Y-111900992D01*
X175187865Y-111862537D01*
X175203549Y-111818427D01*
X175218048Y-111774960D01*
X175229208Y-111738436D01*
X175234880Y-111715152D01*
X175235191Y-111711879D01*
X175225193Y-111706011D01*
X175198693Y-111707551D01*
X175194090Y-111708360D01*
X175157536Y-111710176D01*
X175133932Y-111698824D01*
X175114360Y-111688131D01*
X175086410Y-111688476D01*
X175070068Y-111691684D01*
X175039525Y-111696798D01*
X175018850Y-111697047D01*
X175016069Y-111696108D01*
X175008495Y-111680359D01*
X175235191Y-111680359D01*
X175243878Y-111691443D01*
X175246607Y-111691775D01*
X175257691Y-111683088D01*
X175258023Y-111680359D01*
X175249336Y-111669275D01*
X175246607Y-111668943D01*
X175235523Y-111677630D01*
X175235191Y-111680359D01*
X175008495Y-111680359D01*
X175007734Y-111678777D01*
X175008328Y-111647207D01*
X175017087Y-111607832D01*
X175030786Y-111572166D01*
X175043886Y-111539775D01*
X175050254Y-111514731D01*
X175050056Y-111507379D01*
X175041883Y-111507545D01*
X175025819Y-111522067D01*
X175005808Y-111545780D01*
X174985798Y-111573515D01*
X174969734Y-111600107D01*
X174961562Y-111620389D01*
X174961214Y-111623701D01*
X174953615Y-111642406D01*
X174937224Y-111652718D01*
X174922375Y-111649131D01*
X174916298Y-111635685D01*
X174919102Y-111613174D01*
X174931709Y-111577701D01*
X174948140Y-111540276D01*
X174976547Y-111475888D01*
X174996390Y-111424179D01*
X175010184Y-111377866D01*
X175019985Y-111332179D01*
X175024391Y-111298920D01*
X175028649Y-111250119D01*
X175032625Y-111189727D01*
X175036185Y-111121694D01*
X175039195Y-111049971D01*
X175041521Y-110978507D01*
X175043028Y-110911252D01*
X175043582Y-110852156D01*
X175043050Y-110805170D01*
X175041298Y-110774243D01*
X175039263Y-110764247D01*
X175019417Y-110747452D01*
X174990226Y-110744729D01*
X174959817Y-110755453D01*
X174941238Y-110771771D01*
X174928454Y-110796610D01*
X174915377Y-110835796D01*
X174904752Y-110881046D01*
X174904378Y-110883075D01*
X174893884Y-110938604D01*
X174881994Y-110998257D01*
X174873006Y-111041078D01*
X174862545Y-111089419D01*
X174852252Y-111137411D01*
X174846187Y-111165983D01*
X174833921Y-111203805D01*
X174816380Y-111236126D01*
X174810798Y-111242994D01*
X174791866Y-111259222D01*
X174779902Y-111263330D01*
X174779527Y-111255128D01*
X174786973Y-111243983D01*
X174799120Y-111219099D01*
X174812242Y-111175818D01*
X174825593Y-111118511D01*
X174838428Y-111051548D01*
X174850000Y-110979298D01*
X174859565Y-110906132D01*
X174866376Y-110836420D01*
X174869688Y-110774533D01*
X174869888Y-110758064D01*
X174864463Y-110718853D01*
X174846883Y-110687778D01*
X174815192Y-110663934D01*
X174767434Y-110646416D01*
X174701651Y-110634318D01*
X174615889Y-110626735D01*
X174582409Y-110625050D01*
X174534720Y-110623537D01*
X174500100Y-110623517D01*
X174481780Y-110624905D01*
X174482992Y-110627617D01*
X174483126Y-110627654D01*
X174509663Y-110641641D01*
X174537979Y-110666089D01*
X174544074Y-110672921D01*
X174567147Y-110696085D01*
X174587222Y-110709034D01*
X174591891Y-110710022D01*
X174603139Y-110715490D01*
X174602063Y-110720718D01*
X174603240Y-110735874D01*
X174612970Y-110764473D01*
X174626235Y-110794178D01*
X174642867Y-110830294D01*
X174649362Y-110852737D01*
X174646853Y-110867690D01*
X174641203Y-110875997D01*
X174625008Y-110891091D01*
X174602746Y-110902236D01*
X174570818Y-110910130D01*
X174525629Y-110915475D01*
X174463580Y-110918968D01*
X174411862Y-110920594D01*
X174347652Y-110922584D01*
X174302149Y-110925129D01*
X174271230Y-110928842D01*
X174250770Y-110934333D01*
X174236646Y-110942216D01*
X174230394Y-110947501D01*
X174214199Y-110964971D01*
X174213409Y-110979618D01*
X174225233Y-111000030D01*
X174243645Y-111021004D01*
X174260459Y-111029662D01*
X174274728Y-111038726D01*
X174276270Y-111045549D01*
X174266344Y-111061267D01*
X174240145Y-111069737D01*
X174203040Y-111070985D01*
X174160398Y-111065038D01*
X174117585Y-111051922D01*
X174101610Y-111044672D01*
X174071618Y-111035253D01*
X174046837Y-111035725D01*
X174022051Y-111037007D01*
X174010307Y-111032210D01*
X173992026Y-111022083D01*
X173961034Y-111008470D01*
X173942752Y-111001326D01*
X173901781Y-110980975D01*
X173875168Y-110953447D01*
X173867121Y-110939789D01*
X173847536Y-110911697D01*
X173828971Y-110901105D01*
X173826773Y-110901236D01*
X173792555Y-110905895D01*
X173774857Y-110903942D01*
X173767601Y-110892022D01*
X173767493Y-110891081D01*
X174077479Y-110891081D01*
X174077480Y-110906154D01*
X174095879Y-110914699D01*
X174106937Y-110915505D01*
X174124377Y-110907818D01*
X174127866Y-110898382D01*
X174118864Y-110885622D01*
X174099498Y-110881235D01*
X174081226Y-110886881D01*
X174077479Y-110891081D01*
X173767493Y-110891081D01*
X173764727Y-110866988D01*
X173759625Y-110837756D01*
X173748619Y-110825609D01*
X173738797Y-110824179D01*
X173717172Y-110814450D01*
X173703693Y-110796268D01*
X173688714Y-110774576D01*
X173669937Y-110759651D01*
X173654920Y-110757186D01*
X173653353Y-110758348D01*
X173653357Y-110770430D01*
X173657502Y-110796024D01*
X173658612Y-110801425D01*
X173667150Y-110828482D01*
X173680336Y-110838386D01*
X173692792Y-110838441D01*
X173714483Y-110838797D01*
X173730852Y-110847612D01*
X173743690Y-110868175D01*
X173754788Y-110903772D01*
X173765936Y-110957695D01*
X173769943Y-110980139D01*
X173771119Y-111008243D01*
X173759562Y-111024620D01*
X173752278Y-111029057D01*
X173737227Y-111039907D01*
X173730416Y-111054934D01*
X173732015Y-111078543D01*
X173742189Y-111115139D01*
X173757186Y-111158309D01*
X173793378Y-111237228D01*
X173837684Y-111296880D01*
X173889155Y-111336230D01*
X173935340Y-111352490D01*
X173951615Y-111356179D01*
X173946940Y-111358113D01*
X173929816Y-111359164D01*
X173892400Y-111353913D01*
X173847978Y-111337980D01*
X173806948Y-111315466D01*
X173793812Y-111305535D01*
X173781233Y-111288927D01*
X173761757Y-111256257D01*
X173738018Y-111212211D01*
X173712654Y-111161473D01*
X173712060Y-111160239D01*
X173651010Y-111009740D01*
X173608415Y-110849547D01*
X173596947Y-110786212D01*
X173588440Y-110755046D01*
X173570749Y-110736142D01*
X173547837Y-110724647D01*
X173509490Y-110713960D01*
X173459353Y-110707509D01*
X173404368Y-110705320D01*
X173351481Y-110707420D01*
X173307634Y-110713835D01*
X173281143Y-110723639D01*
X173259502Y-110749409D01*
X173239190Y-110796960D01*
X173220569Y-110865263D01*
X173207487Y-110932091D01*
X173196495Y-110972918D01*
X173176511Y-111025459D01*
X173149865Y-111085292D01*
X173118888Y-111147992D01*
X173085908Y-111209136D01*
X173053257Y-111264300D01*
X173023263Y-111309059D01*
X172998258Y-111338991D01*
X172989249Y-111346447D01*
X172958965Y-111358628D01*
X172922317Y-111363563D01*
X172888943Y-111360807D01*
X172870238Y-111351972D01*
X172871997Y-111343006D01*
X172895029Y-111335462D01*
X172903083Y-111334031D01*
X172944521Y-111317368D01*
X172987722Y-111282887D01*
X173029104Y-111234968D01*
X173065087Y-111177994D01*
X173092093Y-111116343D01*
X173098710Y-111094660D01*
X173104894Y-111065645D01*
X173102037Y-111051011D01*
X173091145Y-111044442D01*
X173059479Y-111026524D01*
X173035869Y-111000882D01*
X173022736Y-110972871D01*
X173022499Y-110947843D01*
X173037577Y-110931152D01*
X173039569Y-110930318D01*
X173059360Y-110917310D01*
X173083900Y-110894534D01*
X173088714Y-110889311D01*
X173109085Y-110868500D01*
X173122198Y-110863383D01*
X173134894Y-110871698D01*
X173136665Y-110873441D01*
X173150568Y-110884030D01*
X173160241Y-110877207D01*
X173167430Y-110862899D01*
X173175936Y-110834391D01*
X173180222Y-110799944D01*
X173180418Y-110765983D01*
X173176655Y-110738933D01*
X173169062Y-110725219D01*
X173164627Y-110725032D01*
X173144455Y-110725211D01*
X173138942Y-110722020D01*
X173121029Y-110712747D01*
X173098848Y-110705885D01*
X173077853Y-110703603D01*
X173067336Y-110713821D01*
X173061605Y-110736660D01*
X173054466Y-110762203D01*
X173041845Y-110770960D01*
X173022668Y-110769848D01*
X172996208Y-110771099D01*
X172980455Y-110788157D01*
X172978658Y-110791900D01*
X172955785Y-110818454D01*
X172913769Y-110843960D01*
X172856289Y-110866697D01*
X172787023Y-110884939D01*
X172774911Y-110887360D01*
X172697425Y-110899742D01*
X172639075Y-110903313D01*
X172597926Y-110898054D01*
X172573371Y-110885197D01*
X172555646Y-110863580D01*
X172557771Y-110846310D01*
X172580898Y-110830728D01*
X172600331Y-110822872D01*
X172635383Y-110806830D01*
X172651626Y-110791963D01*
X172647772Y-110780000D01*
X172635891Y-110775092D01*
X172624194Y-110770896D01*
X172634089Y-110768806D01*
X172640293Y-110768425D01*
X172649953Y-110766266D01*
X172694650Y-110766266D01*
X172697723Y-110767101D01*
X172707931Y-110776618D01*
X172719600Y-110799693D01*
X172720236Y-110801348D01*
X172734827Y-110826699D01*
X172755347Y-110834152D01*
X172786039Y-110824443D01*
X172802644Y-110815618D01*
X172829656Y-110795948D01*
X172836813Y-110782114D01*
X172825824Y-110777833D01*
X172798397Y-110786822D01*
X172791107Y-110790531D01*
X172775503Y-110796764D01*
X172772832Y-110787846D01*
X172775971Y-110773407D01*
X172778814Y-110754027D01*
X172774535Y-110749977D01*
X172826472Y-110749977D01*
X172832180Y-110755685D01*
X172837888Y-110749977D01*
X172832180Y-110744269D01*
X172826472Y-110749977D01*
X172774535Y-110749977D01*
X172770267Y-110745938D01*
X172744781Y-110744271D01*
X172742766Y-110744269D01*
X172713897Y-110747205D01*
X172696242Y-110754401D01*
X172695191Y-110755685D01*
X172694650Y-110766266D01*
X172649953Y-110766266D01*
X172665077Y-110762886D01*
X172671999Y-110753495D01*
X172660096Y-110745788D01*
X172644494Y-110744269D01*
X172619156Y-110748403D01*
X172609399Y-110758539D01*
X172606533Y-110766132D01*
X172599546Y-110757541D01*
X172585492Y-110749405D01*
X172553948Y-110743862D01*
X172502709Y-110740591D01*
X172477002Y-110739865D01*
X172411433Y-110736524D01*
X172360984Y-110729898D01*
X172330314Y-110720886D01*
X172305007Y-110702916D01*
X173659821Y-110702916D01*
X173668366Y-110718930D01*
X173676944Y-110721438D01*
X173692176Y-110719091D01*
X173694068Y-110717128D01*
X173686503Y-110707278D01*
X173676944Y-110698606D01*
X173663441Y-110690647D01*
X173659837Y-110701135D01*
X173659821Y-110702916D01*
X172305007Y-110702916D01*
X172303216Y-110701644D01*
X172277313Y-110673861D01*
X172262283Y-110651354D01*
X174150697Y-110651354D01*
X174156833Y-110662185D01*
X174177439Y-110670924D01*
X174215810Y-110678672D01*
X174244738Y-110682787D01*
X174287350Y-110692773D01*
X174339618Y-110711417D01*
X174390427Y-110734546D01*
X174441273Y-110758809D01*
X174481065Y-110774134D01*
X174506930Y-110779608D01*
X174516000Y-110774476D01*
X174506857Y-110758919D01*
X174482738Y-110736227D01*
X174448609Y-110710381D01*
X174409439Y-110685362D01*
X174394255Y-110676894D01*
X174345975Y-110655400D01*
X174294999Y-110639683D01*
X174245747Y-110630208D01*
X174202640Y-110627438D01*
X174170097Y-110631836D01*
X174152539Y-110643867D01*
X174150697Y-110651354D01*
X172262283Y-110651354D01*
X172257441Y-110644104D01*
X172248434Y-110618940D01*
X172249253Y-110610761D01*
X172244965Y-110594789D01*
X172222562Y-110580853D01*
X172186751Y-110570369D01*
X172142240Y-110564752D01*
X172097391Y-110565118D01*
X172050556Y-110570312D01*
X172017557Y-110579994D01*
X171996083Y-110597692D01*
X171983822Y-110626934D01*
X171978465Y-110671247D01*
X171977699Y-110734160D01*
X171977868Y-110747578D01*
X171980589Y-110817048D01*
X171986294Y-110894834D01*
X171993965Y-110968258D01*
X171997845Y-110996880D01*
X172007415Y-111064051D01*
X172012725Y-111108820D01*
X172013775Y-111131218D01*
X172010565Y-111131275D01*
X172003094Y-111109019D01*
X171997029Y-111086741D01*
X171986460Y-111041164D01*
X171976108Y-110985244D01*
X171965366Y-110915237D01*
X171953624Y-110827400D01*
X171949594Y-110795225D01*
X171938873Y-110743249D01*
X171922078Y-110700914D01*
X171915925Y-110690998D01*
X171890183Y-110665187D01*
X171861019Y-110650566D01*
X171835180Y-110649585D01*
X171823386Y-110657394D01*
X171816937Y-110675993D01*
X171810504Y-110712635D01*
X171804446Y-110762534D01*
X171799122Y-110820904D01*
X171794891Y-110882960D01*
X171792113Y-110943916D01*
X171791145Y-110998985D01*
X171365419Y-110998985D01*
X171355626Y-110968556D01*
X171343895Y-110912288D01*
X171342177Y-110889656D01*
X171337101Y-110864444D01*
X171324528Y-110829765D01*
X171316808Y-110812764D01*
X171307433Y-110791260D01*
X171300432Y-110767929D01*
X171295300Y-110738697D01*
X171291533Y-110699496D01*
X171288625Y-110646253D01*
X171286072Y-110574898D01*
X171285666Y-110561618D01*
X171283360Y-110489321D01*
X171280983Y-110435402D01*
X171279934Y-110422063D01*
X171832398Y-110422063D01*
X171833304Y-110464584D01*
X171839012Y-110521663D01*
X171937401Y-110520686D01*
X171992822Y-110518397D01*
X172048137Y-110513133D01*
X172098713Y-110505701D01*
X172139915Y-110496903D01*
X172167108Y-110487545D01*
X172167433Y-110487236D01*
X172585736Y-110487236D01*
X172591807Y-110492843D01*
X172592450Y-110493123D01*
X172616989Y-110499737D01*
X172647700Y-110503142D01*
X172677604Y-110503338D01*
X172699718Y-110500325D01*
X172707061Y-110494104D01*
X172706607Y-110493123D01*
X172692184Y-110487030D01*
X172662313Y-110483221D01*
X172634585Y-110482510D01*
X172599505Y-110483915D01*
X172585736Y-110487236D01*
X172167433Y-110487236D01*
X172175776Y-110479312D01*
X172167909Y-110466269D01*
X172147707Y-110444254D01*
X172130113Y-110427629D01*
X172100732Y-110399117D01*
X172087535Y-110377337D01*
X172088529Y-110355204D01*
X172101503Y-110326046D01*
X172113313Y-110291490D01*
X172118607Y-110252477D01*
X172118627Y-110250539D01*
X172120692Y-110222963D01*
X172125723Y-110208299D01*
X172127259Y-110207578D01*
X172139001Y-110200130D01*
X172162429Y-110180523D01*
X172192975Y-110152631D01*
X172200481Y-110145495D01*
X172254188Y-110099900D01*
X172301544Y-110073670D01*
X172346234Y-110065663D01*
X172391946Y-110074737D01*
X172407826Y-110081258D01*
X172437857Y-110093339D01*
X172464301Y-110098299D01*
X172496296Y-110096874D01*
X172533578Y-110091375D01*
X172579551Y-110085560D01*
X172622061Y-110085203D01*
X172670739Y-110090627D01*
X172709427Y-110097253D01*
X172764688Y-110106892D01*
X172820723Y-110115735D01*
X172867042Y-110122143D01*
X172874521Y-110123023D01*
X172924888Y-110134495D01*
X172980494Y-110156381D01*
X173035320Y-110185276D01*
X173083347Y-110217778D01*
X173118558Y-110250481D01*
X173130539Y-110267816D01*
X173150124Y-110300455D01*
X173175771Y-110336959D01*
X173183839Y-110347331D01*
X173202719Y-110373593D01*
X173213135Y-110398532D01*
X173217588Y-110430784D01*
X173218534Y-110467196D01*
X173217632Y-110509203D01*
X173214793Y-110543511D01*
X173210884Y-110561877D01*
X173213901Y-110579566D01*
X173235521Y-110598548D01*
X173271843Y-110616270D01*
X173313275Y-110628890D01*
X173367379Y-110636823D01*
X173435472Y-110639867D01*
X173509272Y-110638147D01*
X173580493Y-110631790D01*
X173626830Y-110624140D01*
X173684907Y-110609749D01*
X173720610Y-110595622D01*
X173734392Y-110581519D01*
X173729691Y-110569843D01*
X173723432Y-110550746D01*
X173725163Y-110541951D01*
X173722803Y-110521780D01*
X173715709Y-110513933D01*
X173706158Y-110503227D01*
X173714045Y-110497011D01*
X173723333Y-110482829D01*
X173728126Y-110455009D01*
X173728315Y-110447840D01*
X173731282Y-110417043D01*
X173742194Y-110402017D01*
X173751146Y-110398490D01*
X173770455Y-110383159D01*
X173773978Y-110367868D01*
X173784495Y-110325026D01*
X173816370Y-110277230D01*
X173830012Y-110261955D01*
X173858998Y-110237287D01*
X173884031Y-110232843D01*
X173910759Y-110248137D01*
X173917716Y-110254371D01*
X173939091Y-110270100D01*
X173957987Y-110269517D01*
X173968043Y-110264810D01*
X173989984Y-110258562D01*
X174030296Y-110252139D01*
X174084524Y-110245929D01*
X174148216Y-110240318D01*
X174216916Y-110235694D01*
X174286171Y-110232442D01*
X174351527Y-110230951D01*
X174358311Y-110230911D01*
X174410753Y-110233558D01*
X174471543Y-110240993D01*
X174533727Y-110251909D01*
X174590349Y-110264998D01*
X174634454Y-110278954D01*
X174649113Y-110285566D01*
X174683431Y-110310733D01*
X174720036Y-110348639D01*
X174755795Y-110394474D01*
X174787573Y-110443432D01*
X174812238Y-110490703D01*
X174826654Y-110531479D01*
X174827962Y-110559976D01*
X174827479Y-110571863D01*
X174836107Y-110580930D01*
X174857978Y-110589302D01*
X174897222Y-110599104D01*
X174909330Y-110601826D01*
X174953474Y-110611272D01*
X174981302Y-110615398D01*
X174998722Y-110614104D01*
X175011644Y-110607294D01*
X175020291Y-110599988D01*
X175029365Y-110590776D01*
X175035512Y-110579635D01*
X175039028Y-110562727D01*
X175040207Y-110536218D01*
X175039346Y-110496271D01*
X175036741Y-110439049D01*
X175035123Y-110407505D01*
X175030141Y-110304861D01*
X175027104Y-110220803D01*
X175026220Y-110151153D01*
X175027697Y-110091734D01*
X175031742Y-110038366D01*
X175038562Y-109986871D01*
X175048364Y-109933071D01*
X175061358Y-109872787D01*
X175061769Y-109870966D01*
X175081601Y-109774598D01*
X175093261Y-109692726D01*
X175096853Y-109618566D01*
X175092478Y-109545335D01*
X175080236Y-109466247D01*
X175068652Y-109410901D01*
X175031260Y-109265560D01*
X174989135Y-109142152D01*
X174942082Y-109040236D01*
X174889907Y-108959367D01*
X174850808Y-108915600D01*
X174804606Y-108880963D01*
X174750086Y-108854881D01*
X174695926Y-108840932D01*
X174667260Y-108839872D01*
X174629438Y-108832327D01*
X174592431Y-108810229D01*
X174559656Y-108789896D01*
X174527912Y-108777382D01*
X174518881Y-108775835D01*
X174494879Y-108771539D01*
X174455454Y-108761779D01*
X174406885Y-108748187D01*
X174373304Y-108738043D01*
X174322630Y-108723261D01*
X174275893Y-108712340D01*
X174226765Y-108704292D01*
X174168917Y-108698127D01*
X174096022Y-108692858D01*
X174076495Y-108691670D01*
X174007962Y-108688455D01*
X173941595Y-108686864D01*
X173883353Y-108686933D01*
X173839197Y-108688701D01*
X173825349Y-108690082D01*
X173729839Y-108702416D01*
X173650726Y-108711057D01*
X173581927Y-108716314D01*
X173517360Y-108718495D01*
X173450943Y-108717908D01*
X173376594Y-108714862D01*
X173357108Y-108713811D01*
X173294982Y-108710552D01*
X173241212Y-108708123D01*
X173199770Y-108706671D01*
X173174630Y-108706345D01*
X173168944Y-108706788D01*
X173155481Y-108709553D01*
X173125887Y-108713692D01*
X173089206Y-108718013D01*
X173012169Y-108731201D01*
X172932109Y-108753153D01*
X172855891Y-108781404D01*
X172790382Y-108813492D01*
X172751775Y-108839090D01*
X172696927Y-108890015D01*
X172640045Y-108955782D01*
X172586015Y-109029614D01*
X172539722Y-109104735D01*
X172506053Y-109174369D01*
X172501630Y-109186022D01*
X172481601Y-109229116D01*
X172453816Y-109274454D01*
X172438819Y-109294471D01*
X172410976Y-109329782D01*
X172385872Y-109364031D01*
X172375113Y-109380089D01*
X172356812Y-109407339D01*
X172330622Y-109444041D01*
X172306064Y-109477123D01*
X172283597Y-109507833D01*
X172269194Y-109532747D01*
X172260582Y-109558914D01*
X172255489Y-109593383D01*
X172251643Y-109643202D01*
X172251413Y-109646663D01*
X172247363Y-109698468D01*
X172242196Y-109733948D01*
X172234068Y-109759599D01*
X172221132Y-109781915D01*
X172208041Y-109799266D01*
X172186256Y-109825494D01*
X172173029Y-109835793D01*
X172163365Y-109832609D01*
X172156628Y-109824465D01*
X172144198Y-109799969D01*
X172141357Y-109786020D01*
X172136255Y-109752574D01*
X172123884Y-109718496D01*
X172107751Y-109691009D01*
X172091365Y-109677339D01*
X172088365Y-109676898D01*
X172067351Y-109687189D01*
X172042560Y-109715338D01*
X172016525Y-109757261D01*
X171991776Y-109808874D01*
X171970845Y-109866093D01*
X171970605Y-109866870D01*
X171953552Y-109918122D01*
X171934235Y-109970170D01*
X171917701Y-110009766D01*
X171897982Y-110062140D01*
X171878926Y-110129339D01*
X171861687Y-110205146D01*
X171847416Y-110283346D01*
X171837269Y-110357723D01*
X171832398Y-110422063D01*
X171279934Y-110422063D01*
X171277839Y-110395414D01*
X171273231Y-110364912D01*
X171266462Y-110339448D01*
X171256838Y-110314578D01*
X171243660Y-110285856D01*
X171241887Y-110282110D01*
X171221811Y-110241368D01*
X171203617Y-110207321D01*
X171190845Y-110186551D01*
X171189691Y-110185076D01*
X171172128Y-110151461D01*
X171157869Y-110099183D01*
X171147038Y-110032190D01*
X171139759Y-109954429D01*
X171136156Y-109869846D01*
X171136353Y-109782389D01*
X171140473Y-109696004D01*
X171148641Y-109614639D01*
X171160980Y-109542239D01*
X171168548Y-109511370D01*
X171180225Y-109481748D01*
X171200462Y-109441637D01*
X171225000Y-109399443D01*
X171226399Y-109397213D01*
X171255965Y-109349685D01*
X171286833Y-109299072D01*
X171310018Y-109260224D01*
X171336980Y-109215911D01*
X171366313Y-109170130D01*
X171382516Y-109146067D01*
X171449051Y-109041034D01*
X171506736Y-108931921D01*
X171530953Y-108877797D01*
X171552143Y-108831948D01*
X171575620Y-108788802D01*
X171596132Y-108757932D01*
X171619332Y-108728783D01*
X171650219Y-108689839D01*
X171682343Y-108649235D01*
X171684184Y-108646904D01*
X171717282Y-108608019D01*
X171760717Y-108561146D01*
X171807735Y-108513436D01*
X171835174Y-108487084D01*
X171878232Y-108446560D01*
X171931867Y-108395727D01*
X171990235Y-108340140D01*
X172047494Y-108285356D01*
X172067171Y-108266457D01*
X172117286Y-108219286D01*
X172165963Y-108175291D01*
X172209069Y-108138081D01*
X172242471Y-108111261D01*
X172255686Y-108101941D01*
X172330811Y-108053386D01*
X172387398Y-108014909D01*
X172426878Y-107985521D01*
X172438337Y-107975970D01*
X172469586Y-107954234D01*
X172505682Y-107936116D01*
X172506832Y-107935667D01*
X172542537Y-107919082D01*
X172581630Y-107896985D01*
X172590922Y-107891038D01*
X172627870Y-107866973D01*
X172664489Y-107843737D01*
X172672188Y-107838966D01*
X172701965Y-107818258D01*
X172738431Y-107789682D01*
X172761060Y-107770471D01*
X172823330Y-107716033D01*
X172873797Y-107673663D01*
X172917411Y-107639920D01*
X172959124Y-107611363D01*
X173003885Y-107584551D01*
X173056647Y-107556042D01*
X173106158Y-107530609D01*
X173266374Y-107461483D01*
X173397259Y-107422404D01*
X173436025Y-107412472D01*
X173478084Y-107400914D01*
X173482877Y-107399535D01*
X173534421Y-107391066D01*
X173602910Y-107389265D01*
X173683664Y-107393475D01*
G37*
%TD*%
D15*
%TO.C,U1*%
X115000000Y-133620000D03*
X117540000Y-133620000D03*
X120080000Y-133620000D03*
X122620000Y-133620000D03*
X125160000Y-133620000D03*
X127700000Y-133620000D03*
X130240000Y-133620000D03*
X132780000Y-133620000D03*
X135320000Y-133620000D03*
X137860000Y-133620000D03*
X140400000Y-133620000D03*
X142940000Y-133620000D03*
X145480000Y-133620000D03*
X148020000Y-133620000D03*
X148020000Y-126000000D03*
X145480000Y-126000000D03*
X142940000Y-126000000D03*
X140400000Y-126000000D03*
X137860000Y-126000000D03*
X135320000Y-126000000D03*
X132780000Y-126000000D03*
X130240000Y-126000000D03*
X127700000Y-126000000D03*
X125160000Y-126000000D03*
X122620000Y-126000000D03*
X120080000Y-126000000D03*
X117540000Y-126000000D03*
X115000000Y-126000000D03*
%TD*%
%LPC*%
D16*
%TO.C,C1*%
X114250000Y-116000000D03*
D17*
X106750000Y-116000000D03*
%TD*%
D18*
%TO.C,D1*%
X180852500Y-96225000D03*
D19*
X178312500Y-96225000D03*
%TD*%
D16*
%TO.C,R9*%
X119380000Y-105500000D03*
D17*
X127000000Y-105500000D03*
%TD*%
D18*
%TO.C,D5*%
X150852500Y-96225000D03*
D19*
X148312500Y-96225000D03*
%TD*%
D16*
%TO.C,R2*%
X157500000Y-111310000D03*
D17*
X157500000Y-103690000D03*
%TD*%
D16*
%TO.C,R4*%
X150500000Y-111310000D03*
D17*
X150500000Y-103690000D03*
%TD*%
D16*
%TO.C,R3*%
X154000000Y-111310000D03*
D17*
X154000000Y-103690000D03*
%TD*%
D20*
%TO.C,J4*%
X160000000Y-138820000D03*
D21*
X160000000Y-136280000D03*
X160000000Y-133740000D03*
X160000000Y-131200000D03*
X160000000Y-128660000D03*
X160000000Y-126120000D03*
X160000000Y-123580000D03*
X160000000Y-121040000D03*
X160000000Y-118500000D03*
%TD*%
D15*
%TO.C,U1*%
X115000000Y-133620000D03*
X117540000Y-133620000D03*
X120080000Y-133620000D03*
X122620000Y-133620000D03*
X125160000Y-133620000D03*
X127700000Y-133620000D03*
X130240000Y-133620000D03*
X132780000Y-133620000D03*
X135320000Y-133620000D03*
X137860000Y-133620000D03*
X140400000Y-133620000D03*
X142940000Y-133620000D03*
X145480000Y-133620000D03*
X148020000Y-133620000D03*
X148020000Y-126000000D03*
X145480000Y-126000000D03*
X142940000Y-126000000D03*
X140400000Y-126000000D03*
X137860000Y-126000000D03*
X135320000Y-126000000D03*
X132780000Y-126000000D03*
X130240000Y-126000000D03*
X127700000Y-126000000D03*
X125160000Y-126000000D03*
X122620000Y-126000000D03*
X120080000Y-126000000D03*
X117540000Y-126000000D03*
X115000000Y-126000000D03*
%TD*%
D20*
%TO.C,ISP*%
X164500000Y-124460000D03*
D21*
X167040000Y-124460000D03*
X164500000Y-127000000D03*
X167040000Y-127000000D03*
X164500000Y-129540000D03*
X167040000Y-129540000D03*
%TD*%
D18*
%TO.C,D7*%
X135852500Y-96225000D03*
D19*
X133312500Y-96225000D03*
%TD*%
D16*
%TO.C,R8*%
X136500000Y-111310000D03*
D17*
X136500000Y-103690000D03*
%TD*%
D16*
%TO.C,R5*%
X147000000Y-111310000D03*
D17*
X147000000Y-103690000D03*
%TD*%
D18*
%TO.C,D4*%
X158352500Y-96225000D03*
D19*
X155812500Y-96225000D03*
%TD*%
D22*
%TO.C,RESET*%
X127250000Y-114250000D03*
X133750000Y-114250000D03*
X127250000Y-118750000D03*
X133750000Y-118750000D03*
%TD*%
D16*
%TO.C,R6*%
X143500000Y-111310000D03*
D17*
X143500000Y-103690000D03*
%TD*%
D18*
%TO.C,D3*%
X165852500Y-96225000D03*
D19*
X163312500Y-96225000D03*
%TD*%
D20*
%TO.C,J2*%
X138500000Y-118000000D03*
D21*
X141040000Y-118000000D03*
X143580000Y-118000000D03*
X146120000Y-118000000D03*
X148660000Y-118000000D03*
X151200000Y-118000000D03*
%TD*%
D23*
%TO.C,Y1*%
X119500000Y-119000000D03*
X119500000Y-114120000D03*
%TD*%
D18*
%TO.C,D8*%
X128352500Y-96225000D03*
D19*
X125812500Y-96225000D03*
%TD*%
D18*
%TO.C,D2*%
X173352500Y-96225000D03*
D19*
X170812500Y-96225000D03*
%TD*%
D16*
%TO.C,R7*%
X140000000Y-111310000D03*
D17*
X140000000Y-103690000D03*
%TD*%
D16*
%TO.C,C2*%
X106750000Y-120000000D03*
D17*
X114250000Y-120000000D03*
%TD*%
D20*
%TO.C,J3*%
X119577500Y-94750000D03*
D24*
X119577500Y-92250000D03*
X117577500Y-92250000D03*
X117577500Y-94750000D03*
D25*
X114867500Y-99520000D03*
X114867500Y-87480000D03*
%TD*%
D16*
%TO.C,R1*%
X161000000Y-111310000D03*
D17*
X161000000Y-103690000D03*
%TD*%
D18*
%TO.C,D6*%
X143352500Y-96225000D03*
D19*
X140812500Y-96225000D03*
%TD*%
%LPD*%
M02*
