%TF.GenerationSoftware,KiCad,Pcbnew,8.0.3*%
%TF.CreationDate,2024-06-16T11:30:52+03:00*%
%TF.ProjectId,AtmegaPCB,41746d65-6761-4504-9342-2e6b69636164,rev?*%
%TF.SameCoordinates,Original*%
%TF.FileFunction,Copper,L1,Top*%
%TF.FilePolarity,Positive*%
%FSLAX46Y46*%
G04 Gerber Fmt 4.6, Leading zero omitted, Abs format (unit mm)*
G04 Created by KiCad (PCBNEW 8.0.3) date 2024-06-16 11:30:52*
%MOMM*%
%LPD*%
G01*
G04 APERTURE LIST*
%TA.AperFunction,NonConductor*%
%ADD10C,0.200000*%
%TD*%
%TA.AperFunction,ComponentPad*%
%ADD11C,1.600000*%
%TD*%
%TA.AperFunction,ComponentPad*%
%ADD12O,1.600000X1.600000*%
%TD*%
%TA.AperFunction,ComponentPad*%
%ADD13R,1.800000X1.800000*%
%TD*%
%TA.AperFunction,ComponentPad*%
%ADD14C,1.800000*%
%TD*%
%TA.AperFunction,ComponentPad*%
%ADD15R,1.700000X1.700000*%
%TD*%
%TA.AperFunction,ComponentPad*%
%ADD16O,1.700000X1.700000*%
%TD*%
%TA.AperFunction,ComponentPad*%
%ADD17C,1.524000*%
%TD*%
%TA.AperFunction,ComponentPad*%
%ADD18C,2.000000*%
%TD*%
%TA.AperFunction,ComponentPad*%
%ADD19C,1.500000*%
%TD*%
%TA.AperFunction,ComponentPad*%
%ADD20C,1.700000*%
%TD*%
%TA.AperFunction,ComponentPad*%
%ADD21C,3.500000*%
%TD*%
%TA.AperFunction,ViaPad*%
%ADD22C,0.600000*%
%TD*%
%TA.AperFunction,Conductor*%
%ADD23C,0.200000*%
%TD*%
G04 APERTURE END LIST*
D10*
X103000000Y-83000000D02*
X183000000Y-83000000D01*
X183000000Y-143500000D01*
X103000000Y-143500000D01*
X103000000Y-83000000D01*
D11*
%TO.P,C1,1*%
%TO.N,Net-(U1-XTAL1{slash}PB6)*%
X114250000Y-116000000D03*
D12*
%TO.P,C1,2*%
%TO.N,GND*%
X106750000Y-116000000D03*
%TD*%
D13*
%TO.P,D1,1,K*%
%TO.N,GND*%
X180852500Y-96225000D03*
D14*
%TO.P,D1,2,A*%
%TO.N,Net-(D1-A)*%
X178312500Y-96225000D03*
%TD*%
D11*
%TO.P,R9,1*%
%TO.N,VCC*%
X119380000Y-105500000D03*
D12*
%TO.P,R9,2*%
%TO.N,Net-(J4-Pin_9)*%
X127000000Y-105500000D03*
%TD*%
D13*
%TO.P,D5,1,K*%
%TO.N,GND*%
X150852500Y-96225000D03*
D14*
%TO.P,D5,2,A*%
%TO.N,Net-(D5-A)*%
X148312500Y-96225000D03*
%TD*%
D11*
%TO.P,R2,1*%
%TO.N,Net-(U1-PD1)*%
X157500000Y-111310000D03*
D12*
%TO.P,R2,2*%
%TO.N,Net-(D2-A)*%
X157500000Y-103690000D03*
%TD*%
D11*
%TO.P,R4,1*%
%TO.N,Net-(U1-PD3)*%
X150500000Y-111310000D03*
D12*
%TO.P,R4,2*%
%TO.N,Net-(D4-A)*%
X150500000Y-103690000D03*
%TD*%
D11*
%TO.P,R3,1*%
%TO.N,Net-(U1-PD2)*%
X154000000Y-111310000D03*
D12*
%TO.P,R3,2*%
%TO.N,Net-(D3-A)*%
X154000000Y-103690000D03*
%TD*%
D15*
%TO.P,J4,1,Pin_1*%
%TO.N,VCC*%
X160000000Y-138820000D03*
D16*
%TO.P,J4,2,Pin_2*%
X160000000Y-136280000D03*
%TO.P,J4,3,Pin_3*%
X160000000Y-133740000D03*
%TO.P,J4,4,Pin_4*%
%TO.N,GND*%
X160000000Y-131200000D03*
%TO.P,J4,5,Pin_5*%
X160000000Y-128660000D03*
%TO.P,J4,6,Pin_6*%
%TO.N,Net-(J4-Pin_6)*%
X160000000Y-126120000D03*
%TO.P,J4,7,Pin_7*%
%TO.N,Net-(J4-Pin_7)*%
X160000000Y-123580000D03*
%TO.P,J4,8,Pin_8*%
%TO.N,Net-(J4-Pin_8)*%
X160000000Y-121040000D03*
%TO.P,J4,9,Pin_9*%
%TO.N,Net-(J4-Pin_9)*%
X160000000Y-118500000D03*
%TD*%
D17*
%TO.P,U1,1,~{RESET}/PC6*%
%TO.N,Net-(J4-Pin_9)*%
X115000000Y-133620000D03*
%TO.P,U1,2,PD0*%
%TO.N,Net-(U1-PD0)*%
X117540000Y-133620000D03*
%TO.P,U1,3,PD1*%
%TO.N,Net-(U1-PD1)*%
X120080000Y-133620000D03*
%TO.P,U1,4,PD2*%
%TO.N,Net-(U1-PD2)*%
X122620000Y-133620000D03*
%TO.P,U1,5,PD3*%
%TO.N,Net-(U1-PD3)*%
X125160000Y-133620000D03*
%TO.P,U1,6,PD4*%
%TO.N,Net-(U1-PD4)*%
X127700000Y-133620000D03*
%TO.P,U1,7,VCC*%
%TO.N,VCC*%
X130240000Y-133620000D03*
%TO.P,U1,8,GND*%
%TO.N,GND*%
X132780000Y-133620000D03*
%TO.P,U1,9,XTAL1/PB6*%
%TO.N,Net-(U1-XTAL1{slash}PB6)*%
X135320000Y-133620000D03*
%TO.P,U1,10,XTAL2/PB7*%
%TO.N,Net-(U1-XTAL2{slash}PB7)*%
X137860000Y-133620000D03*
%TO.P,U1,11,PD5*%
%TO.N,Net-(U1-PD5)*%
X140400000Y-133620000D03*
%TO.P,U1,12,PD6*%
%TO.N,Net-(U1-PD6)*%
X142940000Y-133620000D03*
%TO.P,U1,13,PD7*%
%TO.N,Net-(U1-PD7)*%
X145480000Y-133620000D03*
%TO.P,U1,14,PB0*%
%TO.N,Net-(J4-Pin_6)*%
X148020000Y-133620000D03*
%TO.P,U1,15,PB1*%
%TO.N,Net-(J4-Pin_7)*%
X148020000Y-126000000D03*
%TO.P,U1,16,PB2*%
%TO.N,Net-(J4-Pin_8)*%
X145480000Y-126000000D03*
%TO.P,U1,17,PB3*%
%TO.N,Net-(J1-MOSI)*%
X142940000Y-126000000D03*
%TO.P,U1,18,PB4*%
%TO.N,Net-(J1-MISO)*%
X140400000Y-126000000D03*
%TO.P,U1,19,PB5*%
%TO.N,Net-(J1-SCK)*%
X137860000Y-126000000D03*
%TO.P,U1,20,AVCC*%
%TO.N,VCC*%
X135320000Y-126000000D03*
%TO.P,U1,21,AREF*%
%TO.N,unconnected-(U1-AREF-Pad21)*%
X132780000Y-126000000D03*
%TO.P,U1,22,GND*%
%TO.N,GND*%
X130240000Y-126000000D03*
%TO.P,U1,23,PC0*%
%TO.N,Net-(J2-Pin_6)*%
X127700000Y-126000000D03*
%TO.P,U1,24,PC1*%
%TO.N,Net-(J2-Pin_5)*%
X125160000Y-126000000D03*
%TO.P,U1,25,PC2*%
%TO.N,Net-(J2-Pin_4)*%
X122620000Y-126000000D03*
%TO.P,U1,26,PC3*%
%TO.N,Net-(J2-Pin_3)*%
X120080000Y-126000000D03*
%TO.P,U1,27,PC4*%
%TO.N,Net-(J2-Pin_2)*%
X117540000Y-126000000D03*
%TO.P,U1,28,PC5*%
%TO.N,Net-(J2-Pin_1)*%
X115000000Y-126000000D03*
%TD*%
D15*
%TO.P,ISP,1,MISO*%
%TO.N,Net-(J1-MISO)*%
X164500000Y-124460000D03*
D16*
%TO.P,ISP,2,VCC*%
%TO.N,VCC*%
X167040000Y-124460000D03*
%TO.P,ISP,3,SCK*%
%TO.N,Net-(J1-SCK)*%
X164500000Y-127000000D03*
%TO.P,ISP,4,MOSI*%
%TO.N,Net-(J1-MOSI)*%
X167040000Y-127000000D03*
%TO.P,ISP,5,~{RST}*%
%TO.N,unconnected-(J1-~{RST}-Pad5)*%
X164500000Y-129540000D03*
%TO.P,ISP,6,GND*%
%TO.N,GND*%
X167040000Y-129540000D03*
%TD*%
D13*
%TO.P,D7,1,K*%
%TO.N,GND*%
X135852500Y-96225000D03*
D14*
%TO.P,D7,2,A*%
%TO.N,Net-(D7-A)*%
X133312500Y-96225000D03*
%TD*%
D11*
%TO.P,R8,1*%
%TO.N,Net-(U1-PD7)*%
X136500000Y-111310000D03*
D12*
%TO.P,R8,2*%
%TO.N,Net-(D8-A)*%
X136500000Y-103690000D03*
%TD*%
D11*
%TO.P,R5,1*%
%TO.N,Net-(U1-PD4)*%
X147000000Y-111310000D03*
D12*
%TO.P,R5,2*%
%TO.N,Net-(D5-A)*%
X147000000Y-103690000D03*
%TD*%
D13*
%TO.P,D4,1,K*%
%TO.N,GND*%
X158352500Y-96225000D03*
D14*
%TO.P,D4,2,A*%
%TO.N,Net-(D4-A)*%
X155812500Y-96225000D03*
%TD*%
D18*
%TO.P,RESET,1,1*%
%TO.N,Net-(J4-Pin_9)*%
X127250000Y-114250000D03*
X133750000Y-114250000D03*
%TO.P,RESET,2,2*%
%TO.N,GND*%
X127250000Y-118750000D03*
X133750000Y-118750000D03*
%TD*%
D11*
%TO.P,R6,1*%
%TO.N,Net-(U1-PD5)*%
X143500000Y-111310000D03*
D12*
%TO.P,R6,2*%
%TO.N,Net-(D6-A)*%
X143500000Y-103690000D03*
%TD*%
D13*
%TO.P,D3,1,K*%
%TO.N,GND*%
X165852500Y-96225000D03*
D14*
%TO.P,D3,2,A*%
%TO.N,Net-(D3-A)*%
X163312500Y-96225000D03*
%TD*%
D15*
%TO.P,J2,1,Pin_1*%
%TO.N,Net-(J2-Pin_1)*%
X138500000Y-118000000D03*
D16*
%TO.P,J2,2,Pin_2*%
%TO.N,Net-(J2-Pin_2)*%
X141040000Y-118000000D03*
%TO.P,J2,3,Pin_3*%
%TO.N,Net-(J2-Pin_3)*%
X143580000Y-118000000D03*
%TO.P,J2,4,Pin_4*%
%TO.N,Net-(J2-Pin_4)*%
X146120000Y-118000000D03*
%TO.P,J2,5,Pin_5*%
%TO.N,Net-(J2-Pin_5)*%
X148660000Y-118000000D03*
%TO.P,J2,6,Pin_6*%
%TO.N,Net-(J2-Pin_6)*%
X151200000Y-118000000D03*
%TD*%
D19*
%TO.P,Y1,1,1*%
%TO.N,Net-(U1-XTAL2{slash}PB7)*%
X119500000Y-119000000D03*
%TO.P,Y1,2,2*%
%TO.N,Net-(U1-XTAL1{slash}PB6)*%
X119500000Y-114120000D03*
%TD*%
D13*
%TO.P,D8,1,K*%
%TO.N,GND*%
X128352500Y-96225000D03*
D14*
%TO.P,D8,2,A*%
%TO.N,Net-(D8-A)*%
X125812500Y-96225000D03*
%TD*%
D13*
%TO.P,D2,1,K*%
%TO.N,GND*%
X173352500Y-96225000D03*
D14*
%TO.P,D2,2,A*%
%TO.N,Net-(D2-A)*%
X170812500Y-96225000D03*
%TD*%
D11*
%TO.P,R7,1*%
%TO.N,Net-(U1-PD6)*%
X140000000Y-111310000D03*
D12*
%TO.P,R7,2*%
%TO.N,Net-(D7-A)*%
X140000000Y-103690000D03*
%TD*%
D11*
%TO.P,C2,1*%
%TO.N,GND*%
X106750000Y-120000000D03*
D12*
%TO.P,C2,2*%
%TO.N,Net-(U1-XTAL2{slash}PB7)*%
X114250000Y-120000000D03*
%TD*%
D15*
%TO.P,J3,1,VBUS*%
%TO.N,VCC*%
X119577500Y-94750000D03*
D20*
%TO.P,J3,2,D-*%
%TO.N,unconnected-(J3-D--Pad2)*%
X119577500Y-92250000D03*
%TO.P,J3,3,D+*%
%TO.N,unconnected-(J3-D+-Pad3)*%
X117577500Y-92250000D03*
%TO.P,J3,4,GND*%
%TO.N,GND*%
X117577500Y-94750000D03*
D21*
%TO.P,J3,5,Shield*%
X114867500Y-99520000D03*
X114867500Y-87480000D03*
%TD*%
D11*
%TO.P,R1,1*%
%TO.N,Net-(U1-PD0)*%
X161000000Y-111310000D03*
D12*
%TO.P,R1,2*%
%TO.N,Net-(D1-A)*%
X161000000Y-103690000D03*
%TD*%
D13*
%TO.P,D6,1,K*%
%TO.N,GND*%
X143352500Y-96225000D03*
D14*
%TO.P,D6,2,A*%
%TO.N,Net-(D6-A)*%
X140812500Y-96225000D03*
%TD*%
D22*
%TO.N,Net-(J1-MISO)*%
X142500000Y-130000000D03*
X162000000Y-124500000D03*
%TO.N,Net-(J1-SCK)*%
X162000000Y-127000000D03*
X152000000Y-132000000D03*
%TO.N,Net-(J1-MOSI)*%
X162000000Y-125500000D03*
X152000000Y-130500000D03*
%TO.N,Net-(J2-Pin_5)*%
X138500000Y-123000000D03*
%TO.N,Net-(J2-Pin_6)*%
X139500000Y-123000000D03*
%TO.N,Net-(J2-Pin_4)*%
X137500000Y-123000000D03*
%TO.N,Net-(J4-Pin_7)*%
X150500000Y-123000000D03*
%TO.N,Net-(J4-Pin_8)*%
X150500000Y-122000000D03*
%TD*%
D23*
%TO.N,Net-(U1-XTAL1{slash}PB6)*%
X116130000Y-114120000D02*
X114250000Y-116000000D01*
X119500000Y-114120000D02*
X116130000Y-114120000D01*
%TO.N,GND*%
X160270000Y-128390000D02*
X160000000Y-128660000D01*
X167040000Y-129540000D02*
X165890000Y-128390000D01*
X127250000Y-118750000D02*
X127000000Y-119000000D01*
X165890000Y-128390000D02*
X160270000Y-128390000D01*
%TO.N,Net-(U1-XTAL2{slash}PB7)*%
X118500000Y-120000000D02*
X114250000Y-120000000D01*
X118500000Y-120000000D02*
X119500000Y-119000000D01*
%TO.N,Net-(D1-A)*%
X174537500Y-100000000D02*
X178312500Y-96225000D01*
X161000000Y-103690000D02*
X161000000Y-101000000D01*
X162000000Y-100000000D02*
X174537500Y-100000000D01*
X161000000Y-101000000D02*
X162000000Y-100000000D01*
%TO.N,Net-(D2-A)*%
X159000000Y-99500000D02*
X167537500Y-99500000D01*
X157500000Y-101000000D02*
X159000000Y-99500000D01*
X167537500Y-99500000D02*
X170812500Y-96225000D01*
X157500000Y-103690000D02*
X157500000Y-101000000D01*
%TO.N,Net-(D3-A)*%
X154000000Y-103690000D02*
X154000000Y-100500000D01*
X160537500Y-99000000D02*
X163312500Y-96225000D01*
X154000000Y-100500000D02*
X155500000Y-99000000D01*
X155500000Y-99000000D02*
X160537500Y-99000000D01*
%TO.N,Net-(D4-A)*%
X150500000Y-101537500D02*
X155812500Y-96225000D01*
X150500000Y-103690000D02*
X150500000Y-101537500D01*
%TO.N,Net-(D5-A)*%
X147000000Y-97537500D02*
X148312500Y-96225000D01*
X147000000Y-103690000D02*
X147000000Y-97537500D01*
%TO.N,Net-(D6-A)*%
X142190000Y-103690000D02*
X140812500Y-102312500D01*
X143500000Y-103690000D02*
X142190000Y-103690000D01*
X140812500Y-102312500D02*
X140812500Y-96225000D01*
%TO.N,Net-(D7-A)*%
X140000000Y-103690000D02*
X133312500Y-97002500D01*
X133312500Y-97002500D02*
X133312500Y-96225000D01*
%TO.N,Net-(D8-A)*%
X133277500Y-103690000D02*
X125812500Y-96225000D01*
X136500000Y-103690000D02*
X133277500Y-103690000D01*
%TO.N,Net-(J1-MISO)*%
X162040000Y-124460000D02*
X162000000Y-124500000D01*
X164500000Y-124460000D02*
X162040000Y-124460000D01*
X142500000Y-130000000D02*
X140400000Y-127900000D01*
X140400000Y-127900000D02*
X140400000Y-126000000D01*
%TO.N,Net-(J1-SCK)*%
X164500000Y-127000000D02*
X162000000Y-127000000D01*
X137860000Y-127077630D02*
X137860000Y-126000000D01*
X152000000Y-132000000D02*
X142782370Y-132000000D01*
X142782370Y-132000000D02*
X137860000Y-127077630D01*
%TO.N,Net-(J1-MOSI)*%
X162350000Y-125850000D02*
X162000000Y-125500000D01*
X147440000Y-130500000D02*
X142940000Y-126000000D01*
X152000000Y-130500000D02*
X147440000Y-130500000D01*
X167040000Y-127000000D02*
X165890000Y-125850000D01*
X165890000Y-125850000D02*
X162350000Y-125850000D01*
%TO.N,Net-(J2-Pin_1)*%
X117100000Y-123900000D02*
X132600000Y-123900000D01*
X132600000Y-123900000D02*
X138500000Y-118000000D01*
X115000000Y-126000000D02*
X117100000Y-123900000D01*
%TO.N,Net-(J2-Pin_3)*%
X120080000Y-126000000D02*
X121380000Y-124700000D01*
X121380000Y-124700000D02*
X132931372Y-124700000D01*
X137231372Y-120400000D02*
X141180000Y-120400000D01*
X132931372Y-124700000D02*
X137231372Y-120400000D01*
X141180000Y-120400000D02*
X143580000Y-118000000D01*
%TO.N,Net-(J2-Pin_5)*%
X138500000Y-123000000D02*
X140300000Y-121200000D01*
X140300000Y-121200000D02*
X145460000Y-121200000D01*
X145460000Y-121200000D02*
X148660000Y-118000000D01*
%TO.N,Net-(J2-Pin_6)*%
X146200000Y-123000000D02*
X151200000Y-118000000D01*
X139500000Y-123000000D02*
X146200000Y-123000000D01*
%TO.N,Net-(J2-Pin_4)*%
X139700000Y-120800000D02*
X143320000Y-120800000D01*
X137500000Y-123000000D02*
X139700000Y-120800000D01*
X143320000Y-120800000D02*
X146120000Y-118000000D01*
%TO.N,Net-(J2-Pin_2)*%
X119240000Y-124300000D02*
X132765686Y-124300000D01*
X132765686Y-124300000D02*
X137065686Y-120000000D01*
X137065686Y-120000000D02*
X139040000Y-120000000D01*
X139040000Y-120000000D02*
X141040000Y-118000000D01*
X117540000Y-126000000D02*
X119240000Y-124300000D01*
%TO.N,Net-(J4-Pin_9)*%
X124500000Y-123500000D02*
X114500000Y-123500000D01*
X127250000Y-115750000D02*
X125000000Y-118000000D01*
X113120000Y-133620000D02*
X115000000Y-133620000D01*
X125000000Y-118000000D02*
X125000000Y-123000000D01*
X133750000Y-114250000D02*
X127250000Y-114250000D01*
X125000000Y-123000000D02*
X124500000Y-123500000D01*
X114500000Y-123500000D02*
X113000000Y-125000000D01*
X113000000Y-133500000D02*
X113120000Y-133620000D01*
X127250000Y-114250000D02*
X127250000Y-115750000D01*
X113000000Y-125000000D02*
X113000000Y-133500000D01*
%TO.N,Net-(J4-Pin_7)*%
X148020000Y-124480000D02*
X148020000Y-126000000D01*
X150500000Y-123000000D02*
X149500000Y-123000000D01*
X149500000Y-123000000D02*
X148020000Y-124480000D01*
%TO.N,Net-(J4-Pin_8)*%
X149480000Y-122000000D02*
X145480000Y-126000000D01*
X150500000Y-122000000D02*
X149480000Y-122000000D01*
%TO.N,Net-(U1-PD0)*%
X117540000Y-133620000D02*
X117540000Y-138960000D01*
X117540000Y-138960000D02*
X121480000Y-142900000D01*
X121480000Y-142900000D02*
X155059801Y-142900000D01*
X157534315Y-113000000D02*
X161000000Y-113000000D01*
X157300000Y-113234315D02*
X157534315Y-113000000D01*
X161000000Y-113000000D02*
X161000000Y-111310000D01*
X155059801Y-142900000D02*
X157300000Y-140659801D01*
X157300000Y-140659801D02*
X157300000Y-113234315D01*
%TO.N,Net-(U1-PD1)*%
X154894115Y-142500000D02*
X156900000Y-140494115D01*
X123500000Y-142500000D02*
X154894115Y-142500000D01*
X156900000Y-140494115D02*
X156900000Y-111910000D01*
X120080000Y-133620000D02*
X120080000Y-138920000D01*
X120080000Y-138920000D02*
X120000000Y-139000000D01*
X120000000Y-139000000D02*
X123500000Y-142500000D01*
X156900000Y-111910000D02*
X157500000Y-111310000D01*
%TO.N,Net-(U1-PD2)*%
X156500000Y-140328429D02*
X155028429Y-141800000D01*
X156500000Y-113671571D02*
X156500000Y-140328429D01*
X156500000Y-113671571D02*
X154138429Y-111310000D01*
X127234314Y-141800000D02*
X122620000Y-137185686D01*
X154138429Y-111310000D02*
X154000000Y-111310000D01*
X155028429Y-141800000D02*
X127234314Y-141800000D01*
X122620000Y-137185686D02*
X122620000Y-133620000D01*
%TO.N,Net-(U1-PD3)*%
X125160000Y-139160000D02*
X127400000Y-141400000D01*
X151600000Y-112410000D02*
X150500000Y-111310000D01*
X154862743Y-141400000D02*
X156100000Y-140162743D01*
X156100000Y-113837258D02*
X154672742Y-112410000D01*
X154672742Y-112410000D02*
X151600000Y-112410000D01*
X125160000Y-133620000D02*
X125160000Y-139160000D01*
X156100000Y-140162743D02*
X156100000Y-113837258D01*
X127400000Y-141400000D02*
X154862743Y-141400000D01*
%TO.N,Net-(U1-PD4)*%
X154697057Y-141000000D02*
X155700000Y-139997057D01*
X127700000Y-133620000D02*
X127500000Y-133820000D01*
X127500000Y-140500000D02*
X128000000Y-141000000D01*
X155700000Y-114002944D02*
X154507056Y-112810000D01*
X128000000Y-141000000D02*
X154697057Y-141000000D01*
X154507056Y-112810000D02*
X148500000Y-112810000D01*
X148500000Y-112810000D02*
X147000000Y-111310000D01*
X155700000Y-139997057D02*
X155700000Y-114002944D01*
X127500000Y-133820000D02*
X127500000Y-140500000D01*
%TO.N,Net-(U1-PD5)*%
X154831371Y-140300000D02*
X140800000Y-140300000D01*
X140800000Y-140300000D02*
X140500000Y-140000000D01*
X140500000Y-140000000D02*
X140500000Y-133720000D01*
X155300000Y-114168629D02*
X154341371Y-113210000D01*
X154341371Y-113210000D02*
X145400000Y-113210000D01*
X145400000Y-113210000D02*
X143500000Y-111310000D01*
X140500000Y-133720000D02*
X140400000Y-133620000D01*
X155300000Y-114168629D02*
X155300000Y-139831371D01*
X155300000Y-139831371D02*
X154831371Y-140300000D01*
%TO.N,Net-(U1-PD6)*%
X142300000Y-113610000D02*
X140000000Y-111310000D01*
X154900000Y-139665685D02*
X154665685Y-139900000D01*
X154900000Y-114334315D02*
X154900000Y-139665685D01*
X154665685Y-139900000D02*
X143400000Y-139900000D01*
X154175685Y-113610000D02*
X142300000Y-113610000D01*
X154900000Y-114334315D02*
X154175685Y-113610000D01*
X143000000Y-139500000D02*
X143000000Y-133680000D01*
X143000000Y-133680000D02*
X142940000Y-133620000D01*
X143400000Y-139900000D02*
X143000000Y-139500000D01*
%TO.N,Net-(U1-PD7)*%
X154500000Y-114500001D02*
X154009999Y-114010000D01*
X154500000Y-139500000D02*
X154500000Y-114500001D01*
X145480000Y-137980000D02*
X145500000Y-138000000D01*
X145500000Y-139000000D02*
X146000000Y-139500000D01*
X154009999Y-114010000D02*
X139200000Y-114010000D01*
X146000000Y-139500000D02*
X154500000Y-139500000D01*
X139200000Y-114010000D02*
X136500000Y-111310000D01*
X145480000Y-133620000D02*
X145480000Y-137980000D01*
X145500000Y-138000000D02*
X145500000Y-139000000D01*
%TD*%
%TA.AperFunction,Conductor*%
%TO.N,VCC*%
G36*
X160250000Y-138386988D02*
G01*
X160192993Y-138354075D01*
X160065826Y-138320000D01*
X159934174Y-138320000D01*
X159807007Y-138354075D01*
X159750000Y-138386988D01*
X159750000Y-136713012D01*
X159807007Y-136745925D01*
X159934174Y-136780000D01*
X160065826Y-136780000D01*
X160192993Y-136745925D01*
X160250000Y-136713012D01*
X160250000Y-138386988D01*
G37*
%TD.AperFunction*%
%TA.AperFunction,Conductor*%
G36*
X160250000Y-135846988D02*
G01*
X160192993Y-135814075D01*
X160065826Y-135780000D01*
X159934174Y-135780000D01*
X159807007Y-135814075D01*
X159750000Y-135846988D01*
X159750000Y-134173012D01*
X159807007Y-134205925D01*
X159934174Y-134240000D01*
X160065826Y-134240000D01*
X160192993Y-134205925D01*
X160250000Y-134173012D01*
X160250000Y-135846988D01*
G37*
%TD.AperFunction*%
%TA.AperFunction,Conductor*%
G36*
X182342539Y-83620185D02*
G01*
X182388294Y-83672989D01*
X182399500Y-83724500D01*
X182399500Y-94981557D01*
X182379815Y-95048596D01*
X182327011Y-95094351D01*
X182257853Y-95104295D01*
X182194297Y-95075270D01*
X182176234Y-95055869D01*
X182123486Y-94985408D01*
X182110046Y-94967454D01*
X182110044Y-94967453D01*
X182110044Y-94967452D01*
X181994835Y-94881206D01*
X181994828Y-94881202D01*
X181859982Y-94830908D01*
X181859983Y-94830908D01*
X181800383Y-94824501D01*
X181800381Y-94824500D01*
X181800373Y-94824500D01*
X181800364Y-94824500D01*
X179904629Y-94824500D01*
X179904623Y-94824501D01*
X179845016Y-94830908D01*
X179710171Y-94881202D01*
X179710164Y-94881206D01*
X179594955Y-94967452D01*
X179594952Y-94967455D01*
X179508706Y-95082664D01*
X179508703Y-95082670D01*
X179480044Y-95159508D01*
X179438172Y-95215441D01*
X179372708Y-95239858D01*
X179304435Y-95225006D01*
X179272635Y-95200158D01*
X179264284Y-95191087D01*
X179264278Y-95191082D01*
X179264277Y-95191081D01*
X179081134Y-95048535D01*
X179081128Y-95048531D01*
X178877004Y-94938064D01*
X178876995Y-94938061D01*
X178657484Y-94862702D01*
X178466950Y-94830908D01*
X178428549Y-94824500D01*
X178196451Y-94824500D01*
X178158050Y-94830908D01*
X177967515Y-94862702D01*
X177748004Y-94938061D01*
X177747995Y-94938064D01*
X177543871Y-95048531D01*
X177543865Y-95048535D01*
X177360722Y-95191081D01*
X177360719Y-95191084D01*
X177360716Y-95191086D01*
X177360716Y-95191087D01*
X177315819Y-95239858D01*
X177203516Y-95361852D01*
X177076575Y-95556151D01*
X176983342Y-95768699D01*
X176926366Y-95993691D01*
X176926364Y-95993702D01*
X176907200Y-96224993D01*
X176907200Y-96225006D01*
X176926364Y-96456297D01*
X176926366Y-96456309D01*
X176970819Y-96631848D01*
X176968194Y-96701668D01*
X176938294Y-96749969D01*
X174325084Y-99363181D01*
X174263761Y-99396666D01*
X174237403Y-99399500D01*
X168786597Y-99399500D01*
X168719558Y-99379815D01*
X168673803Y-99327011D01*
X168663859Y-99257853D01*
X168692884Y-99194297D01*
X168698916Y-99187819D01*
X169059724Y-98827011D01*
X170287660Y-97599073D01*
X170348981Y-97565590D01*
X170415602Y-97569474D01*
X170467519Y-97587298D01*
X170696451Y-97625500D01*
X170696452Y-97625500D01*
X170928548Y-97625500D01*
X170928549Y-97625500D01*
X171157481Y-97587298D01*
X171377003Y-97511936D01*
X171581126Y-97401470D01*
X171764284Y-97258913D01*
X171772630Y-97249846D01*
X171832510Y-97213854D01*
X171902349Y-97215949D01*
X171959968Y-97255469D01*
X171980044Y-97290491D01*
X172008703Y-97367330D01*
X172008706Y-97367335D01*
X172094952Y-97482544D01*
X172094955Y-97482547D01*
X172210164Y-97568793D01*
X172210171Y-97568797D01*
X172345017Y-97619091D01*
X172345016Y-97619091D01*
X172351944Y-97619835D01*
X172404627Y-97625500D01*
X174300372Y-97625499D01*
X174359983Y-97619091D01*
X174494831Y-97568796D01*
X174610046Y-97482546D01*
X174696296Y-97367331D01*
X174746591Y-97232483D01*
X174753000Y-97172873D01*
X174752999Y-95277128D01*
X174746591Y-95217517D01*
X174743787Y-95210000D01*
X174696297Y-95082671D01*
X174696293Y-95082664D01*
X174610047Y-94967455D01*
X174610044Y-94967452D01*
X174494835Y-94881206D01*
X174494828Y-94881202D01*
X174359982Y-94830908D01*
X174359983Y-94830908D01*
X174300383Y-94824501D01*
X174300381Y-94824500D01*
X174300373Y-94824500D01*
X174300364Y-94824500D01*
X172404629Y-94824500D01*
X172404623Y-94824501D01*
X172345016Y-94830908D01*
X172210171Y-94881202D01*
X172210164Y-94881206D01*
X172094955Y-94967452D01*
X172094952Y-94967455D01*
X172008706Y-95082664D01*
X172008703Y-95082670D01*
X171980044Y-95159508D01*
X171938172Y-95215441D01*
X171872708Y-95239858D01*
X171804435Y-95225006D01*
X171772635Y-95200158D01*
X171764284Y-95191087D01*
X171764278Y-95191082D01*
X171764277Y-95191081D01*
X171581134Y-95048535D01*
X171581128Y-95048531D01*
X171377004Y-94938064D01*
X171376995Y-94938061D01*
X171157484Y-94862702D01*
X170966950Y-94830908D01*
X170928549Y-94824500D01*
X170696451Y-94824500D01*
X170658050Y-94830908D01*
X170467515Y-94862702D01*
X170248004Y-94938061D01*
X170247995Y-94938064D01*
X170043871Y-95048531D01*
X170043865Y-95048535D01*
X169860722Y-95191081D01*
X169860719Y-95191084D01*
X169860716Y-95191086D01*
X169860716Y-95191087D01*
X169815819Y-95239858D01*
X169703516Y-95361852D01*
X169576575Y-95556151D01*
X169483342Y-95768699D01*
X169426366Y-95993691D01*
X169426364Y-95993702D01*
X169407200Y-96224993D01*
X169407200Y-96225006D01*
X169426364Y-96456297D01*
X169426366Y-96456309D01*
X169470819Y-96631848D01*
X169468194Y-96701668D01*
X169438294Y-96749969D01*
X167325084Y-98863181D01*
X167263761Y-98896666D01*
X167237403Y-98899500D01*
X161786597Y-98899500D01*
X161719558Y-98879815D01*
X161673803Y-98827011D01*
X161663859Y-98757853D01*
X161692884Y-98694297D01*
X161698916Y-98687819D01*
X162239694Y-98147041D01*
X162787661Y-97599073D01*
X162848982Y-97565590D01*
X162915602Y-97569474D01*
X162944571Y-97579420D01*
X162967518Y-97587298D01*
X163064193Y-97603430D01*
X163196451Y-97625500D01*
X163196452Y-97625500D01*
X163428548Y-97625500D01*
X163428549Y-97625500D01*
X163657481Y-97587298D01*
X163877003Y-97511936D01*
X164081126Y-97401470D01*
X164264284Y-97258913D01*
X164272630Y-97249846D01*
X164332510Y-97213854D01*
X164402349Y-97215949D01*
X164459968Y-97255469D01*
X164480044Y-97290491D01*
X164508703Y-97367330D01*
X164508706Y-97367335D01*
X164594952Y-97482544D01*
X164594955Y-97482547D01*
X164710164Y-97568793D01*
X164710171Y-97568797D01*
X164845017Y-97619091D01*
X164845016Y-97619091D01*
X164851944Y-97619835D01*
X164904627Y-97625500D01*
X166800372Y-97625499D01*
X166859983Y-97619091D01*
X166994831Y-97568796D01*
X167110046Y-97482546D01*
X167196296Y-97367331D01*
X167246591Y-97232483D01*
X167253000Y-97172873D01*
X167252999Y-95277128D01*
X167246591Y-95217517D01*
X167243787Y-95210000D01*
X167196297Y-95082671D01*
X167196293Y-95082664D01*
X167110047Y-94967455D01*
X167110044Y-94967452D01*
X166994835Y-94881206D01*
X166994828Y-94881202D01*
X166859982Y-94830908D01*
X166859983Y-94830908D01*
X166800383Y-94824501D01*
X166800381Y-94824500D01*
X166800373Y-94824500D01*
X166800364Y-94824500D01*
X164904629Y-94824500D01*
X164904623Y-94824501D01*
X164845016Y-94830908D01*
X164710171Y-94881202D01*
X164710164Y-94881206D01*
X164594955Y-94967452D01*
X164594952Y-94967455D01*
X164508706Y-95082664D01*
X164508703Y-95082670D01*
X164480044Y-95159508D01*
X164438172Y-95215441D01*
X164372708Y-95239858D01*
X164304435Y-95225006D01*
X164272635Y-95200158D01*
X164264284Y-95191087D01*
X164264278Y-95191082D01*
X164264277Y-95191081D01*
X164081134Y-95048535D01*
X164081128Y-95048531D01*
X163877004Y-94938064D01*
X163876995Y-94938061D01*
X163657484Y-94862702D01*
X163466950Y-94830908D01*
X163428549Y-94824500D01*
X163196451Y-94824500D01*
X163158050Y-94830908D01*
X162967515Y-94862702D01*
X162748004Y-94938061D01*
X162747995Y-94938064D01*
X162543871Y-95048531D01*
X162543865Y-95048535D01*
X162360722Y-95191081D01*
X162360719Y-95191084D01*
X162360716Y-95191086D01*
X162360716Y-95191087D01*
X162315819Y-95239858D01*
X162203516Y-95361852D01*
X162076575Y-95556151D01*
X161983342Y-95768699D01*
X161926366Y-95993691D01*
X161926364Y-95993702D01*
X161907200Y-96224993D01*
X161907200Y-96225006D01*
X161926364Y-96456297D01*
X161926366Y-96456309D01*
X161970819Y-96631848D01*
X161968194Y-96701668D01*
X161938294Y-96749969D01*
X160325084Y-98363181D01*
X160263761Y-98396666D01*
X160237403Y-98399500D01*
X155420940Y-98399500D01*
X155380019Y-98410464D01*
X155380019Y-98410465D01*
X155342751Y-98420451D01*
X155268214Y-98440423D01*
X155268209Y-98440426D01*
X155131290Y-98519475D01*
X155131282Y-98519481D01*
X153519481Y-100131282D01*
X153519479Y-100131285D01*
X153469361Y-100218094D01*
X153469359Y-100218096D01*
X153440425Y-100268209D01*
X153440424Y-100268210D01*
X153440423Y-100268215D01*
X153399499Y-100420943D01*
X153399499Y-100420945D01*
X153399499Y-100589046D01*
X153399500Y-100589059D01*
X153399500Y-102458306D01*
X153379815Y-102525345D01*
X153346623Y-102559881D01*
X153160859Y-102689953D01*
X152999954Y-102850858D01*
X152869432Y-103037265D01*
X152869431Y-103037267D01*
X152773261Y-103243502D01*
X152773258Y-103243511D01*
X152714366Y-103463302D01*
X152714364Y-103463313D01*
X152694532Y-103689998D01*
X152694532Y-103690001D01*
X152714364Y-103916686D01*
X152714366Y-103916697D01*
X152773258Y-104136488D01*
X152773261Y-104136497D01*
X152869431Y-104342732D01*
X152869432Y-104342734D01*
X152999954Y-104529141D01*
X153160858Y-104690045D01*
X153160861Y-104690047D01*
X153347266Y-104820568D01*
X153553504Y-104916739D01*
X153773308Y-104975635D01*
X153935230Y-104989801D01*
X153999998Y-104995468D01*
X154000000Y-104995468D01*
X154000002Y-104995468D01*
X154056673Y-104990509D01*
X154226692Y-104975635D01*
X154446496Y-104916739D01*
X154652734Y-104820568D01*
X154839139Y-104690047D01*
X155000047Y-104529139D01*
X155130568Y-104342734D01*
X155226739Y-104136496D01*
X155285635Y-103916692D01*
X155305468Y-103690000D01*
X155285635Y-103463308D01*
X155226739Y-103243504D01*
X155130568Y-103037266D01*
X155000047Y-102850861D01*
X155000045Y-102850858D01*
X154839140Y-102689953D01*
X154653377Y-102559881D01*
X154609752Y-102505304D01*
X154600500Y-102458306D01*
X154600500Y-100800097D01*
X154620185Y-100733058D01*
X154636819Y-100712416D01*
X155712416Y-99636819D01*
X155773739Y-99603334D01*
X155800097Y-99600500D01*
X157750903Y-99600500D01*
X157817942Y-99620185D01*
X157863697Y-99672989D01*
X157873641Y-99742147D01*
X157844616Y-99805703D01*
X157838587Y-99812177D01*
X157131286Y-100519478D01*
X157131284Y-100519480D01*
X157091188Y-100559576D01*
X157019479Y-100631284D01*
X157010988Y-100645991D01*
X157010023Y-100647665D01*
X156940423Y-100768215D01*
X156899499Y-100920943D01*
X156899499Y-100920945D01*
X156899499Y-101089046D01*
X156899500Y-101089059D01*
X156899500Y-102458306D01*
X156879815Y-102525345D01*
X156846623Y-102559881D01*
X156660859Y-102689953D01*
X156499954Y-102850858D01*
X156369432Y-103037265D01*
X156369431Y-103037267D01*
X156273261Y-103243502D01*
X156273258Y-103243511D01*
X156214366Y-103463302D01*
X156214364Y-103463313D01*
X156194532Y-103689998D01*
X156194532Y-103690001D01*
X156214364Y-103916686D01*
X156214366Y-103916697D01*
X156273258Y-104136488D01*
X156273261Y-104136497D01*
X156369431Y-104342732D01*
X156369432Y-104342734D01*
X156499954Y-104529141D01*
X156660858Y-104690045D01*
X156660861Y-104690047D01*
X156847266Y-104820568D01*
X157053504Y-104916739D01*
X157273308Y-104975635D01*
X157435230Y-104989801D01*
X157499998Y-104995468D01*
X157500000Y-104995468D01*
X157500002Y-104995468D01*
X157556673Y-104990509D01*
X157726692Y-104975635D01*
X157946496Y-104916739D01*
X158152734Y-104820568D01*
X158339139Y-104690047D01*
X158500047Y-104529139D01*
X158630568Y-104342734D01*
X158726739Y-104136496D01*
X158785635Y-103916692D01*
X158805468Y-103690000D01*
X158785635Y-103463308D01*
X158726739Y-103243504D01*
X158630568Y-103037266D01*
X158500047Y-102850861D01*
X158500045Y-102850858D01*
X158339140Y-102689953D01*
X158153377Y-102559881D01*
X158109752Y-102505304D01*
X158100500Y-102458306D01*
X158100500Y-101300097D01*
X158120185Y-101233058D01*
X158136819Y-101212416D01*
X159212416Y-100136819D01*
X159273739Y-100103334D01*
X159300097Y-100100500D01*
X160750902Y-100100500D01*
X160817941Y-100120185D01*
X160863696Y-100172989D01*
X160873640Y-100242147D01*
X160844615Y-100305703D01*
X160838583Y-100312181D01*
X160631286Y-100519478D01*
X160631284Y-100519480D01*
X160591188Y-100559576D01*
X160519479Y-100631284D01*
X160510988Y-100645991D01*
X160510023Y-100647665D01*
X160440423Y-100768215D01*
X160399499Y-100920943D01*
X160399499Y-100920945D01*
X160399499Y-101089046D01*
X160399500Y-101089059D01*
X160399500Y-102458306D01*
X160379815Y-102525345D01*
X160346623Y-102559881D01*
X160160859Y-102689953D01*
X159999954Y-102850858D01*
X159869432Y-103037265D01*
X159869431Y-103037267D01*
X159773261Y-103243502D01*
X159773258Y-103243511D01*
X159714366Y-103463302D01*
X159714364Y-103463313D01*
X159694532Y-103689998D01*
X159694532Y-103690001D01*
X159714364Y-103916686D01*
X159714366Y-103916697D01*
X159773258Y-104136488D01*
X159773261Y-104136497D01*
X159869431Y-104342732D01*
X159869432Y-104342734D01*
X159999954Y-104529141D01*
X160160858Y-104690045D01*
X160160861Y-104690047D01*
X160347266Y-104820568D01*
X160553504Y-104916739D01*
X160773308Y-104975635D01*
X160935230Y-104989801D01*
X160999998Y-104995468D01*
X161000000Y-104995468D01*
X161000002Y-104995468D01*
X161056673Y-104990509D01*
X161226692Y-104975635D01*
X161446496Y-104916739D01*
X161652734Y-104820568D01*
X161839139Y-104690047D01*
X162000047Y-104529139D01*
X162130568Y-104342734D01*
X162226739Y-104136496D01*
X162285635Y-103916692D01*
X162305468Y-103690000D01*
X162285635Y-103463308D01*
X162226739Y-103243504D01*
X162130568Y-103037266D01*
X162000047Y-102850861D01*
X162000045Y-102850858D01*
X161839140Y-102689953D01*
X161653377Y-102559881D01*
X161609752Y-102505304D01*
X161600500Y-102458306D01*
X161600500Y-101300097D01*
X161620185Y-101233058D01*
X161636819Y-101212416D01*
X162212417Y-100636819D01*
X162273740Y-100603334D01*
X162300098Y-100600500D01*
X174450831Y-100600500D01*
X174450847Y-100600501D01*
X174458443Y-100600501D01*
X174616554Y-100600501D01*
X174616557Y-100600501D01*
X174769285Y-100559577D01*
X174819404Y-100530639D01*
X174906216Y-100480520D01*
X175018020Y-100368716D01*
X175018020Y-100368714D01*
X175028228Y-100358507D01*
X175028230Y-100358504D01*
X177787660Y-97599073D01*
X177848981Y-97565590D01*
X177915602Y-97569474D01*
X177967519Y-97587298D01*
X178196451Y-97625500D01*
X178196452Y-97625500D01*
X178428548Y-97625500D01*
X178428549Y-97625500D01*
X178657481Y-97587298D01*
X178877003Y-97511936D01*
X179081126Y-97401470D01*
X179264284Y-97258913D01*
X179272630Y-97249846D01*
X179332510Y-97213854D01*
X179402349Y-97215949D01*
X179459968Y-97255469D01*
X179480044Y-97290491D01*
X179508703Y-97367330D01*
X179508706Y-97367335D01*
X179594952Y-97482544D01*
X179594955Y-97482547D01*
X179710164Y-97568793D01*
X179710171Y-97568797D01*
X179845017Y-97619091D01*
X179845016Y-97619091D01*
X179851944Y-97619835D01*
X179904627Y-97625500D01*
X181800372Y-97625499D01*
X181859983Y-97619091D01*
X181994831Y-97568796D01*
X182110046Y-97482546D01*
X182176234Y-97394130D01*
X182232167Y-97352260D01*
X182301859Y-97347276D01*
X182363182Y-97380761D01*
X182396666Y-97442085D01*
X182399500Y-97468442D01*
X182399500Y-142775500D01*
X182379815Y-142842539D01*
X182327011Y-142888294D01*
X182275500Y-142899500D01*
X156208898Y-142899500D01*
X156141859Y-142879815D01*
X156096104Y-142827011D01*
X156086160Y-142757853D01*
X156115185Y-142694297D01*
X156121217Y-142687819D01*
X156285478Y-142523557D01*
X157658506Y-141150528D01*
X157658511Y-141150525D01*
X157668714Y-141140321D01*
X157668716Y-141140321D01*
X157780520Y-141028517D01*
X157838017Y-140928929D01*
X157859577Y-140891586D01*
X157900501Y-140738858D01*
X157900501Y-140580743D01*
X157900501Y-140573148D01*
X157900500Y-140573130D01*
X157900500Y-118499999D01*
X158644341Y-118499999D01*
X158644341Y-118500000D01*
X158664936Y-118735403D01*
X158664938Y-118735413D01*
X158726094Y-118963655D01*
X158726096Y-118963659D01*
X158726097Y-118963663D01*
X158818051Y-119160858D01*
X158825965Y-119177830D01*
X158825967Y-119177834D01*
X158911005Y-119299280D01*
X158944605Y-119347266D01*
X158961501Y-119371395D01*
X158961506Y-119371402D01*
X159128597Y-119538493D01*
X159128603Y-119538498D01*
X159314158Y-119668425D01*
X159357783Y-119723002D01*
X159364977Y-119792500D01*
X159333454Y-119854855D01*
X159314158Y-119871575D01*
X159128597Y-120001505D01*
X158961505Y-120168597D01*
X158825965Y-120362169D01*
X158825964Y-120362171D01*
X158726098Y-120576335D01*
X158726094Y-120576344D01*
X158664938Y-120804586D01*
X158664936Y-120804596D01*
X158644341Y-121039999D01*
X158644341Y-121040000D01*
X158664936Y-121275403D01*
X158664938Y-121275413D01*
X158726094Y-121503655D01*
X158726096Y-121503659D01*
X158726097Y-121503663D01*
X158756432Y-121568716D01*
X158825965Y-121717830D01*
X158825967Y-121717834D01*
X158961501Y-121911395D01*
X158961506Y-121911402D01*
X159128597Y-122078493D01*
X159128603Y-122078498D01*
X159314158Y-122208425D01*
X159357783Y-122263002D01*
X159364977Y-122332500D01*
X159333454Y-122394855D01*
X159314158Y-122411575D01*
X159128597Y-122541505D01*
X158961505Y-122708597D01*
X158825965Y-122902169D01*
X158825964Y-122902171D01*
X158726098Y-123116335D01*
X158726094Y-123116344D01*
X158664938Y-123344586D01*
X158664936Y-123344596D01*
X158644341Y-123579999D01*
X158644341Y-123580000D01*
X158664936Y-123815403D01*
X158664938Y-123815413D01*
X158726094Y-124043655D01*
X158726096Y-124043659D01*
X158726097Y-124043663D01*
X158818652Y-124242147D01*
X158825965Y-124257830D01*
X158825967Y-124257834D01*
X158961501Y-124451395D01*
X158961506Y-124451402D01*
X159128597Y-124618493D01*
X159128603Y-124618498D01*
X159314158Y-124748425D01*
X159357783Y-124803002D01*
X159364977Y-124872500D01*
X159333454Y-124934855D01*
X159314158Y-124951575D01*
X159128597Y-125081505D01*
X158961505Y-125248597D01*
X158825965Y-125442169D01*
X158825964Y-125442171D01*
X158726098Y-125656335D01*
X158726094Y-125656344D01*
X158664938Y-125884586D01*
X158664936Y-125884596D01*
X158644341Y-126119999D01*
X158644341Y-126120000D01*
X158664936Y-126355403D01*
X158664938Y-126355413D01*
X158726094Y-126583655D01*
X158726096Y-126583659D01*
X158726097Y-126583663D01*
X158779501Y-126698187D01*
X158825965Y-126797830D01*
X158825967Y-126797834D01*
X158961501Y-126991395D01*
X158961506Y-126991402D01*
X159128597Y-127158493D01*
X159128603Y-127158498D01*
X159314158Y-127288425D01*
X159357783Y-127343002D01*
X159364977Y-127412500D01*
X159333454Y-127474855D01*
X159314158Y-127491575D01*
X159128597Y-127621505D01*
X158961505Y-127788597D01*
X158825965Y-127982169D01*
X158825964Y-127982171D01*
X158726098Y-128196335D01*
X158726094Y-128196344D01*
X158664938Y-128424586D01*
X158664936Y-128424596D01*
X158644341Y-128659999D01*
X158644341Y-128660000D01*
X158664936Y-128895403D01*
X158664938Y-128895413D01*
X158726094Y-129123655D01*
X158726096Y-129123659D01*
X158726097Y-129123663D01*
X158796299Y-129274211D01*
X158825965Y-129337830D01*
X158825967Y-129337834D01*
X158961501Y-129531395D01*
X158961506Y-129531402D01*
X159128597Y-129698493D01*
X159128603Y-129698498D01*
X159314158Y-129828425D01*
X159357783Y-129883002D01*
X159364977Y-129952500D01*
X159333454Y-130014855D01*
X159314158Y-130031575D01*
X159128597Y-130161505D01*
X158961505Y-130328597D01*
X158825965Y-130522169D01*
X158825964Y-130522171D01*
X158726098Y-130736335D01*
X158726094Y-130736344D01*
X158664938Y-130964586D01*
X158664936Y-130964596D01*
X158644341Y-131199999D01*
X158644341Y-131200000D01*
X158664936Y-131435403D01*
X158664938Y-131435413D01*
X158726094Y-131663655D01*
X158726096Y-131663659D01*
X158726097Y-131663663D01*
X158799346Y-131820745D01*
X158825965Y-131877830D01*
X158825967Y-131877834D01*
X158934281Y-132032521D01*
X158961505Y-132071401D01*
X159128599Y-132238495D01*
X159314569Y-132368713D01*
X159314594Y-132368730D01*
X159358219Y-132423307D01*
X159365413Y-132492805D01*
X159333890Y-132555160D01*
X159314595Y-132571880D01*
X159128922Y-132701890D01*
X159128920Y-132701891D01*
X158961891Y-132868920D01*
X158961886Y-132868926D01*
X158826400Y-133062420D01*
X158826399Y-133062422D01*
X158726570Y-133276507D01*
X158726567Y-133276513D01*
X158669364Y-133489999D01*
X158669364Y-133490000D01*
X159566988Y-133490000D01*
X159534075Y-133547007D01*
X159500000Y-133674174D01*
X159500000Y-133805826D01*
X159534075Y-133932993D01*
X159566988Y-133990000D01*
X158669364Y-133990000D01*
X158726567Y-134203486D01*
X158726570Y-134203492D01*
X158826399Y-134417578D01*
X158961894Y-134611082D01*
X159128917Y-134778105D01*
X159315031Y-134908425D01*
X159358656Y-134963003D01*
X159365848Y-135032501D01*
X159334326Y-135094856D01*
X159315031Y-135111575D01*
X159128922Y-135241890D01*
X159128920Y-135241891D01*
X158961891Y-135408920D01*
X158961886Y-135408926D01*
X158826400Y-135602420D01*
X158826399Y-135602422D01*
X158726570Y-135816507D01*
X158726567Y-135816513D01*
X158669364Y-136029999D01*
X158669364Y-136030000D01*
X159566988Y-136030000D01*
X159534075Y-136087007D01*
X159500000Y-136214174D01*
X159500000Y-136345826D01*
X159534075Y-136472993D01*
X159566988Y-136530000D01*
X158669364Y-136530000D01*
X158726567Y-136743486D01*
X158726570Y-136743492D01*
X158826399Y-136957578D01*
X158961894Y-137151082D01*
X159084334Y-137273522D01*
X159117819Y-137334845D01*
X159112835Y-137404537D01*
X159070963Y-137460470D01*
X159039987Y-137477385D01*
X158907911Y-137526646D01*
X158907906Y-137526649D01*
X158792812Y-137612809D01*
X158792809Y-137612812D01*
X158706649Y-137727906D01*
X158706645Y-137727913D01*
X158656403Y-137862620D01*
X158656401Y-137862627D01*
X158650000Y-137922155D01*
X158650000Y-138570000D01*
X159566988Y-138570000D01*
X159534075Y-138627007D01*
X159500000Y-138754174D01*
X159500000Y-138885826D01*
X159534075Y-139012993D01*
X159566988Y-139070000D01*
X158650000Y-139070000D01*
X158650000Y-139717844D01*
X158656401Y-139777372D01*
X158656403Y-139777379D01*
X158706645Y-139912086D01*
X158706649Y-139912093D01*
X158792809Y-140027187D01*
X158792812Y-140027190D01*
X158907906Y-140113350D01*
X158907913Y-140113354D01*
X159042620Y-140163596D01*
X159042627Y-140163598D01*
X159102155Y-140169999D01*
X159102172Y-140170000D01*
X159750000Y-140170000D01*
X159750000Y-139253012D01*
X159807007Y-139285925D01*
X159934174Y-139320000D01*
X160065826Y-139320000D01*
X160192993Y-139285925D01*
X160250000Y-139253012D01*
X160250000Y-140170000D01*
X160897828Y-140170000D01*
X160897844Y-140169999D01*
X160957372Y-140163598D01*
X160957379Y-140163596D01*
X161092086Y-140113354D01*
X161092093Y-140113350D01*
X161207187Y-140027190D01*
X161207190Y-140027187D01*
X161293350Y-139912093D01*
X161293354Y-139912086D01*
X161343596Y-139777379D01*
X161343598Y-139777372D01*
X161349999Y-139717844D01*
X161350000Y-139717827D01*
X161350000Y-139070000D01*
X160433012Y-139070000D01*
X160465925Y-139012993D01*
X160500000Y-138885826D01*
X160500000Y-138754174D01*
X160465925Y-138627007D01*
X160433012Y-138570000D01*
X161350000Y-138570000D01*
X161350000Y-137922172D01*
X161349999Y-137922155D01*
X161343598Y-137862627D01*
X161343596Y-137862620D01*
X161293354Y-137727913D01*
X161293350Y-137727906D01*
X161207190Y-137612812D01*
X161207187Y-137612809D01*
X161092093Y-137526649D01*
X161092086Y-137526645D01*
X160960013Y-137477385D01*
X160904079Y-137435514D01*
X160879662Y-137370049D01*
X160894514Y-137301776D01*
X160915665Y-137273521D01*
X161038108Y-137151078D01*
X161173600Y-136957578D01*
X161273429Y-136743492D01*
X161273432Y-136743486D01*
X161330636Y-136530000D01*
X160433012Y-136530000D01*
X160465925Y-136472993D01*
X160500000Y-136345826D01*
X160500000Y-136214174D01*
X160465925Y-136087007D01*
X160433012Y-136030000D01*
X161330636Y-136030000D01*
X161330635Y-136029999D01*
X161273432Y-135816513D01*
X161273429Y-135816507D01*
X161173600Y-135602422D01*
X161173599Y-135602420D01*
X161038113Y-135408926D01*
X161038108Y-135408920D01*
X160871082Y-135241894D01*
X160684968Y-135111575D01*
X160641344Y-135056998D01*
X160634151Y-134987499D01*
X160665673Y-134925145D01*
X160684968Y-134908425D01*
X160871082Y-134778105D01*
X161038105Y-134611082D01*
X161173600Y-134417578D01*
X161273429Y-134203492D01*
X161273432Y-134203486D01*
X161330636Y-133990000D01*
X160433012Y-133990000D01*
X160465925Y-133932993D01*
X160500000Y-133805826D01*
X160500000Y-133674174D01*
X160465925Y-133547007D01*
X160433012Y-133490000D01*
X161330636Y-133490000D01*
X161330635Y-133489999D01*
X161273432Y-133276513D01*
X161273429Y-133276507D01*
X161173600Y-133062422D01*
X161173599Y-133062420D01*
X161038113Y-132868926D01*
X161038108Y-132868920D01*
X160871078Y-132701890D01*
X160685405Y-132571879D01*
X160641780Y-132517302D01*
X160634588Y-132447804D01*
X160666110Y-132385449D01*
X160685406Y-132368730D01*
X160685426Y-132368716D01*
X160871401Y-132238495D01*
X161038495Y-132071401D01*
X161174035Y-131877830D01*
X161273903Y-131663663D01*
X161335063Y-131435408D01*
X161355659Y-131200000D01*
X161335063Y-130964592D01*
X161273903Y-130736337D01*
X161174035Y-130522171D01*
X161096474Y-130411401D01*
X161038494Y-130328597D01*
X160871402Y-130161506D01*
X160871396Y-130161501D01*
X160685842Y-130031575D01*
X160642217Y-129976998D01*
X160635023Y-129907500D01*
X160666546Y-129845145D01*
X160685842Y-129828425D01*
X160763267Y-129774211D01*
X160871401Y-129698495D01*
X161038495Y-129531401D01*
X161174035Y-129337830D01*
X161273903Y-129123663D01*
X161273905Y-129123653D01*
X161273907Y-129123650D01*
X161284957Y-129082409D01*
X161321320Y-129022748D01*
X161384167Y-128992217D01*
X161404732Y-128990500D01*
X163087497Y-128990500D01*
X163154536Y-129010185D01*
X163200291Y-129062989D01*
X163210235Y-129132147D01*
X163207272Y-129146593D01*
X163164938Y-129304586D01*
X163164936Y-129304596D01*
X163144341Y-129539999D01*
X163144341Y-129540000D01*
X163164936Y-129775403D01*
X163164938Y-129775413D01*
X163226094Y-130003655D01*
X163226096Y-130003659D01*
X163226097Y-130003663D01*
X163294557Y-130150476D01*
X163325965Y-130217830D01*
X163325967Y-130217834D01*
X163434281Y-130372521D01*
X163461505Y-130411401D01*
X163628599Y-130578495D01*
X163701893Y-130629816D01*
X163822165Y-130714032D01*
X163822167Y-130714033D01*
X163822170Y-130714035D01*
X164036337Y-130813903D01*
X164264592Y-130875063D01*
X164452918Y-130891539D01*
X164499999Y-130895659D01*
X164500000Y-130895659D01*
X164500001Y-130895659D01*
X164539234Y-130892226D01*
X164735408Y-130875063D01*
X164963663Y-130813903D01*
X165177830Y-130714035D01*
X165371401Y-130578495D01*
X165538495Y-130411401D01*
X165668425Y-130225842D01*
X165723002Y-130182217D01*
X165792500Y-130175023D01*
X165854855Y-130206546D01*
X165871575Y-130225842D01*
X166001500Y-130411395D01*
X166001505Y-130411401D01*
X166168599Y-130578495D01*
X166241893Y-130629816D01*
X166362165Y-130714032D01*
X166362167Y-130714033D01*
X166362170Y-130714035D01*
X166576337Y-130813903D01*
X166804592Y-130875063D01*
X166992918Y-130891539D01*
X167039999Y-130895659D01*
X167040000Y-130895659D01*
X167040001Y-130895659D01*
X167079234Y-130892226D01*
X167275408Y-130875063D01*
X167503663Y-130813903D01*
X167717830Y-130714035D01*
X167911401Y-130578495D01*
X168078495Y-130411401D01*
X168214035Y-130217830D01*
X168313903Y-130003663D01*
X168375063Y-129775408D01*
X168395659Y-129540000D01*
X168375063Y-129304592D01*
X168313903Y-129076337D01*
X168214035Y-128862171D01*
X168078495Y-128668599D01*
X168078494Y-128668597D01*
X167911402Y-128501506D01*
X167911396Y-128501501D01*
X167725842Y-128371575D01*
X167682217Y-128316998D01*
X167675023Y-128247500D01*
X167706546Y-128185145D01*
X167725842Y-128168425D01*
X167778169Y-128131785D01*
X167911401Y-128038495D01*
X168078495Y-127871401D01*
X168214035Y-127677830D01*
X168313903Y-127463663D01*
X168375063Y-127235408D01*
X168395659Y-127000000D01*
X168375063Y-126764592D01*
X168313903Y-126536337D01*
X168214035Y-126322171D01*
X168180454Y-126274211D01*
X168078494Y-126128597D01*
X167911402Y-125961506D01*
X167911401Y-125961505D01*
X167725405Y-125831269D01*
X167681781Y-125776692D01*
X167674588Y-125707193D01*
X167706110Y-125644839D01*
X167725405Y-125628119D01*
X167911082Y-125498105D01*
X168078105Y-125331082D01*
X168213600Y-125137578D01*
X168313429Y-124923492D01*
X168313432Y-124923486D01*
X168370636Y-124710000D01*
X167473012Y-124710000D01*
X167505925Y-124652993D01*
X167540000Y-124525826D01*
X167540000Y-124394174D01*
X167505925Y-124267007D01*
X167473012Y-124210000D01*
X168370636Y-124210000D01*
X168370635Y-124209999D01*
X168313432Y-123996513D01*
X168313429Y-123996507D01*
X168213600Y-123782422D01*
X168213599Y-123782420D01*
X168078113Y-123588926D01*
X168078108Y-123588920D01*
X167911082Y-123421894D01*
X167717578Y-123286399D01*
X167503492Y-123186570D01*
X167503486Y-123186567D01*
X167290000Y-123129364D01*
X167290000Y-124026988D01*
X167232993Y-123994075D01*
X167105826Y-123960000D01*
X166974174Y-123960000D01*
X166847007Y-123994075D01*
X166790000Y-124026988D01*
X166790000Y-123129364D01*
X166789999Y-123129364D01*
X166576513Y-123186567D01*
X166576507Y-123186570D01*
X166362422Y-123286399D01*
X166362420Y-123286400D01*
X166168926Y-123421886D01*
X166046865Y-123543947D01*
X165985542Y-123577431D01*
X165915850Y-123572447D01*
X165859917Y-123530575D01*
X165843002Y-123499598D01*
X165835886Y-123480520D01*
X165794187Y-123368716D01*
X165793797Y-123367671D01*
X165793793Y-123367664D01*
X165707547Y-123252455D01*
X165707544Y-123252452D01*
X165592335Y-123166206D01*
X165592328Y-123166202D01*
X165457482Y-123115908D01*
X165457483Y-123115908D01*
X165397883Y-123109501D01*
X165397881Y-123109500D01*
X165397873Y-123109500D01*
X165397864Y-123109500D01*
X163602129Y-123109500D01*
X163602123Y-123109501D01*
X163542516Y-123115908D01*
X163407671Y-123166202D01*
X163407664Y-123166206D01*
X163292455Y-123252452D01*
X163292452Y-123252455D01*
X163206206Y-123367664D01*
X163206202Y-123367671D01*
X163155908Y-123502517D01*
X163149501Y-123562116D01*
X163149500Y-123562135D01*
X163149500Y-123735500D01*
X163129815Y-123802539D01*
X163077011Y-123848294D01*
X163025500Y-123859500D01*
X162520983Y-123859500D01*
X162455011Y-123840494D01*
X162349522Y-123774210D01*
X162349518Y-123774209D01*
X162179262Y-123714633D01*
X162179249Y-123714630D01*
X162000004Y-123694435D01*
X161999996Y-123694435D01*
X161820750Y-123714630D01*
X161820745Y-123714631D01*
X161650476Y-123774211D01*
X161531773Y-123848798D01*
X161464536Y-123867798D01*
X161397701Y-123847430D01*
X161352487Y-123794162D01*
X161342273Y-123732996D01*
X161351301Y-123629816D01*
X161355659Y-123580000D01*
X161335063Y-123344592D01*
X161273903Y-123116337D01*
X161174035Y-122902171D01*
X161170181Y-122896666D01*
X161038494Y-122708597D01*
X160871402Y-122541506D01*
X160871396Y-122541501D01*
X160685842Y-122411575D01*
X160642217Y-122356998D01*
X160635023Y-122287500D01*
X160666546Y-122225145D01*
X160685842Y-122208425D01*
X160727502Y-122179254D01*
X160871401Y-122078495D01*
X161038495Y-121911401D01*
X161174035Y-121717830D01*
X161273903Y-121503663D01*
X161335063Y-121275408D01*
X161355659Y-121040000D01*
X161335063Y-120804592D01*
X161280377Y-120600500D01*
X161273905Y-120576344D01*
X161273904Y-120576343D01*
X161273903Y-120576337D01*
X161174035Y-120362171D01*
X161171470Y-120358507D01*
X161038494Y-120168597D01*
X160871402Y-120001506D01*
X160871396Y-120001501D01*
X160685842Y-119871575D01*
X160642217Y-119816998D01*
X160635023Y-119747500D01*
X160666546Y-119685145D01*
X160685842Y-119668425D01*
X160744092Y-119627638D01*
X160871401Y-119538495D01*
X161038495Y-119371401D01*
X161174035Y-119177830D01*
X161273903Y-118963663D01*
X161335063Y-118735408D01*
X161355659Y-118500000D01*
X161335063Y-118264592D01*
X161273903Y-118036337D01*
X161174035Y-117822171D01*
X161172814Y-117820426D01*
X161038494Y-117628597D01*
X160871402Y-117461506D01*
X160871395Y-117461501D01*
X160677834Y-117325967D01*
X160677830Y-117325965D01*
X160591338Y-117285633D01*
X160463663Y-117226097D01*
X160463659Y-117226096D01*
X160463655Y-117226094D01*
X160235413Y-117164938D01*
X160235403Y-117164936D01*
X160000001Y-117144341D01*
X159999999Y-117144341D01*
X159764596Y-117164936D01*
X159764586Y-117164938D01*
X159536344Y-117226094D01*
X159536337Y-117226096D01*
X159536337Y-117226097D01*
X159534960Y-117226739D01*
X159322171Y-117325964D01*
X159322169Y-117325965D01*
X159128597Y-117461505D01*
X158961505Y-117628597D01*
X158825965Y-117822169D01*
X158825964Y-117822171D01*
X158726098Y-118036335D01*
X158726094Y-118036344D01*
X158664938Y-118264586D01*
X158664936Y-118264596D01*
X158644341Y-118499999D01*
X157900500Y-118499999D01*
X157900500Y-113724500D01*
X157920185Y-113657461D01*
X157972989Y-113611706D01*
X158024500Y-113600500D01*
X161079055Y-113600500D01*
X161079057Y-113600500D01*
X161231784Y-113559577D01*
X161368716Y-113480520D01*
X161480520Y-113368716D01*
X161559577Y-113231784D01*
X161600500Y-113079057D01*
X161600500Y-112541692D01*
X161620185Y-112474653D01*
X161653374Y-112440119D01*
X161839139Y-112310047D01*
X162000047Y-112149139D01*
X162130568Y-111962734D01*
X162226739Y-111756496D01*
X162285635Y-111536692D01*
X162305468Y-111310000D01*
X162285635Y-111083308D01*
X162226739Y-110863504D01*
X162130568Y-110657266D01*
X162000047Y-110470861D01*
X162000045Y-110470858D01*
X161839141Y-110309954D01*
X161652734Y-110179432D01*
X161652732Y-110179431D01*
X161446497Y-110083261D01*
X161446488Y-110083258D01*
X161226697Y-110024366D01*
X161226693Y-110024365D01*
X161226692Y-110024365D01*
X161226691Y-110024364D01*
X161226686Y-110024364D01*
X161000002Y-110004532D01*
X160999998Y-110004532D01*
X160773313Y-110024364D01*
X160773302Y-110024366D01*
X160553511Y-110083258D01*
X160553502Y-110083261D01*
X160347267Y-110179431D01*
X160347265Y-110179432D01*
X160160858Y-110309954D01*
X159999954Y-110470858D01*
X159869432Y-110657265D01*
X159869431Y-110657267D01*
X159773261Y-110863502D01*
X159773258Y-110863511D01*
X159714366Y-111083302D01*
X159714364Y-111083313D01*
X159694532Y-111309998D01*
X159694532Y-111310001D01*
X159714364Y-111536686D01*
X159714366Y-111536697D01*
X159773258Y-111756488D01*
X159773261Y-111756497D01*
X159869431Y-111962732D01*
X159869432Y-111962734D01*
X159999954Y-112149141D01*
X160038632Y-112187819D01*
X160072117Y-112249142D01*
X160067133Y-112318834D01*
X160025261Y-112374767D01*
X159959797Y-112399184D01*
X159950951Y-112399500D01*
X158549049Y-112399500D01*
X158482010Y-112379815D01*
X158436255Y-112327011D01*
X158426311Y-112257853D01*
X158455336Y-112194297D01*
X158461368Y-112187819D01*
X158500045Y-112149141D01*
X158500047Y-112149139D01*
X158630568Y-111962734D01*
X158726739Y-111756496D01*
X158785635Y-111536692D01*
X158805468Y-111310000D01*
X158785635Y-111083308D01*
X158726739Y-110863504D01*
X158630568Y-110657266D01*
X158500047Y-110470861D01*
X158500045Y-110470858D01*
X158339141Y-110309954D01*
X158152734Y-110179432D01*
X158152732Y-110179431D01*
X157946497Y-110083261D01*
X157946488Y-110083258D01*
X157726697Y-110024366D01*
X157726693Y-110024365D01*
X157726692Y-110024365D01*
X157726691Y-110024364D01*
X157726686Y-110024364D01*
X157500002Y-110004532D01*
X157499998Y-110004532D01*
X157273313Y-110024364D01*
X157273302Y-110024366D01*
X157053511Y-110083258D01*
X157053502Y-110083261D01*
X156847267Y-110179431D01*
X156847265Y-110179432D01*
X156660858Y-110309954D01*
X156499954Y-110470858D01*
X156369432Y-110657265D01*
X156369431Y-110657267D01*
X156273261Y-110863502D01*
X156273258Y-110863511D01*
X156214366Y-111083302D01*
X156214364Y-111083313D01*
X156194532Y-111309998D01*
X156194532Y-111310001D01*
X156214364Y-111536686D01*
X156214366Y-111536697D01*
X156273258Y-111756488D01*
X156273261Y-111756497D01*
X156287881Y-111787848D01*
X156299499Y-111840253D01*
X156299499Y-111999046D01*
X156299500Y-111999059D01*
X156299500Y-112322473D01*
X156279815Y-112389512D01*
X156227011Y-112435267D01*
X156157853Y-112445211D01*
X156094297Y-112416186D01*
X156087819Y-112410154D01*
X155320594Y-111642929D01*
X155287109Y-111581606D01*
X155286332Y-111542188D01*
X155285163Y-111542086D01*
X155285636Y-111536686D01*
X155305468Y-111310000D01*
X155285635Y-111083308D01*
X155226739Y-110863504D01*
X155130568Y-110657266D01*
X155000047Y-110470861D01*
X155000045Y-110470858D01*
X154839141Y-110309954D01*
X154652734Y-110179432D01*
X154652732Y-110179431D01*
X154446497Y-110083261D01*
X154446488Y-110083258D01*
X154226697Y-110024366D01*
X154226693Y-110024365D01*
X154226692Y-110024365D01*
X154226691Y-110024364D01*
X154226686Y-110024364D01*
X154000002Y-110004532D01*
X153999998Y-110004532D01*
X153773313Y-110024364D01*
X153773302Y-110024366D01*
X153553511Y-110083258D01*
X153553502Y-110083261D01*
X153347267Y-110179431D01*
X153347265Y-110179432D01*
X153160858Y-110309954D01*
X152999954Y-110470858D01*
X152869432Y-110657265D01*
X152869431Y-110657267D01*
X152773261Y-110863502D01*
X152773258Y-110863511D01*
X152714366Y-111083302D01*
X152714364Y-111083313D01*
X152694532Y-111309998D01*
X152694532Y-111310001D01*
X152714364Y-111536686D01*
X152714366Y-111536697D01*
X152745638Y-111653407D01*
X152743975Y-111723257D01*
X152704812Y-111781119D01*
X152640583Y-111808623D01*
X152625863Y-111809500D01*
X151900097Y-111809500D01*
X151833058Y-111789815D01*
X151812416Y-111773181D01*
X151791941Y-111752706D01*
X151758456Y-111691383D01*
X151759847Y-111632931D01*
X151785635Y-111536692D01*
X151805468Y-111310000D01*
X151785635Y-111083308D01*
X151726739Y-110863504D01*
X151630568Y-110657266D01*
X151500047Y-110470861D01*
X151500045Y-110470858D01*
X151339141Y-110309954D01*
X151152734Y-110179432D01*
X151152732Y-110179431D01*
X150946497Y-110083261D01*
X150946488Y-110083258D01*
X150726697Y-110024366D01*
X150726693Y-110024365D01*
X150726692Y-110024365D01*
X150726691Y-110024364D01*
X150726686Y-110024364D01*
X150500002Y-110004532D01*
X150499998Y-110004532D01*
X150273313Y-110024364D01*
X150273302Y-110024366D01*
X150053511Y-110083258D01*
X150053502Y-110083261D01*
X149847267Y-110179431D01*
X149847265Y-110179432D01*
X149660858Y-110309954D01*
X149499954Y-110470858D01*
X149369432Y-110657265D01*
X149369431Y-110657267D01*
X149273261Y-110863502D01*
X149273258Y-110863511D01*
X149214366Y-111083302D01*
X149214364Y-111083313D01*
X149194532Y-111309998D01*
X149194532Y-111310001D01*
X149214364Y-111536686D01*
X149214366Y-111536697D01*
X149273258Y-111756488D01*
X149273261Y-111756497D01*
X149369431Y-111962732D01*
X149369432Y-111962734D01*
X149405593Y-112014378D01*
X149427920Y-112080583D01*
X149410910Y-112148350D01*
X149359962Y-112196163D01*
X149304018Y-112209500D01*
X148800097Y-112209500D01*
X148733058Y-112189815D01*
X148712416Y-112173181D01*
X148291941Y-111752706D01*
X148258456Y-111691383D01*
X148259847Y-111632931D01*
X148285635Y-111536692D01*
X148305468Y-111310000D01*
X148285635Y-111083308D01*
X148226739Y-110863504D01*
X148130568Y-110657266D01*
X148000047Y-110470861D01*
X148000045Y-110470858D01*
X147839141Y-110309954D01*
X147652734Y-110179432D01*
X147652732Y-110179431D01*
X147446497Y-110083261D01*
X147446488Y-110083258D01*
X147226697Y-110024366D01*
X147226693Y-110024365D01*
X147226692Y-110024365D01*
X147226691Y-110024364D01*
X147226686Y-110024364D01*
X147000002Y-110004532D01*
X146999998Y-110004532D01*
X146773313Y-110024364D01*
X146773302Y-110024366D01*
X146553511Y-110083258D01*
X146553502Y-110083261D01*
X146347267Y-110179431D01*
X146347265Y-110179432D01*
X146160858Y-110309954D01*
X145999954Y-110470858D01*
X145869432Y-110657265D01*
X145869431Y-110657267D01*
X145773261Y-110863502D01*
X145773258Y-110863511D01*
X145714366Y-111083302D01*
X145714364Y-111083313D01*
X145694532Y-111309998D01*
X145694532Y-111310001D01*
X145714364Y-111536686D01*
X145714366Y-111536697D01*
X145773258Y-111756488D01*
X145773261Y-111756497D01*
X145869431Y-111962732D01*
X145869432Y-111962734D01*
X145999954Y-112149141D01*
X146160858Y-112310045D01*
X146266371Y-112383925D01*
X146309996Y-112438501D01*
X146317190Y-112507999D01*
X146285668Y-112570354D01*
X146225438Y-112605769D01*
X146195248Y-112609500D01*
X145700098Y-112609500D01*
X145633059Y-112589815D01*
X145612417Y-112573181D01*
X144791941Y-111752706D01*
X144758456Y-111691383D01*
X144759847Y-111632931D01*
X144785635Y-111536692D01*
X144805468Y-111310000D01*
X144785635Y-111083308D01*
X144726739Y-110863504D01*
X144630568Y-110657266D01*
X144500047Y-110470861D01*
X144500045Y-110470858D01*
X144339141Y-110309954D01*
X144152734Y-110179432D01*
X144152732Y-110179431D01*
X143946497Y-110083261D01*
X143946488Y-110083258D01*
X143726697Y-110024366D01*
X143726693Y-110024365D01*
X143726692Y-110024365D01*
X143726691Y-110024364D01*
X143726686Y-110024364D01*
X143500002Y-110004532D01*
X143499998Y-110004532D01*
X143273313Y-110024364D01*
X143273302Y-110024366D01*
X143053511Y-110083258D01*
X143053502Y-110083261D01*
X142847267Y-110179431D01*
X142847265Y-110179432D01*
X142660858Y-110309954D01*
X142499954Y-110470858D01*
X142369432Y-110657265D01*
X142369431Y-110657267D01*
X142273261Y-110863502D01*
X142273258Y-110863511D01*
X142214366Y-111083302D01*
X142214364Y-111083313D01*
X142194532Y-111309998D01*
X142194532Y-111310001D01*
X142214364Y-111536686D01*
X142214366Y-111536697D01*
X142273258Y-111756488D01*
X142273261Y-111756497D01*
X142369431Y-111962732D01*
X142369432Y-111962734D01*
X142499954Y-112149141D01*
X142660858Y-112310045D01*
X142660861Y-112310047D01*
X142847266Y-112440568D01*
X143053504Y-112536739D01*
X143273308Y-112595635D01*
X143431786Y-112609500D01*
X143499998Y-112615468D01*
X143500000Y-112615468D01*
X143500002Y-112615468D01*
X143568214Y-112609500D01*
X143726692Y-112595635D01*
X143822932Y-112569847D01*
X143892781Y-112571510D01*
X143942706Y-112601941D01*
X144138583Y-112797819D01*
X144172068Y-112859142D01*
X144167084Y-112928834D01*
X144125212Y-112984767D01*
X144059748Y-113009184D01*
X144050902Y-113009500D01*
X142600097Y-113009500D01*
X142533058Y-112989815D01*
X142512416Y-112973181D01*
X141291941Y-111752706D01*
X141258456Y-111691383D01*
X141259847Y-111632931D01*
X141285635Y-111536692D01*
X141305468Y-111310000D01*
X141285635Y-111083308D01*
X141226739Y-110863504D01*
X141130568Y-110657266D01*
X141000047Y-110470861D01*
X141000045Y-110470858D01*
X140839141Y-110309954D01*
X140652734Y-110179432D01*
X140652732Y-110179431D01*
X140446497Y-110083261D01*
X140446488Y-110083258D01*
X140226697Y-110024366D01*
X140226693Y-110024365D01*
X140226692Y-110024365D01*
X140226691Y-110024364D01*
X140226686Y-110024364D01*
X140000002Y-110004532D01*
X139999998Y-110004532D01*
X139773313Y-110024364D01*
X139773302Y-110024366D01*
X139553511Y-110083258D01*
X139553502Y-110083261D01*
X139347267Y-110179431D01*
X139347265Y-110179432D01*
X139160858Y-110309954D01*
X138999954Y-110470858D01*
X138869432Y-110657265D01*
X138869431Y-110657267D01*
X138773261Y-110863502D01*
X138773258Y-110863511D01*
X138714366Y-111083302D01*
X138714364Y-111083313D01*
X138694532Y-111309998D01*
X138694532Y-111310001D01*
X138714364Y-111536686D01*
X138714366Y-111536697D01*
X138773258Y-111756488D01*
X138773261Y-111756497D01*
X138869431Y-111962732D01*
X138869432Y-111962734D01*
X138999954Y-112149141D01*
X139160858Y-112310045D01*
X139160861Y-112310047D01*
X139347266Y-112440568D01*
X139553504Y-112536739D01*
X139773308Y-112595635D01*
X139931786Y-112609500D01*
X139999998Y-112615468D01*
X140000000Y-112615468D01*
X140000002Y-112615468D01*
X140068214Y-112609500D01*
X140226692Y-112595635D01*
X140322932Y-112569847D01*
X140392781Y-112571510D01*
X140442706Y-112601941D01*
X141038584Y-113197819D01*
X141072069Y-113259142D01*
X141067085Y-113328834D01*
X141025213Y-113384767D01*
X140959749Y-113409184D01*
X140950903Y-113409500D01*
X139500098Y-113409500D01*
X139433059Y-113389815D01*
X139412417Y-113373181D01*
X137791941Y-111752706D01*
X137758456Y-111691383D01*
X137759847Y-111632931D01*
X137785635Y-111536692D01*
X137805468Y-111310000D01*
X137785635Y-111083308D01*
X137726739Y-110863504D01*
X137630568Y-110657266D01*
X137500047Y-110470861D01*
X137500045Y-110470858D01*
X137339141Y-110309954D01*
X137152734Y-110179432D01*
X137152732Y-110179431D01*
X136946497Y-110083261D01*
X136946488Y-110083258D01*
X136726697Y-110024366D01*
X136726693Y-110024365D01*
X136726692Y-110024365D01*
X136726691Y-110024364D01*
X136726686Y-110024364D01*
X136500002Y-110004532D01*
X136499998Y-110004532D01*
X136273313Y-110024364D01*
X136273302Y-110024366D01*
X136053511Y-110083258D01*
X136053502Y-110083261D01*
X135847267Y-110179431D01*
X135847265Y-110179432D01*
X135660858Y-110309954D01*
X135499954Y-110470858D01*
X135369432Y-110657265D01*
X135369431Y-110657267D01*
X135273261Y-110863502D01*
X135273258Y-110863511D01*
X135214366Y-111083302D01*
X135214364Y-111083313D01*
X135194532Y-111309998D01*
X135194532Y-111310001D01*
X135214364Y-111536686D01*
X135214366Y-111536697D01*
X135273258Y-111756488D01*
X135273261Y-111756497D01*
X135369431Y-111962732D01*
X135369432Y-111962734D01*
X135499954Y-112149141D01*
X135660858Y-112310045D01*
X135660861Y-112310047D01*
X135847266Y-112440568D01*
X136053504Y-112536739D01*
X136273308Y-112595635D01*
X136431786Y-112609500D01*
X136499998Y-112615468D01*
X136500000Y-112615468D01*
X136500002Y-112615468D01*
X136568214Y-112609500D01*
X136726692Y-112595635D01*
X136822932Y-112569847D01*
X136892781Y-112571510D01*
X136942705Y-112601940D01*
X138831284Y-114490520D01*
X138831286Y-114490521D01*
X138831290Y-114490524D01*
X138968209Y-114569573D01*
X138968216Y-114569577D01*
X139120943Y-114610501D01*
X139120945Y-114610501D01*
X139286654Y-114610501D01*
X139286670Y-114610500D01*
X153709902Y-114610500D01*
X153776941Y-114630185D01*
X153797583Y-114646819D01*
X153863181Y-114712417D01*
X153896666Y-114773740D01*
X153899500Y-114800098D01*
X153899500Y-138775500D01*
X153879815Y-138842539D01*
X153827011Y-138888294D01*
X153775500Y-138899500D01*
X146300098Y-138899500D01*
X146233059Y-138879815D01*
X146212417Y-138863181D01*
X146136819Y-138787583D01*
X146103334Y-138726260D01*
X146100500Y-138699902D01*
X146100500Y-137920945D01*
X146100499Y-137920941D01*
X146084725Y-137862068D01*
X146080500Y-137829976D01*
X146080500Y-134805304D01*
X146100185Y-134738265D01*
X146133375Y-134703730D01*
X146294620Y-134590826D01*
X146450826Y-134434620D01*
X146577534Y-134253662D01*
X146637618Y-134124811D01*
X146683790Y-134072371D01*
X146750983Y-134053219D01*
X146817865Y-134073435D01*
X146862382Y-134124811D01*
X146922464Y-134253658D01*
X146922468Y-134253666D01*
X147049170Y-134434615D01*
X147049175Y-134434621D01*
X147205378Y-134590824D01*
X147205384Y-134590829D01*
X147386333Y-134717531D01*
X147386335Y-134717532D01*
X147386338Y-134717534D01*
X147586550Y-134810894D01*
X147799932Y-134868070D01*
X147957123Y-134881822D01*
X148019998Y-134887323D01*
X148020000Y-134887323D01*
X148020002Y-134887323D01*
X148075017Y-134882509D01*
X148240068Y-134868070D01*
X148453450Y-134810894D01*
X148653662Y-134717534D01*
X148834620Y-134590826D01*
X148990826Y-134434620D01*
X149117534Y-134253662D01*
X149210894Y-134053450D01*
X149268070Y-133840068D01*
X149287323Y-133620000D01*
X149268070Y-133399932D01*
X149210894Y-133186550D01*
X149117534Y-132986339D01*
X148990826Y-132805380D01*
X148990824Y-132805377D01*
X148989835Y-132804198D01*
X148989562Y-132803574D01*
X148987721Y-132800945D01*
X148988249Y-132800574D01*
X148961827Y-132740188D01*
X148972872Y-132671197D01*
X149019463Y-132619129D01*
X149084831Y-132600500D01*
X151417588Y-132600500D01*
X151484627Y-132620185D01*
X151494903Y-132627555D01*
X151497736Y-132629814D01*
X151497738Y-132629816D01*
X151650478Y-132725789D01*
X151820745Y-132785368D01*
X151820750Y-132785369D01*
X151999996Y-132805565D01*
X152000000Y-132805565D01*
X152000004Y-132805565D01*
X152179249Y-132785369D01*
X152179252Y-132785368D01*
X152179255Y-132785368D01*
X152349522Y-132725789D01*
X152502262Y-132629816D01*
X152629816Y-132502262D01*
X152725789Y-132349522D01*
X152785368Y-132179255D01*
X152805565Y-132000000D01*
X152791800Y-131877834D01*
X152785369Y-131820750D01*
X152785368Y-131820745D01*
X152730403Y-131663664D01*
X152725789Y-131650478D01*
X152629816Y-131497738D01*
X152502262Y-131370184D01*
X152478084Y-131354992D01*
X152431796Y-131302661D01*
X152421146Y-131233607D01*
X152449521Y-131169758D01*
X152478082Y-131145009D01*
X152502262Y-131129816D01*
X152629816Y-131002262D01*
X152725789Y-130849522D01*
X152785368Y-130679255D01*
X152785369Y-130679249D01*
X152805565Y-130500003D01*
X152805565Y-130499996D01*
X152785369Y-130320750D01*
X152785368Y-130320745D01*
X152736895Y-130182217D01*
X152725789Y-130150478D01*
X152629816Y-129997738D01*
X152502262Y-129870184D01*
X152462413Y-129845145D01*
X152349523Y-129774211D01*
X152179254Y-129714631D01*
X152179249Y-129714630D01*
X152000004Y-129694435D01*
X151999996Y-129694435D01*
X151820750Y-129714630D01*
X151820745Y-129714631D01*
X151650476Y-129774211D01*
X151497736Y-129870185D01*
X151494903Y-129872445D01*
X151492724Y-129873334D01*
X151491842Y-129873889D01*
X151491744Y-129873734D01*
X151430217Y-129898855D01*
X151417588Y-129899500D01*
X147740097Y-129899500D01*
X147673058Y-129879815D01*
X147652416Y-129863181D01*
X145256861Y-127467626D01*
X145223376Y-127406303D01*
X145228360Y-127336611D01*
X145270232Y-127280678D01*
X145335696Y-127256261D01*
X145355339Y-127256416D01*
X145467654Y-127266242D01*
X145479999Y-127267323D01*
X145480000Y-127267323D01*
X145480002Y-127267323D01*
X145535017Y-127262509D01*
X145700068Y-127248070D01*
X145913450Y-127190894D01*
X146113662Y-127097534D01*
X146294620Y-126970826D01*
X146450826Y-126814620D01*
X146577534Y-126633662D01*
X146637618Y-126504811D01*
X146683790Y-126452371D01*
X146750983Y-126433219D01*
X146817865Y-126453435D01*
X146862382Y-126504811D01*
X146922464Y-126633658D01*
X146922468Y-126633666D01*
X147049170Y-126814615D01*
X147049175Y-126814621D01*
X147205378Y-126970824D01*
X147205384Y-126970829D01*
X147386333Y-127097531D01*
X147386335Y-127097532D01*
X147386338Y-127097534D01*
X147586550Y-127190894D01*
X147799932Y-127248070D01*
X147946743Y-127260914D01*
X148019998Y-127267323D01*
X148020000Y-127267323D01*
X148020002Y-127267323D01*
X148075017Y-127262509D01*
X148240068Y-127248070D01*
X148453450Y-127190894D01*
X148653662Y-127097534D01*
X148834620Y-126970826D01*
X148990826Y-126814620D01*
X149117534Y-126633662D01*
X149210894Y-126433450D01*
X149268070Y-126220068D01*
X149287323Y-126000000D01*
X149268070Y-125779932D01*
X149210894Y-125566550D01*
X149117534Y-125366339D01*
X148990826Y-125185380D01*
X148834620Y-125029174D01*
X148834616Y-125029171D01*
X148834615Y-125029170D01*
X148673377Y-124916270D01*
X148629752Y-124861693D01*
X148620500Y-124814695D01*
X148620500Y-124780097D01*
X148640185Y-124713058D01*
X148656819Y-124692416D01*
X149712416Y-123636819D01*
X149773739Y-123603334D01*
X149800097Y-123600500D01*
X149917588Y-123600500D01*
X149984627Y-123620185D01*
X149994903Y-123627555D01*
X149997736Y-123629814D01*
X149997738Y-123629816D01*
X150111270Y-123701152D01*
X150132718Y-123714630D01*
X150150478Y-123725789D01*
X150288857Y-123774210D01*
X150320745Y-123785368D01*
X150320750Y-123785369D01*
X150499996Y-123805565D01*
X150500000Y-123805565D01*
X150500004Y-123805565D01*
X150679249Y-123785369D01*
X150679252Y-123785368D01*
X150679255Y-123785368D01*
X150849522Y-123725789D01*
X151002262Y-123629816D01*
X151129816Y-123502262D01*
X151225789Y-123349522D01*
X151285368Y-123179255D01*
X151285369Y-123179249D01*
X151305565Y-123000003D01*
X151305565Y-122999996D01*
X151285369Y-122820750D01*
X151285368Y-122820745D01*
X151225788Y-122650475D01*
X151172691Y-122565973D01*
X151153690Y-122498736D01*
X151172691Y-122434027D01*
X151225788Y-122349524D01*
X151252141Y-122274211D01*
X151285368Y-122179255D01*
X151286490Y-122169298D01*
X151305565Y-122000003D01*
X151305565Y-121999996D01*
X151285369Y-121820750D01*
X151285368Y-121820745D01*
X151263964Y-121759576D01*
X151225789Y-121650478D01*
X151129816Y-121497738D01*
X151002262Y-121370184D01*
X150849523Y-121274211D01*
X150679254Y-121214631D01*
X150679249Y-121214630D01*
X150500004Y-121194435D01*
X150499996Y-121194435D01*
X150320750Y-121214630D01*
X150320745Y-121214631D01*
X150150476Y-121274211D01*
X149997736Y-121370185D01*
X149994903Y-121372445D01*
X149992724Y-121373334D01*
X149991842Y-121373889D01*
X149991744Y-121373734D01*
X149930217Y-121398855D01*
X149917588Y-121399500D01*
X149559057Y-121399500D01*
X149400942Y-121399500D01*
X149248215Y-121440423D01*
X149248214Y-121440423D01*
X149248212Y-121440424D01*
X149248209Y-121440425D01*
X149213066Y-121460716D01*
X149213064Y-121460717D01*
X149111290Y-121519475D01*
X149111282Y-121519481D01*
X148999478Y-121631286D01*
X145891679Y-124739084D01*
X145830356Y-124772569D01*
X145771906Y-124771178D01*
X145700076Y-124751932D01*
X145700073Y-124751931D01*
X145700068Y-124751930D01*
X145700065Y-124751929D01*
X145700062Y-124751929D01*
X145480002Y-124732677D01*
X145479998Y-124732677D01*
X145259937Y-124751929D01*
X145259929Y-124751930D01*
X145046554Y-124809104D01*
X145046548Y-124809107D01*
X144846340Y-124902465D01*
X144846338Y-124902466D01*
X144665377Y-125029175D01*
X144509175Y-125185377D01*
X144382466Y-125366338D01*
X144382465Y-125366340D01*
X144322382Y-125495189D01*
X144276209Y-125547628D01*
X144209016Y-125566780D01*
X144142135Y-125546564D01*
X144097618Y-125495189D01*
X144072859Y-125442094D01*
X144037534Y-125366339D01*
X143910826Y-125185380D01*
X143754620Y-125029174D01*
X143754616Y-125029171D01*
X143754615Y-125029170D01*
X143573666Y-124902468D01*
X143573662Y-124902466D01*
X143503819Y-124869898D01*
X143373450Y-124809106D01*
X143373447Y-124809105D01*
X143373445Y-124809104D01*
X143160070Y-124751930D01*
X143160062Y-124751929D01*
X142940002Y-124732677D01*
X142939998Y-124732677D01*
X142719937Y-124751929D01*
X142719929Y-124751930D01*
X142506554Y-124809104D01*
X142506548Y-124809107D01*
X142306340Y-124902465D01*
X142306338Y-124902466D01*
X142125377Y-125029175D01*
X141969175Y-125185377D01*
X141842466Y-125366338D01*
X141842465Y-125366340D01*
X141782382Y-125495189D01*
X141736209Y-125547628D01*
X141669016Y-125566780D01*
X141602135Y-125546564D01*
X141557618Y-125495189D01*
X141532859Y-125442094D01*
X141497534Y-125366339D01*
X141370826Y-125185380D01*
X141214620Y-125029174D01*
X141214616Y-125029171D01*
X141214615Y-125029170D01*
X141033666Y-124902468D01*
X141033662Y-124902466D01*
X140963819Y-124869898D01*
X140833450Y-124809106D01*
X140833447Y-124809105D01*
X140833445Y-124809104D01*
X140620070Y-124751930D01*
X140620062Y-124751929D01*
X140400002Y-124732677D01*
X140399998Y-124732677D01*
X140179937Y-124751929D01*
X140179929Y-124751930D01*
X139966554Y-124809104D01*
X139966548Y-124809107D01*
X139766340Y-124902465D01*
X139766338Y-124902466D01*
X139585377Y-125029175D01*
X139429175Y-125185377D01*
X139302466Y-125366338D01*
X139302465Y-125366340D01*
X139242382Y-125495189D01*
X139196209Y-125547628D01*
X139129016Y-125566780D01*
X139062135Y-125546564D01*
X139017618Y-125495189D01*
X138992859Y-125442094D01*
X138957534Y-125366339D01*
X138830826Y-125185380D01*
X138674620Y-125029174D01*
X138674616Y-125029171D01*
X138674615Y-125029170D01*
X138493666Y-124902468D01*
X138493662Y-124902466D01*
X138423819Y-124869898D01*
X138293450Y-124809106D01*
X138293447Y-124809105D01*
X138293445Y-124809104D01*
X138080070Y-124751930D01*
X138080062Y-124751929D01*
X137860002Y-124732677D01*
X137859998Y-124732677D01*
X137639937Y-124751929D01*
X137639929Y-124751930D01*
X137426554Y-124809104D01*
X137426548Y-124809107D01*
X137226340Y-124902465D01*
X137226338Y-124902466D01*
X137045377Y-125029175D01*
X136889175Y-125185377D01*
X136762467Y-125366337D01*
X136702105Y-125495782D01*
X136655932Y-125548221D01*
X136588738Y-125567372D01*
X136521857Y-125547156D01*
X136477341Y-125495780D01*
X136417098Y-125366589D01*
X136417097Y-125366587D01*
X136371741Y-125301811D01*
X136371740Y-125301810D01*
X135701000Y-125972551D01*
X135701000Y-125949840D01*
X135675036Y-125852939D01*
X135624876Y-125766060D01*
X135553940Y-125695124D01*
X135467061Y-125644964D01*
X135370160Y-125619000D01*
X135347448Y-125619000D01*
X136018188Y-124948259D01*
X136018187Y-124948258D01*
X135953411Y-124902901D01*
X135953405Y-124902898D01*
X135753284Y-124809580D01*
X135753270Y-124809575D01*
X135539986Y-124752426D01*
X135539976Y-124752424D01*
X135320001Y-124733179D01*
X135319999Y-124733179D01*
X135100023Y-124752424D01*
X135100013Y-124752426D01*
X134886729Y-124809575D01*
X134886720Y-124809579D01*
X134686590Y-124902901D01*
X134621811Y-124948258D01*
X135292553Y-125619000D01*
X135269840Y-125619000D01*
X135172939Y-125644964D01*
X135086060Y-125695124D01*
X135015124Y-125766060D01*
X134964964Y-125852939D01*
X134939000Y-125949840D01*
X134939000Y-125972553D01*
X134268258Y-125301811D01*
X134222901Y-125366590D01*
X134162658Y-125495781D01*
X134116485Y-125548220D01*
X134049292Y-125567372D01*
X133982411Y-125547156D01*
X133937894Y-125495781D01*
X133912859Y-125442094D01*
X133877534Y-125366339D01*
X133750826Y-125185380D01*
X133750824Y-125185377D01*
X133610707Y-125045260D01*
X133577222Y-124983937D01*
X133582206Y-124914245D01*
X133610705Y-124869900D01*
X137443788Y-121036819D01*
X137505111Y-121003334D01*
X137531469Y-121000500D01*
X138350903Y-121000500D01*
X138417942Y-121020185D01*
X138463697Y-121072989D01*
X138473641Y-121142147D01*
X138444616Y-121205703D01*
X138438584Y-121212181D01*
X137481465Y-122169298D01*
X137420142Y-122202783D01*
X137407668Y-122204837D01*
X137320750Y-122214630D01*
X137150478Y-122274210D01*
X136997737Y-122370184D01*
X136870184Y-122497737D01*
X136774211Y-122650476D01*
X136714631Y-122820745D01*
X136714630Y-122820750D01*
X136694435Y-122999996D01*
X136694435Y-123000003D01*
X136714630Y-123179249D01*
X136714631Y-123179254D01*
X136774211Y-123349523D01*
X136868510Y-123499598D01*
X136870184Y-123502262D01*
X136997738Y-123629816D01*
X137065973Y-123672691D01*
X137132721Y-123714632D01*
X137150478Y-123725789D01*
X137288857Y-123774210D01*
X137320745Y-123785368D01*
X137320750Y-123785369D01*
X137499996Y-123805565D01*
X137500000Y-123805565D01*
X137500004Y-123805565D01*
X137679249Y-123785369D01*
X137679252Y-123785368D01*
X137679255Y-123785368D01*
X137849522Y-123725789D01*
X137867279Y-123714632D01*
X137934027Y-123672691D01*
X138001264Y-123653690D01*
X138065973Y-123672691D01*
X138150475Y-123725788D01*
X138320745Y-123785368D01*
X138320750Y-123785369D01*
X138499996Y-123805565D01*
X138500000Y-123805565D01*
X138500004Y-123805565D01*
X138679249Y-123785369D01*
X138679252Y-123785368D01*
X138679255Y-123785368D01*
X138849522Y-123725789D01*
X138867279Y-123714632D01*
X138934027Y-123672691D01*
X139001264Y-123653690D01*
X139065973Y-123672691D01*
X139150475Y-123725788D01*
X139320745Y-123785368D01*
X139320750Y-123785369D01*
X139499996Y-123805565D01*
X139500000Y-123805565D01*
X139500004Y-123805565D01*
X139679249Y-123785369D01*
X139679252Y-123785368D01*
X139679255Y-123785368D01*
X139849522Y-123725789D01*
X140002262Y-123629816D01*
X140002267Y-123629810D01*
X140005097Y-123627555D01*
X140007275Y-123626665D01*
X140008158Y-123626111D01*
X140008255Y-123626265D01*
X140069783Y-123601145D01*
X140082412Y-123600500D01*
X146113331Y-123600500D01*
X146113347Y-123600501D01*
X146120943Y-123600501D01*
X146279054Y-123600501D01*
X146279057Y-123600501D01*
X146431785Y-123559577D01*
X146481904Y-123530639D01*
X146568716Y-123480520D01*
X146680520Y-123368716D01*
X146680520Y-123368714D01*
X146690728Y-123358507D01*
X146690730Y-123358504D01*
X150716470Y-119332763D01*
X150777791Y-119299280D01*
X150836238Y-119300670D01*
X150964592Y-119335063D01*
X151152918Y-119351539D01*
X151199999Y-119355659D01*
X151200000Y-119355659D01*
X151200001Y-119355659D01*
X151239234Y-119352226D01*
X151435408Y-119335063D01*
X151663663Y-119273903D01*
X151877830Y-119174035D01*
X152071401Y-119038495D01*
X152238495Y-118871401D01*
X152374035Y-118677830D01*
X152473903Y-118463663D01*
X152535063Y-118235408D01*
X152555659Y-118000000D01*
X152535063Y-117764592D01*
X152473903Y-117536337D01*
X152374035Y-117322171D01*
X152368425Y-117314158D01*
X152238494Y-117128597D01*
X152071402Y-116961506D01*
X152071395Y-116961501D01*
X151877834Y-116825967D01*
X151877830Y-116825965D01*
X151877828Y-116825964D01*
X151663663Y-116726097D01*
X151663659Y-116726096D01*
X151663655Y-116726094D01*
X151435413Y-116664938D01*
X151435403Y-116664936D01*
X151200001Y-116644341D01*
X151199999Y-116644341D01*
X150964596Y-116664936D01*
X150964586Y-116664938D01*
X150736344Y-116726094D01*
X150736335Y-116726098D01*
X150522171Y-116825964D01*
X150522169Y-116825965D01*
X150328597Y-116961505D01*
X150161505Y-117128597D01*
X150031575Y-117314158D01*
X149976998Y-117357783D01*
X149907500Y-117364977D01*
X149845145Y-117333454D01*
X149828425Y-117314158D01*
X149698494Y-117128597D01*
X149531402Y-116961506D01*
X149531395Y-116961501D01*
X149337834Y-116825967D01*
X149337830Y-116825965D01*
X149337828Y-116825964D01*
X149123663Y-116726097D01*
X149123659Y-116726096D01*
X149123655Y-116726094D01*
X148895413Y-116664938D01*
X148895403Y-116664936D01*
X148660001Y-116644341D01*
X148659999Y-116644341D01*
X148424596Y-116664936D01*
X148424586Y-116664938D01*
X148196344Y-116726094D01*
X148196335Y-116726098D01*
X147982171Y-116825964D01*
X147982169Y-116825965D01*
X147788597Y-116961505D01*
X147621505Y-117128597D01*
X147491575Y-117314158D01*
X147436998Y-117357783D01*
X147367500Y-117364977D01*
X147305145Y-117333454D01*
X147288425Y-117314158D01*
X147158494Y-117128597D01*
X146991402Y-116961506D01*
X146991395Y-116961501D01*
X146797834Y-116825967D01*
X146797830Y-116825965D01*
X146797828Y-116825964D01*
X146583663Y-116726097D01*
X146583659Y-116726096D01*
X146583655Y-116726094D01*
X146355413Y-116664938D01*
X146355403Y-116664936D01*
X146120001Y-116644341D01*
X146119999Y-116644341D01*
X145884596Y-116664936D01*
X145884586Y-116664938D01*
X145656344Y-116726094D01*
X145656335Y-116726098D01*
X145442171Y-116825964D01*
X145442169Y-116825965D01*
X145248597Y-116961505D01*
X145081505Y-117128597D01*
X144951575Y-117314158D01*
X144896998Y-117357783D01*
X144827500Y-117364977D01*
X144765145Y-117333454D01*
X144748425Y-117314158D01*
X144618494Y-117128597D01*
X144451402Y-116961506D01*
X144451395Y-116961501D01*
X144257834Y-116825967D01*
X144257830Y-116825965D01*
X144257828Y-116825964D01*
X144043663Y-116726097D01*
X144043659Y-116726096D01*
X144043655Y-116726094D01*
X143815413Y-116664938D01*
X143815403Y-116664936D01*
X143580001Y-116644341D01*
X143579999Y-116644341D01*
X143344596Y-116664936D01*
X143344586Y-116664938D01*
X143116344Y-116726094D01*
X143116335Y-116726098D01*
X142902171Y-116825964D01*
X142902169Y-116825965D01*
X142708597Y-116961505D01*
X142541505Y-117128597D01*
X142411575Y-117314158D01*
X142356998Y-117357783D01*
X142287500Y-117364977D01*
X142225145Y-117333454D01*
X142208425Y-117314158D01*
X142078494Y-117128597D01*
X141911402Y-116961506D01*
X141911395Y-116961501D01*
X141717834Y-116825967D01*
X141717830Y-116825965D01*
X141717828Y-116825964D01*
X141503663Y-116726097D01*
X141503659Y-116726096D01*
X141503655Y-116726094D01*
X141275413Y-116664938D01*
X141275403Y-116664936D01*
X141040001Y-116644341D01*
X141039999Y-116644341D01*
X140804596Y-116664936D01*
X140804586Y-116664938D01*
X140576344Y-116726094D01*
X140576335Y-116726098D01*
X140362171Y-116825964D01*
X140362169Y-116825965D01*
X140168600Y-116961503D01*
X140046673Y-117083430D01*
X139985350Y-117116914D01*
X139915658Y-117111930D01*
X139859725Y-117070058D01*
X139842810Y-117039081D01*
X139793797Y-116907671D01*
X139793793Y-116907664D01*
X139707547Y-116792455D01*
X139707544Y-116792452D01*
X139592335Y-116706206D01*
X139592328Y-116706202D01*
X139457482Y-116655908D01*
X139457483Y-116655908D01*
X139397883Y-116649501D01*
X139397881Y-116649500D01*
X139397873Y-116649500D01*
X139397864Y-116649500D01*
X137602129Y-116649500D01*
X137602123Y-116649501D01*
X137542516Y-116655908D01*
X137407671Y-116706202D01*
X137407664Y-116706206D01*
X137292455Y-116792452D01*
X137292452Y-116792455D01*
X137206206Y-116907664D01*
X137206202Y-116907671D01*
X137155908Y-117042517D01*
X137149501Y-117102116D01*
X137149500Y-117102135D01*
X137149500Y-118449902D01*
X137129815Y-118516941D01*
X137113181Y-118537583D01*
X132387584Y-123263181D01*
X132326261Y-123296666D01*
X132299903Y-123299500D01*
X125703033Y-123299500D01*
X125635994Y-123279815D01*
X125590239Y-123227011D01*
X125580295Y-123157853D01*
X125583258Y-123143406D01*
X125586506Y-123131286D01*
X125600501Y-123079057D01*
X125600501Y-122920942D01*
X125600501Y-122913347D01*
X125600500Y-122913329D01*
X125600500Y-119316319D01*
X125620185Y-119249280D01*
X125672989Y-119203525D01*
X125742147Y-119193581D01*
X125805703Y-119222606D01*
X125838055Y-119266508D01*
X125862900Y-119323150D01*
X125925826Y-119466606D01*
X126061833Y-119674782D01*
X126061836Y-119674785D01*
X126230256Y-119857738D01*
X126426491Y-120010474D01*
X126645190Y-120128828D01*
X126880386Y-120209571D01*
X127125665Y-120250500D01*
X127374335Y-120250500D01*
X127619614Y-120209571D01*
X127854810Y-120128828D01*
X128073509Y-120010474D01*
X128269744Y-119857738D01*
X128438164Y-119674785D01*
X128574173Y-119466607D01*
X128674063Y-119238881D01*
X128735108Y-118997821D01*
X128735109Y-118997812D01*
X128755643Y-118750005D01*
X128755643Y-118749994D01*
X132244357Y-118749994D01*
X132244357Y-118750005D01*
X132264890Y-118997812D01*
X132264892Y-118997824D01*
X132325936Y-119238881D01*
X132425826Y-119466606D01*
X132561833Y-119674782D01*
X132561836Y-119674785D01*
X132730256Y-119857738D01*
X132926491Y-120010474D01*
X133145190Y-120128828D01*
X133380386Y-120209571D01*
X133625665Y-120250500D01*
X133874335Y-120250500D01*
X134119614Y-120209571D01*
X134354810Y-120128828D01*
X134573509Y-120010474D01*
X134769744Y-119857738D01*
X134938164Y-119674785D01*
X135074173Y-119466607D01*
X135174063Y-119238881D01*
X135235108Y-118997821D01*
X135235109Y-118997812D01*
X135255643Y-118750005D01*
X135255643Y-118749994D01*
X135235109Y-118502187D01*
X135235107Y-118502175D01*
X135174063Y-118261118D01*
X135074173Y-118033393D01*
X134938166Y-117825217D01*
X134882360Y-117764596D01*
X134769744Y-117642262D01*
X134573509Y-117489526D01*
X134573507Y-117489525D01*
X134573506Y-117489524D01*
X134354811Y-117371172D01*
X134354802Y-117371169D01*
X134119616Y-117290429D01*
X133874335Y-117249500D01*
X133625665Y-117249500D01*
X133380383Y-117290429D01*
X133145197Y-117371169D01*
X133145188Y-117371172D01*
X132926493Y-117489524D01*
X132730257Y-117642261D01*
X132561833Y-117825217D01*
X132425826Y-118033393D01*
X132325936Y-118261118D01*
X132264892Y-118502175D01*
X132264890Y-118502187D01*
X132244357Y-118749994D01*
X128755643Y-118749994D01*
X128735109Y-118502187D01*
X128735107Y-118502175D01*
X128674063Y-118261118D01*
X128574173Y-118033393D01*
X128438166Y-117825217D01*
X128382360Y-117764596D01*
X128269744Y-117642262D01*
X128073509Y-117489526D01*
X128073507Y-117489525D01*
X128073506Y-117489524D01*
X127854811Y-117371172D01*
X127854802Y-117371169D01*
X127619616Y-117290429D01*
X127374335Y-117249500D01*
X127125665Y-117249500D01*
X126876185Y-117291129D01*
X126806820Y-117282747D01*
X126752998Y-117238194D01*
X126731807Y-117171615D01*
X126749976Y-117104149D01*
X126768089Y-117081146D01*
X127730520Y-116118716D01*
X127809577Y-115981784D01*
X127850501Y-115829057D01*
X127850501Y-115705048D01*
X127870186Y-115638009D01*
X127915484Y-115595993D01*
X127986997Y-115557292D01*
X128073509Y-115510474D01*
X128269744Y-115357738D01*
X128438164Y-115174785D01*
X128574173Y-114966607D01*
X128592560Y-114924689D01*
X128637517Y-114871204D01*
X128704253Y-114850514D01*
X128706116Y-114850500D01*
X132293884Y-114850500D01*
X132360923Y-114870185D01*
X132406678Y-114922989D01*
X132407440Y-114924689D01*
X132425827Y-114966608D01*
X132561833Y-115174782D01*
X132561836Y-115174785D01*
X132730256Y-115357738D01*
X132926491Y-115510474D01*
X133145190Y-115628828D01*
X133380386Y-115709571D01*
X133625665Y-115750500D01*
X133874335Y-115750500D01*
X134119614Y-115709571D01*
X134354810Y-115628828D01*
X134573509Y-115510474D01*
X134769744Y-115357738D01*
X134938164Y-115174785D01*
X135074173Y-114966607D01*
X135174063Y-114738881D01*
X135235108Y-114497821D01*
X135248353Y-114337977D01*
X135255643Y-114250005D01*
X135255643Y-114249994D01*
X135235109Y-114002187D01*
X135235107Y-114002175D01*
X135174063Y-113761118D01*
X135074173Y-113533393D01*
X134938166Y-113325217D01*
X134916557Y-113301744D01*
X134769744Y-113142262D01*
X134573509Y-112989526D01*
X134573507Y-112989525D01*
X134573506Y-112989524D01*
X134354811Y-112871172D01*
X134354802Y-112871169D01*
X134119616Y-112790429D01*
X133874335Y-112749500D01*
X133625665Y-112749500D01*
X133380383Y-112790429D01*
X133145197Y-112871169D01*
X133145188Y-112871172D01*
X132926493Y-112989524D01*
X132730257Y-113142261D01*
X132561833Y-113325217D01*
X132425827Y-113533391D01*
X132407440Y-113575311D01*
X132362483Y-113628796D01*
X132295747Y-113649486D01*
X132293884Y-113649500D01*
X128706116Y-113649500D01*
X128639077Y-113629815D01*
X128593322Y-113577011D01*
X128592560Y-113575311D01*
X128574172Y-113533391D01*
X128438166Y-113325217D01*
X128416557Y-113301744D01*
X128269744Y-113142262D01*
X128073509Y-112989526D01*
X128073507Y-112989525D01*
X128073506Y-112989524D01*
X127854811Y-112871172D01*
X127854802Y-112871169D01*
X127619616Y-112790429D01*
X127374335Y-112749500D01*
X127125665Y-112749500D01*
X126880383Y-112790429D01*
X126645197Y-112871169D01*
X126645188Y-112871172D01*
X126426493Y-112989524D01*
X126230257Y-113142261D01*
X126061833Y-113325217D01*
X125925826Y-113533393D01*
X125825936Y-113761118D01*
X125764892Y-114002175D01*
X125764890Y-114002187D01*
X125744357Y-114249994D01*
X125744357Y-114250005D01*
X125764890Y-114497812D01*
X125764892Y-114497824D01*
X125825936Y-114738881D01*
X125925826Y-114966606D01*
X126061833Y-115174782D01*
X126061836Y-115174785D01*
X126230256Y-115357738D01*
X126426491Y-115510474D01*
X126426495Y-115510476D01*
X126426498Y-115510478D01*
X126427980Y-115511447D01*
X126428450Y-115511997D01*
X126430538Y-115513623D01*
X126430203Y-115514052D01*
X126473332Y-115564597D01*
X126482750Y-115633829D01*
X126453243Y-115697162D01*
X126447831Y-115702931D01*
X124631286Y-117519478D01*
X124519481Y-117631282D01*
X124519479Y-117631284D01*
X124491797Y-117679232D01*
X124480096Y-117699500D01*
X124440423Y-117768215D01*
X124399499Y-117920943D01*
X124399499Y-117920945D01*
X124399499Y-118089046D01*
X124399500Y-118089059D01*
X124399500Y-122699901D01*
X124379815Y-122766940D01*
X124363182Y-122787582D01*
X124287584Y-122863181D01*
X124226261Y-122896666D01*
X124199902Y-122899500D01*
X114420940Y-122899500D01*
X114380019Y-122910464D01*
X114380019Y-122910465D01*
X114342751Y-122920451D01*
X114268214Y-122940423D01*
X114268209Y-122940426D01*
X114131290Y-123019475D01*
X114131282Y-123019481D01*
X112519481Y-124631282D01*
X112519475Y-124631290D01*
X112484551Y-124691782D01*
X112484551Y-124691784D01*
X112440423Y-124768214D01*
X112426781Y-124819124D01*
X112399499Y-124920943D01*
X112399499Y-124920945D01*
X112399499Y-125089046D01*
X112399500Y-125089059D01*
X112399500Y-133413330D01*
X112399499Y-133413348D01*
X112399499Y-133579054D01*
X112399498Y-133579054D01*
X112440423Y-133731786D01*
X112456167Y-133759053D01*
X112456168Y-133759058D01*
X112456170Y-133759058D01*
X112519480Y-133868716D01*
X112631284Y-133980520D01*
X112631285Y-133980520D01*
X112751284Y-134100520D01*
X112751288Y-134100523D01*
X112819837Y-134140099D01*
X112888216Y-134179577D01*
X113040943Y-134220501D01*
X113040945Y-134220501D01*
X113206654Y-134220501D01*
X113206670Y-134220500D01*
X113814695Y-134220500D01*
X113881734Y-134240185D01*
X113916270Y-134273377D01*
X113999887Y-134392794D01*
X114029170Y-134434615D01*
X114029175Y-134434621D01*
X114185378Y-134590824D01*
X114185384Y-134590829D01*
X114366333Y-134717531D01*
X114366335Y-134717532D01*
X114366338Y-134717534D01*
X114566550Y-134810894D01*
X114779932Y-134868070D01*
X114937123Y-134881822D01*
X114999998Y-134887323D01*
X115000000Y-134887323D01*
X115000002Y-134887323D01*
X115055017Y-134882509D01*
X115220068Y-134868070D01*
X115433450Y-134810894D01*
X115633662Y-134717534D01*
X115814620Y-134590826D01*
X115970826Y-134434620D01*
X116097534Y-134253662D01*
X116157618Y-134124811D01*
X116203790Y-134072371D01*
X116270983Y-134053219D01*
X116337865Y-134073435D01*
X116382382Y-134124811D01*
X116442464Y-134253658D01*
X116442468Y-134253666D01*
X116569170Y-134434615D01*
X116569175Y-134434621D01*
X116725378Y-134590824D01*
X116725384Y-134590829D01*
X116776806Y-134626835D01*
X116886623Y-134703729D01*
X116930248Y-134758306D01*
X116939500Y-134805304D01*
X116939500Y-138873330D01*
X116939499Y-138873348D01*
X116939499Y-139039054D01*
X116939498Y-139039054D01*
X116967460Y-139143406D01*
X116980423Y-139191785D01*
X117000761Y-139227011D01*
X117002988Y-139230867D01*
X117002989Y-139230871D01*
X117002990Y-139230871D01*
X117059479Y-139328714D01*
X117059481Y-139328717D01*
X117178349Y-139447585D01*
X117178355Y-139447590D01*
X120418584Y-142687819D01*
X120452069Y-142749142D01*
X120447085Y-142818834D01*
X120405213Y-142874767D01*
X120339749Y-142899184D01*
X120330903Y-142899500D01*
X103724500Y-142899500D01*
X103657461Y-142879815D01*
X103611706Y-142827011D01*
X103600500Y-142775500D01*
X103600500Y-119999998D01*
X105444532Y-119999998D01*
X105444532Y-120000001D01*
X105464364Y-120226686D01*
X105464366Y-120226697D01*
X105523258Y-120446488D01*
X105523261Y-120446497D01*
X105619431Y-120652732D01*
X105619432Y-120652734D01*
X105749954Y-120839141D01*
X105910858Y-121000045D01*
X105910861Y-121000047D01*
X106097266Y-121130568D01*
X106303504Y-121226739D01*
X106523308Y-121285635D01*
X106685230Y-121299801D01*
X106749998Y-121305468D01*
X106750000Y-121305468D01*
X106750002Y-121305468D01*
X106806673Y-121300509D01*
X106976692Y-121285635D01*
X107196496Y-121226739D01*
X107402734Y-121130568D01*
X107589139Y-121000047D01*
X107750047Y-120839139D01*
X107880568Y-120652734D01*
X107976739Y-120446496D01*
X108035635Y-120226692D01*
X108055468Y-120000000D01*
X108055468Y-119999998D01*
X112944532Y-119999998D01*
X112944532Y-120000001D01*
X112964364Y-120226686D01*
X112964366Y-120226697D01*
X113023258Y-120446488D01*
X113023261Y-120446497D01*
X113119431Y-120652732D01*
X113119432Y-120652734D01*
X113249954Y-120839141D01*
X113410858Y-121000045D01*
X113410861Y-121000047D01*
X113597266Y-121130568D01*
X113803504Y-121226739D01*
X114023308Y-121285635D01*
X114185230Y-121299801D01*
X114249998Y-121305468D01*
X114250000Y-121305468D01*
X114250002Y-121305468D01*
X114306673Y-121300509D01*
X114476692Y-121285635D01*
X114696496Y-121226739D01*
X114902734Y-121130568D01*
X115089139Y-121000047D01*
X115250047Y-120839139D01*
X115380118Y-120653375D01*
X115434693Y-120609752D01*
X115481692Y-120600500D01*
X118413331Y-120600500D01*
X118413347Y-120600501D01*
X118420943Y-120600501D01*
X118579054Y-120600501D01*
X118579057Y-120600501D01*
X118731785Y-120559577D01*
X118781904Y-120530639D01*
X118868716Y-120480520D01*
X118980520Y-120368716D01*
X118980520Y-120368714D01*
X118990728Y-120358507D01*
X118990728Y-120358505D01*
X119098119Y-120251115D01*
X119159441Y-120217632D01*
X119217891Y-120219022D01*
X119282023Y-120236207D01*
X119469787Y-120252633D01*
X119499998Y-120255277D01*
X119500000Y-120255277D01*
X119500002Y-120255277D01*
X119528254Y-120252805D01*
X119717977Y-120236207D01*
X119929330Y-120179575D01*
X120127639Y-120087102D01*
X120306877Y-119961598D01*
X120461598Y-119806877D01*
X120587102Y-119627639D01*
X120679575Y-119429330D01*
X120736207Y-119217977D01*
X120755277Y-119000000D01*
X120755086Y-118997821D01*
X120744026Y-118871401D01*
X120736207Y-118782023D01*
X120679575Y-118570670D01*
X120587102Y-118372362D01*
X120587100Y-118372359D01*
X120587099Y-118372357D01*
X120461599Y-118193124D01*
X120461596Y-118193121D01*
X120306877Y-118038402D01*
X120168978Y-117941844D01*
X120127638Y-117912897D01*
X120028484Y-117866661D01*
X119929330Y-117820425D01*
X119929326Y-117820424D01*
X119929322Y-117820422D01*
X119717977Y-117763793D01*
X119500002Y-117744723D01*
X119499998Y-117744723D01*
X119354682Y-117757436D01*
X119282023Y-117763793D01*
X119282020Y-117763793D01*
X119070677Y-117820422D01*
X119070668Y-117820426D01*
X118872361Y-117912898D01*
X118872357Y-117912900D01*
X118693121Y-118038402D01*
X118538402Y-118193121D01*
X118412900Y-118372357D01*
X118412898Y-118372361D01*
X118320426Y-118570668D01*
X118320422Y-118570677D01*
X118263793Y-118782020D01*
X118263793Y-118782024D01*
X118244723Y-118999997D01*
X118244723Y-119000002D01*
X118248091Y-119038495D01*
X118259948Y-119174032D01*
X118263793Y-119217975D01*
X118263793Y-119217979D01*
X118270607Y-119243407D01*
X118268944Y-119313257D01*
X118229781Y-119371119D01*
X118165553Y-119398623D01*
X118150832Y-119399500D01*
X115481692Y-119399500D01*
X115414653Y-119379815D01*
X115380119Y-119346625D01*
X115250047Y-119160861D01*
X115250045Y-119160858D01*
X115089141Y-118999954D01*
X114902734Y-118869432D01*
X114902732Y-118869431D01*
X114696497Y-118773261D01*
X114696488Y-118773258D01*
X114476697Y-118714366D01*
X114476693Y-118714365D01*
X114476692Y-118714365D01*
X114476691Y-118714364D01*
X114476686Y-118714364D01*
X114250002Y-118694532D01*
X114249998Y-118694532D01*
X114023313Y-118714364D01*
X114023302Y-118714366D01*
X113803511Y-118773258D01*
X113803502Y-118773261D01*
X113597267Y-118869431D01*
X113597265Y-118869432D01*
X113410858Y-118999954D01*
X113249954Y-119160858D01*
X113119432Y-119347265D01*
X113119431Y-119347267D01*
X113023261Y-119553502D01*
X113023258Y-119553511D01*
X112964366Y-119773302D01*
X112964364Y-119773313D01*
X112944532Y-119999998D01*
X108055468Y-119999998D01*
X108035635Y-119773308D01*
X107976739Y-119553504D01*
X107880568Y-119347266D01*
X107761929Y-119177830D01*
X107750045Y-119160858D01*
X107589141Y-118999954D01*
X107402734Y-118869432D01*
X107402732Y-118869431D01*
X107196497Y-118773261D01*
X107196488Y-118773258D01*
X106976697Y-118714366D01*
X106976693Y-118714365D01*
X106976692Y-118714365D01*
X106976691Y-118714364D01*
X106976686Y-118714364D01*
X106750002Y-118694532D01*
X106749998Y-118694532D01*
X106523313Y-118714364D01*
X106523302Y-118714366D01*
X106303511Y-118773258D01*
X106303502Y-118773261D01*
X106097267Y-118869431D01*
X106097265Y-118869432D01*
X105910858Y-118999954D01*
X105749954Y-119160858D01*
X105619432Y-119347265D01*
X105619431Y-119347267D01*
X105523261Y-119553502D01*
X105523258Y-119553511D01*
X105464366Y-119773302D01*
X105464364Y-119773313D01*
X105444532Y-119999998D01*
X103600500Y-119999998D01*
X103600500Y-115999998D01*
X105444532Y-115999998D01*
X105444532Y-116000001D01*
X105464364Y-116226686D01*
X105464366Y-116226697D01*
X105523258Y-116446488D01*
X105523261Y-116446497D01*
X105619431Y-116652732D01*
X105619432Y-116652734D01*
X105749954Y-116839141D01*
X105910858Y-117000045D01*
X105910861Y-117000047D01*
X106097266Y-117130568D01*
X106303504Y-117226739D01*
X106523308Y-117285635D01*
X106685230Y-117299801D01*
X106749998Y-117305468D01*
X106750000Y-117305468D01*
X106750002Y-117305468D01*
X106806673Y-117300509D01*
X106976692Y-117285635D01*
X107196496Y-117226739D01*
X107402734Y-117130568D01*
X107589139Y-117000047D01*
X107750047Y-116839139D01*
X107880568Y-116652734D01*
X107976739Y-116446496D01*
X108035635Y-116226692D01*
X108055468Y-116000000D01*
X108055468Y-115999998D01*
X112944532Y-115999998D01*
X112944532Y-116000001D01*
X112964364Y-116226686D01*
X112964366Y-116226697D01*
X113023258Y-116446488D01*
X113023261Y-116446497D01*
X113119431Y-116652732D01*
X113119432Y-116652734D01*
X113249954Y-116839141D01*
X113410858Y-117000045D01*
X113410861Y-117000047D01*
X113597266Y-117130568D01*
X113803504Y-117226739D01*
X114023308Y-117285635D01*
X114185230Y-117299801D01*
X114249998Y-117305468D01*
X114250000Y-117305468D01*
X114250002Y-117305468D01*
X114306673Y-117300509D01*
X114476692Y-117285635D01*
X114696496Y-117226739D01*
X114902734Y-117130568D01*
X115089139Y-117000047D01*
X115250047Y-116839139D01*
X115380568Y-116652734D01*
X115476739Y-116446496D01*
X115535635Y-116226692D01*
X115555468Y-116000000D01*
X115553874Y-115981785D01*
X115535635Y-115773313D01*
X115535635Y-115773308D01*
X115509847Y-115677066D01*
X115511510Y-115607217D01*
X115541939Y-115557294D01*
X116342416Y-114756819D01*
X116403739Y-114723334D01*
X116430097Y-114720500D01*
X118329345Y-114720500D01*
X118396384Y-114740185D01*
X118430917Y-114773373D01*
X118538402Y-114926877D01*
X118693123Y-115081598D01*
X118872361Y-115207102D01*
X119070670Y-115299575D01*
X119282023Y-115356207D01*
X119464926Y-115372208D01*
X119499998Y-115375277D01*
X119500000Y-115375277D01*
X119500002Y-115375277D01*
X119528254Y-115372805D01*
X119717977Y-115356207D01*
X119929330Y-115299575D01*
X120127639Y-115207102D01*
X120306877Y-115081598D01*
X120461598Y-114926877D01*
X120587102Y-114747639D01*
X120679575Y-114549330D01*
X120736207Y-114337977D01*
X120755277Y-114120000D01*
X120736207Y-113902023D01*
X120679575Y-113690670D01*
X120587102Y-113492362D01*
X120587100Y-113492359D01*
X120587099Y-113492357D01*
X120461599Y-113313124D01*
X120407617Y-113259142D01*
X120306877Y-113158402D01*
X120127639Y-113032898D01*
X120127640Y-113032898D01*
X120127638Y-113032897D01*
X119999575Y-112973181D01*
X119929330Y-112940425D01*
X119929326Y-112940424D01*
X119929322Y-112940422D01*
X119717977Y-112883793D01*
X119500002Y-112864723D01*
X119499998Y-112864723D01*
X119354682Y-112877436D01*
X119282023Y-112883793D01*
X119282020Y-112883793D01*
X119070677Y-112940422D01*
X119070668Y-112940426D01*
X118872361Y-113032898D01*
X118872357Y-113032900D01*
X118693121Y-113158402D01*
X118538402Y-113313121D01*
X118430920Y-113466623D01*
X118376343Y-113510248D01*
X118329345Y-113519500D01*
X116050939Y-113519500D01*
X116040029Y-113522423D01*
X116040030Y-113522424D01*
X115898214Y-113560423D01*
X115898209Y-113560426D01*
X115761290Y-113639475D01*
X115761282Y-113639481D01*
X115649478Y-113751286D01*
X114692705Y-114708058D01*
X114631382Y-114741543D01*
X114572931Y-114740152D01*
X114476697Y-114714366D01*
X114476693Y-114714365D01*
X114476692Y-114714365D01*
X114476691Y-114714364D01*
X114476686Y-114714364D01*
X114250002Y-114694532D01*
X114249998Y-114694532D01*
X114023313Y-114714364D01*
X114023302Y-114714366D01*
X113803511Y-114773258D01*
X113803502Y-114773261D01*
X113597267Y-114869431D01*
X113597265Y-114869432D01*
X113410858Y-114999954D01*
X113249954Y-115160858D01*
X113119432Y-115347265D01*
X113119431Y-115347267D01*
X113023261Y-115553502D01*
X113023258Y-115553511D01*
X112964366Y-115773302D01*
X112964364Y-115773313D01*
X112944532Y-115999998D01*
X108055468Y-115999998D01*
X108053874Y-115981785D01*
X108035635Y-115773313D01*
X108035635Y-115773308D01*
X107976739Y-115553504D01*
X107880568Y-115347266D01*
X107750047Y-115160861D01*
X107750045Y-115160858D01*
X107589141Y-114999954D01*
X107402734Y-114869432D01*
X107402732Y-114869431D01*
X107196497Y-114773261D01*
X107196488Y-114773258D01*
X106976697Y-114714366D01*
X106976693Y-114714365D01*
X106976692Y-114714365D01*
X106976691Y-114714364D01*
X106976686Y-114714364D01*
X106750002Y-114694532D01*
X106749998Y-114694532D01*
X106523313Y-114714364D01*
X106523302Y-114714366D01*
X106303511Y-114773258D01*
X106303502Y-114773261D01*
X106097267Y-114869431D01*
X106097265Y-114869432D01*
X105910858Y-114999954D01*
X105749954Y-115160858D01*
X105619432Y-115347265D01*
X105619431Y-115347267D01*
X105523261Y-115553502D01*
X105523258Y-115553511D01*
X105464366Y-115773302D01*
X105464364Y-115773313D01*
X105444532Y-115999998D01*
X103600500Y-115999998D01*
X103600500Y-105499997D01*
X118075034Y-105499997D01*
X118075034Y-105500002D01*
X118094858Y-105726599D01*
X118094860Y-105726610D01*
X118153730Y-105946317D01*
X118153735Y-105946331D01*
X118249863Y-106152478D01*
X118300974Y-106225472D01*
X118980000Y-105546446D01*
X118980000Y-105552661D01*
X119007259Y-105654394D01*
X119059920Y-105745606D01*
X119134394Y-105820080D01*
X119225606Y-105872741D01*
X119327339Y-105900000D01*
X119333553Y-105900000D01*
X118654526Y-106579025D01*
X118727513Y-106630132D01*
X118727521Y-106630136D01*
X118933668Y-106726264D01*
X118933682Y-106726269D01*
X119153389Y-106785139D01*
X119153400Y-106785141D01*
X119379998Y-106804966D01*
X119380002Y-106804966D01*
X119606599Y-106785141D01*
X119606610Y-106785139D01*
X119826317Y-106726269D01*
X119826331Y-106726264D01*
X120032478Y-106630136D01*
X120105471Y-106579024D01*
X119426447Y-105900000D01*
X119432661Y-105900000D01*
X119534394Y-105872741D01*
X119625606Y-105820080D01*
X119700080Y-105745606D01*
X119752741Y-105654394D01*
X119780000Y-105552661D01*
X119780000Y-105546447D01*
X120459024Y-106225471D01*
X120510136Y-106152478D01*
X120606264Y-105946331D01*
X120606269Y-105946317D01*
X120665139Y-105726610D01*
X120665141Y-105726599D01*
X120684966Y-105500002D01*
X120684966Y-105499998D01*
X125694532Y-105499998D01*
X125694532Y-105500001D01*
X125714364Y-105726686D01*
X125714366Y-105726697D01*
X125773258Y-105946488D01*
X125773261Y-105946497D01*
X125869431Y-106152732D01*
X125869432Y-106152734D01*
X125999954Y-106339141D01*
X126160858Y-106500045D01*
X126160861Y-106500047D01*
X126347266Y-106630568D01*
X126553504Y-106726739D01*
X126773308Y-106785635D01*
X126935230Y-106799801D01*
X126999998Y-106805468D01*
X127000000Y-106805468D01*
X127000002Y-106805468D01*
X127056673Y-106800509D01*
X127226692Y-106785635D01*
X127446496Y-106726739D01*
X127652734Y-106630568D01*
X127839139Y-106500047D01*
X128000047Y-106339139D01*
X128130568Y-106152734D01*
X128226739Y-105946496D01*
X128285635Y-105726692D01*
X128305468Y-105500000D01*
X128285635Y-105273308D01*
X128226739Y-105053504D01*
X128130568Y-104847266D01*
X128000047Y-104660861D01*
X128000045Y-104660858D01*
X127839141Y-104499954D01*
X127652734Y-104369432D01*
X127652732Y-104369431D01*
X127446497Y-104273261D01*
X127446488Y-104273258D01*
X127226697Y-104214366D01*
X127226693Y-104214365D01*
X127226692Y-104214365D01*
X127226691Y-104214364D01*
X127226686Y-104214364D01*
X127000002Y-104194532D01*
X126999998Y-104194532D01*
X126773313Y-104214364D01*
X126773302Y-104214366D01*
X126553511Y-104273258D01*
X126553502Y-104273261D01*
X126347267Y-104369431D01*
X126347265Y-104369432D01*
X126160858Y-104499954D01*
X125999954Y-104660858D01*
X125869432Y-104847265D01*
X125869431Y-104847267D01*
X125773261Y-105053502D01*
X125773258Y-105053511D01*
X125714366Y-105273302D01*
X125714364Y-105273313D01*
X125694532Y-105499998D01*
X120684966Y-105499998D01*
X120684966Y-105499997D01*
X120665141Y-105273400D01*
X120665139Y-105273389D01*
X120606269Y-105053682D01*
X120606264Y-105053668D01*
X120510136Y-104847521D01*
X120510132Y-104847513D01*
X120459025Y-104774526D01*
X119780000Y-105453551D01*
X119780000Y-105447339D01*
X119752741Y-105345606D01*
X119700080Y-105254394D01*
X119625606Y-105179920D01*
X119534394Y-105127259D01*
X119432661Y-105100000D01*
X119426448Y-105100000D01*
X120105472Y-104420974D01*
X120032478Y-104369863D01*
X119826331Y-104273735D01*
X119826317Y-104273730D01*
X119606610Y-104214860D01*
X119606599Y-104214858D01*
X119380002Y-104195034D01*
X119379998Y-104195034D01*
X119153400Y-104214858D01*
X119153389Y-104214860D01*
X118933682Y-104273730D01*
X118933673Y-104273734D01*
X118727516Y-104369866D01*
X118727512Y-104369868D01*
X118654526Y-104420973D01*
X118654526Y-104420974D01*
X119333553Y-105100000D01*
X119327339Y-105100000D01*
X119225606Y-105127259D01*
X119134394Y-105179920D01*
X119059920Y-105254394D01*
X119007259Y-105345606D01*
X118980000Y-105447339D01*
X118980000Y-105453552D01*
X118300974Y-104774526D01*
X118300973Y-104774526D01*
X118249868Y-104847512D01*
X118249866Y-104847516D01*
X118153734Y-105053673D01*
X118153730Y-105053682D01*
X118094860Y-105273389D01*
X118094858Y-105273400D01*
X118075034Y-105499997D01*
X103600500Y-105499997D01*
X103600500Y-99519992D01*
X112612171Y-99519992D01*
X112612171Y-99520007D01*
X112631464Y-99814363D01*
X112631465Y-99814373D01*
X112631466Y-99814380D01*
X112672262Y-100019480D01*
X112689018Y-100103716D01*
X112689021Y-100103730D01*
X112783849Y-100383080D01*
X112914325Y-100647660D01*
X113078225Y-100892955D01*
X113272741Y-101114758D01*
X113494544Y-101309274D01*
X113739832Y-101473170D01*
X113739835Y-101473172D01*
X114004423Y-101603652D01*
X114283778Y-101698481D01*
X114573120Y-101756034D01*
X114601388Y-101757886D01*
X114867493Y-101775329D01*
X114867500Y-101775329D01*
X114867507Y-101775329D01*
X115103175Y-101759881D01*
X115161880Y-101756034D01*
X115451222Y-101698481D01*
X115730577Y-101603652D01*
X115995165Y-101473172D01*
X116240457Y-101309273D01*
X116462258Y-101114758D01*
X116656773Y-100892957D01*
X116820672Y-100647665D01*
X116820672Y-100647663D01*
X116820675Y-100647660D01*
X116886760Y-100513650D01*
X116951152Y-100383077D01*
X117045981Y-100103722D01*
X117103534Y-99814380D01*
X117107381Y-99755675D01*
X117122829Y-99520007D01*
X117122829Y-99519992D01*
X117103535Y-99225636D01*
X117103534Y-99225620D01*
X117045981Y-98936278D01*
X116951152Y-98656923D01*
X116820672Y-98392336D01*
X116801191Y-98363181D01*
X116765542Y-98309829D01*
X116656773Y-98147043D01*
X116614155Y-98098447D01*
X116462258Y-97925241D01*
X116240455Y-97730725D01*
X115995167Y-97566829D01*
X115995160Y-97566825D01*
X115730580Y-97436349D01*
X115451230Y-97341521D01*
X115451224Y-97341519D01*
X115451222Y-97341519D01*
X115161880Y-97283966D01*
X115161873Y-97283965D01*
X115161863Y-97283964D01*
X114867507Y-97264671D01*
X114867493Y-97264671D01*
X114573136Y-97283964D01*
X114573124Y-97283965D01*
X114573120Y-97283966D01*
X114573112Y-97283967D01*
X114573109Y-97283968D01*
X114283783Y-97341518D01*
X114283769Y-97341521D01*
X114004419Y-97436349D01*
X113739834Y-97566828D01*
X113494541Y-97730728D01*
X113272741Y-97925241D01*
X113078228Y-98147041D01*
X112914328Y-98392334D01*
X112783849Y-98656919D01*
X112689021Y-98936269D01*
X112689018Y-98936283D01*
X112631468Y-99225609D01*
X112631464Y-99225636D01*
X112612171Y-99519992D01*
X103600500Y-99519992D01*
X103600500Y-96224993D01*
X124407200Y-96224993D01*
X124407200Y-96225006D01*
X124426364Y-96456297D01*
X124426366Y-96456308D01*
X124483342Y-96681300D01*
X124576575Y-96893848D01*
X124703516Y-97088147D01*
X124703519Y-97088151D01*
X124703521Y-97088153D01*
X124860716Y-97258913D01*
X124860719Y-97258915D01*
X124860722Y-97258918D01*
X125043865Y-97401464D01*
X125043871Y-97401468D01*
X125043874Y-97401470D01*
X125247997Y-97511936D01*
X125361987Y-97551068D01*
X125467515Y-97587297D01*
X125467517Y-97587297D01*
X125467519Y-97587298D01*
X125696451Y-97625500D01*
X125696452Y-97625500D01*
X125928548Y-97625500D01*
X125928549Y-97625500D01*
X126157481Y-97587298D01*
X126209397Y-97569474D01*
X126279193Y-97566324D01*
X126337340Y-97599075D01*
X132792639Y-104054374D01*
X132792649Y-104054385D01*
X132796979Y-104058715D01*
X132796980Y-104058716D01*
X132908784Y-104170520D01*
X132951245Y-104195034D01*
X132995595Y-104220639D01*
X132995597Y-104220641D01*
X133045713Y-104249576D01*
X133045715Y-104249577D01*
X133198442Y-104290500D01*
X133198443Y-104290500D01*
X135268308Y-104290500D01*
X135335347Y-104310185D01*
X135369880Y-104343374D01*
X135424215Y-104420973D01*
X135499954Y-104529141D01*
X135660858Y-104690045D01*
X135660861Y-104690047D01*
X135847266Y-104820568D01*
X136053504Y-104916739D01*
X136273308Y-104975635D01*
X136435230Y-104989801D01*
X136499998Y-104995468D01*
X136500000Y-104995468D01*
X136500002Y-104995468D01*
X136556673Y-104990509D01*
X136726692Y-104975635D01*
X136946496Y-104916739D01*
X137152734Y-104820568D01*
X137339139Y-104690047D01*
X137500047Y-104529139D01*
X137630568Y-104342734D01*
X137726739Y-104136496D01*
X137785635Y-103916692D01*
X137805468Y-103690000D01*
X137785635Y-103463308D01*
X137726739Y-103243504D01*
X137630568Y-103037266D01*
X137500047Y-102850861D01*
X137500045Y-102850858D01*
X137339141Y-102689954D01*
X137152734Y-102559432D01*
X137152732Y-102559431D01*
X136946497Y-102463261D01*
X136946488Y-102463258D01*
X136726697Y-102404366D01*
X136726693Y-102404365D01*
X136726692Y-102404365D01*
X136726691Y-102404364D01*
X136726686Y-102404364D01*
X136500002Y-102384532D01*
X136499998Y-102384532D01*
X136273313Y-102404364D01*
X136273302Y-102404366D01*
X136053511Y-102463258D01*
X136053502Y-102463261D01*
X135847267Y-102559431D01*
X135847265Y-102559432D01*
X135660858Y-102689954D01*
X135499954Y-102850858D01*
X135447713Y-102925468D01*
X135369881Y-103036624D01*
X135315307Y-103080248D01*
X135268308Y-103089500D01*
X133577597Y-103089500D01*
X133510558Y-103069815D01*
X133489916Y-103053181D01*
X128273915Y-97837180D01*
X128240430Y-97775857D01*
X128245414Y-97706165D01*
X128287286Y-97650232D01*
X128352750Y-97625815D01*
X128361596Y-97625499D01*
X129300371Y-97625499D01*
X129300372Y-97625499D01*
X129359983Y-97619091D01*
X129494831Y-97568796D01*
X129610046Y-97482546D01*
X129696296Y-97367331D01*
X129746591Y-97232483D01*
X129753000Y-97172873D01*
X129752999Y-96224993D01*
X131907200Y-96224993D01*
X131907200Y-96225006D01*
X131926364Y-96456297D01*
X131926366Y-96456308D01*
X131983342Y-96681300D01*
X132076575Y-96893848D01*
X132203516Y-97088147D01*
X132203519Y-97088151D01*
X132203521Y-97088153D01*
X132360716Y-97258913D01*
X132360719Y-97258915D01*
X132360722Y-97258918D01*
X132543865Y-97401464D01*
X132543871Y-97401468D01*
X132543874Y-97401470D01*
X132747997Y-97511936D01*
X132967519Y-97587298D01*
X133025012Y-97596891D01*
X133087896Y-97627340D01*
X133092284Y-97631519D01*
X138708058Y-103247293D01*
X138741543Y-103308616D01*
X138740152Y-103367067D01*
X138714366Y-103463302D01*
X138714364Y-103463313D01*
X138694532Y-103689998D01*
X138694532Y-103690001D01*
X138714364Y-103916686D01*
X138714366Y-103916697D01*
X138773258Y-104136488D01*
X138773261Y-104136497D01*
X138869431Y-104342732D01*
X138869432Y-104342734D01*
X138999954Y-104529141D01*
X139160858Y-104690045D01*
X139160861Y-104690047D01*
X139347266Y-104820568D01*
X139553504Y-104916739D01*
X139773308Y-104975635D01*
X139935230Y-104989801D01*
X139999998Y-104995468D01*
X140000000Y-104995468D01*
X140000002Y-104995468D01*
X140056673Y-104990509D01*
X140226692Y-104975635D01*
X140446496Y-104916739D01*
X140652734Y-104820568D01*
X140839139Y-104690047D01*
X141000047Y-104529139D01*
X141130568Y-104342734D01*
X141226739Y-104136496D01*
X141285635Y-103916692D01*
X141285635Y-103916684D01*
X141286513Y-103911708D01*
X141317533Y-103849102D01*
X141377476Y-103813206D01*
X141447311Y-103815415D01*
X141496312Y-103845547D01*
X141705139Y-104054374D01*
X141705149Y-104054385D01*
X141709479Y-104058715D01*
X141709480Y-104058716D01*
X141821284Y-104170520D01*
X141863745Y-104195034D01*
X141908095Y-104220639D01*
X141908097Y-104220641D01*
X141946151Y-104242611D01*
X141958215Y-104249577D01*
X142110943Y-104290500D01*
X142268308Y-104290500D01*
X142335347Y-104310185D01*
X142369880Y-104343374D01*
X142424215Y-104420973D01*
X142499954Y-104529141D01*
X142660858Y-104690045D01*
X142660861Y-104690047D01*
X142847266Y-104820568D01*
X143053504Y-104916739D01*
X143273308Y-104975635D01*
X143435230Y-104989801D01*
X143499998Y-104995468D01*
X143500000Y-104995468D01*
X143500002Y-104995468D01*
X143556673Y-104990509D01*
X143726692Y-104975635D01*
X143946496Y-104916739D01*
X144152734Y-104820568D01*
X144339139Y-104690047D01*
X144500047Y-104529139D01*
X144630568Y-104342734D01*
X144726739Y-104136496D01*
X144785635Y-103916692D01*
X144805468Y-103690000D01*
X144805468Y-103689998D01*
X145694532Y-103689998D01*
X145694532Y-103690001D01*
X145714364Y-103916686D01*
X145714366Y-103916697D01*
X145773258Y-104136488D01*
X145773261Y-104136497D01*
X145869431Y-104342732D01*
X145869432Y-104342734D01*
X145999954Y-104529141D01*
X146160858Y-104690045D01*
X146160861Y-104690047D01*
X146347266Y-104820568D01*
X146553504Y-104916739D01*
X146773308Y-104975635D01*
X146935230Y-104989801D01*
X146999998Y-104995468D01*
X147000000Y-104995468D01*
X147000002Y-104995468D01*
X147056673Y-104990509D01*
X147226692Y-104975635D01*
X147446496Y-104916739D01*
X147652734Y-104820568D01*
X147839139Y-104690047D01*
X148000047Y-104529139D01*
X148130568Y-104342734D01*
X148226739Y-104136496D01*
X148285635Y-103916692D01*
X148305468Y-103690000D01*
X148305468Y-103689998D01*
X149194532Y-103689998D01*
X149194532Y-103690001D01*
X149214364Y-103916686D01*
X149214366Y-103916697D01*
X149273258Y-104136488D01*
X149273261Y-104136497D01*
X149369431Y-104342732D01*
X149369432Y-104342734D01*
X149499954Y-104529141D01*
X149660858Y-104690045D01*
X149660861Y-104690047D01*
X149847266Y-104820568D01*
X150053504Y-104916739D01*
X150273308Y-104975635D01*
X150435230Y-104989801D01*
X150499998Y-104995468D01*
X150500000Y-104995468D01*
X150500002Y-104995468D01*
X150556673Y-104990509D01*
X150726692Y-104975635D01*
X150946496Y-104916739D01*
X151152734Y-104820568D01*
X151339139Y-104690047D01*
X151500047Y-104529139D01*
X151630568Y-104342734D01*
X151726739Y-104136496D01*
X151785635Y-103916692D01*
X151805468Y-103690000D01*
X151785635Y-103463308D01*
X151726739Y-103243504D01*
X151630568Y-103037266D01*
X151500047Y-102850861D01*
X151500045Y-102850858D01*
X151339140Y-102689953D01*
X151153377Y-102559881D01*
X151109752Y-102505304D01*
X151100500Y-102458306D01*
X151100500Y-101837597D01*
X151120185Y-101770558D01*
X151136819Y-101749916D01*
X153144588Y-99742147D01*
X155287661Y-97599073D01*
X155348982Y-97565590D01*
X155415602Y-97569474D01*
X155444571Y-97579420D01*
X155467518Y-97587298D01*
X155564193Y-97603430D01*
X155696451Y-97625500D01*
X155696452Y-97625500D01*
X155928548Y-97625500D01*
X155928549Y-97625500D01*
X156157481Y-97587298D01*
X156377003Y-97511936D01*
X156581126Y-97401470D01*
X156764284Y-97258913D01*
X156772630Y-97249846D01*
X156832510Y-97213854D01*
X156902349Y-97215949D01*
X156959968Y-97255469D01*
X156980044Y-97290491D01*
X157008703Y-97367330D01*
X157008706Y-97367335D01*
X157094952Y-97482544D01*
X157094955Y-97482547D01*
X157210164Y-97568793D01*
X157210171Y-97568797D01*
X157345017Y-97619091D01*
X157345016Y-97619091D01*
X157351944Y-97619835D01*
X157404627Y-97625500D01*
X159300372Y-97625499D01*
X159359983Y-97619091D01*
X159494831Y-97568796D01*
X159610046Y-97482546D01*
X159696296Y-97367331D01*
X159746591Y-97232483D01*
X159753000Y-97172873D01*
X159752999Y-95277128D01*
X159746591Y-95217517D01*
X159743787Y-95210000D01*
X159696297Y-95082671D01*
X159696293Y-95082664D01*
X159610047Y-94967455D01*
X159610044Y-94967452D01*
X159494835Y-94881206D01*
X159494828Y-94881202D01*
X159359982Y-94830908D01*
X159359983Y-94830908D01*
X159300383Y-94824501D01*
X159300381Y-94824500D01*
X159300373Y-94824500D01*
X159300364Y-94824500D01*
X157404629Y-94824500D01*
X157404623Y-94824501D01*
X157345016Y-94830908D01*
X157210171Y-94881202D01*
X157210164Y-94881206D01*
X157094955Y-94967452D01*
X157094952Y-94967455D01*
X157008706Y-95082664D01*
X157008703Y-95082670D01*
X156980044Y-95159508D01*
X156938172Y-95215441D01*
X156872708Y-95239858D01*
X156804435Y-95225006D01*
X156772635Y-95200158D01*
X156764284Y-95191087D01*
X156764278Y-95191082D01*
X156764277Y-95191081D01*
X156581134Y-95048535D01*
X156581128Y-95048531D01*
X156377004Y-94938064D01*
X156376995Y-94938061D01*
X156157484Y-94862702D01*
X155966950Y-94830908D01*
X155928549Y-94824500D01*
X155696451Y-94824500D01*
X155658050Y-94830908D01*
X155467515Y-94862702D01*
X155248004Y-94938061D01*
X155247995Y-94938064D01*
X155043871Y-95048531D01*
X155043865Y-95048535D01*
X154860722Y-95191081D01*
X154860719Y-95191084D01*
X154860716Y-95191086D01*
X154860716Y-95191087D01*
X154815819Y-95239858D01*
X154703516Y-95361852D01*
X154576575Y-95556151D01*
X154483342Y-95768699D01*
X154426366Y-95993691D01*
X154426364Y-95993702D01*
X154407200Y-96224993D01*
X154407200Y-96225006D01*
X154426364Y-96456297D01*
X154426366Y-96456309D01*
X154470819Y-96631848D01*
X154468194Y-96701668D01*
X154438294Y-96749969D01*
X150131286Y-101056978D01*
X150019481Y-101168782D01*
X150019475Y-101168790D01*
X149983107Y-101231783D01*
X149983107Y-101231785D01*
X149940423Y-101305714D01*
X149939469Y-101309274D01*
X149899499Y-101458443D01*
X149899499Y-101458445D01*
X149899499Y-101626546D01*
X149899500Y-101626559D01*
X149899500Y-102458306D01*
X149879815Y-102525345D01*
X149846623Y-102559881D01*
X149660859Y-102689953D01*
X149499954Y-102850858D01*
X149369432Y-103037265D01*
X149369431Y-103037267D01*
X149273261Y-103243502D01*
X149273258Y-103243511D01*
X149214366Y-103463302D01*
X149214364Y-103463313D01*
X149194532Y-103689998D01*
X148305468Y-103689998D01*
X148285635Y-103463308D01*
X148226739Y-103243504D01*
X148130568Y-103037266D01*
X148000047Y-102850861D01*
X148000045Y-102850858D01*
X147839140Y-102689953D01*
X147653377Y-102559881D01*
X147609752Y-102505304D01*
X147600500Y-102458306D01*
X147600500Y-97837596D01*
X147620185Y-97770557D01*
X147636810Y-97749924D01*
X147787661Y-97599072D01*
X147848981Y-97565590D01*
X147915602Y-97569474D01*
X147967519Y-97587298D01*
X148196451Y-97625500D01*
X148196452Y-97625500D01*
X148428548Y-97625500D01*
X148428549Y-97625500D01*
X148657481Y-97587298D01*
X148877003Y-97511936D01*
X149081126Y-97401470D01*
X149264284Y-97258913D01*
X149272630Y-97249846D01*
X149332510Y-97213854D01*
X149402349Y-97215949D01*
X149459968Y-97255469D01*
X149480044Y-97290491D01*
X149508703Y-97367330D01*
X149508706Y-97367335D01*
X149594952Y-97482544D01*
X149594955Y-97482547D01*
X149710164Y-97568793D01*
X149710171Y-97568797D01*
X149845017Y-97619091D01*
X149845016Y-97619091D01*
X149851944Y-97619835D01*
X149904627Y-97625500D01*
X151800372Y-97625499D01*
X151859983Y-97619091D01*
X151994831Y-97568796D01*
X152110046Y-97482546D01*
X152196296Y-97367331D01*
X152246591Y-97232483D01*
X152253000Y-97172873D01*
X152252999Y-95277128D01*
X152246591Y-95217517D01*
X152243787Y-95210000D01*
X152196297Y-95082671D01*
X152196293Y-95082664D01*
X152110047Y-94967455D01*
X152110044Y-94967452D01*
X151994835Y-94881206D01*
X151994828Y-94881202D01*
X151859982Y-94830908D01*
X151859983Y-94830908D01*
X151800383Y-94824501D01*
X151800381Y-94824500D01*
X151800373Y-94824500D01*
X151800364Y-94824500D01*
X149904629Y-94824500D01*
X149904623Y-94824501D01*
X149845016Y-94830908D01*
X149710171Y-94881202D01*
X149710164Y-94881206D01*
X149594955Y-94967452D01*
X149594952Y-94967455D01*
X149508706Y-95082664D01*
X149508703Y-95082670D01*
X149480044Y-95159508D01*
X149438172Y-95215441D01*
X149372708Y-95239858D01*
X149304435Y-95225006D01*
X149272635Y-95200158D01*
X149264284Y-95191087D01*
X149264278Y-95191082D01*
X149264277Y-95191081D01*
X149081134Y-95048535D01*
X149081128Y-95048531D01*
X148877004Y-94938064D01*
X148876995Y-94938061D01*
X148657484Y-94862702D01*
X148466950Y-94830908D01*
X148428549Y-94824500D01*
X148196451Y-94824500D01*
X148158050Y-94830908D01*
X147967515Y-94862702D01*
X147748004Y-94938061D01*
X147747995Y-94938064D01*
X147543871Y-95048531D01*
X147543865Y-95048535D01*
X147360722Y-95191081D01*
X147360719Y-95191084D01*
X147360716Y-95191086D01*
X147360716Y-95191087D01*
X147315819Y-95239858D01*
X147203516Y-95361852D01*
X147076575Y-95556151D01*
X146983342Y-95768699D01*
X146926366Y-95993691D01*
X146926364Y-95993702D01*
X146907200Y-96224993D01*
X146907200Y-96225006D01*
X146926364Y-96456297D01*
X146926366Y-96456309D01*
X146970819Y-96631848D01*
X146968194Y-96701668D01*
X146938294Y-96749969D01*
X146631286Y-97056978D01*
X146519481Y-97168782D01*
X146519479Y-97168785D01*
X146517119Y-97172873D01*
X146472678Y-97249849D01*
X146469361Y-97255594D01*
X146469359Y-97255596D01*
X146440425Y-97305709D01*
X146440424Y-97305710D01*
X146427951Y-97352260D01*
X146399499Y-97458443D01*
X146399499Y-97458445D01*
X146399499Y-97626546D01*
X146399500Y-97626559D01*
X146399500Y-102458306D01*
X146379815Y-102525345D01*
X146346623Y-102559881D01*
X146160859Y-102689953D01*
X145999954Y-102850858D01*
X145869432Y-103037265D01*
X145869431Y-103037267D01*
X145773261Y-103243502D01*
X145773258Y-103243511D01*
X145714366Y-103463302D01*
X145714364Y-103463313D01*
X145694532Y-103689998D01*
X144805468Y-103689998D01*
X144785635Y-103463308D01*
X144726739Y-103243504D01*
X144630568Y-103037266D01*
X144500047Y-102850861D01*
X144500045Y-102850858D01*
X144339141Y-102689954D01*
X144152734Y-102559432D01*
X144152732Y-102559431D01*
X143946497Y-102463261D01*
X143946488Y-102463258D01*
X143726697Y-102404366D01*
X143726693Y-102404365D01*
X143726692Y-102404365D01*
X143726691Y-102404364D01*
X143726686Y-102404364D01*
X143500002Y-102384532D01*
X143499998Y-102384532D01*
X143273313Y-102404364D01*
X143273302Y-102404366D01*
X143053511Y-102463258D01*
X143053502Y-102463261D01*
X142847267Y-102559431D01*
X142847265Y-102559432D01*
X142660862Y-102689951D01*
X142499949Y-102850865D01*
X142499946Y-102850868D01*
X142461221Y-102906174D01*
X142406644Y-102949799D01*
X142337146Y-102956991D01*
X142274791Y-102925468D01*
X142271966Y-102922731D01*
X141449319Y-102100084D01*
X141415834Y-102038761D01*
X141413000Y-102012403D01*
X141413000Y-97566343D01*
X141432685Y-97499304D01*
X141477983Y-97457288D01*
X141581126Y-97401470D01*
X141764284Y-97258913D01*
X141772630Y-97249846D01*
X141832510Y-97213854D01*
X141902349Y-97215949D01*
X141959968Y-97255469D01*
X141980044Y-97290491D01*
X142008703Y-97367330D01*
X142008706Y-97367335D01*
X142094952Y-97482544D01*
X142094955Y-97482547D01*
X142210164Y-97568793D01*
X142210171Y-97568797D01*
X142345017Y-97619091D01*
X142345016Y-97619091D01*
X142351944Y-97619835D01*
X142404627Y-97625500D01*
X144300372Y-97625499D01*
X144359983Y-97619091D01*
X144494831Y-97568796D01*
X144610046Y-97482546D01*
X144696296Y-97367331D01*
X144746591Y-97232483D01*
X144753000Y-97172873D01*
X144752999Y-95277128D01*
X144746591Y-95217517D01*
X144743787Y-95210000D01*
X144696297Y-95082671D01*
X144696293Y-95082664D01*
X144610047Y-94967455D01*
X144610044Y-94967452D01*
X144494835Y-94881206D01*
X144494828Y-94881202D01*
X144359982Y-94830908D01*
X144359983Y-94830908D01*
X144300383Y-94824501D01*
X144300381Y-94824500D01*
X144300373Y-94824500D01*
X144300364Y-94824500D01*
X142404629Y-94824500D01*
X142404623Y-94824501D01*
X142345016Y-94830908D01*
X142210171Y-94881202D01*
X142210164Y-94881206D01*
X142094955Y-94967452D01*
X142094952Y-94967455D01*
X142008706Y-95082664D01*
X142008703Y-95082670D01*
X141980044Y-95159508D01*
X141938172Y-95215441D01*
X141872708Y-95239858D01*
X141804435Y-95225006D01*
X141772635Y-95200158D01*
X141764284Y-95191087D01*
X141764278Y-95191082D01*
X141764277Y-95191081D01*
X141581134Y-95048535D01*
X141581128Y-95048531D01*
X141377004Y-94938064D01*
X141376995Y-94938061D01*
X141157484Y-94862702D01*
X140966950Y-94830908D01*
X140928549Y-94824500D01*
X140696451Y-94824500D01*
X140658050Y-94830908D01*
X140467515Y-94862702D01*
X140248004Y-94938061D01*
X140247995Y-94938064D01*
X140043871Y-95048531D01*
X140043865Y-95048535D01*
X139860722Y-95191081D01*
X139860719Y-95191084D01*
X139860716Y-95191086D01*
X139860716Y-95191087D01*
X139815819Y-95239858D01*
X139703516Y-95361852D01*
X139576575Y-95556151D01*
X139483342Y-95768699D01*
X139426366Y-95993691D01*
X139426364Y-95993702D01*
X139407200Y-96224993D01*
X139407200Y-96225006D01*
X139426364Y-96456297D01*
X139426366Y-96456308D01*
X139483342Y-96681300D01*
X139576575Y-96893848D01*
X139703516Y-97088147D01*
X139703519Y-97088151D01*
X139703521Y-97088153D01*
X139860716Y-97258913D01*
X139860719Y-97258915D01*
X139860722Y-97258918D01*
X140043865Y-97401464D01*
X140043876Y-97401471D01*
X140147017Y-97457288D01*
X140196608Y-97506507D01*
X140212000Y-97566343D01*
X140212000Y-102225830D01*
X140211999Y-102225848D01*
X140211999Y-102267757D01*
X140192314Y-102334796D01*
X140139510Y-102380551D01*
X140077192Y-102391285D01*
X140000002Y-102384532D01*
X139999998Y-102384532D01*
X139773313Y-102404364D01*
X139773302Y-102404366D01*
X139677067Y-102430152D01*
X139607217Y-102428489D01*
X139557293Y-102398058D01*
X134996415Y-97837180D01*
X134962930Y-97775857D01*
X134967914Y-97706165D01*
X135009786Y-97650232D01*
X135075250Y-97625815D01*
X135084070Y-97625499D01*
X136800372Y-97625499D01*
X136859983Y-97619091D01*
X136994831Y-97568796D01*
X137110046Y-97482546D01*
X137196296Y-97367331D01*
X137246591Y-97232483D01*
X137253000Y-97172873D01*
X137252999Y-95277128D01*
X137246591Y-95217517D01*
X137243787Y-95210000D01*
X137196297Y-95082671D01*
X137196293Y-95082664D01*
X137110047Y-94967455D01*
X137110044Y-94967452D01*
X136994835Y-94881206D01*
X136994828Y-94881202D01*
X136859982Y-94830908D01*
X136859983Y-94830908D01*
X136800383Y-94824501D01*
X136800381Y-94824500D01*
X136800373Y-94824500D01*
X136800364Y-94824500D01*
X134904629Y-94824500D01*
X134904623Y-94824501D01*
X134845016Y-94830908D01*
X134710171Y-94881202D01*
X134710164Y-94881206D01*
X134594955Y-94967452D01*
X134594952Y-94967455D01*
X134508706Y-95082664D01*
X134508703Y-95082670D01*
X134480044Y-95159508D01*
X134438172Y-95215441D01*
X134372708Y-95239858D01*
X134304435Y-95225006D01*
X134272635Y-95200158D01*
X134264284Y-95191087D01*
X134264278Y-95191082D01*
X134264277Y-95191081D01*
X134081134Y-95048535D01*
X134081128Y-95048531D01*
X133877004Y-94938064D01*
X133876995Y-94938061D01*
X133657484Y-94862702D01*
X133466950Y-94830908D01*
X133428549Y-94824500D01*
X133196451Y-94824500D01*
X133158050Y-94830908D01*
X132967515Y-94862702D01*
X132748004Y-94938061D01*
X132747995Y-94938064D01*
X132543871Y-95048531D01*
X132543865Y-95048535D01*
X132360722Y-95191081D01*
X132360719Y-95191084D01*
X132360716Y-95191086D01*
X132360716Y-95191087D01*
X132315819Y-95239858D01*
X132203516Y-95361852D01*
X132076575Y-95556151D01*
X131983342Y-95768699D01*
X131926366Y-95993691D01*
X131926364Y-95993702D01*
X131907200Y-96224993D01*
X129752999Y-96224993D01*
X129752999Y-95277128D01*
X129746591Y-95217517D01*
X129743787Y-95210000D01*
X129696297Y-95082671D01*
X129696293Y-95082664D01*
X129610047Y-94967455D01*
X129610044Y-94967452D01*
X129494835Y-94881206D01*
X129494828Y-94881202D01*
X129359982Y-94830908D01*
X129359983Y-94830908D01*
X129300383Y-94824501D01*
X129300381Y-94824500D01*
X129300373Y-94824500D01*
X129300364Y-94824500D01*
X127404629Y-94824500D01*
X127404623Y-94824501D01*
X127345016Y-94830908D01*
X127210171Y-94881202D01*
X127210164Y-94881206D01*
X127094955Y-94967452D01*
X127094952Y-94967455D01*
X127008706Y-95082664D01*
X127008703Y-95082670D01*
X126980044Y-95159508D01*
X126938172Y-95215441D01*
X126872708Y-95239858D01*
X126804435Y-95225006D01*
X126772635Y-95200158D01*
X126764284Y-95191087D01*
X126764278Y-95191082D01*
X126764277Y-95191081D01*
X126581134Y-95048535D01*
X126581128Y-95048531D01*
X126377004Y-94938064D01*
X126376995Y-94938061D01*
X126157484Y-94862702D01*
X125966950Y-94830908D01*
X125928549Y-94824500D01*
X125696451Y-94824500D01*
X125658050Y-94830908D01*
X125467515Y-94862702D01*
X125248004Y-94938061D01*
X125247995Y-94938064D01*
X125043871Y-95048531D01*
X125043865Y-95048535D01*
X124860722Y-95191081D01*
X124860719Y-95191084D01*
X124860716Y-95191086D01*
X124860716Y-95191087D01*
X124815819Y-95239858D01*
X124703516Y-95361852D01*
X124576575Y-95556151D01*
X124483342Y-95768699D01*
X124426366Y-95993691D01*
X124426364Y-95993702D01*
X124407200Y-96224993D01*
X103600500Y-96224993D01*
X103600500Y-92249999D01*
X116221841Y-92249999D01*
X116221841Y-92250000D01*
X116242436Y-92485403D01*
X116242438Y-92485413D01*
X116303594Y-92713655D01*
X116303596Y-92713659D01*
X116303597Y-92713663D01*
X116403465Y-92927830D01*
X116403467Y-92927834D01*
X116511781Y-93082521D01*
X116539001Y-93121396D01*
X116539006Y-93121402D01*
X116706097Y-93288493D01*
X116706103Y-93288498D01*
X116863095Y-93398425D01*
X116906720Y-93453002D01*
X116913914Y-93522500D01*
X116882391Y-93584855D01*
X116863095Y-93601575D01*
X116706097Y-93711505D01*
X116539005Y-93878597D01*
X116403465Y-94072169D01*
X116403464Y-94072171D01*
X116303598Y-94286335D01*
X116303594Y-94286344D01*
X116242438Y-94514586D01*
X116242436Y-94514596D01*
X116221841Y-94749999D01*
X116221841Y-94750000D01*
X116242436Y-94985403D01*
X116242438Y-94985413D01*
X116303594Y-95213655D01*
X116303596Y-95213659D01*
X116303597Y-95213663D01*
X116333192Y-95277129D01*
X116403465Y-95427830D01*
X116403467Y-95427834D01*
X116493316Y-95556151D01*
X116539005Y-95621401D01*
X116706099Y-95788495D01*
X116782635Y-95842086D01*
X116899665Y-95924032D01*
X116899667Y-95924033D01*
X116899670Y-95924035D01*
X117113837Y-96023903D01*
X117342092Y-96085063D01*
X117512819Y-96100000D01*
X117577499Y-96105659D01*
X117577500Y-96105659D01*
X117577501Y-96105659D01*
X117642181Y-96100000D01*
X117812908Y-96085063D01*
X118041163Y-96023903D01*
X118232444Y-95934707D01*
X118301522Y-95924215D01*
X118365306Y-95952735D01*
X118369346Y-95956467D01*
X118485406Y-96043350D01*
X118485413Y-96043354D01*
X118620120Y-96093596D01*
X118620127Y-96093598D01*
X118679655Y-96099999D01*
X118679672Y-96100000D01*
X119327500Y-96100000D01*
X119327500Y-95136823D01*
X119399947Y-95178651D01*
X119516940Y-95210000D01*
X119638060Y-95210000D01*
X119755053Y-95178651D01*
X119827500Y-95136823D01*
X119827500Y-96100000D01*
X120475328Y-96100000D01*
X120475344Y-96099999D01*
X120534872Y-96093598D01*
X120534879Y-96093596D01*
X120669586Y-96043354D01*
X120669593Y-96043350D01*
X120784687Y-95957190D01*
X120784690Y-95957187D01*
X120870850Y-95842093D01*
X120870854Y-95842086D01*
X120921096Y-95707379D01*
X120921098Y-95707372D01*
X120927499Y-95647844D01*
X120927500Y-95647827D01*
X120927500Y-95000000D01*
X119964324Y-95000000D01*
X120006151Y-94927553D01*
X120037500Y-94810560D01*
X120037500Y-94689440D01*
X120006151Y-94572447D01*
X119964324Y-94500000D01*
X120927500Y-94500000D01*
X120927500Y-93852172D01*
X120927499Y-93852155D01*
X120921098Y-93792627D01*
X120921096Y-93792620D01*
X120870854Y-93657913D01*
X120870850Y-93657906D01*
X120784690Y-93542812D01*
X120784687Y-93542809D01*
X120669593Y-93456649D01*
X120669586Y-93456645D01*
X120567162Y-93418444D01*
X120511228Y-93376573D01*
X120486811Y-93311109D01*
X120501662Y-93242836D01*
X120522808Y-93214587D01*
X120615995Y-93121401D01*
X120751535Y-92927830D01*
X120851403Y-92713663D01*
X120912563Y-92485408D01*
X120933159Y-92250000D01*
X120912563Y-92014592D01*
X120851403Y-91786337D01*
X120751535Y-91572171D01*
X120615995Y-91378599D01*
X120615994Y-91378597D01*
X120448902Y-91211506D01*
X120448895Y-91211501D01*
X120255334Y-91075967D01*
X120255330Y-91075965D01*
X120255328Y-91075964D01*
X120041163Y-90976097D01*
X120041159Y-90976096D01*
X120041155Y-90976094D01*
X119812913Y-90914938D01*
X119812903Y-90914936D01*
X119577501Y-90894341D01*
X119577499Y-90894341D01*
X119342096Y-90914936D01*
X119342086Y-90914938D01*
X119113844Y-90976094D01*
X119113835Y-90976098D01*
X118899671Y-91075964D01*
X118899669Y-91075965D01*
X118706096Y-91211506D01*
X118665179Y-91252423D01*
X118603856Y-91285908D01*
X118534164Y-91280922D01*
X118489818Y-91252422D01*
X118448902Y-91211506D01*
X118448895Y-91211501D01*
X118255334Y-91075967D01*
X118255330Y-91075965D01*
X118255328Y-91075964D01*
X118041163Y-90976097D01*
X118041159Y-90976096D01*
X118041155Y-90976094D01*
X117812913Y-90914938D01*
X117812903Y-90914936D01*
X117577501Y-90894341D01*
X117577499Y-90894341D01*
X117342096Y-90914936D01*
X117342086Y-90914938D01*
X117113844Y-90976094D01*
X117113835Y-90976098D01*
X116899671Y-91075964D01*
X116899669Y-91075965D01*
X116706097Y-91211505D01*
X116539005Y-91378597D01*
X116403465Y-91572169D01*
X116403464Y-91572171D01*
X116303598Y-91786335D01*
X116303594Y-91786344D01*
X116242438Y-92014586D01*
X116242436Y-92014596D01*
X116221841Y-92249999D01*
X103600500Y-92249999D01*
X103600500Y-87479992D01*
X112612171Y-87479992D01*
X112612171Y-87480007D01*
X112631464Y-87774363D01*
X112631465Y-87774373D01*
X112631466Y-87774380D01*
X112631468Y-87774390D01*
X112689018Y-88063716D01*
X112689021Y-88063730D01*
X112783849Y-88343080D01*
X112914325Y-88607660D01*
X112914329Y-88607667D01*
X113078225Y-88852955D01*
X113272741Y-89074758D01*
X113494543Y-89269273D01*
X113739835Y-89433172D01*
X114004423Y-89563652D01*
X114283778Y-89658481D01*
X114573120Y-89716034D01*
X114601388Y-89717886D01*
X114867493Y-89735329D01*
X114867500Y-89735329D01*
X114867507Y-89735329D01*
X115103175Y-89719881D01*
X115161880Y-89716034D01*
X115451222Y-89658481D01*
X115730577Y-89563652D01*
X115995165Y-89433172D01*
X116240457Y-89269273D01*
X116462258Y-89074758D01*
X116656773Y-88852957D01*
X116820672Y-88607665D01*
X116951152Y-88343077D01*
X117045981Y-88063722D01*
X117103534Y-87774380D01*
X117122829Y-87480000D01*
X117122829Y-87479992D01*
X117103535Y-87185636D01*
X117103534Y-87185620D01*
X117045981Y-86896278D01*
X116951152Y-86616923D01*
X116820672Y-86352336D01*
X116656773Y-86107043D01*
X116614155Y-86058447D01*
X116462258Y-85885241D01*
X116240455Y-85690725D01*
X115995167Y-85526829D01*
X115995160Y-85526825D01*
X115730580Y-85396349D01*
X115451230Y-85301521D01*
X115451224Y-85301519D01*
X115451222Y-85301519D01*
X115161880Y-85243966D01*
X115161873Y-85243965D01*
X115161863Y-85243964D01*
X114867507Y-85224671D01*
X114867493Y-85224671D01*
X114573136Y-85243964D01*
X114573124Y-85243965D01*
X114573120Y-85243966D01*
X114573112Y-85243967D01*
X114573109Y-85243968D01*
X114283783Y-85301518D01*
X114283769Y-85301521D01*
X114004419Y-85396349D01*
X113739834Y-85526828D01*
X113494541Y-85690728D01*
X113272741Y-85885241D01*
X113078228Y-86107041D01*
X112914328Y-86352334D01*
X112783849Y-86616919D01*
X112689021Y-86896269D01*
X112689018Y-86896283D01*
X112631468Y-87185609D01*
X112631464Y-87185636D01*
X112612171Y-87479992D01*
X103600500Y-87479992D01*
X103600500Y-83724500D01*
X103620185Y-83657461D01*
X103672989Y-83611706D01*
X103724500Y-83600500D01*
X182275500Y-83600500D01*
X182342539Y-83620185D01*
G37*
%TD.AperFunction*%
%TA.AperFunction,Conductor*%
G36*
X131291741Y-134318188D02*
G01*
X131337094Y-134253417D01*
X131337095Y-134253416D01*
X131397340Y-134124219D01*
X131443512Y-134071780D01*
X131510706Y-134052627D01*
X131577587Y-134072842D01*
X131622105Y-134124218D01*
X131682466Y-134253662D01*
X131682468Y-134253666D01*
X131809170Y-134434615D01*
X131809175Y-134434621D01*
X131965378Y-134590824D01*
X131965384Y-134590829D01*
X132146333Y-134717531D01*
X132146335Y-134717532D01*
X132146338Y-134717534D01*
X132346550Y-134810894D01*
X132559932Y-134868070D01*
X132717123Y-134881822D01*
X132779998Y-134887323D01*
X132780000Y-134887323D01*
X132780002Y-134887323D01*
X132835017Y-134882509D01*
X133000068Y-134868070D01*
X133213450Y-134810894D01*
X133413662Y-134717534D01*
X133594620Y-134590826D01*
X133750826Y-134434620D01*
X133877534Y-134253662D01*
X133937618Y-134124811D01*
X133983790Y-134072371D01*
X134050983Y-134053219D01*
X134117865Y-134073435D01*
X134162382Y-134124811D01*
X134222464Y-134253658D01*
X134222468Y-134253666D01*
X134349170Y-134434615D01*
X134349175Y-134434621D01*
X134505378Y-134590824D01*
X134505384Y-134590829D01*
X134686333Y-134717531D01*
X134686335Y-134717532D01*
X134686338Y-134717534D01*
X134886550Y-134810894D01*
X135099932Y-134868070D01*
X135257123Y-134881822D01*
X135319998Y-134887323D01*
X135320000Y-134887323D01*
X135320002Y-134887323D01*
X135375017Y-134882509D01*
X135540068Y-134868070D01*
X135753450Y-134810894D01*
X135953662Y-134717534D01*
X136134620Y-134590826D01*
X136290826Y-134434620D01*
X136417534Y-134253662D01*
X136477618Y-134124811D01*
X136523790Y-134072371D01*
X136590983Y-134053219D01*
X136657865Y-134073435D01*
X136702382Y-134124811D01*
X136762464Y-134253658D01*
X136762468Y-134253666D01*
X136889170Y-134434615D01*
X136889175Y-134434621D01*
X137045378Y-134590824D01*
X137045384Y-134590829D01*
X137226333Y-134717531D01*
X137226335Y-134717532D01*
X137226338Y-134717534D01*
X137426550Y-134810894D01*
X137639932Y-134868070D01*
X137797123Y-134881822D01*
X137859998Y-134887323D01*
X137860000Y-134887323D01*
X137860002Y-134887323D01*
X137915017Y-134882509D01*
X138080068Y-134868070D01*
X138293450Y-134810894D01*
X138493662Y-134717534D01*
X138674620Y-134590826D01*
X138830826Y-134434620D01*
X138957534Y-134253662D01*
X139017618Y-134124811D01*
X139063790Y-134072371D01*
X139130983Y-134053219D01*
X139197865Y-134073435D01*
X139242382Y-134124811D01*
X139302464Y-134253658D01*
X139302468Y-134253666D01*
X139429170Y-134434615D01*
X139429175Y-134434621D01*
X139585378Y-134590824D01*
X139585384Y-134590829D01*
X139766333Y-134717531D01*
X139766334Y-134717531D01*
X139766338Y-134717534D01*
X139827905Y-134746243D01*
X139880343Y-134792413D01*
X139899500Y-134858624D01*
X139899500Y-139913330D01*
X139899499Y-139913348D01*
X139899499Y-140079054D01*
X139899498Y-140079054D01*
X139899499Y-140079057D01*
X139923867Y-140170000D01*
X139942527Y-140239636D01*
X139940186Y-140240263D01*
X139946346Y-140297505D01*
X139915077Y-140359987D01*
X139854991Y-140395645D01*
X139824314Y-140399500D01*
X128300098Y-140399500D01*
X128233059Y-140379815D01*
X128212417Y-140363181D01*
X128136819Y-140287583D01*
X128103334Y-140226260D01*
X128100500Y-140199902D01*
X128100500Y-134905255D01*
X128120185Y-134838216D01*
X128172096Y-134792873D01*
X128333662Y-134717534D01*
X128514620Y-134590826D01*
X128670826Y-134434620D01*
X128797534Y-134253662D01*
X128857894Y-134124218D01*
X128904066Y-134071779D01*
X128971259Y-134052627D01*
X129038141Y-134072843D01*
X129082658Y-134124219D01*
X129142898Y-134253405D01*
X129142901Y-134253411D01*
X129188258Y-134318187D01*
X129188259Y-134318188D01*
X129859000Y-133647447D01*
X129859000Y-133670160D01*
X129884964Y-133767061D01*
X129935124Y-133853940D01*
X130006060Y-133924876D01*
X130092939Y-133975036D01*
X130189840Y-134001000D01*
X130212553Y-134001000D01*
X129541810Y-134671740D01*
X129606590Y-134717099D01*
X129606592Y-134717100D01*
X129806715Y-134810419D01*
X129806729Y-134810424D01*
X130020013Y-134867573D01*
X130020023Y-134867575D01*
X130239999Y-134886821D01*
X130240001Y-134886821D01*
X130459976Y-134867575D01*
X130459986Y-134867573D01*
X130673270Y-134810424D01*
X130673284Y-134810419D01*
X130873407Y-134717100D01*
X130873417Y-134717094D01*
X130938188Y-134671741D01*
X130267448Y-134001000D01*
X130290160Y-134001000D01*
X130387061Y-133975036D01*
X130473940Y-133924876D01*
X130544876Y-133853940D01*
X130595036Y-133767061D01*
X130621000Y-133670160D01*
X130621000Y-133647447D01*
X131291741Y-134318188D01*
G37*
%TD.AperFunction*%
%TA.AperFunction,Conductor*%
G36*
X136371741Y-126698188D02*
G01*
X136417094Y-126633417D01*
X136417095Y-126633416D01*
X136477340Y-126504219D01*
X136523512Y-126451780D01*
X136590706Y-126432627D01*
X136657587Y-126452842D01*
X136702105Y-126504218D01*
X136762466Y-126633662D01*
X136762468Y-126633666D01*
X136889170Y-126814615D01*
X136889175Y-126814621D01*
X137045378Y-126970824D01*
X137045384Y-126970829D01*
X137087043Y-126999999D01*
X137210676Y-127086567D01*
X137254301Y-127141144D01*
X137259328Y-127156048D01*
X137259499Y-127156686D01*
X137259499Y-127156687D01*
X137259984Y-127158498D01*
X137300423Y-127309417D01*
X137309385Y-127324938D01*
X137309386Y-127324939D01*
X137379477Y-127446342D01*
X137379481Y-127446347D01*
X137498349Y-127565215D01*
X137498355Y-127565220D01*
X142289634Y-132356499D01*
X142323119Y-132417822D01*
X142318135Y-132487514D01*
X142276263Y-132543447D01*
X142273077Y-132545755D01*
X142125375Y-132649177D01*
X141969175Y-132805377D01*
X141842466Y-132986338D01*
X141842465Y-132986340D01*
X141782382Y-133115189D01*
X141736209Y-133167628D01*
X141669016Y-133186780D01*
X141602135Y-133166564D01*
X141557618Y-133115189D01*
X141497651Y-132986590D01*
X141497534Y-132986339D01*
X141370826Y-132805380D01*
X141214620Y-132649174D01*
X141214616Y-132649171D01*
X141214615Y-132649170D01*
X141033666Y-132522468D01*
X141033662Y-132522466D01*
X140990334Y-132502262D01*
X140833450Y-132429106D01*
X140833447Y-132429105D01*
X140833445Y-132429104D01*
X140620070Y-132371930D01*
X140620062Y-132371929D01*
X140400002Y-132352677D01*
X140399998Y-132352677D01*
X140179937Y-132371929D01*
X140179929Y-132371930D01*
X139966554Y-132429104D01*
X139966548Y-132429107D01*
X139766340Y-132522465D01*
X139766338Y-132522466D01*
X139585377Y-132649175D01*
X139429175Y-132805377D01*
X139302466Y-132986338D01*
X139302465Y-132986340D01*
X139242382Y-133115189D01*
X139196209Y-133167628D01*
X139129016Y-133186780D01*
X139062135Y-133166564D01*
X139017618Y-133115189D01*
X138957651Y-132986590D01*
X138957534Y-132986339D01*
X138830826Y-132805380D01*
X138674620Y-132649174D01*
X138674616Y-132649171D01*
X138674615Y-132649170D01*
X138493666Y-132522468D01*
X138493662Y-132522466D01*
X138450334Y-132502262D01*
X138293450Y-132429106D01*
X138293447Y-132429105D01*
X138293445Y-132429104D01*
X138080070Y-132371930D01*
X138080062Y-132371929D01*
X137860002Y-132352677D01*
X137859998Y-132352677D01*
X137639937Y-132371929D01*
X137639929Y-132371930D01*
X137426554Y-132429104D01*
X137426548Y-132429107D01*
X137226340Y-132522465D01*
X137226338Y-132522466D01*
X137045377Y-132649175D01*
X136889175Y-132805377D01*
X136762466Y-132986338D01*
X136762465Y-132986340D01*
X136702382Y-133115189D01*
X136656209Y-133167628D01*
X136589016Y-133186780D01*
X136522135Y-133166564D01*
X136477618Y-133115189D01*
X136417651Y-132986590D01*
X136417534Y-132986339D01*
X136290826Y-132805380D01*
X136134620Y-132649174D01*
X136134616Y-132649171D01*
X136134615Y-132649170D01*
X135953666Y-132522468D01*
X135953662Y-132522466D01*
X135910334Y-132502262D01*
X135753450Y-132429106D01*
X135753447Y-132429105D01*
X135753445Y-132429104D01*
X135540070Y-132371930D01*
X135540062Y-132371929D01*
X135320002Y-132352677D01*
X135319998Y-132352677D01*
X135099937Y-132371929D01*
X135099929Y-132371930D01*
X134886554Y-132429104D01*
X134886548Y-132429107D01*
X134686340Y-132522465D01*
X134686338Y-132522466D01*
X134505377Y-132649175D01*
X134349175Y-132805377D01*
X134222466Y-132986338D01*
X134222465Y-132986340D01*
X134162382Y-133115189D01*
X134116209Y-133167628D01*
X134049016Y-133186780D01*
X133982135Y-133166564D01*
X133937618Y-133115189D01*
X133877651Y-132986590D01*
X133877534Y-132986339D01*
X133750826Y-132805380D01*
X133594620Y-132649174D01*
X133594616Y-132649171D01*
X133594615Y-132649170D01*
X133413666Y-132522468D01*
X133413662Y-132522466D01*
X133370334Y-132502262D01*
X133213450Y-132429106D01*
X133213447Y-132429105D01*
X133213445Y-132429104D01*
X133000070Y-132371930D01*
X133000062Y-132371929D01*
X132780002Y-132352677D01*
X132779998Y-132352677D01*
X132559937Y-132371929D01*
X132559929Y-132371930D01*
X132346554Y-132429104D01*
X132346548Y-132429107D01*
X132146340Y-132522465D01*
X132146338Y-132522466D01*
X131965377Y-132649175D01*
X131809175Y-132805377D01*
X131682467Y-132986337D01*
X131622105Y-133115782D01*
X131575932Y-133168221D01*
X131508738Y-133187372D01*
X131441857Y-133167156D01*
X131397341Y-133115780D01*
X131337098Y-132986589D01*
X131337097Y-132986587D01*
X131291741Y-132921811D01*
X131291740Y-132921810D01*
X130621000Y-133592551D01*
X130621000Y-133569840D01*
X130595036Y-133472939D01*
X130544876Y-133386060D01*
X130473940Y-133315124D01*
X130387061Y-133264964D01*
X130290160Y-133239000D01*
X130267448Y-133239000D01*
X130938188Y-132568259D01*
X130938187Y-132568258D01*
X130873411Y-132522901D01*
X130873405Y-132522898D01*
X130673284Y-132429580D01*
X130673270Y-132429575D01*
X130459986Y-132372426D01*
X130459976Y-132372424D01*
X130240001Y-132353179D01*
X130239999Y-132353179D01*
X130020023Y-132372424D01*
X130020013Y-132372426D01*
X129806729Y-132429575D01*
X129806720Y-132429579D01*
X129606590Y-132522901D01*
X129541811Y-132568258D01*
X130212553Y-133239000D01*
X130189840Y-133239000D01*
X130092939Y-133264964D01*
X130006060Y-133315124D01*
X129935124Y-133386060D01*
X129884964Y-133472939D01*
X129859000Y-133569840D01*
X129859000Y-133592553D01*
X129188258Y-132921811D01*
X129142901Y-132986590D01*
X129082658Y-133115781D01*
X129036485Y-133168220D01*
X128969292Y-133187372D01*
X128902411Y-133167156D01*
X128857894Y-133115781D01*
X128797651Y-132986590D01*
X128797534Y-132986339D01*
X128670826Y-132805380D01*
X128514620Y-132649174D01*
X128514616Y-132649171D01*
X128514615Y-132649170D01*
X128333666Y-132522468D01*
X128333662Y-132522466D01*
X128290334Y-132502262D01*
X128133450Y-132429106D01*
X128133447Y-132429105D01*
X128133445Y-132429104D01*
X127920070Y-132371930D01*
X127920062Y-132371929D01*
X127700002Y-132352677D01*
X127699998Y-132352677D01*
X127479937Y-132371929D01*
X127479929Y-132371930D01*
X127266554Y-132429104D01*
X127266548Y-132429107D01*
X127066340Y-132522465D01*
X127066338Y-132522466D01*
X126885377Y-132649175D01*
X126729175Y-132805377D01*
X126602466Y-132986338D01*
X126602465Y-132986340D01*
X126542382Y-133115189D01*
X126496209Y-133167628D01*
X126429016Y-133186780D01*
X126362135Y-133166564D01*
X126317618Y-133115189D01*
X126257651Y-132986590D01*
X126257534Y-132986339D01*
X126130826Y-132805380D01*
X125974620Y-132649174D01*
X125974616Y-132649171D01*
X125974615Y-132649170D01*
X125793666Y-132522468D01*
X125793662Y-132522466D01*
X125750334Y-132502262D01*
X125593450Y-132429106D01*
X125593447Y-132429105D01*
X125593445Y-132429104D01*
X125380070Y-132371930D01*
X125380062Y-132371929D01*
X125160002Y-132352677D01*
X125159998Y-132352677D01*
X124939937Y-132371929D01*
X124939929Y-132371930D01*
X124726554Y-132429104D01*
X124726548Y-132429107D01*
X124526340Y-132522465D01*
X124526338Y-132522466D01*
X124345377Y-132649175D01*
X124189175Y-132805377D01*
X124062466Y-132986338D01*
X124062465Y-132986340D01*
X124002382Y-133115189D01*
X123956209Y-133167628D01*
X123889016Y-133186780D01*
X123822135Y-133166564D01*
X123777618Y-133115189D01*
X123717651Y-132986590D01*
X123717534Y-132986339D01*
X123590826Y-132805380D01*
X123434620Y-132649174D01*
X123434616Y-132649171D01*
X123434615Y-132649170D01*
X123253666Y-132522468D01*
X123253662Y-132522466D01*
X123210334Y-132502262D01*
X123053450Y-132429106D01*
X123053447Y-132429105D01*
X123053445Y-132429104D01*
X122840070Y-132371930D01*
X122840062Y-132371929D01*
X122620002Y-132352677D01*
X122619998Y-132352677D01*
X122399937Y-132371929D01*
X122399929Y-132371930D01*
X122186554Y-132429104D01*
X122186548Y-132429107D01*
X121986340Y-132522465D01*
X121986338Y-132522466D01*
X121805377Y-132649175D01*
X121649175Y-132805377D01*
X121522466Y-132986338D01*
X121522465Y-132986340D01*
X121462382Y-133115189D01*
X121416209Y-133167628D01*
X121349016Y-133186780D01*
X121282135Y-133166564D01*
X121237618Y-133115189D01*
X121177651Y-132986590D01*
X121177534Y-132986339D01*
X121050826Y-132805380D01*
X120894620Y-132649174D01*
X120894616Y-132649171D01*
X120894615Y-132649170D01*
X120713666Y-132522468D01*
X120713662Y-132522466D01*
X120670334Y-132502262D01*
X120513450Y-132429106D01*
X120513447Y-132429105D01*
X120513445Y-132429104D01*
X120300070Y-132371930D01*
X120300062Y-132371929D01*
X120080002Y-132352677D01*
X120079998Y-132352677D01*
X119859937Y-132371929D01*
X119859929Y-132371930D01*
X119646554Y-132429104D01*
X119646548Y-132429107D01*
X119446340Y-132522465D01*
X119446338Y-132522466D01*
X119265377Y-132649175D01*
X119109175Y-132805377D01*
X118982466Y-132986338D01*
X118982465Y-132986340D01*
X118922382Y-133115189D01*
X118876209Y-133167628D01*
X118809016Y-133186780D01*
X118742135Y-133166564D01*
X118697618Y-133115189D01*
X118637651Y-132986590D01*
X118637534Y-132986339D01*
X118510826Y-132805380D01*
X118354620Y-132649174D01*
X118354616Y-132649171D01*
X118354615Y-132649170D01*
X118173666Y-132522468D01*
X118173662Y-132522466D01*
X118130334Y-132502262D01*
X117973450Y-132429106D01*
X117973447Y-132429105D01*
X117973445Y-132429104D01*
X117760070Y-132371930D01*
X117760062Y-132371929D01*
X117540002Y-132352677D01*
X117539998Y-132352677D01*
X117319937Y-132371929D01*
X117319929Y-132371930D01*
X117106554Y-132429104D01*
X117106548Y-132429107D01*
X116906340Y-132522465D01*
X116906338Y-132522466D01*
X116725377Y-132649175D01*
X116569175Y-132805377D01*
X116442466Y-132986338D01*
X116442465Y-132986340D01*
X116382382Y-133115189D01*
X116336209Y-133167628D01*
X116269016Y-133186780D01*
X116202135Y-133166564D01*
X116157618Y-133115189D01*
X116097651Y-132986590D01*
X116097534Y-132986339D01*
X115970826Y-132805380D01*
X115814620Y-132649174D01*
X115814616Y-132649171D01*
X115814615Y-132649170D01*
X115633666Y-132522468D01*
X115633662Y-132522466D01*
X115590334Y-132502262D01*
X115433450Y-132429106D01*
X115433447Y-132429105D01*
X115433445Y-132429104D01*
X115220070Y-132371930D01*
X115220062Y-132371929D01*
X115000002Y-132352677D01*
X114999998Y-132352677D01*
X114779937Y-132371929D01*
X114779929Y-132371930D01*
X114566554Y-132429104D01*
X114566548Y-132429107D01*
X114366340Y-132522465D01*
X114366338Y-132522466D01*
X114185377Y-132649175D01*
X114029175Y-132805377D01*
X113916271Y-132966623D01*
X113861694Y-133010248D01*
X113814696Y-133019500D01*
X113724500Y-133019500D01*
X113657461Y-132999815D01*
X113611706Y-132947011D01*
X113600500Y-132895500D01*
X113600500Y-126545420D01*
X113620185Y-126478381D01*
X113672989Y-126432626D01*
X113742147Y-126422682D01*
X113805703Y-126451707D01*
X113836882Y-126493016D01*
X113902464Y-126633658D01*
X113902468Y-126633666D01*
X114029170Y-126814615D01*
X114029175Y-126814621D01*
X114185378Y-126970824D01*
X114185384Y-126970829D01*
X114366333Y-127097531D01*
X114366335Y-127097532D01*
X114366338Y-127097534D01*
X114566550Y-127190894D01*
X114779932Y-127248070D01*
X114926743Y-127260914D01*
X114999998Y-127267323D01*
X115000000Y-127267323D01*
X115000002Y-127267323D01*
X115055017Y-127262509D01*
X115220068Y-127248070D01*
X115433450Y-127190894D01*
X115633662Y-127097534D01*
X115814620Y-126970826D01*
X115970826Y-126814620D01*
X116097534Y-126633662D01*
X116157618Y-126504811D01*
X116203790Y-126452371D01*
X116270983Y-126433219D01*
X116337865Y-126453435D01*
X116382382Y-126504811D01*
X116442464Y-126633658D01*
X116442468Y-126633666D01*
X116569170Y-126814615D01*
X116569175Y-126814621D01*
X116725378Y-126970824D01*
X116725384Y-126970829D01*
X116906333Y-127097531D01*
X116906335Y-127097532D01*
X116906338Y-127097534D01*
X117106550Y-127190894D01*
X117319932Y-127248070D01*
X117466743Y-127260914D01*
X117539998Y-127267323D01*
X117540000Y-127267323D01*
X117540002Y-127267323D01*
X117595017Y-127262509D01*
X117760068Y-127248070D01*
X117973450Y-127190894D01*
X118173662Y-127097534D01*
X118354620Y-126970826D01*
X118510826Y-126814620D01*
X118637534Y-126633662D01*
X118697618Y-126504811D01*
X118743790Y-126452371D01*
X118810983Y-126433219D01*
X118877865Y-126453435D01*
X118922382Y-126504811D01*
X118982464Y-126633658D01*
X118982468Y-126633666D01*
X119109170Y-126814615D01*
X119109175Y-126814621D01*
X119265378Y-126970824D01*
X119265384Y-126970829D01*
X119446333Y-127097531D01*
X119446335Y-127097532D01*
X119446338Y-127097534D01*
X119646550Y-127190894D01*
X119859932Y-127248070D01*
X120006743Y-127260914D01*
X120079998Y-127267323D01*
X120080000Y-127267323D01*
X120080002Y-127267323D01*
X120135017Y-127262509D01*
X120300068Y-127248070D01*
X120513450Y-127190894D01*
X120713662Y-127097534D01*
X120894620Y-126970826D01*
X121050826Y-126814620D01*
X121177534Y-126633662D01*
X121237618Y-126504811D01*
X121283790Y-126452371D01*
X121350983Y-126433219D01*
X121417865Y-126453435D01*
X121462382Y-126504811D01*
X121522464Y-126633658D01*
X121522468Y-126633666D01*
X121649170Y-126814615D01*
X121649175Y-126814621D01*
X121805378Y-126970824D01*
X121805384Y-126970829D01*
X121986333Y-127097531D01*
X121986335Y-127097532D01*
X121986338Y-127097534D01*
X122186550Y-127190894D01*
X122399932Y-127248070D01*
X122546743Y-127260914D01*
X122619998Y-127267323D01*
X122620000Y-127267323D01*
X122620002Y-127267323D01*
X122675017Y-127262509D01*
X122840068Y-127248070D01*
X123053450Y-127190894D01*
X123253662Y-127097534D01*
X123434620Y-126970826D01*
X123590826Y-126814620D01*
X123717534Y-126633662D01*
X123777618Y-126504811D01*
X123823790Y-126452371D01*
X123890983Y-126433219D01*
X123957865Y-126453435D01*
X124002382Y-126504811D01*
X124062464Y-126633658D01*
X124062468Y-126633666D01*
X124189170Y-126814615D01*
X124189175Y-126814621D01*
X124345378Y-126970824D01*
X124345384Y-126970829D01*
X124526333Y-127097531D01*
X124526335Y-127097532D01*
X124526338Y-127097534D01*
X124726550Y-127190894D01*
X124939932Y-127248070D01*
X125086743Y-127260914D01*
X125159998Y-127267323D01*
X125160000Y-127267323D01*
X125160002Y-127267323D01*
X125215017Y-127262509D01*
X125380068Y-127248070D01*
X125593450Y-127190894D01*
X125793662Y-127097534D01*
X125974620Y-126970826D01*
X126130826Y-126814620D01*
X126257534Y-126633662D01*
X126317618Y-126504811D01*
X126363790Y-126452371D01*
X126430983Y-126433219D01*
X126497865Y-126453435D01*
X126542382Y-126504811D01*
X126602464Y-126633658D01*
X126602468Y-126633666D01*
X126729170Y-126814615D01*
X126729175Y-126814621D01*
X126885378Y-126970824D01*
X126885384Y-126970829D01*
X127066333Y-127097531D01*
X127066335Y-127097532D01*
X127066338Y-127097534D01*
X127266550Y-127190894D01*
X127479932Y-127248070D01*
X127626743Y-127260914D01*
X127699998Y-127267323D01*
X127700000Y-127267323D01*
X127700002Y-127267323D01*
X127755017Y-127262509D01*
X127920068Y-127248070D01*
X128133450Y-127190894D01*
X128333662Y-127097534D01*
X128514620Y-126970826D01*
X128670826Y-126814620D01*
X128797534Y-126633662D01*
X128857618Y-126504811D01*
X128903790Y-126452371D01*
X128970983Y-126433219D01*
X129037865Y-126453435D01*
X129082382Y-126504811D01*
X129142464Y-126633658D01*
X129142468Y-126633666D01*
X129269170Y-126814615D01*
X129269175Y-126814621D01*
X129425378Y-126970824D01*
X129425384Y-126970829D01*
X129606333Y-127097531D01*
X129606335Y-127097532D01*
X129606338Y-127097534D01*
X129806550Y-127190894D01*
X130019932Y-127248070D01*
X130166743Y-127260914D01*
X130239998Y-127267323D01*
X130240000Y-127267323D01*
X130240002Y-127267323D01*
X130295017Y-127262509D01*
X130460068Y-127248070D01*
X130673450Y-127190894D01*
X130873662Y-127097534D01*
X131054620Y-126970826D01*
X131210826Y-126814620D01*
X131337534Y-126633662D01*
X131397618Y-126504811D01*
X131443790Y-126452371D01*
X131510983Y-126433219D01*
X131577865Y-126453435D01*
X131622382Y-126504811D01*
X131682464Y-126633658D01*
X131682468Y-126633666D01*
X131809170Y-126814615D01*
X131809175Y-126814621D01*
X131965378Y-126970824D01*
X131965384Y-126970829D01*
X132146333Y-127097531D01*
X132146335Y-127097532D01*
X132146338Y-127097534D01*
X132346550Y-127190894D01*
X132559932Y-127248070D01*
X132706743Y-127260914D01*
X132779998Y-127267323D01*
X132780000Y-127267323D01*
X132780002Y-127267323D01*
X132835017Y-127262509D01*
X133000068Y-127248070D01*
X133213450Y-127190894D01*
X133413662Y-127097534D01*
X133594620Y-126970826D01*
X133750826Y-126814620D01*
X133877534Y-126633662D01*
X133937894Y-126504218D01*
X133984066Y-126451779D01*
X134051259Y-126432627D01*
X134118141Y-126452843D01*
X134162658Y-126504219D01*
X134222898Y-126633405D01*
X134222901Y-126633411D01*
X134268258Y-126698187D01*
X134268259Y-126698188D01*
X134939000Y-126027447D01*
X134939000Y-126050160D01*
X134964964Y-126147061D01*
X135015124Y-126233940D01*
X135086060Y-126304876D01*
X135172939Y-126355036D01*
X135269840Y-126381000D01*
X135292553Y-126381000D01*
X134621810Y-127051740D01*
X134686590Y-127097099D01*
X134686592Y-127097100D01*
X134886715Y-127190419D01*
X134886729Y-127190424D01*
X135100013Y-127247573D01*
X135100023Y-127247575D01*
X135319999Y-127266821D01*
X135320001Y-127266821D01*
X135539976Y-127247575D01*
X135539986Y-127247573D01*
X135753270Y-127190424D01*
X135753284Y-127190419D01*
X135953407Y-127097100D01*
X135953417Y-127097094D01*
X136018188Y-127051741D01*
X135347448Y-126381000D01*
X135370160Y-126381000D01*
X135467061Y-126355036D01*
X135553940Y-126304876D01*
X135624876Y-126233940D01*
X135675036Y-126147061D01*
X135701000Y-126050160D01*
X135701000Y-126027447D01*
X136371741Y-126698188D01*
G37*
%TD.AperFunction*%
%TD*%
M02*
